<?xml version="1.0" standalone="no"?>
<!DOCTYPE svg PUBLIC "-//W3C//DTD SVG 1.1//EN" "http://www.w3.org/Graphics/SVG/1.1/DTD/svg11.dtd" >
<svg xmlns="http://www.w3.org/2000/svg" xmlns:xlink="http://www.w3.org/1999/xlink" version="1.1">
<metadata>
Created by FontForge 20190801 at Fri Apr  3 01:24:07 2020
 By www-data
</metadata>
<defs>
<font id="AntiqueSemiBold" horiz-adv-x="506" >
  <font-face 
    font-family="AntiqueSemiBold"
    font-weight="600"
    font-stretch="normal"
    units-per-em="1024"
    panose-1="0 0 0 0 0 0 0 0 0 0"
    ascent="819"
    descent="-205"
    x-height="443"
    cap-height="603"
    bbox="-63 -267 1094 871"
    underline-thickness="50"
    underline-position="-200"
    unicode-range="U+000D-F078"
  />
<missing-glyph horiz-adv-x="100" 
 />
    <glyph glyph-name=".notdef" horiz-adv-x="100" 
 />
    <glyph glyph-name="uni0000" horiz-adv-x="0" 
 />
    <glyph glyph-name="uni0000" horiz-adv-x="0" 
 />
    <glyph glyph-name="uni000D" unicode="&#xd;" horiz-adv-x="256" 
 />
    <glyph glyph-name="space" unicode=" " horiz-adv-x="244" 
 />
    <glyph glyph-name="exclam" unicode="!" horiz-adv-x="239" 
d="M61 536q-7 35 9 53.5t52 18.5q34 0 50 -18.5t11 -53.5q0 -46 -12 -126.5t-24 -137.5l-12 -58h-14q-7 25 -17 64t-26.5 125.5t-16.5 132.5zM127 -5q-35 0 -53.5 18.5t-18.5 53.5t18.5 53.5t53.5 18.5t54 -18.5t19 -53.5t-19 -53.5t-54 -18.5z" />
    <glyph glyph-name="quotedbl" unicode="&#x22;" horiz-adv-x="357" 
d="M194 603h128l-56 -260h-16zM92 343l-55 260h127l-55 -260h-17z" />
    <glyph glyph-name="numbersign" unicode="#" 
d="M133 161h-120l11 78h121l19 126h-117l11 77h118l25 162h38l-25 -162h122l25 162h39l-25 -162h115l-10 -77h-117l-19 -126h107l-11 -78h-108l-25 -161h-39l25 161h-122l-25 -161h-38zM183 239h122l19 126h-122z" />
    <glyph glyph-name="dollar" unicode="$" horiz-adv-x="481" 
d="M182 -2q-91 12 -146 58h1l4 71h4q1 -2 3 -7t3 -7q32 -68 128 -88l3 -1v247q-68 23 -104.5 63.5t-36.5 92.5q0 72 36.5 117t105.5 59v75h34v-71q31 2 46 0v71h34v-77q57 -14 105 -54l-10 -12l11 12l-4 -70h-4q-1 2 -3 7t-3 7q-27 57 -92 82q0 -151 -1 -243
q70 -25 107 -67.5t37 -96.5q0 -68 -37 -110.5t-107 -55.5v-75h-34v71q-15 -1 -46 -1v-70h-34v73zM183 576q-74 -23 -76 -110q0 -51 76 -91v201zM296 27q76 23 76 99q0 56 -76 99v-198zM216 358q9 -3 25 -9t21 -8q1 93 1 241q-21 4 -46 1q0 -138 -1 -225zM216 260v-240
q24 -2 46 0v222q-12 6 -46 18z" />
    <glyph glyph-name="percent" unicode="%" horiz-adv-x="775" 
d="M608 -5q-75 0 -115.5 46t-40.5 132q0 91 40.5 140.5t115.5 49.5q77 0 118 -45.5t41 -130.5q0 -92 -41.5 -142t-117.5 -50zM27 514q0 91 39 140t110 49t109 -45.5t38 -129.5q0 -93 -38 -143t-109 -50t-110 46.5t-38 132.5h-1zM154 14l455 699l44 -29l-455 -698zM594 334
q-44 0 -44 -141q0 -165 67 -165q56 0 56 125q0 87 -20.5 134t-58.5 47zM125 533q0 -79 15.5 -122.5t44.5 -43.5q44 0 44 126q0 181 -67 181q-37 0 -37 -141z" />
    <glyph glyph-name="ampersand" unicode="&#x26;" horiz-adv-x="694" 
d="M247 -5q-97 0 -149 37t-52 106q0 53 42.5 98.5t122.5 78.5q-56 86 -56 141l77 44q0 -52 66 -147q73 34 73 140q0 45 -19.5 69.5t-56.5 24.5q-64 0 -64 -87l-77 -44q0 73 38.5 112.5t108.5 39.5t108.5 -28.5t38.5 -81.5q0 -59 -36 -100.5t-102 -60.5q86 -118 191 -226
q18 27 18 63v27q0 41 -5 54.5t-22 13.5v5h76v-5q-17 0 -22 -13.5t-5 -54.5v-27q0 -45 -22 -81q82 -82 135 -82q13 0 45 6v-17q-78 -14 -106 -14q-68 0 -136 51q-78 -42 -210 -42zM223 298q-82 -46 -82 -122q0 -65 42 -100.5t119 -35.5q74 0 128 19q-113 98 -207 239z" />
    <glyph glyph-name="quotesingle" unicode="'" horiz-adv-x="199" 
d="M36 603h127l-55 -260h-17z" />
    <glyph glyph-name="parenleft" unicode="(" horiz-adv-x="247" 
d="M57 233q0 136 41.5 223.5t131.5 176.5l12 -12q-56 -55 -82 -138.5t-26 -249.5q0 -165 26 -248.5t82 -138.5l-12 -12q-90 89 -131.5 176.5t-41.5 222.5z" />
    <glyph glyph-name="parenright" unicode=")" horiz-adv-x="247" 
d="M-6 621l12 12q90 -89 131.5 -176.5t41.5 -222.5q0 -136 -41.5 -223.5t-131.5 -176.5l-12 12q56 55 82 138.5t26 249.5q0 165 -26 248.5t-82 138.5z" />
    <glyph glyph-name="asterisk" unicode="*" horiz-adv-x="296" 
d="M28 516q-35 11 -16 44q10 19 25 19q11 0 21 -9v-1l83 -77l-25 111q-8 35 30 35q39 0 31 -35l-26 -111l84 78l31 -54l-109 -33l108 -33l-31 -54l-83 77l26 -110q8 -35 -31 -35q-38 0 -30 35l25 110l-83 -76h1q-11 -9 -21 -9q-15 0 -25 17q-20 34 14 45q16 5 34 10.5t40 12
t34 10.5l-108 34zM236 396v1l30 53q35 -11 15 -45q-11 -18 -25 -18q-10 0 -20 9zM267 517l-31 54q10 9 21 9q15 0 25 -19q19 -33 -15 -44z" />
    <glyph glyph-name="plus" unicode="+" 
d="M224 202h-153v44h153v156h49v-156h153v-44h-153v-155h-49v155z" />
    <glyph glyph-name="comma" unicode="," horiz-adv-x="259" 
d="M56 67q0 35 19 53.5t53 18.5q42 0 63.5 -29.5t21.5 -73.5q0 -67 -34.5 -118.5t-97.5 -78.5v16q73 31 73 132q0 10 -2 26q-14 -18 -24 -18q-34 0 -53 18.5t-19 53.5z" />
    <glyph glyph-name="hyphen" unicode="-" horiz-adv-x="249" 
d="M16 163v77h217v-77h-217z" />
    <glyph glyph-name="period" unicode="." horiz-adv-x="253" 
d="M53 67q0 35 18.5 53.5t53.5 18.5t53.5 -18.5t18.5 -53.5t-18.5 -53.5t-53.5 -18.5t-53.5 18.5t-18.5 53.5z" />
    <glyph glyph-name="slash" unicode="/" horiz-adv-x="350" 
d="M-4 -161l311 814h44l-310 -814h-45z" />
    <glyph glyph-name="zero" unicode="0" horiz-adv-x="527" 
d="M264 -5q-105 0 -161.5 59t-56.5 168t56.5 167.5t161.5 58.5q104 0 160.5 -58.5t56.5 -167.5t-56.5 -168t-160.5 -59zM157 222q0 -98 28 -151.5t79 -53.5t78.5 53.5t27.5 151.5t-27.5 151t-78.5 53t-79 -53t-28 -151z" />
    <glyph glyph-name="one" unicode="1" horiz-adv-x="256" 
d="M51 438v5h154v-5q-17 0 -22 -13.5t-5 -54.5v-297q0 -41 5 -54.5t22 -13.5v-5h-154v5q17 0 22 13.5t5 54.5v297q0 41 -5 54.5t-22 13.5z" />
    <glyph glyph-name="two" unicode="2" horiz-adv-x="456" 
d="M21 22q34 19 82 43.5t72 36.5t53 32t42 38t22.5 45.5t9.5 62.5q0 45 -24.5 69.5t-70.5 24.5q-96 0 -129 -80l-12 8q29 70 78.5 108t112.5 38q75 0 115.5 -35t40.5 -99q0 -67 -46 -110.5t-159 -103.5h146q39 0 53 4.5t17 18.5v4h5q-1 -5 -1 -14t-1 -13h1l-7 -100h-400v22z
" />
    <glyph glyph-name="three" unicode="3" horiz-adv-x="439" 
d="M17 311l-12 8q37 62 93 95.5t121 33.5q68 0 104.5 -32.5t36.5 -92.5q0 -85 -150 -158q89 -8 136 -48.5t47 -110.5q0 -107 -97 -170.5t-276 -73.5l-1 15q129 7 198.5 65t69.5 158q0 61 -40.5 94t-115.5 33q-17 0 -53 -12v17q11 4 53 19q129 56 129 139q0 41 -24 63t-68 22
q-112 0 -151 -64z" />
    <glyph glyph-name="four" unicode="4" horiz-adv-x="452" 
d="M247 0h-242v16q301 419 325 432h17v-404h99v-44h-99v-166h-100v166zM60 44h187v243q0 7 1 11q-95 -124 -188 -254z" />
    <glyph glyph-name="five" unicode="5" horiz-adv-x="424" 
d="M27 -202l-1 18q121 5 186.5 59t65.5 148q0 62 -46 95.5t-131 33.5h-40q18 198 18 291h215q41 0 55 5t19 22h5q-1 -5 -3.5 -14t-3.5 -13h1l-27 -105h-236q-3 -40 -8 -87h56q109 0 167.5 -51t58.5 -145q0 -116 -91 -183t-260 -74zM86 152q1 0 3 23z" />
    <glyph glyph-name="six" unicode="6" horiz-adv-x="541" 
d="M54 261q0 200 108 312.5t307 119.5h1l1 -16q-142 -5 -220.5 -102.5t-80.5 -272.5q40 80 135 80q92 0 141.5 -49.5t49.5 -140.5q5 -94 -53 -145.5t-171 -51.5q-105 0 -161.5 69t-56.5 197zM169 220q-1 -18 -1 -54q0 -69 30 -106t85 -37t83 42.5t24 120.5q0 81 -26 124.5
t-75 43.5q-98 0 -120 -134z" />
    <glyph glyph-name="seven" unicode="7" horiz-adv-x="414" 
d="M22 314h-5q1 4 1 13t1 14l7 102h374l8 -10q-32 -98 -96.5 -294t-96.5 -294h-111l257 496h-270q-41 0 -55 -5t-14 -22z" />
    <glyph glyph-name="eight" unicode="8" horiz-adv-x="512" 
d="M49 147q0 115 118 145q-89 58 -89 155q0 77 46.5 119t132.5 42t132 -34.5t45 -98.5l-83 -17q0 62 -26 95.5t-74 33.5q-89 0 -91 -101q0 -44 28.5 -78.5t80.5 -53.5q22 -7 49 -20q34 32 34 124l83 17q0 -112 -100 -150q131 -66 131 -161q0 -81 -54 -125t-154 -44
t-154.5 39.5t-54.5 112.5zM49 147h2l94 16q0 -70 31 -108t89 -38q52 0 80.5 29.5t28.5 83.5q0 37 -36 70t-102 57q-20 7 -48 22q-45 -33 -45 -116z" />
    <glyph glyph-name="nine" unicode="9" horiz-adv-x="541" 
d="M47 251q-5 94 53 145.5t171 51.5q105 0 161.5 -69t55.5 -197q0 -200 -107 -312.5t-306 -119.5h-2h2l-1 16q143 5 221 103t79 273q-42 -81 -135 -81l16 28q91 0 120 118q0 12 0.5 35.5t0.5 34.5q0 69 -30 106t-85 37t-83 -42.5t-25 -120.5q0 -81 26 -124.5t75 -43.5
l-16 -28q-92 0 -141.5 49.5t-49.5 140.5z" />
    <glyph glyph-name="colon" unicode=":" horiz-adv-x="253" 
d="M125 365q-35 0 -53.5 18.5t-18.5 53.5t18.5 54t53.5 19t53.5 -19t18.5 -54t-18.5 -53.5t-53.5 -18.5zM53 67q0 35 18.5 53.5t53.5 18.5t53.5 -18.5t18.5 -53.5t-18.5 -53.5t-53.5 -18.5t-53.5 18.5t-18.5 53.5z" />
    <glyph glyph-name="semicolon" unicode=";" horiz-adv-x="259" 
d="M128 -5q-34 0 -53 18.5t-19 53.5t19 53.5t53 18.5q42 0 63.5 -29.5t21.5 -73.5q0 -67 -34.5 -118.5t-97.5 -78.5v16q73 31 73 132q0 10 -2 26q-14 -18 -24 -18zM128 365q-34 0 -53 18.5t-19 53.5t19 53.5t53 18.5t53 -18.5t19 -53.5t-19 -53.5t-53 -18.5z" />
    <glyph glyph-name="less" unicode="&#x3c;" horiz-adv-x="512" 
d="M36 272q2 0 5 2t5 2l395 167v-50l-357 -146l357 -147v-50l-405 172v50z" />
    <glyph glyph-name="equal" unicode="=" horiz-adv-x="507" 
d="M82 194h359v-45h-359v45zM441 249h-359v45h359v-45z" />
    <glyph glyph-name="greater" unicode="&#x3e;" horiz-adv-x="501" 
d="M417 247l-346 146v50l383 -167q2 0 5.5 -2.5t5.5 -2.5v-48q-74 -34 -212 -94t-182 -79v50z" />
    <glyph glyph-name="question" unicode="?" horiz-adv-x="343" 
d="M35 544q0 31 20 47.5t57 16.5q96 0 148.5 -58.5t51.5 -166.5q0 -115 -131 -115h-35l-10 -55h-13l-22 116q-3 15 13 15h35q141 0 141 50q0 65 -38 100.5t-109 35.5q-11 0 -33 -15t-32 -15q-43 0 -43 42v2zM58 67q0 35 19 53.5t53 18.5t53 -18.5t19 -53.5t-19 -53.5
t-53 -18.5t-53 18.5t-19 53.5z" />
    <glyph glyph-name="at" unicode="@" horiz-adv-x="1130" 
d="M586 -263q-255 0 -393.5 128.5t-138.5 365.5t133.5 365t380.5 128q246 0 379.5 -109t132.5 -311q0 -158 -70.5 -244t-200.5 -86q-82 0 -127.5 32t-51.5 94q-62 -94 -183 -94q-82 0 -126.5 42t-44.5 119q0 128 77 197.5t219 69.5q94 0 117 -67l17 58h95l-64 -225
q-26 -92 -2.5 -141.5t92.5 -49.5q85 0 130.5 76.5t45.5 218.5q0 188 -113.5 290t-322.5 102q-210 0 -323.5 -120.5t-114.5 -344.5q0 -224 118.5 -345t336.5 -121q150 0 259.5 61t162.5 174h35q-59 -126 -177 -194.5t-278 -68.5zM385 187q0 -61 29.5 -93.5t83.5 -32.5
q47 0 83 31.5t56 89.5q1 3 2.5 9t2.5 9l33 116q-1 44 -28 67.5t-77 23.5q-89 0 -137 -57t-48 -163z" />
    <glyph glyph-name="A" unicode="A" horiz-adv-x="573" 
d="M95 0h-96v5q17 0 27 13.5t25 54.5q41 106 115 305.5t89 238.5h24l234 -544q20 -45 28.5 -56.5t24.5 -11.5v-5h-164v5q21 0 22.5 13.5t-15.5 54.5q-7 18 -54 133h-224l-43 -118q-17 -47 -16.5 -64t18.5 -19h5v-5zM236 498l-97 -268h206z" />
    <glyph glyph-name="B" unicode="B" horiz-adv-x="554" 
d="M38 0v5q13 0 18.5 8t7.5 29l1 520q-1 21 -6.5 28.5t-19.5 7.5v5h231q104 0 160 -38.5t55 -109.5q0 -54 -35 -90t-101 -50q92 -11 141 -50.5t49 -102.5q0 -78 -64 -120t-182 -42h-131v28h119q75 0 116 35t41 99q0 65 -51.5 100t-146.5 35h-78v25h86q67 0 103.5 34.5
t36.5 98.5q0 58 -31 89t-88 31h-107l-1 -575h-123z" />
    <glyph glyph-name="C" unicode="C" horiz-adv-x="690" 
d="M392 -5q-160 0 -247.5 80t-87.5 227t87 226.5t248 79.5q157 0 243 -72l-3 -64h-5l-6 15q-28 63 -122 85v1q-52 11 -107 11q-109 0 -168.5 -73.5t-59.5 -208.5q0 -136 59.5 -209.5t168.5 -73.5q83 0 145 25.5t83 72.5l6 15h5l3 -64l1 -1q-86 -72 -243 -72z" />
    <glyph glyph-name="D" unicode="D" horiz-adv-x="650" 
d="M292 0h-256v5q17 0 22 13.5t5 54.5q0 327 1 475q-1 29 -6.5 39.5t-20.5 10.5v5h222q166 0 255.5 -78t89.5 -223t-81 -223.5t-231 -78.5zM161 575v-547h131q103 0 159 71.5t56 202.5t-64.5 202t-183.5 71h-98z" />
    <glyph glyph-name="E" unicode="E" 
d="M39 0v5q17 0 22 13.5t5 54.5q0 327 1 475q-1 29 -6.5 39.5t-20.5 10.5v5h403l-1 -12h1q-1 -9 -2 -30t-1 -30h-4q-12 29 -35.5 38.5t-86.5 9.5h-151v-256h111q54 0 72.5 5t26.5 22h4v-82h-4q-8 19 -26.5 25t-72.5 6h-111v-275h158q63 0 88.5 9.5t42.5 38.5h4
q-2 -10 -5 -30.5t-4 -29.5h1l-2 -12h-407z" />
    <glyph glyph-name="F" unicode="F" horiz-adv-x="469" 
d="M199 0h-160v5q17 0 22 13.5t5 54.5q0 327 1 475q-1 29 -6.5 39.5t-20.5 10.5v5h433l1 -12h-1q-1 -9 -2 -30t-1 -30h-4q-12 29 -35.5 38.5t-86.5 9.5h-181v-260h101q54 0 72.5 5t26.5 22h4v-82h-4q-8 19 -26.5 25t-72.5 6h-101v-250q2 -24 10 -32t26 -8v-5z" />
    <glyph glyph-name="G" unicode="G" horiz-adv-x="724" 
d="M372 -5q-155 0 -239.5 80t-84.5 227t84.5 226.5t239.5 79.5q148 0 234 -72l-3 -64h-5l-6 15q-22 48 -81.5 72.5t-138.5 24.5q-105 0 -161.5 -73.5t-56.5 -208.5q0 -136 56.5 -209.5t161.5 -73.5q79 0 151 23v168q0 41 -5 54.5t-22 13.5v5h141v-5q-17 0 -22 -13.5
t-5 -54.5v-154l1 -1q-106 -60 -239 -60z" />
    <glyph glyph-name="H" unicode="H" horiz-adv-x="659" 
d="M38 5q17 0 22 13.5t5 54.5h1q0 311 1 457h-1q0 41 -5 54.5t-22 13.5v5h150v-5q-14 0 -19.5 -7.5t-6.5 -28.5v-242h334q0 41 0.5 118t0.5 110q-1 29 -6.5 39.5t-20.5 10.5v5h151v-5q-17 0 -22 -13.5t-5 -54.5v-488q1 -22 6.5 -29.5t19.5 -7.5v-5h-151v5q17 0 22 13.5
t5 54.5v223h-334v-264q2 -15 7.5 -21t17.5 -6v-5h-150v5z" />
    <glyph glyph-name="I" unicode="I" horiz-adv-x="230" 
d="M42 5q17 0 22 13.5t5 54.5q0 327 1 475q-1 29 -6.5 39.5t-20.5 10.5v5h151v-5q-17 0 -22 -13.5t-5 -54.5v-488q1 -22 6.5 -29.5t19.5 -7.5v-5h-151v5z" />
    <glyph glyph-name="J" unicode="J" horiz-adv-x="340" 
d="M-4 56q-9 44 44 44q41 0 50 -44h1q9 -44 42 -44q28 0 38 36.5t10 134.5v347q0 41 -5 54.5t-22 13.5v5h151v-5q-17 0 -22 -13.5t-5 -54.5v-266q0 -158 -36.5 -216t-136.5 -58q-94 0 -108 66h-1z" />
    <glyph glyph-name="K" unicode="K" horiz-adv-x="599" 
d="M37 0v5q17 0 22 13.5t5 54.5l1 469q-1 33 -6 44.5t-21 11.5v5h151v-5q-17 0 -22 -13.5t-5 -54.5v-189l235 221q35 35 21 36h-3v5h82v-5q-19 0 -36 -12.5t-63 -55.5h-1l-127 -120q98 -150 131 -200q76 -115 114.5 -154t77.5 -39v-22h-39q-82 0 -132 29.5t-102 109.5
q-98 148 -131 199l-27 -26l-1 -246q1 -33 6 -44.5t21 -11.5v-5h-151z" />
    <glyph glyph-name="L" unicode="L" 
d="M39 0v5q17 0 22 13.5t5 54.5q0 327 1 475q-1 29 -6.5 39.5t-20.5 10.5v5h150v-5q-17 0 -22 -13.5t-5 -54.5v-506h167q52 0 76 9.5t39 36.5l5 8q2 -2 5 -3h1q-2 -10 -5 -31.5t-4 -31.5l-2 -12h-406z" />
    <glyph glyph-name="M" unicode="M" horiz-adv-x="732" 
d="M28 5q17 0 22.5 13.5t7.5 54.5q14 306 20 469q1 34 -3.5 45t-20.5 11v5h83v-1l255 -494l198 495h114v-5q-16 0 -20.5 -13.5t-2.5 -54.5q7 -166 23 -477q2 -28 8 -38t21 -10v-5h-151v5q14 0 19.5 9.5t5.5 36.5l-14 466l-221 -522h-25q-40 80 -121 240t-121 240l-17 -387
q-2 -49 4.5 -66t30.5 -17v-5h-95v5z" />
    <glyph glyph-name="N" unicode="N" horiz-adv-x="583" 
d="M36 5q17 0 22 13.5t5 54.5l1 469q-1 33 -6 44.5t-21 11.5v5h107l354 -449l1 389q-1 33 -6 44t-21 11v5h83v-5q-17 0 -22 -13.5t-5 -54.5l-1 -439v-111h-15l-59 75l1 1l-361 456l-1 -451q1 -33 6 -44.5t21 -11.5v-5h-83v5z" />
    <glyph glyph-name="O" unicode="O" horiz-adv-x="731" 
d="M366 -5q-162 0 -240.5 83.5t-78.5 223.5t79 223t240 83t240 -83t79 -223t-78.5 -223.5t-240.5 -83.5zM153 302q0 -129 52.5 -206t160.5 -77t160.5 77t52.5 206t-52.5 205.5t-160.5 76.5t-160.5 -76.5t-52.5 -205.5z" />
    <glyph glyph-name="P" unicode="P" horiz-adv-x="516" 
d="M188 0h-151v5q14 0 19.5 7.5t6.5 29.5q0 360 1 522q-2 20 -7.5 27t-18.5 7v5h236q109 0 168 -44.5t58 -126.5q0 -82 -65 -127t-184 -45h-90v-187q0 -41 5 -54.5t22 -13.5v-5zM273 575h-112v-287h90q70 0 108.5 37.5t38.5 106.5t-32.5 106t-92.5 37z" />
    <glyph glyph-name="Q" unicode="Q" horiz-adv-x="731" 
d="M47 302q0 140 79 223t240 83t240 -83t79 -223q0 -119 -57.5 -198.5t-175.5 -101.5q69 -78 195 -78q90 0 111 27l11 -8q-67 -90 -141 -90q-47 0 -97.5 35.5t-113.5 108.5q-32 -2 -51 -2q-162 0 -240.5 83.5t-78.5 223.5zM153 302q0 -129 52.5 -206t160.5 -77t160.5 77
t52.5 206t-52.5 205.5t-160.5 76.5t-160.5 -76.5t-52.5 -205.5z" />
    <glyph glyph-name="R" unicode="R" horiz-adv-x="617" 
d="M38 5q13 0 18.5 8t7.5 29l1 520q-1 21 -6.5 28.5t-19.5 7.5v5h231q106 0 163 -41.5t56 -117.5q0 -122 -137 -157q34 -38 171 -202q42 -50 52.5 -56.5t46.5 -6.5v-22h-38q-96 0 -120.5 12t-92.5 94q-130 155 -142 170h-67v28h86q68 0 104 36t36 104q0 63 -31 97t-88 34
h-107v28l-1 -530h1q0 -41 5 -54.5t22 -13.5v-5h-151v5z" />
    <glyph glyph-name="S" unicode="S" horiz-adv-x="481" 
d="M234 -5q-126 0 -198 61h1l4 71h4q1 -2 3 -7t3 -7q32 -68 128 -88q-1 -1 24.5 -3.5t31.5 -2.5q66 0 101.5 28t35.5 79q0 42 -44.5 78t-127.5 61q-76 22 -117.5 64.5t-41.5 97.5q0 87 52.5 134t149.5 47q87 0 159 -61l-10 -12l11 12l-4 -70h-4q-11 22 -17 32t-18.5 23.5
t-29.5 24.5q-48 27 -91 27q-63 0 -97 -30.5t-35 -87.5q0 -37 43 -70.5t123 -57.5t123.5 -68.5t43.5 -103.5q0 -82 -53.5 -126.5t-152.5 -44.5z" />
    <glyph glyph-name="T" unicode="T" horiz-adv-x="591" 
d="M11 525q1 11 2 33.5t1 32.5h-1v12h560v-12h1q0 -11 1 -33t2 -33h-4q-16 32 -37 43t-72 11h-119v-537q1 -22 6.5 -29.5t19.5 -7.5v-5h-151v5q17 0 22 13.5t5 54.5h1v506h-124q-51 0 -72 -11t-37 -43h-4z" />
    <glyph glyph-name="U" unicode="U" horiz-adv-x="550" 
d="M28 598v5h151v-5q-17 0 -22 -13.5t-5 -54.5v-352q0 -75 33 -112t114 -37q95 0 133.5 37t38.5 114v340q0 47 -6 62.5t-26 15.5v5h97v-5q-19 0 -25 -15.5t-6 -62.5v-351q0 -88 -49.5 -131t-170.5 -43q-127 0 -178.5 49.5t-51.5 151.5v334q0 41 -5 54.5t-22 13.5z" />
    <glyph glyph-name="V" unicode="V" horiz-adv-x="567" 
d="M0 603h162v-5q-18 0 -20.5 -10t8.5 -38l193 -423l130 373q20 56 19.5 76.5t-20.5 21.5h-6v5h102v-5q-17 0 -27 -14t-24 -54q-65 -181 -195 -545h-28v1l-241 544h-2q-18 41 -27.5 54.5t-23.5 13.5v5z" />
    <glyph glyph-name="W" unicode="W" horiz-adv-x="855" 
d="M2 603h159v-5q-16 0 -19 -9.5t6 -36.5l150 -416l148 477h27l182 -466l124 404q7 29 2.5 38t-24.5 9v5h97v-5q-17 0 -26.5 -13.5t-21.5 -54.5q-32 -100 -90.5 -285.5t-82.5 -259.5h-28v1l-185 456l-141 -457h-28l1 1l-202 544h-1q-15 41 -23.5 54.5t-23.5 13.5v5z" />
    <glyph glyph-name="X" unicode="X" horiz-adv-x="610" 
d="M31 603h162v-5q-9 0 -13 -2t-4.5 -7t3.5 -13.5t12 -21.5l130 -188l126 185q11 18 14 27.5t0 14t-13 5.5h-5v5h98v-5q-17 0 -31 -13t-44 -55q-22 -30 -65.5 -91t-65.5 -92l189 -274h1q29 -42 41.5 -55t24.5 -13v-5h-163v5q9 0 13 2t4.5 7.5t-3.5 14t-13 22.5l-148 214
l-133 -194q-38 -56 -23 -64q3 -1 8 -2h5v-5h-95v5q17 0 31 13.5t43 54.5q21 29 150 212l-169 245q-32 44 -43 56t-24 12v5z" />
    <glyph glyph-name="Y" unicode="Y" horiz-adv-x="553" 
d="M7 603h165v-5q-8 0 -12 -2t-4 -7.5t4 -14t12 -22.5l147 -236l123 194q47 74 36 84q-4 3 -11 4h-5v5h93v-5q-15 0 -27 -12.5t-40 -55.5q-27 -41 -80.5 -123.5t-80.5 -123.5v-210q0 -41 5 -54.5t22 -13.5v-5h-151v5q17 0 22 13.5t5 54.5v184l-162 273q-27 43 -37.5 55.5
t-23.5 12.5v5z" />
    <glyph glyph-name="Z" unicode="Z" horiz-adv-x="549" 
d="M481 0h-444l345 579h-180q-49 0 -72 -9t-44 -34h-4q2 9 6 27.5t6 27.5l3 12h409l-346 -578h206q52 0 76 9.5t39 36.5l5 8q2 -2 5 -3h1q0 -2 -2.5 -18t-4.5 -31l-2 -15z" />
    <glyph glyph-name="bracketleft" unicode="[" horiz-adv-x="252" 
d="M246 -120h-181v723h182v-22h-105v-679h104v-22z" />
    <glyph glyph-name="backslash" unicode="\" horiz-adv-x="252" 
d="M221 -161l-284 814h35l284 -814h-35z" />
    <glyph glyph-name="bracketright" unicode="]" horiz-adv-x="253" 
d="M5 581v22h183v-723h-78v701h-105zM4 -120v22h105v-22h-105z" />
    <glyph glyph-name="asciicircum" unicode="^" horiz-adv-x="306" 
d="M36 483q-3 -4 18.5 40.5t44.5 90.5l23 46q12 28 31 28q20 0 32 -28l85 -177l-10 -8q-65 76 -107 121q-48 -50 -107 -121zM121 629v-1v1z" />
    <glyph glyph-name="underscore" unicode="_" horiz-adv-x="405" 
d="M1 -50h403v-56h-403v56z" />
    <glyph glyph-name="grave" unicode="`" horiz-adv-x="306" 
d="M108 598q-38 40 -38 49q0 10 22 26t35 16q6 0 31 -51q15 -19 35 -58t32 -68l12 -30l-12 -9q-83 82 -117 125z" />
    <glyph glyph-name="a" unicode="a" horiz-adv-x="476" 
d="M32 92q0 58 44 100t126 62q19 4 65 8v57q0 101 -42 101q-51 0 -76.5 -28t-20.5 -79h-69q-6 65 43 100t145 35q60 0 92.5 -39t32.5 -112v-194q0 -34 8.5 -49.5t31.5 -15.5q32 0 46 17l12 -14q-23 -27 -50.5 -39t-76.5 -12q-60 0 -72 52q-56 -47 -131 -47q-52 0 -80 25.5
t-28 71.5zM131 120q0 -58 59 -58q46 0 77 12v18v144q-51 -10 -65 -14q-34 -8 -52.5 -35t-18.5 -67z" />
    <glyph glyph-name="b" unicode="b" horiz-adv-x="524" 
d="M14 664l107 34h20v-302q33 52 147 52q89 0 137 -59.5t48 -169.5q0 -107 -60 -165.5t-171 -58.5q-29 0 -71.5 16t-62.5 16q-41 0 -57 -27h-11v148l1 476q0 9 -0.5 14t-4 9t-4.5 5t-8 4.5t-10 4.5v3zM140 375v-227q0 -60 26.5 -92.5t75.5 -32.5q59 0 91.5 40.5t32.5 114.5
q0 109 -40.5 167.5t-114.5 58.5q-53 0 -71 -29z" />
    <glyph glyph-name="c" unicode="c" horiz-adv-x="482" 
d="M46 203q0 118 62 181.5t177 63.5q68 0 107.5 -25.5t43.5 -71.5q0 -44 -44 -44q-45 0 -50 49q-6 64 -68 64q-59 0 -90.5 -46.5t-31.5 -132.5q0 -89 45 -137t128 -48q52 0 100 54l11 -9q-95 -106 -195 -106q-94 0 -144.5 54t-50.5 154z" />
    <glyph glyph-name="d" unicode="d" horiz-adv-x="579" 
d="M51 194q0 122 57 188t163 66q62 0 101 -41q0 41 0.5 115.5t0.5 105.5q0 6 -1 10.5t-2 7t-4 5t-5 3.5t-6.5 3t-8.5 4v3l107 34h20v-638q1 -5 3.5 -9t4.5 -5t8.5 -4t9.5 -5v-3l-107 -34h-20v58q-58 -63 -140 -63q-87 0 -134 52t-47 147zM266 421q-53 0 -82 -49t-29 -140
q0 -85 34.5 -130.5t97.5 -45.5q61 0 85 21v38v245q-33 61 -106 61z" />
    <glyph glyph-name="e" unicode="e" horiz-adv-x="488" 
d="M244 -5q-95 0 -146.5 54t-51.5 154q0 118 56.5 181.5t161.5 63.5q85 0 131.5 -50.5t46.5 -143.5h-290q-2 -95 43 -146.5t133 -51.5q55 0 103 54l11 -9q-95 -106 -198 -106zM259 420q-46 0 -73.5 -38t-32.5 -109l149 14q47 5 47 51q0 39 -23.5 60.5t-66.5 21.5z" />
    <glyph glyph-name="f" unicode="f" horiz-adv-x="341" 
d="M-6 443h64q2 67 5 67q1 90 56 139t156 49q108 0 114 -64h1q0 -44 -44 -44q-47 0 -50 44h-1q-3 42 -48 42q-26 0 -57.5 -53.5t-32.5 -134.5v-45h122v-39h-122v-331h1q0 -41 5 -54.5t22 -13.5v-5h-154v5q17 0 22 13.5t5 54.5v331h-64v39z" />
    <glyph glyph-name="g" unicode="g" horiz-adv-x="447" 
d="M162 -267q-71 0 -109.5 29.5t-38.5 84.5q0 86 113 126q-88 19 -88 98q0 92 95 108q-80 32 -80 128q0 68 42.5 104.5t121.5 36.5q64 0 106 -25l127 20v-55l-89 -2q21 -32 21 -79q0 -68 -43 -105t-122 -37h-49q-62 0 -62 -55q0 -49 72 -49q65 3 79 3q83 0 128 -31.5
t45 -90.5q0 -100 -70 -154.5t-199 -54.5zM81 -141q0 -47 24 -72.5t68 -25.5q90 0 138.5 34t48.5 97q0 37 -34 57t-96 20q-8 0 -39.5 -1.5t-36.5 0.5q-73 -25 -73 -109zM148 307q0 -58 18 -89t52 -31t52.5 31t18.5 89q0 57 -18.5 88t-52.5 31t-52 -31t-18 -88z" />
    <glyph glyph-name="h" unicode="h" horiz-adv-x="508" 
d="M41 5q17 0 22 13.5t5 54.5l1 550q0 8 -1 13t-1.5 8t-3.5 6t-4.5 3.5t-7.5 3.5t-9 4v3l107 34h20v-319q52 69 169 69q59 0 83 -37t24 -114v-224q0 -41 5 -54.5t22 -13.5v-5h-154v5q17 0 22 13.5t5 54.5v214q0 48 -18.5 71t-65.5 23q-67 0 -92 -21l-1 -298q1 -34 6 -45.5
t21 -11.5v-5h-154v5z" />
    <glyph glyph-name="i" unicode="i" horiz-adv-x="236" 
d="M195 0h-154v5q17 0 22 13.5t5 54.5v290q0 11 -0.5 17.5t-3.5 11t-3.5 5.5t-8.5 4t-11 5v3l107 34h20v-370q0 -41 5 -54.5t22 -13.5v-5zM113 513q-32 0 -49 17.5t-17 49.5t17.5 49t48.5 17q32 0 49.5 -17t17.5 -49q0 -67 -67 -67z" />
    <glyph glyph-name="j" unicode="j" horiz-adv-x="232" 
d="M-25 -260l-10 14q61 38 79.5 82t18.5 165q0 -1 0.5 36t0.5 106.5v112.5v108q0 11 -0.5 17t-3.5 10.5t-4 5.5t-8.5 4t-10.5 5v3l107 34h20v-26q0 -386 1 -388q0 -59 -7.5 -96t-31.5 -70.5t-56.5 -58.5t-94.5 -64zM109 513q-32 0 -49 17.5t-17 49.5t17.5 49t48.5 17
q32 0 49.5 -17t17.5 -49q0 -67 -67 -67z" />
    <glyph glyph-name="k" unicode="k" horiz-adv-x="456" 
d="M37 5q17 0 22 13.5t5 54.5l1 550q0 8 -1 13t-1.5 8t-3.5 6t-4.5 3.5t-7.5 3.5t-9 4v3l107 34h20v-115l-1 -321l139 125q49 44 43 50q-1 1 -4 1h-3v5h93v-5q-19 0 -38 -12.5t-71 -55.5q-8 -6 -23.5 -19t-23.5 -19l154 -259q25 -42 37.5 -55t29.5 -13v-5h-176v5q8 0 11 3.5
t1 11.5t-9 23l-125 225l-35 -28v-178q1 -34 6 -45.5t21 -11.5v-5h-154v5z" />
    <glyph glyph-name="l" unicode="l" horiz-adv-x="236" 
d="M40 5q17 0 22 13.5t5 54.5q0 387 1 554q0 8 -1 13t-4 8l-4.5 4.5t-7.5 4t-10 4.5v3l107 34h20v-656q1 -22 6.5 -29.5t19.5 -7.5v-5h-154v5z" />
    <glyph glyph-name="m" unicode="m" horiz-adv-x="805" 
d="M41 5q17 0 22 13.5t5 54.5v290q0 11 -0.5 17.5t-3.5 11t-3.5 5.5t-8.5 4t-11 5v3l107 34h20v-65q51 70 176 70q70 0 98 -71q49 71 186 71q53 0 83.5 -39.5t30.5 -111.5v-224q0 -41 5 -54.5t22 -13.5v-5h-154v5q17 0 22 13.5t5 54.5v214q0 44 -24.5 69t-66.5 25
q-78 0 -103 -22q7 -25 7 -62v-224q0 -41 5 -54.5t22 -13.5v-5h-154v5q17 0 22 13.5t5 54.5v214q0 47 -24 73.5t-65 26.5q-72 0 -98 -26v-288q0 -41 5 -54.5t22 -13.5v-5h-154v5z" />
    <glyph glyph-name="n" unicode="n" horiz-adv-x="508" 
d="M195 0h-154v5q17 0 22 13.5t5 54.5v290q0 11 -0.5 17.5t-3.5 11t-3.5 5.5t-8.5 4t-11 5v3l107 34h20v-65q53 70 170 70q59 0 83 -37t24 -114v-224q0 -41 5 -54.5t22 -13.5v-5h-154v5q17 0 22 13.5t5 54.5v214q0 48 -18.5 71t-65.5 23q-66 0 -93 -21v-287q0 -41 5 -54.5
t22 -13.5v-5z" />
    <glyph glyph-name="o" unicode="o" horiz-adv-x="574" 
d="M287 -5q-115 0 -178 59t-63 168t62.5 167.5t178.5 58.5t178.5 -58.5t62.5 -167.5t-63 -168t-178 -59zM157 222q0 -98 34 -151.5t96 -53.5t96 53.5t34 151.5t-34 151t-96 53t-96 -53t-34 -151z" />
    <glyph glyph-name="p" unicode="p" horiz-adv-x="570" 
d="M41 -250q17 0 22 13.5t5 54.5l1 510h-1q0 60 -5 66q-1 2 -22 12v3l107 34h20v-26h1v-37q39 68 169 68q87 0 134 -55t47 -157q0 -116 -63 -178.5t-180 -62.5q-66 0 -108 24v-212q1 -34 6 -45.5t21 -11.5v-5h-154v5zM169 350v-223q4 -50 31.5 -77t75.5 -27q68 0 105 36
t37 103q0 105 -41 162t-117 57q-68 0 -91 -31z" />
    <glyph glyph-name="q" unicode="q" horiz-adv-x="537" 
d="M217 -5q-81 0 -125 52t-44 147q0 122 57 188t162 66q30 0 70 -16.5t59 -16.5q46 0 62 28q-1 -2 -2 -6l3 6h11v-158l-1 -479q1 -33 6 -44.5t21 -11.5v-5h-154v5q17 0 22 13.5t5 54.5l1 247q-62 -70 -153 -70zM152 232q0 -85 31 -130.5t89 -45.5q72 0 98 31v198h-1
q0 65 -26.5 100t-75.5 35q-55 0 -85 -49t-30 -139z" />
    <glyph glyph-name="r" unicode="r" horiz-adv-x="360" 
d="M68 363q0 11 -0.5 17.5t-3.5 11t-3.5 5.5t-8.5 4t-11 5v3l107 34h20v-80q47 85 117 85q38 0 53.5 -16t15.5 -49q0 -47 -48 -47q-16 0 -50 19t-50 19q-21 0 -38 -26v-275q0 -41 5 -54.5t22 -13.5v-5h-154v5q17 0 22 13.5t5 54.5v290z" />
    <glyph glyph-name="s" unicode="s" horiz-adv-x="391" 
d="M40 41l3 58h4q1 -1 2.5 -4l2.5 -5q19 -30 54.5 -51t74.5 -21t60 21t21 59q0 49 -88 88q-126 56 -126 136q0 61 42.5 93.5t121.5 32.5q52 0 112 -51l-3 -54h-4q-20 40 -81 74q0 1 -6 3l-12 4l-6 2q-87 0 -87 -70q0 -46 120 -99q100 -44 100 -122q0 -67 -44 -103.5
t-125 -36.5q-80 0 -136 46z" />
    <glyph glyph-name="t" unicode="t" horiz-adv-x="346" 
d="M21 415q65 11 132 136l13 28h18v-136h134v-39h-134v-304q0 -38 9.5 -49t40.5 -11q34 0 90 47l7 -8q-100 -84 -146 -84q-63 0 -82 23t-19 100v286h-63v11zM94 428l59 123l14 28l-72 -151h-1z" />
    <glyph glyph-name="u" unicode="u" horiz-adv-x="473" 
d="M11 443h127l-1 -278q0 -104 106 -104q52 0 72 23v286q0 41 -5 54.5t-22 13.5v5h127v-363q0 -11 0.5 -17.5t3.5 -11t3.5 -5.5t8.5 -4t11 -5v-3l-107 -34h-20v66q-60 -71 -151 -71q-126 0 -126 159v216q0 41 -5 54.5t-22 13.5v5z" />
    <glyph glyph-name="v" unicode="v" horiz-adv-x="398" 
d="M-20 438v5h167v-5q-13 0 -14.5 -9t8.5 -35l124 -285l112 271q13 33 13.5 44.5t-10.5 13.5h-4v5h86v-5q-16 0 -25.5 -10t-24.5 -41l-179 -397h-17l-177 380q-17 39 -29.5 53.5t-29.5 14.5z" />
    <glyph glyph-name="w" unicode="w" horiz-adv-x="688" 
d="M-14 443h166v-5q-17 0 -18.5 -11t11.5 -43l118 -276l88 217l-29 63q-23 47 -29 50h-2v5h166v-5q-19 0 -25.5 -5.5t-4.5 -19.5t15 -43l114 -261l107 261q17 40 15.5 54t-23.5 14v5h97v-5q-16 0 -25.5 -10t-24.5 -41l-179 -397h-16l-144 310l-130 -310h-17l-177 380
q-17 37 -28.5 52.5t-24.5 15.5v5z" />
    <glyph glyph-name="x" unicode="x" horiz-adv-x="460" 
d="M-9 0v5q20 0 35 13t45 55q66 90 99 136l-110 161q-29 42 -41.5 55t-25.5 13v5h172v-5q-8 0 -11.5 -2t-3.5 -7.5t4 -13.5t13 -21l71 -105l63 81q43 56 35 65q-2 2 -9 3h-5v5h91v-5q-18 0 -33.5 -13t-50.5 -55l-81 -96l136 -201h1q29 -43 40.5 -55.5t23.5 -12.5v-5h-165v5
q20 0 1 32q-2 4 -6 10l-96 142l-89 -126q-11 -17 -16.5 -27.5t-6.5 -17t3 -9.5t13 -4h6v-5h-102z" />
    <glyph glyph-name="y" unicode="y" horiz-adv-x="398" 
d="M-33 -206q0 42 50 42q11 0 31 -6t34 -12l14 -7q15 0 32.5 26.5t50.5 99.5q12 37 30 68l-170 365q-17 39 -29.5 53.5t-29.5 14.5v5h167v-5q-13 0 -14.5 -9t8.5 -35l124 -285l112 271q13 33 13.5 44.5t-10.5 13.5h-4v5h86v-5q-16 0 -25.5 -10t-24.5 -41l-179 -397
q-15 -26 -28 -62q-47 -105 -83.5 -144t-86.5 -39q-68 0 -68 49z" />
    <glyph glyph-name="z" unicode="z" horiz-adv-x="455" 
d="M38 0l243 421l-103 -1q-5 -5 -19 -1t-43 -3t-50 -28h-4q1 7 4 21.5t5 21.5h-1l3 12h336l-241 -421h100q52 0 76 9.5t39 36.5l5 8q2 -2 5 -3h1q-2 -10 -5 -31t-4 -31l-2 -11h-345z" />
    <glyph glyph-name="braceleft" unicode="{" horiz-adv-x="229" 
d="M0 227v16q49 0 49 42v192q0 61 33 93.5t95 32.5h40v-17h-18q-35 0 -53.5 -28.5t-18.5 -80.5v-136q0 -45 -20 -72.5t-58 -33.5q78 -16 78 -128l-1 -114q0 -53 19 -81t54 -28h18v-17h-41q-62 0 -95 32.5t-32 93.5v169q0 65 -49 65z" />
    <glyph glyph-name="bar" unicode="|" horiz-adv-x="190" 
d="M56 -254l1 1002h77v-1002h-78z" />
    <glyph glyph-name="braceright" unicode="}" horiz-adv-x="229" 
d="M2 586v17h41q62 0 95 -32.5t32 -93.5v-169q0 -65 49 -65v-16q-49 0 -49 -42v-192q0 -61 -33 -93.5t-95 -32.5h-40v17h18q35 0 53.5 28.5t18.5 80.5v136q0 45 20 72.5t58 33.5q-78 16 -78 128l1 114q0 53 -19 81t-54 28h-18z" />
    <glyph glyph-name="asciitilde" unicode="~" horiz-adv-x="306" 
d="M28 282h-17q0 59 19.5 91.5t54.5 32.5q25 0 76 -31t76 -31q42 0 42 60h16q0 -61 -20.5 -94t-58.5 -33q-24 0 -76 31.5t-77 31.5q-35 0 -35 -58z" />
    <glyph glyph-name="uni00A0" unicode="&#xa0;" horiz-adv-x="197" 
 />
    <glyph glyph-name="exclamdown" unicode="&#xa1;" horiz-adv-x="239" 
d="M116 -165q-34 0 -50 18.5t-11 53.5h1q0 92 12 172.5t24 114.5l12 35h13q7 -13 17 -38t27 -108.5t17 -175.5h-1q7 -35 -9 -53.5t-52 -18.5zM111 304q-35 0 -54 18.5t-18 53.5q0 34 18.5 53t53.5 19h1q34 0 52.5 -19t18.5 -53t-18.5 -53t-53.5 -19z" />
    <glyph glyph-name="cent" unicode="&#xa2;" horiz-adv-x="482" 
d="M46 203q0 109 53.5 172t154.5 72v71h34v-70q67 -1 105.5 -26t42.5 -71q0 -44 -44 -44q-45 0 -50 49q-5 55 -54 63v-360q44 -7 75 4.5t62 46.5l11 -9q-70 -79 -148 -99v-77h-34v70h-13q-94 0 -144.5 54t-50.5 154zM152 241q0 -137 102 -174v352q-49 -8 -75.5 -54
t-26.5 -124z" />
    <glyph glyph-name="guillemotleft" unicode="&#xab;" horiz-adv-x="421" 
d="M170 217v10q64 50 196 182l11 -11q-37 -37 -112 -178q18 -35 46.5 -79t48.5 -70l20 -26l-11 -11q-169 164 -196 182q-3 0 -3 1zM16 218v9q64 46 200 182l11 -11q-41 -41 -115 -177q18 -34 47.5 -78t50.5 -71l20 -27l-11 -11q-166 160 -198 182q-5 0 -5 2z" />
    <glyph glyph-name="acute" unicode="&#xb4;" horiz-adv-x="306" 
d="M77 473l-11 9q42 113 75 156q25 51 31 51q13 0 35 -16t22 -26q0 -9 -37 -49q-15 -19 -43.5 -50.5t-50.5 -53.5z" />
    <glyph glyph-name="guillemotright" unicode="&#xbb;" horiz-adv-x="421" 
d="M41 45q75 96 115 175q-75 141 -112 178l11 11q59 -59 108 -104.5t69 -61.5l19 -16v-10q0 -1 -3 -1q-12 -8 -61 -53.5t-92 -86.5l-43 -42zM191 45q78 99 118 176q-74 136 -115 177l11 11q60 -60 110 -105.5t70 -61.5l20 -15v-9q0 -2 -5 -2q-14 -10 -63.5 -55.5
t-92.5 -86.5l-42 -40z" />
    <glyph glyph-name="onequarter" unicode="&#xbc;" horiz-adv-x="660" 
d="M90 -23l-43 36l525 613l43 -36zM361 60v14q146 199 166 210l1 -1h13v-131v-55h49v-38h-49q0 -10 -0.5 -28t-0.5 -24h-85v52h-75v1h-19zM113 390q11 0 14 19v167l-1 2q0 21 -2.5 27.5t-10.5 6.5v1h56v3h56v-4q-11 0 -13 -15v-170q0 -21 2.5 -27.5t10.5 -6.5v-4h-13v-2h-85
v1h-14v2zM409 97h46v55q0 4 1 6q-25 -31 -47 -61zM212 580h-1v-2z" />
    <glyph glyph-name="onehalf" unicode="&#xbd;" horiz-adv-x="660" 
d="M47 13l525 613l43 -36l-525 -613zM376 8v22q14 8 38 19.5t33 17t20.5 16t15.5 24.5t4 34q0 30 -30 30q-36 0 -49 -30l-10 6q16 41 42.5 63.5t58.5 22.5q40 0 61.5 -16.5t21.5 -47.5q0 -44 -62 -82h24l1 2q21 0 27.5 2.5t6.5 10.5h1q0 -2 -0.5 -7t-0.5 -8h2l-6 -76h-194z
M113 390q11 0 14 19v167l-1 2q0 21 -2.5 27.5t-10.5 6.5v1h56v3h56v-4q-11 0 -13 -15v-170q0 -21 2.5 -27.5t10.5 -6.5v-4h-13v-2h-85v1h-14v2zM434 40q-17 -10 -52 -28q21 2 52 28zM212 580h-1v-2z" />
    <glyph glyph-name="threequarters" unicode="&#xbe;" horiz-adv-x="660" 
d="M47 13l525 613l43 -36l-525 -613zM80 533q50 81 117 81q37 0 57 -16.5t20 -46.5q0 -34 -55 -68q65 -14 65 -63q0 -47 -50.5 -75t-144.5 -33l-3 3l-1 13q51 3 79 26t29 63q0 13 -13 20t-32 7q-20 0 -31 -5v2q-1 -1 -2 -1l-1 2v14q40 12 59 33q18 17 14.5 40t-34.5 23
q-47 0 -63 -25zM377 57h-19v14q146 199 166 210l1 -1h13v-131v-55h49v-38h-49q0 -10 -0.5 -28t-0.5 -24h-85v52h-75v1zM453 155q-25 -31 -47 -61h46v55q0 4 1 6z" />
    <glyph glyph-name="questiondown" unicode="&#xbf;" horiz-adv-x="343" 
d="M31 60q0 115 131 115h35l10 55h14l22 -116q3 -15 -13 -15h-35q-141 0 -141 -50q0 -65 38.5 -100.5t109.5 -35.5q10 0 32 15t32 15q44 0 44 -43q0 -65 -77 -65q-97 0 -149.5 58.5t-52.5 166.5zM214 304q-35 0 -53.5 19t-17.5 53q0 34 18.5 53t52.5 19h1q34 0 52.5 -19
t18.5 -53t-19 -53t-53 -19z" />
    <glyph glyph-name="Agrave" unicode="&#xc0;" horiz-adv-x="573" 
d="M-1 0v5q17 0 27 13.5t25 54.5q41 106 115 305.5t89 238.5h24l234 -544q20 -45 28.5 -56.5t24.5 -11.5v-5h-164v5q21 0 22.5 13.5t-15.5 54.5q-7 18 -54 133h-224l-43 -118q-17 -47 -16.5 -64t18.5 -19h5v-5h-96zM139 230h206l-109 268zM183 807q0 10 22 26t35 16
q7 0 32 -51q15 -19 34.5 -58t31.5 -68l12 -30l-11 -9q-84 82 -118 125q-38 40 -38 49z" />
    <glyph glyph-name="Aacute" unicode="&#xc1;" horiz-adv-x="573" 
d="M95 0h-96v5q17 0 27 13.5t25 54.5q41 106 115 305.5t89 238.5h24l234 -544q20 -45 28.5 -56.5t24.5 -11.5v-5h-164v5q21 0 22.5 13.5t-15.5 54.5q-7 18 -54 133h-224l-43 -118q-17 -47 -16.5 -64t18.5 -19h5v-5zM236 498l-97 -268h206zM206 633l-11 9q42 113 75 156
q25 51 31 51q13 0 35 -16t22 -26q0 -9 -37 -49q-15 -19 -43.5 -50.5t-49.5 -53.5z" />
    <glyph glyph-name="Acircumflex" unicode="&#xc2;" horiz-adv-x="573" 
d="M-1 0v5q17 0 27 13.5t25 54.5q41 106 115 305.5t89 238.5h24l234 -544q20 -45 28.5 -56.5t24.5 -11.5v-5h-164v5q21 0 22.5 13.5t-15.5 54.5q-7 18 -54 133h-224l-43 -118q-17 -47 -16.5 -64t18.5 -19h5v-5h-96zM139 230h206l-109 268zM150 643l36 78l49 99q12 28 32 28
t32 -28l85 -177l-10 -8q-65 76 -107 121q-48 -50 -107 -121zM235 789v-1v1z" />
    <glyph glyph-name="Atilde" unicode="&#xc3;" horiz-adv-x="573" 
d="M-1 5q17 0 27 13.5t25 54.5q41 106 115 305.5t89 238.5h24l234 -544q20 -45 28.5 -56.5t24.5 -11.5v-5h-164v5q21 0 22.5 13.5t-15.5 54.5q-7 18 -54 133h-224l-43 -118q-17 -47 -16.5 -64t18.5 -19h5v-5h-96v5zM236 498l-97 -268h206zM125 698q0 60 19.5 92.5t54.5 32.5
q25 0 76 -31t76 -31q41 0 41 60h17q0 -61 -20.5 -94t-58.5 -33q-24 0 -76 31t-77 31q-35 0 -35 -58h-17z" />
    <glyph glyph-name="Adieresis" unicode="&#xc4;" horiz-adv-x="573" 
d="M-1 5q17 0 27 13.5t25 54.5q41 106 115 305.5t89 238.5h24l234 -544q20 -45 28.5 -56.5t24.5 -11.5v-5h-164v5q21 0 22.5 13.5t-15.5 54.5q-7 18 -54 133h-224l-43 -118q-17 -47 -16.5 -64t18.5 -19h5v-5h-96v5zM236 498l-97 -268h206zM363 673q-61 0 -61 61t61 61
t61 -61t-61 -61zM171 673q-61 0 -61 61t61 61t61 -61t-61 -61z" />
    <glyph glyph-name="Aring" unicode="&#xc5;" horiz-adv-x="573" 
d="M95 0h-96v5q17 0 27 13.5t25 54.5q41 106 115 305.5t89 238.5h24l234 -544q20 -45 28.5 -56.5t24.5 -11.5v-5h-164v5q21 0 22.5 13.5t-15.5 54.5q-7 18 -54 133h-224l-43 -118q-17 -47 -16.5 -64t18.5 -19h5v-5zM171 731q0 44 25 68t71 24t71 -24t25 -68
q0 -40 -27.5 -66.5t-68.5 -26.5t-68.5 26.5t-27.5 66.5zM236 498l-97 -268h206zM267 801q-68 0 -68 -70q0 -31 19.5 -51t48.5 -20t48.5 20t19.5 51q0 70 -68 70z" />
    <glyph glyph-name="Ccedilla" unicode="&#xc7;" horiz-adv-x="690" 
d="M57 302q0 147 87 226.5t248 79.5q157 0 243 -72l-3 -64h-5l-6 15q-28 63 -122 85v1q-52 11 -107 11q-109 0 -168.5 -73.5t-59.5 -208.5q0 -136 59.5 -209.5t168.5 -73.5q83 0 145 25.5t83 72.5l6 15h5l3 -64l1 -1q-80 -67 -228 -72q-20 -13 -48 -69q24 15 59 15
q39 0 60.5 -19.5t21.5 -55.5q0 -41 -27.5 -63.5t-77.5 -22.5q-49 0 -83 31l5 11q15 -13 58 -13q31 0 47.5 15t16.5 42q0 55 -44 55q-20 0 -45 -15l-7 3q29 64 38 86q-155 3 -239.5 82.5t-84.5 224.5zM352 -89l2 3l-1 -1q-1 -1 -1 -2z" />
    <glyph glyph-name="Egrave" unicode="&#xc8;" 
d="M39 5q17 0 22 13.5t5 54.5q0 327 1 475q-1 29 -6.5 39.5t-20.5 10.5v5h403l-1 -12h1q-1 -9 -2 -30t-1 -30h-4q-12 29 -35.5 38.5t-86.5 9.5h-151v-256h111q54 0 72.5 5t26.5 22h4v-82h-4q-8 19 -26.5 25t-72.5 6h-111v-275h158q63 0 88.5 9.5t42.5 38.5h4
q-2 -10 -5 -30.5t-4 -29.5h1l-2 -12h-407v5zM150 807q0 10 22 26t35 16q7 0 32 -51q15 -19 34.5 -58t31.5 -68l12 -30l-11 -9q-84 82 -118 125q-38 40 -38 49z" />
    <glyph glyph-name="Eacute" unicode="&#xc9;" 
d="M446 0h-407v5q17 0 22 13.5t5 54.5q0 327 1 475q-1 29 -6.5 39.5t-20.5 10.5v5h403l-1 -12h1q-1 -9 -2 -30t-1 -30h-4q-12 29 -35.5 38.5t-86.5 9.5h-151v-256h111q54 0 72.5 5t26.5 22h4v-82h-4q-8 19 -26.5 25t-72.5 6h-111v-275h158q63 0 88.5 9.5t42.5 38.5h4
q-2 -10 -5 -30.5t-4 -29.5h1zM208 642q42 113 75 156q25 51 31 51q13 0 35 -16t22 -26q0 -9 -37 -49q-15 -19 -43.5 -50.5t-50.5 -53.5l-21 -21z" />
    <glyph glyph-name="Ecircumflex" unicode="&#xca;" 
d="M446 0h-407v5q17 0 22 13.5t5 54.5q0 327 1 475q-1 29 -6.5 39.5t-20.5 10.5v5h403l-1 -12h1q-1 -9 -2 -30t-1 -30h-4q-12 29 -35.5 38.5t-86.5 9.5h-151v-256h111q54 0 72.5 5t26.5 22h4v-82h-4q-8 19 -26.5 25t-72.5 6h-111v-275h158q63 0 88.5 9.5t42.5 38.5h4
q-2 -10 -5 -30.5t-4 -29.5h1zM133 643l36 78l49 99q12 28 32 28t32 -28l85 -177l-10 -8q-65 76 -107 121q-48 -50 -107 -121zM218 789v-1v1z" />
    <glyph glyph-name="Edieresis" unicode="&#xcb;" 
d="M446 0h-407v5q17 0 22 13.5t5 54.5q0 327 1 475q-1 29 -6.5 39.5t-20.5 10.5v5h403l-1 -12h1q-1 -9 -2 -30t-1 -30h-4q-12 29 -35.5 38.5t-86.5 9.5h-151v-256h111q54 0 72.5 5t26.5 22h4v-82h-4q-8 19 -26.5 25t-72.5 6h-111v-275h158q63 0 88.5 9.5t42.5 38.5h4
q-2 -10 -5 -30.5t-4 -29.5h1zM285 734q0 61 61 61t61 -61t-61 -61t-61 61zM154 673q-61 0 -61 61t61 61t61 -61t-61 -61z" />
    <glyph glyph-name="Igrave" unicode="&#xcc;" horiz-adv-x="230" 
d="M42 0v5q17 0 22 13.5t5 54.5q0 327 1 475q-1 29 -6.5 39.5t-20.5 10.5v5h151v-5q-17 0 -22 -13.5t-5 -54.5v-488q1 -22 6.5 -29.5t19.5 -7.5v-5h-151zM35 807q0 10 22 26t35 16q7 0 32 -51q15 -19 34.5 -58t31.5 -68l12 -30l-11 -9q-84 82 -118 125q-38 40 -38 49z" />
    <glyph glyph-name="Iacute" unicode="&#xcd;" horiz-adv-x="230" 
d="M193 0h-151v5q17 0 22 13.5t5 54.5q0 327 1 475q-1 29 -6.5 39.5t-20.5 10.5v5h151v-5q-17 0 -22 -13.5t-5 -54.5v-488q1 -22 6.5 -29.5t19.5 -7.5v-5zM58 633l-11 9q42 113 75 156q25 51 31 51q13 0 35 -16t22 -26q0 -9 -37 -49q-15 -19 -43.5 -50.5t-49.5 -53.5z" />
    <glyph glyph-name="Icircumflex" unicode="&#xce;" horiz-adv-x="230" 
d="M42 0v5q17 0 22 13.5t5 54.5q0 327 1 475q-1 29 -6.5 39.5t-20.5 10.5v5h151v-5q-17 0 -22 -13.5t-5 -54.5v-488q1 -22 6.5 -29.5t19.5 -7.5v-5h-151zM2 643l36 78l49 99q12 28 32 28t32 -28l85 -177l-10 -8q-65 76 -107 121q-48 -50 -107 -121zM87 789v-1v1z" />
    <glyph glyph-name="Idieresis" unicode="&#xcf;" horiz-adv-x="230" 
d="M42 5q17 0 22 13.5t5 54.5q0 327 1 475q-1 29 -6.5 39.5t-20.5 10.5v5h151v-5q-17 0 -22 -13.5t-5 -54.5v-488q1 -22 6.5 -29.5t19.5 -7.5v-5h-151v5zM154 734q0 61 61 61t61 -61t-61 -61t-61 61zM23 673q-61 0 -61 61t61 61t61 -61t-61 -61z" />
    <glyph glyph-name="Ntilde" unicode="&#xd1;" horiz-adv-x="583" 
d="M36 0v5q17 0 22 13.5t5 54.5l1 469q-1 33 -6 44.5t-21 11.5v5h107l354 -449l1 389q-1 33 -6 44t-21 11v5h83v-5q-17 0 -22 -13.5t-5 -54.5l-1 -439v-111h-15l-59 75l1 1l-361 456l-1 -451q1 -33 6 -44.5t21 -11.5v-5h-83zM154 698q0 60 19.5 92.5t54.5 32.5q24 0 76 -31
t76 -31q41 0 41 60h17q0 -61 -20.5 -94t-58.5 -33q-25 0 -76.5 31t-76.5 31q-35 0 -35 -58h-17z" />
    <glyph glyph-name="Ograve" unicode="&#xd2;" horiz-adv-x="731" 
d="M47 302q0 140 79 223t240 83t240 -83t79 -223t-78.5 -223.5t-240.5 -83.5t-240.5 83.5t-78.5 223.5zM153 302q0 -129 52.5 -206t160.5 -77t160.5 77t52.5 206t-52.5 205.5t-160.5 76.5t-160.5 -76.5t-52.5 -205.5zM321 758q-38 40 -38 49q0 10 22 26t35 16q7 0 32 -51
q15 -19 34.5 -58t31.5 -68l12 -30l-11 -9q-84 82 -118 125z" />
    <glyph glyph-name="Oacute" unicode="&#xd3;" horiz-adv-x="731" 
d="M366 -5q-162 0 -240.5 83.5t-78.5 223.5t79 223t240 83t240 -83t79 -223t-78.5 -223.5t-240.5 -83.5zM153 302q0 -129 52.5 -206t160.5 -77t160.5 77t52.5 206t-52.5 205.5t-160.5 76.5t-160.5 -76.5t-52.5 -205.5zM333 642q42 113 75 156q25 51 31 51q13 0 35 -16
t22 -26q0 -9 -37 -49q-15 -19 -43.5 -50.5t-49.5 -53.5l-22 -21z" />
    <glyph glyph-name="Ocircumflex" unicode="&#xd4;" horiz-adv-x="731" 
d="M366 -5q-162 0 -240.5 83.5t-78.5 223.5t79 223t240 83t240 -83t79 -223t-78.5 -223.5t-240.5 -83.5zM153 302q0 -129 52.5 -206t160.5 -77t160.5 77t52.5 206t-52.5 205.5t-160.5 76.5t-160.5 -76.5t-52.5 -205.5zM250 643l36 78l49 99q12 28 32 28t32 -28l85 -177
l-10 -8q-65 76 -107 121q-48 -50 -107 -121zM335 789v-1v1z" />
    <glyph glyph-name="Otilde" unicode="&#xd5;" horiz-adv-x="731" 
d="M366 -5q-162 0 -240.5 83.5t-78.5 223.5t79 223t240 83t240 -83t79 -223t-78.5 -223.5t-240.5 -83.5zM153 302q0 -129 52.5 -206t160.5 -77t160.5 77t52.5 206t-52.5 205.5t-160.5 76.5t-160.5 -76.5t-52.5 -205.5zM242 698h-17q0 60 19.5 92.5t54.5 32.5q25 0 76 -31
t76 -31q41 0 41 60h17q0 -61 -20.5 -94t-58.5 -33q-24 0 -76 31t-77 31q-35 0 -35 -58z" />
    <glyph glyph-name="Odieresis" unicode="&#xd6;" horiz-adv-x="731" 
d="M47 302q0 140 79 223t240 83t240 -83t79 -223t-78.5 -223.5t-240.5 -83.5t-240.5 83.5t-78.5 223.5zM153 302q0 -129 52.5 -206t160.5 -77t160.5 77t52.5 206t-52.5 205.5t-160.5 76.5t-160.5 -76.5t-52.5 -205.5zM463 673q-61 0 -61 61t61 61t61 -61t-61 -61zM271 673
q-61 0 -61 61t61 61t61 -61t-61 -61z" />
    <glyph glyph-name="Oslash" unicode="&#xd8;" horiz-adv-x="731" 
d="M62 -21l-30 32l83 79q-68 78 -68 212q0 140 79 223t240 83q139 0 220 -65l85 81l30 -32l-83 -80q67 -79 67 -210q0 -140 -78.5 -223.5t-240.5 -83.5q-138 0 -220 65zM153 302q0 -88 24 -152l358 344q-55 90 -169 90q-108 0 -160.5 -76.5t-52.5 -205.5zM197 109
q55 -90 169 -90q108 0 160.5 77t52.5 206q0 85 -24 150z" />
    <glyph glyph-name="Ugrave" unicode="&#xd9;" horiz-adv-x="550" 
d="M28 598v5h151v-5q-17 0 -22 -13.5t-5 -54.5v-352q0 -75 33 -112t114 -37q95 0 133.5 37t38.5 114v340q0 47 -6 62.5t-26 15.5v5h97v-5q-19 0 -25 -15.5t-6 -62.5v-351q0 -88 -49.5 -131t-170.5 -43q-127 0 -178.5 49.5t-51.5 151.5v334q0 41 -5 54.5t-22 13.5zM234 758
q-38 40 -38 49q0 10 22 26t35 16q7 0 32 -51q15 -19 34.5 -58t31.5 -68l12 -30l-11 -9q-84 82 -118 125z" />
    <glyph glyph-name="Uacute" unicode="&#xda;" horiz-adv-x="550" 
d="M28 598v5h151v-5q-17 0 -22 -13.5t-5 -54.5v-352q0 -75 33 -112t114 -37q95 0 133.5 37t38.5 114v340q0 47 -6 62.5t-26 15.5v5h97v-5q-19 0 -25 -15.5t-6 -62.5v-351q0 -88 -49.5 -131t-170.5 -43q-127 0 -178.5 49.5t-51.5 151.5v334q0 41 -5 54.5t-22 13.5zM280 633
l-11 9q42 113 75 156q25 51 31 51q13 0 35 -16t22 -26q0 -9 -37 -49q-15 -19 -43.5 -50.5t-49.5 -53.5z" />
    <glyph glyph-name="Ucircumflex" unicode="&#xdb;" horiz-adv-x="550" 
d="M28 603h151v-5q-17 0 -22 -13.5t-5 -54.5v-352q0 -75 33 -112t114 -37q95 0 133.5 37t38.5 114v340q0 47 -6 62.5t-26 15.5v5h97v-5q-19 0 -25 -15.5t-6 -62.5v-351q0 -88 -49.5 -131t-170.5 -43q-127 0 -178.5 49.5t-51.5 151.5v334q0 41 -5 54.5t-22 13.5v5zM163 643
l36 78l49 99q12 28 32 28t32 -28l85 -177l-10 -8q-65 76 -107 121q-48 -50 -107 -121zM248 789v-1v1z" />
    <glyph glyph-name="Udieresis" unicode="&#xdc;" horiz-adv-x="550" 
d="M55 530q0 41 -5 54.5t-22 13.5v5h151v-5q-17 0 -22 -13.5t-5 -54.5v-352q0 -75 33 -112t114 -37q95 0 133.5 37t38.5 114v340q0 47 -6 62.5t-26 15.5v5h97v-5q-19 0 -25 -15.5t-6 -62.5v-351q0 -88 -49.5 -131t-170.5 -43q-127 0 -178.5 49.5t-51.5 151.5v334zM376 673
q-61 0 -61 61t61 61t61 -61t-61 -61zM123 734q0 61 61 61t61 -61t-61 -61t-61 61z" />
    <glyph glyph-name="Yacute" unicode="&#xdd;" horiz-adv-x="553" 
d="M68 530q-27 43 -37.5 55.5t-23.5 12.5v5h165v-5q-8 0 -12 -2t-4 -7.5t4 -14t12 -22.5l147 -236l123 194q47 74 36 84q-4 3 -11 4h-5v5h93v-5q-15 0 -27 -12.5t-40 -55.5q-27 -41 -80.5 -123.5t-80.5 -123.5v-210q0 -41 5 -54.5t22 -13.5v-5h-151v5q17 0 22 13.5t5 54.5
v184zM269 642q42 113 75 156q25 51 31 51q13 0 35 -16t22 -26q0 -9 -37 -49q-15 -19 -43.5 -50.5t-49.5 -53.5l-22 -21z" />
    <glyph glyph-name="agrave" unicode="&#xe0;" horiz-adv-x="476" 
d="M32 92q0 58 44 100t126 62q19 4 65 8v57q0 101 -42 101q-51 0 -76.5 -28t-20.5 -79h-69q-6 65 43 100t145 35q60 0 92.5 -39t32.5 -112v-194q0 -34 8.5 -49.5t31.5 -15.5q32 0 46 17l12 -14q-23 -27 -50.5 -39t-76.5 -12q-60 0 -72 52q-56 -47 -131 -47q-52 0 -80 25.5
t-28 71.5zM131 120q0 -58 59 -58q46 0 77 12v18v144q-51 -10 -65 -14q-34 -8 -52.5 -35t-18.5 -67zM133 647q0 10 22 26t35 16q7 0 32 -51q15 -20 34 -59t31 -68l12 -29l-11 -9q-84 82 -118 125h1q-38 40 -38 49z" />
    <glyph glyph-name="aacute" unicode="&#xe1;" horiz-adv-x="476" 
d="M140 -5q-52 0 -80 25.5t-28 71.5q0 58 44 100t126 62q19 4 65 8v57q0 101 -42 101q-51 0 -76.5 -28t-20.5 -79h-69q-6 65 43 100t145 35q60 0 92.5 -39t32.5 -112v-194q0 -34 8.5 -49.5t31.5 -15.5q32 0 46 17l12 -14q-23 -27 -50.5 -39t-76.5 -12q-60 0 -72 52
q-56 -47 -131 -47zM131 120q0 -58 59 -58q46 0 77 12v18v144q-51 -10 -65 -14q-34 -8 -52.5 -35t-18.5 -67zM185 473l-11 9q42 113 75 156q25 51 31 51q13 0 35 -16t22 -26q0 -9 -37 -49q-15 -19 -43.5 -50.5t-50.5 -53.5z" />
    <glyph glyph-name="acircumflex" unicode="&#xe2;" horiz-adv-x="476" 
d="M140 -5q-52 0 -80 25.5t-28 71.5q0 58 44 100t126 62q19 4 65 8v57q0 101 -42 101q-51 0 -76.5 -28t-20.5 -79h-69q-6 65 43 100t145 35q60 0 92.5 -39t32.5 -112v-194q0 -34 8.5 -49.5t31.5 -15.5q32 0 46 17l12 -14q-23 -27 -50.5 -39t-76.5 -12q-60 0 -72 52
q-56 -47 -131 -47zM131 120q0 -58 59 -58q46 0 77 12v18v144q-51 -10 -65 -14q-34 -8 -52.5 -35t-18.5 -67zM99 483q-3 -4 18.5 40.5t44.5 90.5l23 46h1q12 28 32 28q19 0 31 -28v-2l85 -175l-11 -8q-65 75 -106 121q-59 -64 -107 -121zM186 629l-1 -1z" />
    <glyph glyph-name="atilde" unicode="&#xe3;" horiz-adv-x="476" 
d="M32 92q0 58 44 100t126 62q19 4 65 8v57q0 101 -42 101q-51 0 -76.5 -28t-20.5 -79h-69q-6 65 43 100t145 35q60 0 92.5 -39t32.5 -112v-194q0 -34 8.5 -49.5t31.5 -15.5q32 0 46 17l12 -14q-23 -27 -50.5 -39t-76.5 -12q-60 0 -72 52q-56 -47 -131 -47q-52 0 -80 25.5
t-28 71.5zM91 538h-17q0 60 19.5 92.5t54.5 32.5q24 0 76 -31t77 -31q41 0 41 60h17q0 -61 -20.5 -94t-58.5 -33q-24 0 -77 31t-77 31q-35 0 -35 -58zM131 120q0 -58 59 -58q46 0 77 12v18v144q-51 -10 -65 -14q-34 -8 -52.5 -35t-18.5 -67z" />
    <glyph glyph-name="adieresis" unicode="&#xe4;" horiz-adv-x="476" 
d="M32 92q0 58 44 100t126 62q19 4 65 8v57q0 101 -42 101q-51 0 -76.5 -28t-20.5 -79h-69q-6 65 43 100t145 35q60 0 92.5 -39t32.5 -112v-194q0 -34 8.5 -49.5t31.5 -15.5q32 0 46 17l12 -14q-23 -27 -50.5 -39t-76.5 -12q-60 0 -72 52q-56 -47 -131 -47q-52 0 -80 25.5
t-28 71.5zM131 120q0 -58 59 -58q46 0 77 12v18v144q-51 -10 -65 -14q-34 -8 -52.5 -35t-18.5 -67zM312 513q-61 0 -61 61t61 61t61 -61t-61 -61zM60 574q0 61 61 61t61 -61t-61 -61t-61 61z" />
    <glyph glyph-name="aring" unicode="&#xe5;" horiz-adv-x="476" 
d="M32 92q0 58 44 100t126 62q19 4 65 8v57q0 101 -42 101q-51 0 -76.5 -28t-20.5 -79h-69q-6 65 43 100t145 35q60 0 92.5 -39t32.5 -112v-194q0 -34 8.5 -49.5t31.5 -15.5q32 0 46 17l12 -14q-23 -27 -50.5 -39t-76.5 -12q-60 0 -72 52q-56 -47 -131 -47q-52 0 -80 25.5
t-28 71.5zM121 571q0 44 25 68t71 24t70.5 -24t24.5 -68q0 -40 -27 -66.5t-68 -26.5t-68.5 26.5t-27.5 66.5zM131 120q0 -58 59 -58q46 0 77 12v18v144q-51 -10 -65 -14q-34 -8 -52.5 -35t-18.5 -67zM217 641q-68 0 -68 -70q0 -31 19.5 -51t48.5 -20t48 20t19 51
q0 70 -67 70z" />
    <glyph glyph-name="ccedilla" unicode="&#xe7;" horiz-adv-x="482" 
d="M46 203q0 118 62 181.5t177 63.5q68 0 107.5 -25.5t43.5 -71.5q0 -44 -44 -44q-45 0 -50 49q-6 64 -68 64q-59 0 -90.5 -46.5t-31.5 -132.5q0 -89 45 -137t128 -48q52 0 100 54l11 -9q-86 -96 -178 -105q-22 -15 -49 -70q24 15 59 15q39 0 60.5 -19.5t21.5 -55.5
q0 -41 -27.5 -63.5t-77.5 -22.5q-49 0 -83 31l5 11q15 -13 58 -13q31 0 47.5 15t16.5 42q0 55 -44 55q-20 0 -45 -15l-7 3q29 64 38 86q-89 3 -137 57t-48 151zM202 -89l2 3l-1 -1q-1 -1 -1 -2z" />
    <glyph glyph-name="egrave" unicode="&#xe8;" horiz-adv-x="488" 
d="M244 -5q-95 0 -146.5 54t-51.5 154q0 118 56.5 181.5t161.5 63.5q85 0 131.5 -50.5t46.5 -143.5h-290q-2 -95 43 -146.5t133 -51.5q55 0 103 54l11 -9q-95 -106 -198 -106zM259 420q-46 0 -73.5 -38t-32.5 -109l149 14q47 5 47 51q0 39 -23.5 60.5t-66.5 21.5zM181 647
q0 10 22 26t35 16q7 0 32 -51q15 -20 34 -59t31 -68l12 -29l-11 -9q-84 82 -118 125h1q-38 40 -38 49z" />
    <glyph glyph-name="eacute" unicode="&#xe9;" horiz-adv-x="488" 
d="M244 -5q-95 0 -146.5 54t-51.5 154q0 118 56.5 181.5t161.5 63.5q85 0 131.5 -50.5t46.5 -143.5h-290q-2 -95 43 -146.5t133 -51.5q55 0 103 54l11 -9q-95 -106 -198 -106zM259 420q-46 0 -73.5 -38t-32.5 -109l149 14q47 5 47 51q0 39 -23.5 60.5t-66.5 21.5zM223 482
q42 113 75 156q25 51 31 51q13 0 35 -16t22 -26q0 -9 -37 -49q-15 -19 -43.5 -50.5t-49.5 -53.5l-22 -21z" />
    <glyph glyph-name="ecircumflex" unicode="&#xea;" horiz-adv-x="488" 
d="M46 203q0 118 56.5 181.5t161.5 63.5q85 0 131.5 -50.5t46.5 -143.5h-290q-2 -95 43 -146.5t133 -51.5q55 0 103 54l11 -9q-95 -106 -198 -106q-95 0 -146.5 54t-51.5 154zM259 420q-46 0 -73.5 -38t-32.5 -109l149 14q47 5 47 51q0 39 -23.5 60.5t-66.5 21.5zM148 483
l36 78l49 99h1q12 28 32 28t32 -28v-2l84 -175l-10 -8q-65 76 -106 121q-43 -43 -108 -121zM234 629l-1 -1z" />
    <glyph glyph-name="edieresis" unicode="&#xeb;" horiz-adv-x="488" 
d="M46 203q0 118 56.5 181.5t161.5 63.5q85 0 131.5 -50.5t46.5 -143.5h-290q-2 -95 43 -146.5t133 -51.5q55 0 103 54l11 -9q-95 -106 -198 -106q-95 0 -146.5 54t-51.5 154zM153 273l149 14q47 5 47 51q0 39 -23.5 60.5t-66.5 21.5q-46 0 -73.5 -38t-32.5 -109zM300 574
q0 61 61 61t61 -61t-61 -61t-61 61zM169 513q-61 0 -61 61t61 61t61 -61t-61 -61z" />
    <glyph glyph-name="igrave" unicode="&#xec;" horiz-adv-x="236" 
d="M41 409l107 34h20v-370q0 -41 5 -54.5t22 -13.5v-5h-154v5q17 0 22 13.5t5 54.5v290q0 11 -0.5 17.5t-3.5 11t-3.5 5.5t-8.5 4t-11 5v3zM35 647q0 10 22 26t35 16q7 0 32 -51q15 -20 34 -59t31 -68l12 -29l-11 -9q-84 82 -118 125h1q-38 40 -38 49z" />
    <glyph glyph-name="iacute" unicode="&#xed;" horiz-adv-x="236" 
d="M41 409l107 34h20v-370q0 -41 5 -54.5t22 -13.5v-5h-154v5q17 0 22 13.5t5 54.5v290q0 11 -0.5 17.5t-3.5 11t-3.5 5.5t-8.5 4t-11 5v3zM31 482q42 113 75 156l3 -3l-2 3q25 51 31 51q13 0 35 -16t22 -26q0 -9 -37 -49h-1q-15 -19 -43.5 -50.5t-49.5 -53.5l-22 -21z" />
    <glyph glyph-name="icircumflex" unicode="&#xee;" horiz-adv-x="236" 
d="M41 0v5q17 0 22 13.5t5 54.5v290q0 11 -0.5 17.5t-3.5 11t-3.5 5.5t-8.5 4t-11 5v3l107 34h20v-370q0 -41 5 -54.5t22 -13.5v-5h-154zM2 483l36 78l49 99h1q12 28 32 28t32 -28v-2l84 -175l-10 -8q-65 76 -106 121q-43 -43 -108 -121zM88 629l-1 -1z" />
    <glyph glyph-name="idieresis" unicode="&#xef;" horiz-adv-x="236" 
d="M41 409l107 34h20v-370q0 -41 5 -54.5t22 -13.5v-5h-154v5q17 0 22 13.5t5 54.5v290q0 11 -0.5 17.5t-3.5 11t-3.5 5.5t-8.5 4t-11 5v3zM215 513q-61 0 -61 61t61 61t61 -61t-61 -61zM23 513q-61 0 -61 61t61 61t61 -61t-61 -61z" />
    <glyph glyph-name="ntilde" unicode="&#xf1;" horiz-adv-x="508" 
d="M41 406v3l107 34h20v-65q53 70 170 70q59 0 83 -37t24 -114v-224q0 -41 5 -54.5t22 -13.5v-5h-154v5q17 0 22 13.5t5 54.5v214q0 48 -18.5 71t-65.5 23q-66 0 -93 -21v-287q0 -41 5 -54.5t22 -13.5v-5h-154v5q17 0 22 13.5t5 54.5v290q0 11 -0.5 17.5t-3.5 11t-3.5 5.5
t-8.5 4t-11 5zM115 538q0 60 19.5 92.5t54.5 32.5q25 0 77 -31t76 -31q41 0 41 60h17q0 -61 -20.5 -94t-58.5 -33q-25 0 -77 31t-77 31q-35 0 -35 -58h-17z" />
    <glyph glyph-name="ograve" unicode="&#xf2;" horiz-adv-x="574" 
d="M287 -5q-115 0 -178 59t-63 168t62.5 167.5t178.5 58.5t178.5 -58.5t62.5 -167.5t-63 -168t-178 -59zM287 426q-62 0 -96 -53t-34 -151t34 -151.5t96 -53.5t96 53.5t34 151.5t-34 151t-96 53zM242 598q-38 40 -38 49q0 10 22 26t35 16q7 0 32 -51q15 -20 34 -59t31 -68
l12 -29l-11 -9q-84 82 -118 125h1z" />
    <glyph glyph-name="oacute" unicode="&#xf3;" horiz-adv-x="574" 
d="M287 -5q-115 0 -178 59t-63 168t62.5 167.5t178.5 58.5t178.5 -58.5t62.5 -167.5t-63 -168t-178 -59zM157 222q0 -98 34 -151.5t96 -53.5t96 53.5t34 151.5t-34 151t-96 53t-96 -53t-34 -151zM246 482q42 113 75 156q25 51 31 51q13 0 35 -16t22 -26q0 -9 -37 -49
q-15 -19 -43.5 -50.5t-50.5 -53.5l-21 -21z" />
    <glyph glyph-name="ocircumflex" unicode="&#xf4;" horiz-adv-x="574" 
d="M46 222q0 109 62.5 167.5t178.5 58.5t178.5 -58.5t62.5 -167.5t-63 -168t-178 -59t-178 59t-63 168zM287 426q-62 0 -96 -53t-34 -151t34 -151.5t96 -53.5t96 53.5t34 151.5t-34 151t-96 53zM171 483l36 78l49 99h1q12 28 32 28t32 -28v-2l84 -175l-10 -8
q-65 76 -106 121q-43 -43 -108 -121zM257 629l-1 -1z" />
    <glyph glyph-name="otilde" unicode="&#xf5;" horiz-adv-x="574" 
d="M287 -5q-115 0 -178 59t-63 168t62.5 167.5t178.5 58.5t178.5 -58.5t62.5 -167.5t-63 -168t-178 -59zM287 426q-62 0 -96 -53t-34 -151t34 -151.5t96 -53.5t96 53.5t34 151.5t-34 151t-96 53zM146 538q0 60 19.5 92.5t54.5 32.5q24 0 76 -31t76 -31q41 0 41 60h17
q0 -61 -20.5 -94t-58.5 -33q-25 0 -77 31t-76 31q-35 0 -35 -58h-17z" />
    <glyph glyph-name="odieresis" unicode="&#xf6;" horiz-adv-x="574" 
d="M46 222q0 109 62.5 167.5t178.5 58.5t178.5 -58.5t62.5 -167.5t-63 -168t-178 -59t-178 59t-63 168zM157 222q0 -98 34 -151.5t96 -53.5t96 53.5t34 151.5t-34 151t-96 53t-96 -53t-34 -151zM323 574q0 61 61 61t61 -61t-61 -61t-61 61zM192 513q-61 0 -61 61t61 61
t61 -61t-61 -61z" />
    <glyph glyph-name="oslash" unicode="&#xf8;" horiz-adv-x="574" 
d="M57 -17l-22 24l63 59q-52 58 -52 156q0 109 62.5 167.5t178.5 58.5q104 0 166 -48l64 60l22 -24l-62 -58q51 -59 51 -156q0 -109 -63 -168t-178 -59q-103 0 -166 48zM157 222q0 -54 10 -91l230 216q-33 79 -110 79q-62 0 -96 -53t-34 -151zM178 96q33 -79 109 -79
q62 0 96 53.5t34 151.5q0 52 -9 91z" />
    <glyph glyph-name="ugrave" unicode="&#xf9;" horiz-adv-x="473" 
d="M11 443h127l-1 -278q0 -104 106 -104q52 0 72 23v286q0 41 -5 54.5t-22 13.5v5h127v-363q0 -11 0.5 -17.5t3.5 -11t3.5 -5.5t8.5 -4t11 -5v-3l-107 -34h-20v66q-60 -71 -151 -71q-126 0 -126 159v216q0 41 -5 54.5t-22 13.5v5zM182 598q-38 40 -38 49q0 10 22 26t35 16
q7 0 32 -51q15 -20 34 -59t31 -68l12 -29l-11 -9q-84 82 -118 125h1z" />
    <glyph glyph-name="uacute" unicode="&#xfa;" horiz-adv-x="473" 
d="M38 370q0 41 -5 54.5t-22 13.5v5h127l-1 -278q0 -104 106 -104q52 0 72 23v286q0 41 -5 54.5t-22 13.5v5h127v-363q0 -11 0.5 -17.5t3.5 -11t3.5 -5.5t8.5 -4t11 -5v-3l-107 -34h-20v66q-60 -71 -151 -71q-126 0 -126 159v216zM196 473l-11 9q42 113 75 156q25 51 31 51
q13 0 35 -16t22 -26q0 -9 -37 -49q-15 -19 -43.5 -50.5t-49.5 -53.5z" />
    <glyph glyph-name="ucircumflex" unicode="&#xfb;" horiz-adv-x="473" 
d="M11 443h127l-1 -278q0 -104 106 -104q52 0 72 23v286q0 41 -5 54.5t-22 13.5v5h127v-363q0 -11 0.5 -17.5t3.5 -11t3.5 -5.5t8.5 -4t11 -5v-3l-107 -34h-20v66q-60 -71 -151 -71q-126 0 -126 159v216q0 41 -5 54.5t-22 13.5v5zM110 483q-3 -4 18.5 40.5t44.5 90.5l23 46
h1q12 28 32 28q19 0 31 -28v-2l85 -175l-11 -8q-65 75 -106 121q-59 -64 -107 -121zM197 629l-1 -1z" />
    <glyph glyph-name="udieresis" unicode="&#xfc;" horiz-adv-x="473" 
d="M11 438v5h127l-1 -278q0 -104 106 -104q52 0 72 23v286q0 41 -5 54.5t-22 13.5v5h127v-363q0 -11 0.5 -17.5t3.5 -11t3.5 -5.5t8.5 -4t11 -5v-3l-107 -34h-20v66q-60 -71 -151 -71q-126 0 -126 159v216q0 41 -5 54.5t-22 13.5zM262 574q0 61 61 61t61 -61t-61 -61t-61 61
zM132 513q-61 0 -61 61t61 61t61 -61t-61 -61z" />
    <glyph glyph-name="ydieresis" unicode="&#xff;" horiz-adv-x="398" 
d="M35 -255q-68 0 -68 49q0 42 50 42q11 0 31 -6t34 -12l14 -7q15 0 32.5 26.5t50.5 99.5q12 37 30 68l-170 365q-17 39 -29.5 53.5t-29.5 14.5v5h167v-5q-13 0 -14.5 -9t8.5 -35l124 -285l112 271q13 33 13.5 44.5t-10.5 13.5h-4v5h86v-5q-16 0 -25.5 -10t-24.5 -41
l-179 -397q-15 -26 -28 -62q-47 -105 -83.5 -144t-86.5 -39zM257 574q0 61 61 61t61 -61t-61 -61t-61 61zM65 574q0 61 61 61t61 -61t-61 -61t-61 61z" />
    <glyph glyph-name="Amacron" unicode="&#x100;" horiz-adv-x="573" 
d="M-1 0v5q17 0 27 13.5t25 54.5q41 106 115 305.5t89 238.5h24l234 -544q20 -45 28.5 -56.5t24.5 -11.5v-5h-164v5q21 0 22.5 13.5t-15.5 54.5q-7 18 -54 133h-224l-43 -118q-17 -47 -16.5 -64t18.5 -19h5v-5h-96zM139 230h206l-109 268zM127 706v56h280v-56h-280z" />
    <glyph glyph-name="amacron" unicode="&#x101;" horiz-adv-x="476" 
d="M32 92q0 58 44 100t126 62q19 4 65 8v57q0 101 -42 101q-51 0 -76.5 -28t-20.5 -79h-69q-6 65 43 100t145 35q60 0 92.5 -39t32.5 -112v-194q0 -34 8.5 -49.5t31.5 -15.5q32 0 46 17l12 -14q-23 -27 -50.5 -39t-76.5 -12q-60 0 -72 52q-56 -47 -131 -47q-52 0 -80 25.5
t-28 71.5zM131 120q0 -58 59 -58q46 0 77 12v18v144q-51 -10 -65 -14q-34 -8 -52.5 -35t-18.5 -67zM77 602h279v-56h-279v56z" />
    <glyph glyph-name="Abreve" unicode="&#x102;" horiz-adv-x="573" 
d="M-1 5q17 0 27 13.5t25 54.5q41 106 115 305.5t89 238.5h24l234 -544q20 -45 28.5 -56.5t24.5 -11.5v-5h-164v5q21 0 22.5 13.5t-15.5 54.5q-7 18 -54 133h-224l-43 -118q-17 -47 -16.5 -64t18.5 -19h5v-5h-96v5zM236 498l-97 -268h206zM149 814l17 6q25 -67 101 -67
t101 67l17 -6q-47 -128 -118 -128t-118 128z" />
    <glyph glyph-name="abreve" unicode="&#x103;" horiz-adv-x="476" 
d="M32 92q0 58 44 100t126 62q19 4 65 8v57q0 101 -42 101q-51 0 -76.5 -28t-20.5 -79h-69q-6 65 43 100t145 35q60 0 92.5 -39t32.5 -112v-194q0 -34 8.5 -49.5t31.5 -15.5q32 0 46 17l12 -14q-23 -27 -50.5 -39t-76.5 -12q-60 0 -72 52q-56 -47 -131 -47q-52 0 -80 25.5
t-28 71.5zM202 222q-34 -8 -52.5 -35t-18.5 -67q0 -58 59 -58q46 0 77 12v18v144q-51 -10 -65 -14zM217 496q-71 0 -118 128l16 6q25 -67 102 -67q76 0 101 67l17 -6q-47 -128 -118 -128z" />
    <glyph glyph-name="Aogonek" unicode="&#x104;" horiz-adv-x="573" 
d="M-1 0v5q17 0 27 13.5t25 54.5q41 106 115 305.5t89 238.5h24l234 -544q20 -45 28.5 -56.5t24.5 -11.5v-5h-127q-32 -11 -68.5 -54.5t-36.5 -89.5q0 -31 23.5 -47.5t67.5 -16.5q47 0 56 12l7 -8q-27 -32 -85 -32q-62 0 -96 21t-34 60q0 41 40 85.5t89 73.5v1h2q14 8 20 11
q1 6 -2.5 20t-7.5 26l-5 11l-54 133h-224l-43 -118q-17 -47 -16.5 -64t18.5 -19h5v-5h-96zM139 230h206l-109 268z" />
    <glyph glyph-name="aogonek" unicode="&#x105;" horiz-adv-x="476" 
d="M140 -5q-52 0 -80 25.5t-28 71.5q0 58 44 100t126 62q19 4 65 8v57q0 101 -42 101q-51 0 -76.5 -28t-20.5 -79h-69q-6 65 43 100t145 35q60 0 92.5 -39t32.5 -112v-194q0 -34 8.5 -49.5t31.5 -15.5q32 0 46 17l12 -14q-18 -23 -50 -39q-31 -22 -56.5 -59t-25.5 -76
q0 -36 23.5 -55.5t67.5 -19.5q47 0 56 12l7 -8q-27 -32 -85 -32q-62 0 -96 24t-34 68q0 63 88 135q-80 -6 -94 51q-56 -47 -131 -47zM131 120q0 -58 59 -58q46 0 77 12v18v144q-51 -10 -65 -14q-34 -8 -52.5 -35t-18.5 -67z" />
    <glyph glyph-name="Cacute" unicode="&#x106;" horiz-adv-x="690" 
d="M57 302q0 147 87 226.5t248 79.5q157 0 243 -72l-3 -64h-5l-6 15q-28 63 -122 85v1q-52 11 -107 11q-109 0 -168.5 -73.5t-59.5 -208.5q0 -136 59.5 -209.5t168.5 -73.5q83 0 145 25.5t83 72.5l6 15h5l3 -64l1 -1q-86 -72 -243 -72q-160 0 -247.5 80t-87.5 227zM335 642
q42 113 75 156q25 51 31 51q13 0 35 -16t22 -26q0 -9 -37 -49q-15 -19 -43.5 -50.5t-49.5 -53.5l-22 -21z" />
    <glyph glyph-name="cacute" unicode="&#x107;" horiz-adv-x="482" 
d="M46 203q0 118 62 181.5t177 63.5q68 0 107.5 -25.5t43.5 -71.5q0 -44 -44 -44q-45 0 -50 49q-6 64 -68 64q-59 0 -90.5 -46.5t-31.5 -132.5q0 -89 45 -137t128 -48q52 0 100 54l11 -9q-95 -106 -195 -106q-94 0 -144.5 54t-50.5 154zM209 473l-11 9q42 113 75 156l3 -3
l-2 3q25 51 31 51q13 0 35 -16t22 -26q0 -9 -37 -49h-1q-15 -19 -43.5 -50.5t-50.5 -53.5z" />
    <glyph glyph-name="Ccircumflex" unicode="&#x108;" horiz-adv-x="690" 
d="M57 302q0 147 87 226.5t248 79.5q157 0 243 -72l-3 -64h-5l-6 15q-28 63 -122 85v1q-52 11 -107 11q-109 0 -168.5 -73.5t-59.5 -208.5q0 -136 59.5 -209.5t168.5 -73.5q83 0 145 25.5t83 72.5l6 15h5l3 -64l1 -1q-86 -72 -243 -72q-160 0 -247.5 80t-87.5 227zM275 643
l36 78l49 99q12 28 32 28t32 -28l85 -177l-10 -8q-65 76 -107 121q-48 -50 -107 -121zM360 789v-1v1z" />
    <glyph glyph-name="Cdotaccent" unicode="&#x10a;" horiz-adv-x="690" 
d="M392 -5q-160 0 -247.5 80t-87.5 227t87 226.5t248 79.5q157 0 243 -72l-3 -64h-5l-6 15q-28 63 -122 85v1q-52 11 -107 11q-109 0 -168.5 -73.5t-59.5 -208.5q0 -136 59.5 -209.5t168.5 -73.5q83 0 145 25.5t83 72.5l6 15h5l3 -64l1 -1q-86 -72 -243 -72zM331 734
q0 61 61 61t61 -61t-61 -61t-61 61z" />
    <glyph glyph-name="cdotaccent" unicode="&#x10b;" horiz-adv-x="482" 
d="M241 -5q-94 0 -144.5 54t-50.5 154q0 118 62 181.5t177 63.5q68 0 107.5 -25.5t43.5 -71.5q0 -44 -44 -44q-45 0 -50 49q-6 64 -68 64q-59 0 -90.5 -46.5t-31.5 -132.5q0 -89 45 -137t128 -48q52 0 100 54l11 -9q-95 -106 -195 -106zM225 574q0 61 61 61t61 -61t-61 -61
t-61 61z" />
    <glyph glyph-name="Ccaron" unicode="&#x10c;" horiz-adv-x="690" 
d="M392 -5q-160 0 -247.5 80t-87.5 227t87 226.5t248 79.5q157 0 243 -72l-3 -64h-5l-6 15q-28 63 -122 85v1q-52 11 -107 11q-109 0 -168.5 -73.5t-59.5 -208.5q0 -136 59.5 -209.5t168.5 -73.5q83 0 145 25.5t83 72.5l6 15h5l3 -64l1 -1q-86 -72 -243 -72zM360 686
q0 1 -85 177l10 8q59 -71 107 -121l107 121l10 -8q-29 -61 -85 -177q-12 -28 -32 -28t-32 28zM360 718v-1v1z" />
    <glyph glyph-name="ccaron" unicode="&#x10d;" horiz-adv-x="482" 
d="M46 203q0 118 62 181.5t177 63.5q68 0 107.5 -25.5t43.5 -71.5q0 -44 -44 -44q-45 0 -50 49q-6 64 -68 64q-59 0 -90.5 -46.5t-31.5 -132.5q0 -89 45 -137t128 -48q52 0 100 54l11 -9q-95 -106 -195 -106q-94 0 -144.5 54t-50.5 154zM254 526q0 1 -85 177l10 8
q59 -71 107 -121l107 121l10 -8q-29 -61 -85 -177q-12 -28 -32 -28t-32 28zM254 558v-1v1z" />
    <glyph glyph-name="Dcaron" unicode="&#x10e;" horiz-adv-x="650" 
d="M36 0v5q17 0 22 13.5t5 54.5q0 327 1 475q-1 29 -6.5 39.5t-20.5 10.5v5h222q166 0 255.5 -78t89.5 -223t-81 -223.5t-231 -78.5h-256zM161 28h131q103 0 159 71.5t56 202.5t-64.5 202t-183.5 71h-98v-547zM254 686q-1 2 -2.5 5.5t-7 14t-10.5 20.5t-12 24.5t-13.5 27
t-13 26.5t-12 24.5t-9.5 19t-5.5 12.5t-0.5 3l11 8q59 -71 107 -121l106 121l11 -8q-30 -63 -86 -177q-12 -28 -31 -28q-20 0 -32 28zM254 718v-1v1z" />
    <glyph glyph-name="dcaron" unicode="&#x10f;" horiz-adv-x="579" 
d="M51 194q0 122 57 188t163 66q62 0 101 -41q0 41 0.5 115.5t0.5 105.5q0 6 -1 10.5t-2 7t-4 5t-5 3.5t-6.5 3t-8.5 4v3l107 34h20v-638q1 -5 3.5 -9t4.5 -5t8.5 -4t9.5 -5v-3l-107 -34h-20v58q-58 -63 -140 -63q-87 0 -134 52t-47 147zM155 232q0 -85 34.5 -130.5
t97.5 -45.5q61 0 85 21v38v245q-33 61 -106 61q-53 0 -82 -49t-29 -140zM544 622q16 108 41 108q21 0 42 -5.5t21 -17.5q0 -8 -11.5 -40.5t-29.5 -67.5zM532 453l-13 4l24 165l63 -23z" />
    <glyph glyph-name="Emacron" unicode="&#x112;" 
d="M446 0h-407v5q17 0 22 13.5t5 54.5q0 327 1 475q-1 29 -6.5 39.5t-20.5 10.5v5h403l-1 -12h1q-1 -9 -2 -30t-1 -30h-4q-12 29 -35.5 38.5t-86.5 9.5h-151v-256h111q54 0 72.5 5t26.5 22h4v-82h-4q-8 19 -26.5 25t-72.5 6h-111v-275h158q63 0 88.5 9.5t42.5 38.5h4
q-2 -10 -5 -30.5t-4 -29.5h1zM390 706h-280v56h280v-56z" />
    <glyph glyph-name="emacron" unicode="&#x113;" horiz-adv-x="488" 
d="M46 203q0 118 56.5 181.5t161.5 63.5q85 0 131.5 -50.5t46.5 -143.5h-290q-2 -95 43 -146.5t133 -51.5q55 0 103 54l11 -9q-95 -106 -198 -106q-95 0 -146.5 54t-51.5 154zM259 420q-46 0 -73.5 -38t-32.5 -109l149 14q47 5 47 51q0 39 -23.5 60.5t-66.5 21.5zM405 546
h-280v56h280v-56z" />
    <glyph glyph-name="Ebreve" unicode="&#x114;" 
d="M446 0h-407v5q17 0 22 13.5t5 54.5q0 327 1 475q-1 29 -6.5 39.5t-20.5 10.5v5h403l-1 -12h1q-1 -9 -2 -30t-1 -30h-4q-12 29 -35.5 38.5t-86.5 9.5h-151v-256h111q54 0 72.5 5t26.5 22h4v-82h-4q-8 19 -26.5 25t-72.5 6h-111v-275h158q63 0 88.5 9.5t42.5 38.5h4
q-2 -10 -5 -30.5t-4 -29.5h1zM132 814l17 6q25 -67 101 -67t101 67l17 -6q-47 -128 -118 -128t-118 128z" />
    <glyph glyph-name="ebreve" unicode="&#x115;" horiz-adv-x="488" 
d="M46 203q0 118 56.5 181.5t161.5 63.5q85 0 131.5 -50.5t46.5 -143.5h-290q-2 -95 43 -146.5t133 -51.5q55 0 103 54l11 -9q-95 -106 -198 -106q-95 0 -146.5 54t-51.5 154zM259 420q-46 0 -73.5 -38t-32.5 -109l149 14q47 5 47 51q0 39 -23.5 60.5t-66.5 21.5zM265 526
q-71 0 -118 128l17 6q25 -67 101 -67t101 67l17 -6q-47 -128 -118 -128z" />
    <glyph glyph-name="Edotaccent" unicode="&#x116;" 
d="M39 5q17 0 22 13.5t5 54.5q0 327 1 475q-1 29 -6.5 39.5t-20.5 10.5v5h403l-1 -12h1q-1 -9 -2 -30t-1 -30h-4q-12 29 -35.5 38.5t-86.5 9.5h-151v-256h111q54 0 72.5 5t26.5 22h4v-82h-4q-8 19 -26.5 25t-72.5 6h-111v-275h158q63 0 88.5 9.5t42.5 38.5h4
q-2 -10 -5 -30.5t-4 -29.5h1l-2 -12h-407v5zM250 673q-61 0 -61 61t61 61t61 -61t-61 -61z" />
    <glyph glyph-name="edotaccent" unicode="&#x117;" horiz-adv-x="488" 
d="M244 -5q-95 0 -146.5 54t-51.5 154q0 118 56.5 181.5t161.5 63.5q85 0 131.5 -50.5t46.5 -143.5h-290q-2 -95 43 -146.5t133 -51.5q55 0 103 54l11 -9q-95 -106 -198 -106zM259 420q-46 0 -73.5 -38t-32.5 -109l149 14q47 5 47 51q0 39 -23.5 60.5t-66.5 21.5zM204 574
q0 61 61 61t61 -61t-61 -61t-61 61z" />
    <glyph glyph-name="Eogonek" unicode="&#x118;" 
d="M399 0h-360v5q17 0 22 13.5t5 54.5q0 327 1 475q-1 29 -6.5 39.5t-20.5 10.5v5h403l-1 -12h1q-1 -9 -2 -30t-1 -30h-4q-12 29 -35.5 38.5t-86.5 9.5h-151v-256h111q54 0 72.5 5t26.5 22h4v-82h-4q-8 19 -26.5 25t-72.5 6h-111v-275h158q63 0 88.5 9.5t42.5 38.5h4
q-2 -10 -5 -30.5t-4 -29.5h1l-2 -12h-4q-32 -11 -68.5 -54.5t-36.5 -89.5q0 -31 23.5 -47.5t67.5 -16.5q47 0 56 12l7 -8q-27 -32 -85 -32q-62 0 -96 21t-34 60q0 40 37.5 82.5t85.5 72.5z" />
    <glyph glyph-name="eogonek" unicode="&#x119;" horiz-adv-x="488" 
d="M46 203q0 118 56.5 181.5t161.5 63.5q85 0 131.5 -50.5t46.5 -143.5h-290q-2 -95 43 -146.5t133 -51.5q55 0 103 54l11 -9q-40 -45 -83 -70v-1q-4 -1 -11 -5.5t-8 -4.5q-32 -21 -59 -61t-27 -82q0 -41 24 -63t67 -22q47 0 56 12l7 -8q-27 -32 -85 -32q-62 0 -96 26.5
t-34 75.5q0 63 79 131q-20 -2 -28 -2q-95 0 -146.5 54t-51.5 154zM259 420q-46 0 -73.5 -38t-32.5 -109l149 14q47 5 47 51q0 39 -23.5 60.5t-66.5 21.5z" />
    <glyph glyph-name="Ecaron" unicode="&#x11a;" 
d="M39 5q17 0 22 13.5t5 54.5q0 327 1 475q-1 29 -6.5 39.5t-20.5 10.5v5h403l-1 -12h1q-1 -9 -2 -30t-1 -30h-4q-12 29 -35.5 38.5t-86.5 9.5h-151v-256h111q54 0 72.5 5t26.5 22h4v-82h-4q-8 19 -26.5 25t-72.5 6h-111v-275h158q63 0 88.5 9.5t42.5 38.5h4
q-2 -10 -5 -30.5t-4 -29.5h1l-2 -12h-407v5zM218 686q0 1 -85 177l10 8q59 -71 107 -121l107 121l10 -8q-29 -61 -85 -177q-12 -28 -32 -28t-32 28zM218 718v-1v1z" />
    <glyph glyph-name="ecaron" unicode="&#x11b;" horiz-adv-x="488" 
d="M46 203q0 118 56.5 181.5t161.5 63.5q85 0 131.5 -50.5t46.5 -143.5h-290q-2 -95 43 -146.5t133 -51.5q55 0 103 54l11 -9q-95 -106 -198 -106q-95 0 -146.5 54t-51.5 154zM259 420q-46 0 -73.5 -38t-32.5 -109l149 14q47 5 47 51q0 39 -23.5 60.5t-66.5 21.5zM233 526
q0 1 -85 177l10 8q59 -71 107 -121l107 121l10 -8q-29 -61 -85 -177q-12 -28 -32 -28t-32 28zM233 558v-1v1z" />
    <glyph glyph-name="Gcircumflex" unicode="&#x11c;" horiz-adv-x="724" 
d="M48 302q0 147 84.5 226.5t239.5 79.5q148 0 234 -72l-3 -64h-5l-6 15q-22 48 -81.5 72.5t-138.5 24.5q-105 0 -161.5 -73.5t-56.5 -208.5q0 -136 56.5 -209.5t161.5 -73.5q79 0 151 23v168q0 41 -5 54.5t-22 13.5v5h141v-5q-17 0 -22 -13.5t-5 -54.5v-154l1 -1
q-106 -60 -239 -60q-155 0 -239.5 80t-84.5 227zM255 643l36 78l49 99q12 28 32 28t32 -28l85 -177l-10 -8q-65 76 -107 121q-48 -50 -107 -121zM340 789v-1v1z" />
    <glyph glyph-name="Gbreve" unicode="&#x11e;" horiz-adv-x="724" 
d="M48 302q0 147 84.5 226.5t239.5 79.5q148 0 234 -72l-3 -64h-5l-6 15q-22 48 -81.5 72.5t-138.5 24.5q-105 0 -161.5 -73.5t-56.5 -208.5q0 -136 56.5 -209.5t161.5 -73.5q79 0 151 23v168q0 41 -5 54.5t-22 13.5v5h141v-5q-17 0 -22 -13.5t-5 -54.5v-154l1 -1
q-106 -60 -239 -60q-155 0 -239.5 80t-84.5 227zM254 814l17 6q25 -67 101 -67t101 67l17 -6q-47 -128 -118 -128t-118 128z" />
    <glyph glyph-name="gbreve" unicode="&#x11f;" horiz-adv-x="447" 
d="M162 -267q-71 0 -109.5 29.5t-38.5 84.5q0 86 113 126q-88 19 -88 98q0 92 95 108q-80 32 -80 128q0 68 42.5 104.5t121.5 36.5q64 0 106 -25l127 20v-55l-89 -2q21 -32 21 -79q0 -68 -43 -105t-122 -37h-49q-62 0 -62 -55q0 -49 72 -49q65 3 79 3q83 0 128 -31.5
t45 -90.5q0 -100 -70 -154.5t-199 -54.5zM154 -32q-73 -25 -73 -109q0 -47 24 -72.5t68 -25.5q90 0 138.5 34t48.5 97q0 37 -34 57t-96 20q-8 0 -39.5 -1.5t-36.5 0.5zM218 426q-34 0 -52 -31t-18 -88q0 -58 18 -89t52 -31t52.5 31t18.5 89q0 57 -18.5 88t-52.5 31zM219 526
q-71 0 -118 128l17 6q25 -67 101 -67t101 67l17 -6q-47 -128 -118 -128z" />
    <glyph glyph-name="Gdotaccent" unicode="&#x120;" horiz-adv-x="724" 
d="M372 -5q-155 0 -239.5 80t-84.5 227t84.5 226.5t239.5 79.5q148 0 234 -72l-3 -64h-5l-6 15q-22 48 -81.5 72.5t-138.5 24.5q-105 0 -161.5 -73.5t-56.5 -208.5q0 -136 56.5 -209.5t161.5 -73.5q79 0 151 23v168q0 41 -5 54.5t-22 13.5v5h141v-5q-17 0 -22 -13.5
t-5 -54.5v-154l1 -1q-106 -60 -239 -60zM311 734q0 61 61 61t61 -61t-61 -61t-61 61z" />
    <glyph glyph-name="gdotaccent" unicode="&#x121;" horiz-adv-x="447" 
d="M14 -153q0 86 113 126q-88 19 -88 98q0 92 95 108q-80 32 -80 128q0 68 42.5 104.5t121.5 36.5q64 0 106 -25l127 20v-55l-89 -2q21 -32 21 -79q0 -68 -43 -105t-122 -37h-49q-62 0 -62 -55q0 -49 72 -49q65 3 79 3q83 0 128 -31.5t45 -90.5q0 -100 -70 -154.5
t-199 -54.5q-71 0 -109.5 29.5t-38.5 84.5zM154 -32q-73 -25 -73 -109q0 -47 24 -72.5t68 -25.5q90 0 138.5 34t48.5 97q0 37 -34 57t-96 20q-8 0 -39.5 -1.5t-36.5 0.5zM218 426q-34 0 -52 -31t-18 -88q0 -58 18 -89t52 -31t52.5 31t18.5 89q0 57 -18.5 88t-52.5 31z
M158 574q0 61 61 61t61 -61t-61 -61t-61 61z" />
    <glyph glyph-name="Hcircumflex" unicode="&#x124;" horiz-adv-x="659" 
d="M38 0v5q17 0 22 13.5t5 54.5h1q0 311 1 457h-1q0 41 -5 54.5t-22 13.5v5h150v-5q-14 0 -19.5 -7.5t-6.5 -28.5v-242h334q0 41 0.5 118t0.5 110q-1 29 -6.5 39.5t-20.5 10.5v5h151v-5q-17 0 -22 -13.5t-5 -54.5v-488q1 -22 6.5 -29.5t19.5 -7.5v-5h-151v5q17 0 22 13.5
t5 54.5v223h-334v-264q2 -15 7.5 -21t17.5 -6v-5h-150zM213 643q-3 -4 18.5 40.5t44.5 90.5l23 46q12 28 32 28q19 0 31 -28l86 -177l-11 -8q-65 76 -106 121q-48 -50 -107 -121zM299 789v-1v1z" />
    <glyph glyph-name="Itilde" unicode="&#x128;" horiz-adv-x="230" 
d="M42 0v5q17 0 22 13.5t5 54.5q0 327 1 475q-1 29 -6.5 39.5t-20.5 10.5v5h151v-5q-17 0 -22 -13.5t-5 -54.5v-488q1 -22 6.5 -29.5t19.5 -7.5v-5h-151zM-23 698q0 60 19.5 92.5t54.5 32.5q25 0 76.5 -31t75.5 -31q41 0 41 60h17q0 -61 -20.5 -94t-58.5 -33q-24 0 -76.5 31
t-76.5 31q-35 0 -35 -58h-17z" />
    <glyph glyph-name="itilde" unicode="&#x129;" horiz-adv-x="236" 
d="M41 409l107 34h20v-370q0 -41 5 -54.5t22 -13.5v-5h-154v5q17 0 22 13.5t5 54.5v290q0 11 -0.5 17.5t-3.5 11t-3.5 5.5t-8.5 4t-11 5v3zM-23 538q0 60 19.5 92.5t54.5 32.5q25 0 76.5 -31t75.5 -31q41 0 41 60h17q0 -61 -20.5 -94t-58.5 -33q-24 0 -76.5 31t-76.5 31
q-35 0 -35 -58h-17z" />
    <glyph glyph-name="Imacron" unicode="&#x12a;" horiz-adv-x="230" 
d="M42 5q17 0 22 13.5t5 54.5q0 327 1 475q-1 29 -6.5 39.5t-20.5 10.5v5h151v-5q-17 0 -22 -13.5t-5 -54.5v-488q1 -22 6.5 -29.5t19.5 -7.5v-5h-151v5zM-21 762h280v-56h-280v56z" />
    <glyph glyph-name="imacron" unicode="&#x12b;" horiz-adv-x="236" 
d="M41 0v5q17 0 22 13.5t5 54.5v290q0 11 -0.5 17.5t-3.5 11t-3.5 5.5t-8.5 4t-11 5v3l107 34h20v-370q0 -41 5 -54.5t22 -13.5v-5h-154zM259 546h-280v56h280v-56z" />
    <glyph glyph-name="Ibreve" unicode="&#x12c;" horiz-adv-x="230" 
d="M42 0v5q17 0 22 13.5t5 54.5q0 327 1 475q-1 29 -6.5 39.5t-20.5 10.5v5h151v-5q-17 0 -22 -13.5t-5 -54.5v-488q1 -22 6.5 -29.5t19.5 -7.5v-5h-151zM119 686q-71 0 -118 128l17 6q25 -67 101 -67t101 67l17 -6q-47 -128 -118 -128z" />
    <glyph glyph-name="ibreve" unicode="&#x12d;" horiz-adv-x="236" 
d="M41 5q17 0 22 13.5t5 54.5v290q0 11 -0.5 17.5t-3.5 11t-3.5 5.5t-8.5 4t-11 5v3l107 34h20v-370q0 -41 5 -54.5t22 -13.5v-5h-154v5zM1 654l17 6q25 -67 101 -67t101 67l17 -6q-47 -128 -118 -128t-118 128z" />
    <glyph glyph-name="Idotaccent" unicode="&#x130;" horiz-adv-x="230" 
d="M193 0h-151v5q17 0 22 13.5t5 54.5q0 327 1 475q-1 29 -6.5 39.5t-20.5 10.5v5h151v-5q-17 0 -22 -13.5t-5 -54.5v-488q1 -22 6.5 -29.5t19.5 -7.5v-5zM58 734q0 61 61 61t61 -61t-61 -61t-61 61z" />
    <glyph glyph-name="dotlessi" unicode="&#x131;" horiz-adv-x="236" 
d="M41 406v3l107 34h20v-370q0 -41 5 -54.5t22 -13.5v-5h-154v5q17 0 22 13.5t5 54.5v290q0 11 -0.5 17.5t-3.5 11t-3.5 5.5t-8.5 4t-11 5z" />
    <glyph glyph-name="Jcircumflex" unicode="&#x134;" horiz-adv-x="340" 
d="M-4 56q-9 44 44 44q41 0 50 -44h1q9 -44 42 -44q28 0 38 36.5t10 134.5v347q0 41 -5 54.5t-22 13.5v5h151v-5q-17 0 -22 -13.5t-5 -54.5v-266q0 -158 -36.5 -216t-136.5 -58q-94 0 -108 66h-1zM112 643q-3 -4 18.5 40.5t44.5 90.5l23 46q12 28 32 28q19 0 31 -28l86 -177
l-11 -8q-65 76 -106 121q-48 -50 -107 -121zM198 789v-1v1z" />
    <glyph glyph-name="Lacute" unicode="&#x139;" 
d="M445 0h-406v5q17 0 22 13.5t5 54.5q0 327 1 475q-1 29 -6.5 39.5t-20.5 10.5v5h150v-5q-17 0 -22 -13.5t-5 -54.5v-506h167q52 0 76 9.5t39 36.5l5 8q2 -2 5 -3h1q-2 -10 -5 -31.5t-4 -31.5zM91 633l-11 9q42 113 75 156q25 51 31 51q13 0 35 -16t22 -26q0 -9 -37 -49
q-15 -19 -43.5 -50.5t-50.5 -53.5z" />
    <glyph glyph-name="Lcaron" unicode="&#x13d;" 
d="M445 0h-406v5q17 0 22 13.5t5 54.5q0 327 1 475q-1 29 -6.5 39.5t-20.5 10.5v5h150v-5q-17 0 -22 -13.5t-5 -54.5v-506h167q52 0 76 9.5t39 36.5l5 8q2 -2 5 -3h1q-2 -10 -5 -31.5t-4 -31.5zM323 504l-63 23q16 108 42 108q21 0 41.5 -5.5t20.5 -17.5q0 -29 -41 -108z
M247 358l-12 4l24 165l63 -23z" />
    <glyph glyph-name="lcaron" unicode="&#x13e;" horiz-adv-x="236" 
d="M194 0h-154v5q17 0 22 13.5t5 54.5q0 387 1 554q0 8 -1 13t-4 8l-4.5 4.5t-7.5 4t-10 4.5v3l107 34h20v-656q1 -22 6.5 -29.5t19.5 -7.5v-5zM302 569l-63 23q16 108 41 108q21 0 42 -5.5t21 -17.5q0 -8 -11.5 -40.5t-29.5 -67.5zM214 427l24 165l63 -23l-74 -146z" />
    <glyph glyph-name="Lslash" unicode="&#x141;" 
d="M66 253l-51 -18v33l51 18q0 46 0.5 135.5t0.5 126.5q-1 29 -6.5 39.5t-20.5 10.5v5h150v-5q-17 0 -22 -13.5t-5 -54.5v-210l138 48v-33l-138 -48v-263h167q52 0 76 9.5t39 36.5l5 8q2 -2 5 -3h1q-2 -10 -5 -31.5t-4 -31.5l-2 -12h-406v5q17 0 22 13.5t5 54.5v180z" />
    <glyph glyph-name="lslash" unicode="&#x142;" horiz-adv-x="236" 
d="M-33 282v34l100 33q0 51 0.5 146t0.5 132q0 8 -1 13t-4 8l-4.5 4.5t-7.5 4t-10 4.5v3l107 34h20v-315l99 33v-34l-99 -33v-307q1 -22 6.5 -29.5t19.5 -7.5v-5h-154v5q17 0 22 13.5t5 54.5v242z" />
    <glyph glyph-name="Nacute" unicode="&#x143;" horiz-adv-x="583" 
d="M36 0v5q17 0 22 13.5t5 54.5l1 469q-1 33 -6 44.5t-21 11.5v5h107l354 -449l1 389q-1 33 -6 44t-21 11v5h83v-5q-17 0 -22 -13.5t-5 -54.5l-1 -439v-111h-15l-59 75l1 1l-361 456l-1 -451q1 -33 6 -44.5t21 -11.5v-5h-83zM265 633l-11 9q42 113 75 156q25 51 31 51
q13 0 35 -16t22 -26q0 -9 -37 -49q-15 -19 -43.5 -50.5t-50.5 -53.5z" />
    <glyph glyph-name="nacute" unicode="&#x144;" horiz-adv-x="508" 
d="M41 5q17 0 22 13.5t5 54.5v290q0 11 -0.5 17.5t-3.5 11t-3.5 5.5t-8.5 4t-11 5v3l107 34h20v-65q53 70 170 70q59 0 83 -37t24 -114v-224q0 -41 5 -54.5t22 -13.5v-5h-154v5q17 0 22 13.5t5 54.5v214q0 48 -18.5 71t-65.5 23q-66 0 -93 -21v-287q0 -41 5 -54.5t22 -13.5
v-5h-154v5zM180 473l-11 9q42 113 75 156l3 -3l-2 3q25 51 31 51q13 0 35 -16t22 -26q0 -9 -37 -49h-1q-15 -19 -43.5 -50.5t-49.5 -53.5z" />
    <glyph glyph-name="Ncaron" unicode="&#x147;" horiz-adv-x="583" 
d="M36 5q17 0 22 13.5t5 54.5l1 469q-1 33 -6 44.5t-21 11.5v5h107l354 -449l1 389q-1 33 -6 44t-21 11v5h83v-5q-17 0 -22 -13.5t-5 -54.5l-1 -439v-111h-15l-59 75l1 1l-361 456l-1 -451q1 -33 6 -44.5t21 -11.5v-5h-83v5zM264 686q0 1 -85 177l10 8q59 -71 107 -121
l107 121l10 -8q-29 -61 -85 -177q-12 -28 -32 -28t-32 28zM264 718v-1v1z" />
    <glyph glyph-name="ncaron" unicode="&#x148;" horiz-adv-x="508" 
d="M41 0v5q17 0 22 13.5t5 54.5v290q0 11 -0.5 17.5t-3.5 11t-3.5 5.5t-8.5 4t-11 5v3l107 34h20v-65q53 70 170 70q59 0 83 -37t24 -114v-224q0 -41 5 -54.5t22 -13.5v-5h-154v5q17 0 22 13.5t5 54.5v214q0 48 -18.5 71t-65.5 23q-66 0 -93 -21v-287q0 -41 5 -54.5
t22 -13.5v-5h-154zM226 526q-1 2 -2.5 5.5t-7 14t-10.5 20.5t-12 24.5t-13.5 27t-13 26.5t-12 24.5t-9.5 19t-5.5 12.5t-0.5 3l11 8q59 -71 107 -121l106 121l11 -8q-30 -63 -86 -177q-12 -28 -31 -28q-20 0 -32 28zM226 558v-1v1z" />
    <glyph glyph-name="Omacron" unicode="&#x14c;" horiz-adv-x="731" 
d="M47 302q0 140 79 223t240 83t240 -83t79 -223t-78.5 -223.5t-240.5 -83.5t-240.5 83.5t-78.5 223.5zM366 584q-108 0 -160.5 -76.5t-52.5 -205.5t52.5 -206t160.5 -77t160.5 77t52.5 206t-52.5 205.5t-160.5 76.5zM227 762h280v-56h-280v56z" />
    <glyph glyph-name="omacron" unicode="&#x14d;" horiz-adv-x="574" 
d="M287 -5q-115 0 -178 59t-63 168t62.5 167.5t178.5 58.5t178.5 -58.5t62.5 -167.5t-63 -168t-178 -59zM287 426q-62 0 -96 -53t-34 -151t34 -151.5t96 -53.5t96 53.5t34 151.5t-34 151t-96 53zM428 546h-280v56h280v-56z" />
    <glyph glyph-name="Obreve" unicode="&#x14e;" horiz-adv-x="731" 
d="M366 -5q-162 0 -240.5 83.5t-78.5 223.5t79 223t240 83t240 -83t79 -223t-78.5 -223.5t-240.5 -83.5zM153 302q0 -129 52.5 -206t160.5 -77t160.5 77t52.5 206t-52.5 205.5t-160.5 76.5t-160.5 -76.5t-52.5 -205.5zM249 814l17 6q25 -67 101 -67t101 67l17 -6
q-47 -128 -118 -128t-118 128z" />
    <glyph glyph-name="obreve" unicode="&#x14f;" horiz-adv-x="574" 
d="M287 -5q-115 0 -178 59t-63 168t62.5 167.5t178.5 58.5t178.5 -58.5t62.5 -167.5t-63 -168t-178 -59zM157 222q0 -98 34 -151.5t96 -53.5t96 53.5t34 151.5t-34 151t-96 53t-96 -53t-34 -151zM170 654l17 6q25 -67 101 -67t101 67l17 -6q-47 -128 -118 -128t-118 128z
" />
    <glyph glyph-name="Racute" unicode="&#x154;" horiz-adv-x="617" 
d="M38 5q13 0 18.5 8t7.5 29l1 520q-1 21 -6.5 28.5t-19.5 7.5v5h231q106 0 163 -41.5t56 -117.5q0 -122 -137 -157q34 -38 171 -202q42 -50 52.5 -56.5t46.5 -6.5v-22h-38q-96 0 -120.5 12t-92.5 94q-130 155 -142 170h-67v28h86q68 0 104 36t36 104q0 63 -31 97t-88 34
h-107v28l-1 -530h1q0 -41 5 -54.5t22 -13.5v-5h-151v5zM202 633l-11 9q42 113 75 156q25 51 31 51q13 0 35 -16t22 -26q0 -9 -37 -49q-15 -19 -43.5 -50.5t-49.5 -53.5z" />
    <glyph glyph-name="Rcaron" unicode="&#x158;" horiz-adv-x="617" 
d="M38 0v5q13 0 18.5 8t7.5 29l1 520q-1 21 -6.5 28.5t-19.5 7.5v5h231q106 0 163 -41.5t56 -117.5q0 -122 -137 -157q34 -38 171 -202q42 -50 52.5 -56.5t46.5 -6.5v-22h-38q-96 0 -120.5 12t-92.5 94q-130 155 -142 170h-67v28h86q68 0 104 36t36 104q0 63 -31 97t-88 34
h-107v28l-1 -530h1q0 -41 5 -54.5t22 -13.5v-5h-151zM246 686q0 1 -85 177l10 8q59 -71 107 -121l107 121l10 -8q-29 -61 -85 -177q-12 -28 -32 -28t-32 28zM246 718v-1v1z" />
    <glyph glyph-name="rcaron" unicode="&#x159;" horiz-adv-x="360" 
d="M195 0h-154v5q17 0 22 13.5t5 54.5v290q0 11 -0.5 17.5t-3.5 11t-3.5 5.5t-8.5 4t-11 5v3l107 34h20v-80q47 85 117 85q38 0 53.5 -16t15.5 -49q0 -47 -48 -47q-16 0 -50 19t-50 19q-21 0 -38 -26v-275q0 -41 5 -54.5t22 -13.5v-5zM146 526q-1 2 -2.5 5.5t-7 14
t-10.5 20.5t-12 24.5t-13.5 27t-13 26.5t-12 24.5t-9.5 19t-5.5 12.5t-0.5 3l11 8q59 -71 107 -121l106 121l11 -8q-30 -63 -86 -177q-12 -28 -31 -28q-20 0 -32 28zM146 558v-1v1z" />
    <glyph glyph-name="Sacute" unicode="&#x15a;" horiz-adv-x="481" 
d="M234 -5q-126 0 -198 61h1l4 71h4q1 -2 3 -7t3 -7q32 -68 128 -88q-1 -1 24.5 -3.5t31.5 -2.5q66 0 101.5 28t35.5 79q0 42 -44.5 78t-127.5 61q-76 22 -117.5 64.5t-41.5 97.5q0 87 52.5 134t149.5 47q87 0 159 -61l-10 -12l11 12l-4 -70h-4q-11 22 -17 32t-18.5 23.5
t-29.5 24.5q-48 27 -91 27q-63 0 -97 -30.5t-35 -87.5q0 -37 43 -70.5t123 -57.5t123.5 -68.5t43.5 -103.5q0 -82 -53.5 -126.5t-152.5 -44.5zM194 633l-11 9q42 113 75 156q25 51 31 51q13 0 35 -16t22 -26q0 -9 -37 -49q-15 -19 -43.5 -50.5t-49.5 -53.5z" />
    <glyph glyph-name="sacute" unicode="&#x15b;" horiz-adv-x="391" 
d="M176 -5q-80 0 -136 46l3 58h4q1 -1 2.5 -4l2.5 -5q19 -30 54.5 -51t74.5 -21t60 21t21 59q0 49 -88 88q-126 56 -126 136q0 61 42.5 93.5t121.5 32.5q52 0 112 -51l-3 -54h-4q-20 40 -81 74q0 1 -6 3l-12 4l-6 2q-87 0 -87 -70q0 -46 120 -99q100 -44 100 -122
q0 -67 -44 -103.5t-125 -36.5zM125 482q42 113 75 156l3 -3l-2 3q25 51 31 51q13 0 35 -16t22 -26q0 -9 -37 -49h-1q-15 -19 -43.5 -50.5t-49.5 -53.5l-22 -21z" />
    <glyph glyph-name="Scircumflex" unicode="&#x15c;" horiz-adv-x="481" 
d="M234 -5q-126 0 -198 61h1l4 71h4q1 -2 3 -7t3 -7q32 -68 128 -88q-1 -1 24.5 -3.5t31.5 -2.5q66 0 101.5 28t35.5 79q0 42 -44.5 78t-127.5 61q-76 22 -117.5 64.5t-41.5 97.5q0 87 52.5 134t149.5 47q87 0 159 -61l-10 -12l11 12l-4 -70h-4q-11 22 -17 32t-18.5 23.5
t-29.5 24.5q-48 27 -91 27q-63 0 -97 -30.5t-35 -87.5q0 -37 43 -70.5t123 -57.5t123.5 -68.5t43.5 -103.5q0 -82 -53.5 -126.5t-152.5 -44.5zM123 643l36 78l49 99q12 28 32 28t32 -28l85 -177l-10 -8q-65 76 -107 121q-48 -50 -107 -121zM208 789v-1v1z" />
    <glyph glyph-name="Scedilla" unicode="&#x15e;" horiz-adv-x="481" 
d="M225 -5q-122 3 -189 61h1l4 71h4q1 -2 3 -7t3 -7q32 -68 128 -88q-1 -1 24.5 -3.5t31.5 -2.5q66 0 101.5 28t35.5 79q0 42 -44.5 78t-127.5 61q-76 22 -117.5 64.5t-41.5 97.5q0 87 52.5 134t149.5 47q87 0 159 -61l-10 -12l11 12l-4 -70h-4q-11 22 -17 32t-18.5 23.5
t-29.5 24.5q-48 27 -91 27q-63 0 -97 -30.5t-35 -87.5q0 -37 43 -70.5t123 -57.5t123.5 -68.5t43.5 -103.5q0 -78 -49 -122t-140 -49q-20 -13 -48 -69q24 15 59 15q39 0 60.5 -19.5t21.5 -55.5q0 -41 -27.5 -63.5t-77.5 -22.5q-49 0 -83 31l5 11q15 -13 58 -13q31 0 47.5 15
t16.5 42q0 55 -44 55q-20 0 -45 -15l-7 3q29 64 38 86zM198 -86l-1 -1q-1 -1 -1 -2z" />
    <glyph glyph-name="scedilla" unicode="&#x15f;" horiz-adv-x="391" 
d="M40 41l3 58h4q1 -1 2.5 -4l2.5 -5q19 -30 54.5 -51t74.5 -21t60 21t21 59q0 49 -88 88q-126 56 -126 136q0 61 42.5 93.5t121.5 32.5q52 0 112 -51l-3 -54h-4q-20 40 -81 74q0 1 -6 3l-12 4l-6 2q-87 0 -87 -70q0 -46 120 -99q100 -44 100 -122q0 -64 -39.5 -100
t-113.5 -40q-20 -13 -48 -69q24 15 59 15q39 0 60.5 -19.5t21.5 -55.5q0 -41 -27.5 -63.5t-77.5 -22.5q-49 0 -83 31l5 11q15 -13 58 -13q31 0 47.5 15t16.5 42q0 55 -44 55q-20 0 -45 -15l-7 3q29 64 38 86q-74 3 -126 46zM137 -89l2 3q-1 0 -1 -1t-1 -2z" />
    <glyph glyph-name="Scaron" unicode="&#x160;" horiz-adv-x="481" 
d="M234 -5q-126 0 -198 61h1l4 71h4q1 -2 3 -7t3 -7q32 -68 128 -88q-1 -1 24.5 -3.5t31.5 -2.5q66 0 101.5 28t35.5 79q0 42 -44.5 78t-127.5 61q-76 22 -117.5 64.5t-41.5 97.5q0 87 52.5 134t149.5 47q87 0 159 -61l-10 -12l11 12l-4 -70h-4q-11 22 -17 32t-18.5 23.5
t-29.5 24.5q-48 27 -91 27q-63 0 -97 -30.5t-35 -87.5q0 -37 43 -70.5t123 -57.5t123.5 -68.5t43.5 -103.5q0 -82 -53.5 -126.5t-152.5 -44.5zM208 686q0 1 -85 177l10 8q59 -71 107 -121l107 121l10 -8q-29 -61 -85 -177q-12 -28 -32 -28t-32 28zM208 718v-1v1z" />
    <glyph glyph-name="scaron" unicode="&#x161;" horiz-adv-x="391" 
d="M176 -5q-80 0 -136 46l3 58h4q1 -1 2.5 -4l2.5 -5q19 -30 54.5 -51t74.5 -21t60 21t21 59q0 49 -88 88q-126 56 -126 136q0 61 42.5 93.5t121.5 32.5q52 0 112 -51l-3 -54h-4q-20 40 -81 74q0 1 -6 3l-12 4l-6 2q-87 0 -87 -70q0 -46 120 -99q100 -44 100 -122
q0 -67 -44 -103.5t-125 -36.5zM181 526q0 1 -85 177l10 8q59 -71 107 -121l107 121l10 -8q-29 -61 -85 -177q-12 -28 -32 -28t-32 28zM181 558v-1v1z" />
    <glyph glyph-name="Tcaron" unicode="&#x164;" horiz-adv-x="591" 
d="M15 525h-4q1 11 2 33.5t1 32.5h-1v12h560v-12h1q0 -11 1 -33t2 -33h-4q-16 32 -37 43t-72 11h-119v-537q1 -22 6.5 -29.5t19.5 -7.5v-5h-151v5q17 0 22 13.5t5 54.5h1v506h-124q-51 0 -72 -11t-37 -43zM261 686q0 1 -85 177l10 8q59 -71 107 -121l107 121l10 -8
q-29 -61 -85 -177q-12 -28 -32 -28t-32 28zM261 718v-1v1z" />
    <glyph glyph-name="tcaron" unicode="&#x165;" horiz-adv-x="346" 
d="M21 415q65 11 132 136l13 28h18v-136h134v-39h-134v-304q0 -38 9.5 -49t40.5 -11q34 0 90 47l7 -8q-100 -84 -146 -84q-63 0 -82 23t-19 100v286h-63v11zM389 592q16 108 41 108q21 0 42 -5.5t21 -17.5q0 -8 -11.5 -40.5t-29.5 -67.5zM377 423l-13 4l24 165l63 -23z
M94 428l59 123l14 28l-72 -151h-1z" />
    <glyph glyph-name="Utilde" unicode="&#x168;" horiz-adv-x="550" 
d="M55 530q0 41 -5 54.5t-22 13.5v5h151v-5q-17 0 -22 -13.5t-5 -54.5v-352q0 -75 33 -112t114 -37q95 0 133.5 37t38.5 114v340q0 47 -6 62.5t-26 15.5v5h97v-5q-19 0 -25 -15.5t-6 -62.5v-351q0 -88 -49.5 -131t-170.5 -43q-127 0 -178.5 49.5t-51.5 151.5v334zM138 698
q0 60 19.5 92.5t54.5 32.5q24 0 76 -31t76 -31q41 0 41 60h17q0 -61 -20.5 -94t-58.5 -33q-25 0 -77 31t-76 31q-35 0 -35 -58h-17z" />
    <glyph glyph-name="utilde" unicode="&#x169;" horiz-adv-x="473" 
d="M11 443h127l-1 -278q0 -104 106 -104q52 0 72 23v286q0 41 -5 54.5t-22 13.5v5h127v-363q0 -11 0.5 -17.5t3.5 -11t3.5 -5.5t8.5 -4t11 -5v-3l-107 -34h-20v66q-60 -71 -151 -71q-126 0 -126 159v216q0 41 -5 54.5t-22 13.5v5zM85 538q0 60 19.5 92.5t54.5 32.5
q25 0 77 -31t76 -31q41 0 41 60h17q0 -61 -20.5 -94t-58.5 -33q-24 0 -76.5 31t-77.5 31q-35 0 -35 -58h-17z" />
    <glyph glyph-name="Umacron" unicode="&#x16a;" horiz-adv-x="550" 
d="M28 603h151v-5q-17 0 -22 -13.5t-5 -54.5v-352q0 -75 33 -112t114 -37q95 0 133.5 37t38.5 114v340q0 47 -6 62.5t-26 15.5v5h97v-5q-19 0 -25 -15.5t-6 -62.5v-351q0 -88 -49.5 -131t-170.5 -43q-127 0 -178.5 49.5t-51.5 151.5v334q0 41 -5 54.5t-22 13.5v5zM140 762
h280v-56h-280v56z" />
    <glyph glyph-name="umacron" unicode="&#x16b;" horiz-adv-x="473" 
d="M11 443h127l-1 -278q0 -104 106 -104q52 0 72 23v286q0 41 -5 54.5t-22 13.5v5h127v-363q0 -11 0.5 -17.5t3.5 -11t3.5 -5.5t8.5 -4t11 -5v-3l-107 -34h-20v66q-60 -71 -151 -71q-126 0 -126 159v216q0 41 -5 54.5t-22 13.5v5zM88 546v56h279v-56h-279z" />
    <glyph glyph-name="Ubreve" unicode="&#x16c;" horiz-adv-x="550" 
d="M28 598v5h151v-5q-17 0 -22 -13.5t-5 -54.5v-352q0 -75 33 -112t114 -37q95 0 133.5 37t38.5 114v340q0 47 -6 62.5t-26 15.5v5h97v-5q-19 0 -25 -15.5t-6 -62.5v-351q0 -88 -49.5 -131t-170.5 -43q-127 0 -178.5 49.5t-51.5 151.5v334q0 41 -5 54.5t-22 13.5zM162 814
l17 6q25 -67 101 -67t101 67l17 -6q-47 -128 -118 -128t-118 128z" />
    <glyph glyph-name="ubreve" unicode="&#x16d;" horiz-adv-x="473" 
d="M11 438v5h127l-1 -278q0 -104 106 -104q52 0 72 23v286q0 41 -5 54.5t-22 13.5v5h127v-363q0 -11 0.5 -17.5t3.5 -11t3.5 -5.5t8.5 -4t11 -5v-3l-107 -34h-20v66q-60 -71 -151 -71q-126 0 -126 159v216q0 41 -5 54.5t-22 13.5zM228 526q-71 0 -118 128l16 6
q25 -67 102 -67q76 0 101 67l17 -6q-47 -128 -118 -128z" />
    <glyph glyph-name="Uring" unicode="&#x16e;" horiz-adv-x="550" 
d="M28 603h151v-5q-17 0 -22 -13.5t-5 -54.5v-352q0 -75 33 -112t114 -37q95 0 133.5 37t38.5 114v340q0 47 -6 62.5t-26 15.5v5h97v-5q-19 0 -25 -15.5t-6 -62.5v-351q0 -88 -49.5 -131t-170.5 -43q-127 0 -178.5 49.5t-51.5 151.5v334q0 41 -5 54.5t-22 13.5v5zM184 731
q0 44 25 68t71 24t71 -24t25 -68q0 -40 -27.5 -66.5t-68.5 -26.5t-68.5 26.5t-27.5 66.5zM280 801q-68 0 -68 -70q0 -31 19.5 -51t48.5 -20t48.5 20t19.5 51q0 70 -68 70z" />
    <glyph glyph-name="uring" unicode="&#x16f;" horiz-adv-x="473" 
d="M11 443h127l-1 -278q0 -104 106 -104q52 0 72 23v286q0 41 -5 54.5t-22 13.5v5h127v-363q0 -11 0.5 -17.5t3.5 -11t3.5 -5.5t8.5 -4t11 -5v-3l-107 -34h-20v66q-60 -71 -151 -71q-126 0 -126 159v216q0 41 -5 54.5t-22 13.5v5zM132 571q0 44 25 68t71 24t70.5 -24
t24.5 -68q0 -40 -27 -66.5t-68 -26.5t-68.5 26.5t-27.5 66.5zM228 641q-68 0 -68 -70q0 -31 19.5 -51t48.5 -20t48 20t19 51q0 70 -67 70z" />
    <glyph glyph-name="Wcircumflex" unicode="&#x174;" horiz-adv-x="855" 
d="M2 603h159v-5q-16 0 -19 -9.5t6 -36.5l150 -416l148 477h27l182 -466l124 404q7 29 2.5 38t-24.5 9v5h97v-5q-17 0 -26.5 -13.5t-21.5 -54.5q-32 -100 -90.5 -285.5t-82.5 -259.5h-28v1l-185 456l-141 -457h-28l1 1l-202 544h-1q-15 41 -23.5 54.5t-23.5 13.5v5zM342 643
q-3 -4 18.5 40.5t44.5 90.5l23 46q12 28 32 28q19 0 31 -28l86 -177l-11 -8q-65 76 -106 121q-48 -50 -107 -121zM428 789v-1v1z" />
    <glyph glyph-name="Ycircumflex" unicode="&#x176;" horiz-adv-x="553" 
d="M7 603h165v-5q-8 0 -12 -2t-4 -7.5t4 -14t12 -22.5l147 -236l123 194q47 74 36 84q-4 3 -11 4h-5v5h93v-5q-15 0 -27 -12.5t-40 -55.5q-27 -41 -80.5 -123.5t-80.5 -123.5v-210q0 -41 5 -54.5t22 -13.5v-5h-151v5q17 0 22 13.5t5 54.5v184l-162 273q-27 43 -37.5 55.5
t-23.5 12.5v5zM163 643l36 78l49 99q12 28 32 28t32 -28l85 -177l-10 -8q-65 76 -107 121q-48 -50 -107 -121zM248 789v-1v1z" />
    <glyph glyph-name="Ydieresis" unicode="&#x178;" horiz-adv-x="553" 
d="M7 603h165v-5q-8 0 -12 -2t-4 -7.5t4 -14t12 -22.5l147 -236l123 194q47 74 36 84q-4 3 -11 4h-5v5h93v-5q-15 0 -27 -12.5t-40 -55.5q-27 -41 -80.5 -123.5t-80.5 -123.5v-210q0 -41 5 -54.5t22 -13.5v-5h-151v5q17 0 22 13.5t5 54.5v184l-162 273q-27 43 -37.5 55.5
t-23.5 12.5v5zM376 673q-61 0 -61 61t61 61t61 -61t-61 -61zM123 734q0 61 61 61t61 -61t-61 -61t-61 61z" />
    <glyph glyph-name="Zacute" unicode="&#x179;" horiz-adv-x="549" 
d="M37 0l345 579h-180q-49 0 -72 -9t-44 -34h-4q2 9 6 27.5t6 27.5l3 12h409l-346 -578h206q52 0 76 9.5t39 36.5l5 8q2 -2 5 -3h1q0 -2 -2.5 -18t-4.5 -31l-2 -15l-2 -12h-444zM312 633l-11 9q42 113 75 156q25 51 31 51q13 0 35 -16t22 -26q0 -9 -37 -49
q-15 -19 -43.5 -50.5t-49.5 -53.5z" />
    <glyph glyph-name="zacute" unicode="&#x17a;" horiz-adv-x="455" 
d="M383 0h-345l243 421l-103 -1q-5 -5 -19 -1t-43 -3t-50 -28h-4q1 7 4 21.5t5 21.5h-1l3 12h336l-241 -421h100q52 0 76 9.5t39 36.5l5 8q2 -2 5 -3h1q-2 -10 -5 -31t-4 -31zM174 473l-11 9q42 113 75 156l3 -3l-2 3q25 51 31 51q13 0 35 -16t22 -26q0 -9 -37 -49h-1
q-15 -19 -43.5 -50.5t-49.5 -53.5z" />
    <glyph glyph-name="Zdotaccent" unicode="&#x17b;" horiz-adv-x="549" 
d="M37 0l345 579h-180q-49 0 -72 -9t-44 -34h-4q2 9 6 27.5t6 27.5l3 12h409l-346 -578h206q52 0 76 9.5t39 36.5l5 8q2 -2 5 -3h1q0 -2 -2.5 -18t-4.5 -31l-2 -15l-2 -12h-444zM251 734q0 61 61 61t61 -61t-61 -61t-61 61z" />
    <glyph glyph-name="zdotaccent" unicode="&#x17c;" horiz-adv-x="455" 
d="M38 0l243 421l-103 -1q-5 -5 -19 -1t-43 -3t-50 -28h-4q1 7 4 21.5t5 21.5h-1l3 12h336l-241 -421h100q52 0 76 9.5t39 36.5l5 8q2 -2 5 -3h1q-2 -10 -5 -31t-4 -31l-2 -11h-345zM252 513q-62 0 -62 61t62 61q61 0 61 -61t-61 -61z" />
    <glyph glyph-name="Zcaron" unicode="&#x17d;" horiz-adv-x="549" 
d="M37 0l345 579h-180q-49 0 -72 -9t-44 -34h-4q2 9 6 27.5t6 27.5l3 12h409l-346 -578h206q52 0 76 9.5t39 36.5l5 8q2 -2 5 -3h1q0 -2 -2.5 -18t-4.5 -31l-2 -15l-2 -12h-444zM280 686q0 1 -85 177l10 8q59 -71 107 -121l107 121l10 -8q-29 -61 -85 -177q-12 -28 -32 -28
t-32 28zM280 718v-1v1z" />
    <glyph glyph-name="zcaron" unicode="&#x17e;" horiz-adv-x="455" 
d="M383 0h-345l243 421l-103 -1q-5 -5 -19 -1t-43 -3t-50 -28h-4q1 7 4 21.5t5 21.5h-1l3 12h336l-241 -421h100q52 0 76 9.5t39 36.5l5 8q2 -2 5 -3h1q-2 -10 -5 -31t-4 -31zM220 526q-1 2 -2.5 5.5t-7 14t-10.5 20.5t-12 24.5t-13.5 27t-13 26.5t-12 24.5t-9.5 19
t-5.5 12.5t-0.5 3l11 8q59 -71 107 -121l106 121l11 -8q-30 -63 -86 -177q-12 -28 -31 -28q-20 0 -32 28zM220 558v-1v1z" />
    <glyph glyph-name="uni01EB" unicode="&#x1eb;" horiz-adv-x="676" 
d="M52 248q0 116 71.5 184.5t217.5 68.5t217.5 -68.5t71.5 -184.5q0 -97 -51 -162t-154 -84q40 -45 78 -67t86 -22q70 0 92 27l8 -6q-64 -77 -115 -77q-56 0 -175 141q-27 -3 -58 -3q-146 0 -217.5 68.5t-71.5 184.5zM135 248q0 -107 51 -170.5t155 -63.5q105 0 156 63.5
t51 170.5t-51 171t-156 64q-104 0 -155 -64t-51 -171z" />
    <glyph glyph-name="uni0226" unicode="&#x226;" horiz-adv-x="573" 
d="M95 0h-96v5q17 0 27 13.5t25 54.5q41 106 115 305.5t89 238.5h24l234 -544q20 -45 28.5 -56.5t24.5 -11.5v-5h-164v5q21 0 22.5 13.5t-15.5 54.5q-7 18 -54 133h-224l-43 -118q-17 -47 -16.5 -64t18.5 -19h5v-5zM236 498l-97 -268h206zM267 673q-61 0 -61 61t61 61
t61 -61t-61 -61z" />
    <glyph glyph-name="uni0262" unicode="&#x262;" horiz-adv-x="674" 
d="M339 -5q-138 0 -212.5 65.5t-74.5 187.5t74.5 187.5t212.5 65.5q132 0 217 -73l-3 -60h-4q-29 71 -104 99q-54 16 -106 16q-98 0 -151 -61t-53 -174t53 -173.5t151 -60.5q75 0 153 31v115q0 41 -5 54.5t-22 13.5v5h122v-5q-17 0 -22 -13.5t-5 -54.5v-104
q-106 -61 -221 -61z" />
    <glyph glyph-name="uni026A" unicode="&#x26a;" horiz-adv-x="219" 
d="M54 491v5h129v-5q-17 0 -22 -13.5t-5 -54.5v-350q0 -41 5 -54.5t22 -13.5v-5h-129v5q17 0 22 13.5t5 54.5v350q0 41 -5 54.5t-22 13.5z" />
    <glyph glyph-name="uni0274" unicode="&#x274;" horiz-adv-x="522" 
d="M37 491v5h90l317 -378v305q0 41 -5 54.5t-22 13.5v5h76v-5q-17 0 -22 -13.5t-5 -54.5v-440h-6q-68 80 -373 444v-354q0 -41 5 -54.5t22 -13.5v-5h-77v5q17 0 22 13.5t5 54.5v350q0 41 -5 54.5t-22 13.5z" />
    <glyph glyph-name="uni0280" unicode="&#x280;" horiz-adv-x="557" 
d="M42 496h179q95 0 146 -33.5t51 -94.5q0 -52 -33 -86t-96 -47q55 -55 155 -146q63 -57 74.5 -64.5t42.5 -7.5v-17h-31q-68 0 -92 12.5t-112 93.5q-122 112 -132 121h-50v-154q0 -41 5 -54.5t22 -13.5v-5h-129v5q17 0 22 13.5t5 54.5v350q0 41 -5 54.5t-22 13.5v5zM221 475
l-77 -1v-225h62q64 0 98.5 31t34.5 88q0 51 -30.5 79t-87.5 28z" />
    <glyph glyph-name="uni028F" unicode="&#x28f;" horiz-adv-x="478" 
d="M13 496h139v-5q-8 0 -12 -2t-3.5 -8t4.5 -15t12 -23l119 -195l119 183q31 51 16 58q-3 2 -8 2h-5v5h85v-5q-15 0 -27.5 -13t-40.5 -55l-129 -193v-157q0 -41 5 -54.5t22 -13.5v-5h-129v5q17 0 22 13.5t5 54.5v135l-142 231q-21 33 -30 42.5t-22 9.5v5z" />
    <glyph glyph-name="uni0299" unicode="&#x299;" horiz-adv-x="484" 
d="M241 0h-199v5q17 0 22 13.5t5 54.5v350q0 41 -5 54.5t-22 13.5v5h179q93 0 143 -31.5t50 -90.5q0 -88 -115 -114q82 -10 125.5 -42t43.5 -84q0 -64 -59 -99t-168 -35zM144 247v-225h88q75 0 116 29t41 83t-48.5 83.5t-138.5 29.5h-58zM144 474v-210h62q64 0 98.5 28.5
t34.5 81.5q0 49 -30.5 75t-87.5 26z" />
    <glyph glyph-name="uni029C" unicode="&#x29c;" horiz-adv-x="604" 
d="M45 496h129v-5q-17 0 -22 -13.5t-5 -54.5v-158h319v158q0 41 -5 54.5t-22 13.5v5h129v-5q-17 0 -22 -13.5t-5 -54.5v-350q0 -41 5 -54.5t22 -13.5v-5h-129v5q17 0 22 13.5t5 54.5v173h-319v-173q0 -41 5 -54.5t22 -13.5v-5h-129v5q17 0 22 13.5t5 54.5v350q0 41 -5 54.5
t-22 13.5v5z" />
    <glyph glyph-name="uni029F" unicode="&#x29f;" horiz-adv-x="449" 
d="M45 491v5h129v-5q-17 0 -22 -13.5t-5 -54.5v-404h127q53 0 76.5 9.5t37.5 36.5l5 8q2 -2 5 -3h1l-9 -60h1l-1 -10h-345v5q17 0 22 13.5t5 54.5v350q0 41 -5 54.5t-22 13.5z" />
    <glyph glyph-name="circumflex" unicode="&#x2c6;" horiz-adv-x="306" 
d="M36 483q-3 -4 18.5 40.5t44.5 90.5l23 46q12 28 31 28q20 0 32 -28l85 -177l-10 -8q-65 76 -107 121q-48 -50 -107 -121zM121 629v-1v1z" />
    <glyph glyph-name="caron" unicode="&#x2c7;" horiz-adv-x="306" 
d="M122 526q-1 2 -2.5 5.5t-7 14t-10.5 20.5t-12 24.5t-13.5 27t-13 26.5t-12 24.5t-9.5 19t-5.5 12.5t-0.5 3l10 8q59 -71 107 -121l107 121l10 -8q-29 -61 -85 -177q-12 -28 -32 -28q-19 0 -31 28zM121 558v-1v1z" />
    <glyph glyph-name="uni02C9" unicode="&#x2c9;" horiz-adv-x="306" 
d="M14 546v56h279v-56h-279z" />
    <glyph glyph-name="breve" unicode="&#x2d8;" horiz-adv-x="306" 
d="M35 654l17 6q25 -67 101 -67q77 0 102 67l16 -6q-47 -128 -118 -128t-118 128z" />
    <glyph glyph-name="dotaccent" unicode="&#x2d9;" horiz-adv-x="306" 
d="M92 574q0 61 61 61t61 -61t-61 -61t-61 61z" />
    <glyph glyph-name="ring" unicode="&#x2da;" horiz-adv-x="306" 
d="M153 478q-41 0 -68 26.5t-27 66.5q0 44 24.5 68t70.5 24t71 -24t25 -68q0 -40 -27.5 -66.5t-68.5 -26.5zM85 571q0 -31 19.5 -51t48.5 -20t48.5 20t19.5 51q0 70 -68 70t-68 -70z" />
    <glyph glyph-name="uni1D00" unicode="&#x1d00;" horiz-adv-x="497" 
d="M2 0v5q14 0 23 9t20 35l180 459h19l193 -435q20 -44 29 -56t25 -12v-5h-141v5q21 0 22.5 13.5t-16.5 54.5l-41 97h-200l-31 -82h1q-19 -49 -18 -66t24 -17v-5h-89zM209 419l-87 -230h185z" />
    <glyph glyph-name="uni1D04" unicode="&#x1d04;" horiz-adv-x="642" 
d="M359 -5q-143 0 -220 66t-77 188q0 121 77.5 186.5t219.5 65.5t227 -73l-3 -60h-4q-45 115 -220 115q-103 0 -158.5 -61t-55.5 -173q0 -126 68.5 -186.5t193.5 -45.5q134 16 172 111h4l3 -60q-85 -73 -227 -73zM580 76l6 -8z" />
    <glyph glyph-name="uni1D05" unicode="&#x1d05;" horiz-adv-x="580" 
d="M42 0v5q17 0 22 13.5t5 54.5v350q0 41 -5 54.5t-22 13.5v5h177q151 0 233 -64.5t82 -183.5t-75.5 -183.5t-214.5 -64.5h-202zM144 22h100q103 0 159 58.5t56 167.5t-62.5 168t-177.5 59q-12 0 -37.5 -0.5t-37.5 -0.5v-452z" />
    <glyph glyph-name="uni1D07" unicode="&#x1d07;" horiz-adv-x="449" 
d="M45 5q17 0 22 13.5t5 54.5v350q0 41 -5 54.5t-22 13.5v5h341v-9h-1q-1 -9 -2 -28.5t-1 -28.5h-4q-11 26 -30 36t-67 12q-45 -1 -134 -1v-212h72q54 0 72.5 5t26.5 22h4v-76h-4q-8 19 -26.5 25t-72.5 6h-72v-228h117q64 0 89.5 9.5t42.5 38.5h4l-9 -57h2l-1 -10h-347v5z
" />
    <glyph glyph-name="uni1D0A" unicode="&#x1d0a;" horiz-adv-x="276" 
d="M-4 50q-6 34 34 34q33 0 39 -34q8 -43 31 -43q22 0 30 30.5t8 112.5v273q0 41 -5 54.5t-22 13.5v5h129v-5q-17 0 -22 -13.5t-5 -54.5v-209q0 -129 -28.5 -176.5t-105.5 -47.5q-35 0 -56.5 15.5t-26.5 44.5z" />
    <glyph glyph-name="uni1D0B" unicode="&#x1d0b;" horiz-adv-x="529" 
d="M42 496h129v-5q-17 0 -22 -13.5t-5 -54.5v-140l170 147q61 54 55 60q-1 1 -3 1h-3v5h70v-5q-17 0 -36 -13t-66 -55h-1l-96 -86q9 -13 90 -127q83 -118 123 -158t76 -40v-17h-31q-70 0 -119 33t-113 124q-84 119 -90 128l-26 -24v-183q0 -41 5 -54.5t22 -13.5v-5h-129v5
q17 0 22 13.5t5 54.5v350q0 41 -5 54.5t-22 13.5v5z" />
    <glyph glyph-name="uni1D0D" unicode="&#x1d0d;" horiz-adv-x="657" 
d="M28 5q18 0 23.5 13t7.5 55h1l17 350h-1q2 41 -2 54.5t-21 13.5v5h71q39 -69 115.5 -208t115.5 -208l178 416h33v1h61v-5q-13 -3 -18 -8.5t-6 -24.5l25 -412q3 -25 9 -33.5t20 -8.5v-5h-129v5q15 0 20 10.5t5 39.5q-3 49 -9.5 191.5t-8.5 187.5l-197 -439h-19
q-37 67 -110.5 201.5t-109.5 202.5l-17 -349q1 -26 8.5 -35.5t26.5 -9.5v-5h-89v5z" />
    <glyph glyph-name="uni1D0F" unicode="&#x1d0f;" horiz-adv-x="676" 
d="M341 -5q-146 0 -217.5 68.5t-71.5 184.5t71.5 184.5t217.5 68.5t217.5 -68.5t71.5 -184.5t-71.5 -184.5t-217.5 -68.5zM135 248q0 -107 51 -170.5t155 -63.5q105 0 156 63.5t51 170.5t-51 171t-156 64q-104 0 -155 -64t-51 -171z" />
    <glyph glyph-name="uni1D18" unicode="&#x1d18;" horiz-adv-x="450" 
d="M42 496h186q99 0 152.5 -36.5t53.5 -103.5q0 -68 -58 -104.5t-165 -36.5h-67v-142q0 -41 5 -54.5t22 -13.5v-5h-129v5q17 0 22 13.5t5 54.5v350q0 41 -5 54.5t-22 13.5v5zM144 237h67q69 0 106.5 31t37.5 88t-33 88t-94 31q-14 0 -42 -0.5t-42 -0.5v-237z" />
    <glyph glyph-name="uni1D1B" unicode="&#x1d1b;" horiz-adv-x="538" 
d="M16 424q0 10 1 31.5t2 31.5h-1v9h498v-9h1q2 -40 2 -63h-4q-16 32 -37 43t-71 11h-100v-405q0 -41 5 -54.5t22 -13.5v-5h-130v5q17 0 22 13.5t5 54.5v405h-102q-51 0 -72 -11t-37 -43h-4z" />
    <glyph glyph-name="uni1D1C" unicode="&#x1d1c;" horiz-adv-x="499" 
d="M32 491v5h129v-5q-17 0 -22 -13.5t-5 -54.5v-281q0 -61 31 -91t106 -30q86 0 121 30t35 92v270q0 47 -6 62.5t-26 15.5v5h89v-5q-19 0 -25 -15.5t-6 -62.5v-279q0 -70 -43 -104.5t-150 -34.5q-111 0 -156 40t-45 122v266q0 41 -5 54.5t-22 13.5z" />
    <glyph glyph-name="uni1D20" unicode="&#x1d20;" horiz-adv-x="493" 
d="M5 496h138v-5q-21 0 -21 -13.5t19 -54.5q104 -224 156 -337l117 331q10 30 11.5 45.5t-4.5 22t-22 6.5v5h94v-5q-17 0 -26 -13t-25 -55h-1l-159 -438h-21v1l-202 437h-1q-19 41 -29 54.5t-24 13.5v5z" />
    <glyph glyph-name="uni1D21" unicode="&#x1d21;" horiz-adv-x="719" 
d="M48 423q-15 41 -24 54.5t-23 13.5v5h134v-5q-18 0 -19.5 -13.5t13.5 -54.5q38 -109 116 -329l-33 -109l159 521h22l150 -403l100 320q13 41 10 54.5t-25 13.5v5h89v-5q-17 0 -26.5 -13.5t-21.5 -54.5q-21 -64 -44.5 -137t-52 -162.5t-44.5 -138.5h-22l1 3l-152 394
l-121 -397h-22l-163 438h-1z" />
    <glyph glyph-name="uni1D22" unicode="&#x1d22;" horiz-adv-x="495" 
d="M43 0l310 478h-140q-50 0 -72.5 -9t-43.5 -34h-4q2 8 6 26t6 26h-1l2 9h345l-311 -476h177q53 0 76.5 9.5t37.5 36.5l5 8q2 -2 5 -3h1q-2 -10 -5 -30.5t-4 -30.5h1l-1 -10h-390z" />
    <glyph glyph-name="Wgrave" unicode="&#x1e80;" horiz-adv-x="855" 
d="M2 603h159v-5q-16 0 -19 -9.5t6 -36.5l150 -416l148 477h27l182 -466l124 404q7 29 2.5 38t-24.5 9v5h97v-5q-17 0 -26.5 -13.5t-21.5 -54.5q-32 -100 -90.5 -285.5t-82.5 -259.5h-28v1l-185 456l-141 -457h-28l1 1l-202 544h-1q-15 41 -23.5 54.5t-23.5 13.5v5zM414 758
q-38 40 -38 49q0 10 22 26t35 16q7 0 32 -51q15 -19 34.5 -58t31.5 -68l12 -30l-11 -9q-84 82 -118 125z" />
    <glyph glyph-name="Wacute" unicode="&#x1e82;" horiz-adv-x="855" 
d="M2 603h159v-5q-16 0 -19 -9.5t6 -36.5l150 -416l148 477h27l182 -466l124 404q7 29 2.5 38t-24.5 9v5h97v-5q-17 0 -26.5 -13.5t-21.5 -54.5q-32 -100 -90.5 -285.5t-82.5 -259.5h-28v1l-185 456l-141 -457h-28l1 1l-202 544h-1q-15 41 -23.5 54.5t-23.5 13.5v5zM398 633
l-11 9q42 113 75 156q25 51 31 51q13 0 35 -16t22 -26q0 -9 -37 -49q-15 -19 -43.5 -50.5t-49.5 -53.5z" />
    <glyph glyph-name="Wdieresis" unicode="&#x1e84;" horiz-adv-x="855" 
d="M2 603h159v-5q-16 0 -19 -9.5t6 -36.5l150 -416l148 477h27l182 -466l124 404q7 29 2.5 38t-24.5 9v5h97v-5q-17 0 -26.5 -13.5t-21.5 -54.5q-32 -100 -90.5 -285.5t-82.5 -259.5h-28v1l-185 456l-141 -457h-28l1 1l-202 544h-1q-15 41 -23.5 54.5t-23.5 13.5v5zM494 734
q0 61 61 61t61 -61t-61 -61t-61 61zM303 734q0 61 61 61t61 -61t-61 -61t-61 61z" />
    <glyph glyph-name="uni1EBC" unicode="&#x1ebc;" 
d="M39 5q17 0 22 13.5t5 54.5q0 327 1 475q-1 29 -6.5 39.5t-20.5 10.5v5h403l-1 -12h1q-1 -9 -2 -30t-1 -30h-4q-12 29 -35.5 38.5t-86.5 9.5h-151v-256h111q54 0 72.5 5t26.5 22h4v-82h-4q-8 19 -26.5 25t-72.5 6h-111v-275h158q63 0 88.5 9.5t42.5 38.5h4
q-2 -10 -5 -30.5t-4 -29.5h1l-2 -12h-407v5zM108 698q0 60 19.5 92.5t54.5 32.5q24 0 76 -31t76 -31q41 0 41 60h17q0 -61 -20.5 -94t-58.5 -33q-25 0 -77 31t-76 31q-35 0 -35 -58h-17z" />
    <glyph glyph-name="Ygrave" unicode="&#x1ef2;" horiz-adv-x="553" 
d="M7 603h165v-5q-8 0 -12 -2t-4 -7.5t4 -14t12 -22.5l147 -236l123 194q47 74 36 84q-4 3 -11 4h-5v5h93v-5q-15 0 -27 -12.5t-40 -55.5q-27 -41 -80.5 -123.5t-80.5 -123.5v-210q0 -41 5 -54.5t22 -13.5v-5h-151v5q17 0 22 13.5t5 54.5v184l-162 273q-27 43 -37.5 55.5
t-23.5 12.5v5zM234 758q-38 40 -38 49q0 10 22 26t35 16q7 0 32 -51q15 -19 34.5 -58t31.5 -68l12 -30l-11 -9q-84 82 -118 125z" />
    <glyph glyph-name="quoteleft" unicode="&#x2018;" horiz-adv-x="259" 
d="M128 312q-42 0 -63.5 29.5t-21.5 73.5q0 67 34 118.5t96 78.5l7 -15q-40 -18 -60.5 -55.5t-16.5 -88.5q13 4 28 4q32 0 51 -20t18 -53q0 -34 -19 -53t-53 -19z" />
    <glyph glyph-name="quoteright" unicode="&#x2019;" horiz-adv-x="259" 
d="M154 467q-13 -4 -29 -4q-32 0 -51 20t-18 53q0 34 19 53t53 19q42 0 63.5 -29.5t21.5 -73.5q0 -67 -34 -118.5t-96 -78.5l-7 15q40 18 61 55.5t17 88.5z" />
    <glyph glyph-name="quotedblleft" unicode="&#x201c;" horiz-adv-x="466" 
d="M43 415q0 67 34 118.5t96 78.5l7 -15q-40 -18 -60.5 -55.5t-16.5 -88.5q13 4 28 4q32 0 51 -20t18 -53q0 -34 -19 -53t-53 -19q-42 0 -63.5 29.5t-21.5 73.5zM336 312q-41 0 -63 29.5t-22 73.5q0 67 34 118.5t96 78.5l7 -15q-39 -17 -60 -55t-17 -89q13 4 28 4
q32 0 51 -20t18 -53q0 -34 -19 -53t-53 -19z" />
    <glyph glyph-name="quotedblright" unicode="&#x201d;" horiz-adv-x="466" 
d="M154 467q-13 -4 -29 -4q-32 0 -51 20t-18 53q0 34 19 53t53 19q42 0 63.5 -29.5t21.5 -73.5q0 -67 -34 -118.5t-96 -78.5l-7 15q40 18 61 55.5t17 88.5zM359 467q-13 -4 -28 -4q-32 0 -51 20t-18 53q0 34 19 53t53 19q41 0 63 -29.5t22 -73.5q0 -67 -34 -118.5t-96 -78.5
l-7 15q39 17 60 54.5t17 89.5z" />
    <glyph glyph-name="ellipsis" unicode="&#x2026;" horiz-adv-x="592" 
d="M424 72q0 34 19 53t53 19t53 -19t19 -53t-19 -53t-53 -19t-53 19t-19 53zM296 0q-34 0 -53 19t-19 53t19 53t53 19t53 -19t19 -53t-19 -53t-53 -19zM96 0q-34 0 -53 19t-19 53t19 53t53 19t53 -19t19 -53t-19 -53t-53 -19z" />
    <glyph glyph-name="perthousand" unicode="&#x2030;" horiz-adv-x="1103" 
d="M608 -5q-75 0 -115.5 46t-40.5 132q0 91 40.5 140.5t115.5 49.5q77 0 118 -45.5t41 -130.5q0 -92 -41.5 -142t-117.5 -50zM947 -5q-71 0 -110 46.5t-39 131.5q0 91 39 140.5t110 49.5t109 -45.5t38 -130.5q0 -92 -38 -142t-109 -50zM27 514q0 91 39 140t110 49t109 -45.5
t38 -129.5q0 -93 -38 -143t-109 -50t-110 46.5t-38 132.5h-1zM198 -14l-44 28l455 699l44 -29zM594 334q-44 0 -44 -141q0 -165 67 -165q56 0 56 125q0 87 -20.5 134t-58.5 47zM162 674q-37 0 -37 -141q0 -79 15.5 -122.5t44.5 -43.5q44 0 44 126q0 181 -67 181zM933 334
q-37 0 -37 -142q0 -79 15.5 -121.5t44.5 -42.5q44 0 44 124q0 87 -17.5 134.5t-49.5 47.5z" />
    <glyph glyph-name="guilsinglleft" unicode="&#x2039;" horiz-adv-x="273" 
d="M117 224l115 -176l-11 -11l-205 180v11l202 181l11 -11z" />
    <glyph glyph-name="guilsinglright" unicode="&#x203a;" horiz-adv-x="273" 
d="M52 37l-11 11l115 176l-112 174l11 11l202 -181v-11z" />
    <glyph glyph-name="fraction" unicode="&#x2044;" horiz-adv-x="467" 
d="M48 -14l-44 28l456 699l44 -29z" />
    <glyph glyph-name="Euro" unicode="&#x20ac;" horiz-adv-x="734" 
d="M36 205l10 72h56q-2 25 0 50h-56l10 72h56q26 102 108.5 155.5t214.5 53.5q158 0 244 -72l-3 -64h-5l-6 15q-24 54 -89.5 75.5t-140.5 21.5q-87 0 -143 -47.5t-76 -137.5h277l-10 -72h-275q-2 -25 0 -50h275l-10 -72h-257q39 -187 228 -187q70 0 133 23.5t87 75.5l6 15h5
l3 -64l1 -1q-86 -72 -244 -72q-131 0 -214 54t-109 156h-76z" />
    <glyph glyph-name="uniA730" unicode="&#xa730;" horiz-adv-x="412" 
d="M184 0h-139v5q17 0 22 13.5t5 54.5v350q0 41 -5 54.5t-22 13.5v5h371v-9h-1q-1 -9 -2 -28.5t-1 -28.5h-4q-12 27 -31 37t-68 11q-54 -1 -162 -1v-215h62q54 0 72.5 5t26.5 22h4v-77h-4q-8 19 -26.5 25t-72.5 6h-62v-170q0 -41 7.5 -54.5t29.5 -13.5v-5z" />
    <glyph glyph-name="uniA731" unicode="&#xa731;" horiz-adv-x="424" 
d="M37 57l3 65h5l6 -15q18 -42 61 -67.5t99 -25.5q57 0 88 23t31 66q0 37 -39 67.5t-111 50.5q-65 18 -100.5 52.5t-35.5 79.5q0 71 43.5 109.5t123.5 38.5q63 0 136 -62l-3 -65h-5l-6 15q-15 36 -51.5 65t-73.5 29q-54 0 -83 -26t-29 -73q0 -34 36 -62.5t102 -46.5
q71 -20 110 -56.5t39 -84.5q0 -67 -44.5 -103t-127.5 -36q-101 0 -174 62zM339 429l8 10z" />
    <glyph glyph-name="uniF078" unicode="&#xf078;" horiz-adv-x="543" 
d="M36 496h138v-5q-17 0 -17 -9q2 -11 24 -43l99 -134l111 142q9 13 13 20.5t4.5 13t-3 7.5t-10.5 3h-5v5h85v-5q-17 0 -32.5 -13.5t-48.5 -54.5h-1l-104 -130l165 -220q33 -43 45 -55.5t25 -12.5v-5h-137v5q9 0 13 2t4.5 7t-4 13t-13.5 21l-131 175l-96 -135
q-49 -68 -40 -79q3 -3 11 -4h5v-5h-85v5q17 0 31.5 13.5t44.5 54.5h1l119 162q-13 18 -63 85t-77 103h-1q-31 42 -44 55t-26 13v5z" />
  </font>
</defs>
</svg>
