<?xml version="1.0" standalone="no"?>
<!DOCTYPE svg PUBLIC "-//W3C//DTD SVG 1.1//EN" "http://www.w3.org/Graphics/SVG/1.1/DTD/svg11.dtd" >
<svg xmlns="http://www.w3.org/2000/svg" xmlns:xlink="http://www.w3.org/1999/xlink" version="1.1">
<metadata>
Created by FontForge 20190801 at Fri Apr  3 01:24:31 2020
 By www-data
</metadata>
<defs>
<font id="AntiqueSemiBoldItalic" horiz-adv-x="506" >
  <font-face 
    font-family="AntiqueSemiBoldItalic"
    font-weight="600"
    font-style="italic"
    font-stretch="normal"
    units-per-em="1024"
    panose-1="0 0 0 0 0 0 0 0 0 0"
    ascent="819"
    descent="-205"
    x-height="443"
    cap-height="603"
    bbox="-115 -267 1141.22 871"
    underline-thickness="50"
    underline-position="-200"
    unicode-range="U+000D-F078"
  />
<missing-glyph horiz-adv-x="100" 
 />
    <glyph glyph-name=".notdef" horiz-adv-x="100" 
 />
    <glyph glyph-name="uni0000" horiz-adv-x="0" 
 />
    <glyph glyph-name="uni0000" horiz-adv-x="0" 
 />
    <glyph glyph-name="uni000D" unicode="&#xd;" horiz-adv-x="256" 
 />
    <glyph glyph-name="space" unicode=" " horiz-adv-x="244" 
 />
    <glyph glyph-name="exclam" unicode="!" horiz-adv-x="239" 
d="M159 214q-1 9 -2.5 24.5t-4 58.5t-3.5 81.5t0.5 83.5t6.5 74h-1q-1 34 18.5 53t55.5 19q71 0 48 -72h1q-8 -46 -34.5 -126.5t-48.5 -137.5l-22 -58h-14zM126 -5q-34 0 -49.5 18.5t-9.5 53.5q13 72 85 72q35 0 50.5 -18.5t9.5 -53.5q-13 -72 -86 -72z" />
    <glyph glyph-name="quotedbl" unicode="&#x22;" horiz-adv-x="357" 
d="M299 603h128l-102 -260h-16zM151 343l-9 260h127l-101 -260h-17z" />
    <glyph glyph-name="numbersign" unicode="#" 
d="M161 161h-120l25 78h121l41 126h-117l25 77h118l53 162h38l-53 -162h122l53 162h39l-53 -162h115l-24 -77h-117l-41 -126h107l-25 -78h-108l-53 -161h-39l53 161h-122l-53 -161h-38zM225 239h122l41 126h-122z" />
    <glyph glyph-name="dollar" unicode="$" horiz-adv-x="481" 
d="M46 56l17 71h4q1 -2 2 -7t1 -7q10 -34 40.5 -57t75.5 -32q7 42 22.5 127.5t21.5 119.5q-64 23 -93.5 64t-20.5 92q13 72 57 117t115 59l13 75h34q-5 -27 -12 -71q31 2 46 0l12 71h34q-5 -29 -13 -77q55 -14 95 -54l-16 -70h-4q-18 70 -80 96q-13 -67 -43 -242
q65 -25 95 -68t20 -97q-12 -68 -56.5 -110.5t-116.5 -55.5q-3 -16 -8 -45t-5 -30h-34q7 39 12 71q-14 -1 -46 -1q-7 -44 -12 -70h-34q1 6 5.5 32t7.5 41q-90 12 -136 58zM189 466q-9 -49 59 -91q7 40 19 107.5t16 93.5q-77 -23 -94 -110zM336 226q-24 -138 -35 -199
q79 23 93 99q10 55 -58 100zM279 359q24 -11 43 -17q29 166 42 240q-15 3 -46 1q-6 -35 -39 -224zM262 260q-28 -156 -42 -240q23 -2 46 0q4 23 17.5 101t21.5 122q-21 10 -43 17zM46 56l13 13z" />
    <glyph glyph-name="percent" unicode="%" horiz-adv-x="775" 
d="M607 -5q-75 0 -107.5 46.5t-16.5 131.5h-1q16 91 65.5 140.5t124.5 49.5q77 0 110 -45.5t18 -130.5q-17 -92 -67 -142t-126 -50zM235 335q-71 0 -102 46.5t-15 132.5q16 91 63.5 140t118.5 49t101 -45.5t15 -129.5q-16 -93 -63 -143t-118 -50zM196 -14l-39 28l577 699
l39 -29zM584 193q-14 -79 -4 -122t42 -43q56 0 78 125q15 87 2.5 134t-50.5 47q-44 0 -69 -141h1zM221 533q-14 -79 -6.5 -122.5t36.5 -43.5q44 0 66 126q31 181 -36 181q-37 0 -62 -141h2z" />
    <glyph glyph-name="ampersand" unicode="&#x26;" horiz-adv-x="694" 
d="M247 -5q-97 0 -142.5 37t-33.5 106q20 109 197 177q-41 87 -32 141l1 1q13 72 58.5 111.5t115.5 39.5t103.5 -28.5t24.5 -81.5q-10 -59 -54 -100.5t-115 -60.5q62 -113 151 -226q23 28 29 63l13 72q-1 23 -21 23v5h77v-5q-17 0 -24 -13t-15 -55h-3l-5 -27q-8 -46 -36 -81
q39 -47 67 -64.5t54 -17.5q12 0 46 6l-3 -17q-82 -14 -108 -14q-69 0 -128 51q-84 -42 -217 -42zM173 176q-11 -65 24.5 -100.5t112.5 -35.5q74 0 131 19q-85 85 -165 239q-89 -46 -103 -122zM321 499q-8 -52 41 -146q78 32 98 140q8 45 -7 69.5t-52 24.5q-63 0 -79 -87z
" />
    <glyph glyph-name="quotesingle" unicode="'" horiz-adv-x="199" 
d="M36 603h127l-55 -260h-17z" />
    <glyph glyph-name="parenleft" unicode="(" horiz-adv-x="247" 
d="M200 -166q-75 89 -101 176.5t-2 222.5q24 136 81 224t163 176l10 -12q-66 -55 -106.5 -138.5t-70.5 -249.5q-20 -114 -20 -190t14.5 -118t45.5 -79z" />
    <glyph glyph-name="parenright" unicode=")" horiz-adv-x="247" 
d="M-115 -154q66 55 106.5 138.5t69.5 249.5q20 114 20 190t-14.5 118t-45.5 79l14 12q75 -89 101 -176.5t2 -222.5q-24 -136 -80.5 -223.5t-162.5 -176.5z" />
    <glyph glyph-name="asterisk" unicode="*" horiz-adv-x="296" 
d="M28 516q-35 11 -16 44q10 19 25 19q11 0 21 -9v-1l83 -77l-25 111q-8 35 30 35q39 0 31 -35l-26 -111l84 78l31 -54l-109 -33l108 -33l-31 -54l-83 77l26 -110q8 -35 -31 -35q-38 0 -30 35l25 110l-83 -76h1q-11 -9 -21 -9q-15 0 -25 17q-20 34 14 45q16 5 34 10.5t40 12
t34 10.5l-108 34zM236 396v1l30 53q35 -11 15 -45q-11 -18 -25 -18q-10 0 -20 9zM267 517l-31 54q10 9 21 9q15 0 25 -19q19 -33 -15 -44z" />
    <glyph glyph-name="plus" unicode="+" 
d="M107 202l8 44h153l27 156h49q-13 -72 -27 -156h153l-8 -44h-153q-20 -114 -27 -155h-49q7 41 27 155h-153z" />
    <glyph glyph-name="comma" unicode="," horiz-adv-x="259" 
d="M218 36q-12 -67 -55.5 -118.5t-111.5 -78.5l3 16q44 18 72 63.5t28 94.5q-18 -18 -27 -18q-34 0 -49.5 18.5t-9.5 53.5q13 72 85 72q48 0 59 -35q14 -28 6 -68zM204 118z" />
    <glyph glyph-name="hyphen" unicode="-" horiz-adv-x="249" 
d="M45 163l14 77h217l-14 -77h-217z" />
    <glyph glyph-name="period" unicode="." horiz-adv-x="253" 
d="M124 -5q-34 0 -49.5 18.5t-9.5 53.5q13 72 85 72q34 0 49.5 -18.5t9.5 -53.5q-13 -72 -85 -72z" />
    <glyph glyph-name="slash" unicode="/" horiz-adv-x="350" 
d="M-32 -161l454 814h44l-453 -814h-45z" />
    <glyph glyph-name="zero" unicode="0" horiz-adv-x="527" 
d="M264 -5q-105 0 -151.5 59t-27.5 168h1q20 109 86.5 167.5t171.5 58.5q104 0 150 -58.5t27 -167.5q-20 -109 -86.5 -168t-170.5 -59zM197 222q-17 -98 1.5 -151.5t69.5 -53.5t88 53.5t54 151.5t-1 151t-69 53t-88.5 -53t-54.5 -151z" />
    <glyph glyph-name="one" unicode="1" horiz-adv-x="256" 
d="M53 0v5q15 0 22 10.5t13 41.5q8 45 30.5 173.5t31.5 177.5q1 17 -4 23.5t-17 6.5q0 1 1 3v2h153v-5q-17 0 -24 -13t-14 -55h-2q-51 -289 -52 -297h1q-7 -41 -4 -54.5t20 -13.5q0 -1 -1 -3v-2h-154z" />
    <glyph glyph-name="two" unicode="2" horiz-adv-x="456" 
d="M21 0q1 0 1 1l4 21q38 19 90 43.5t78 36.5t59 32t49.5 38t30.5 45.5t20 62.5q8 45 -12 69.5t-66 24.5q-96 0 -143 -80l-11 8q41 70 97 108t119 38q75 0 109.5 -35t22.5 -99q-12 -67 -66 -110.5t-177 -103.5h148q42 0 56.5 5t18.5 22h5q-3 -13 -9.5 -39l-9.5 -38l-13 -50
h-401zM22 0l18 10l-18 -9v-1z" />
    <glyph glyph-name="three" unicode="3" horiz-adv-x="439" 
d="M395 6q-19 -107 -126.5 -170.5t-288.5 -73.5l2 15q130 7 210 65t97 158q11 61 -24 94t-110 33q-15 0 -56 -12l3 17q39 13 65.5 24t61.5 30t56.5 45.5t27.5 58.5q8 41 -12.5 63t-64.5 22q-112 0 -162 -64l-11 8q101 129 237 129q68 0 98.5 -32.5t20.5 -92.5
q-15 -85 -178 -158q86 -7 126 -48.5t28 -110.5z" />
    <glyph glyph-name="four" unicode="4" horiz-adv-x="452" 
d="M248 0h-244l3 16q375 419 401 432v-1l1 1h16l-5 -30q-22 -124 -65 -374h98l-8 -44h-98q-5 -28 -15 -85.5l-14 -80.5h-100q23 125 30 166zM67 44h188q44 249 47 256q-105 -112 -235 -256z" />
    <glyph glyph-name="five" unicode="5" horiz-adv-x="424" 
d="M-8 -202l2 18q122 5 197 59t91 148q11 62 -29 95.5t-125 33.5h-39q53 198 69 291h215q42 0 57 5t23 22h5l-11 -27l-16 -37q0 -1 -2 -5t-3 -7l-2 -4l-23 -52h-236q-7 -27 -23 -87h54q109 0 158.5 -51t32.5 -145q-20 -116 -123 -183t-272 -74z" />
    <glyph glyph-name="six" unicode="6" horiz-adv-x="541" 
d="M270 -5q-105 0 -149.5 69t-21.5 197q35 200 162.5 312.5t326.5 119.5h2h-2l-2 -16q-143 -5 -238 -102.5t-127 -271.5q54 79 148 79l-21 -28q-95 0 -142 -129q-8 -40 -11 -59q-12 -69 11.5 -106t78.5 -37t90 42.5t46 120.5q14 81 -4 124.5t-67 43.5l21 28q92 0 133 -49.5
t25 -140.5q-11 -94 -78.5 -145.5t-180.5 -51.5z" />
    <glyph glyph-name="seven" unicode="7" horiz-adv-x="414" 
d="M78 314h-5q4 18 7 27h-1l25 102h374l6 -10q-98 -196 -296 -588h-111l344 496h-268q-41 0 -56 -5t-19 -22z" />
    <glyph glyph-name="eight" unicode="8" horiz-adv-x="512" 
d="M257 -5q-100 0 -147.5 39.5t-34.5 113.5q20 112 140 143q-79 60 -62 156q14 77 67.5 119t139.5 42t126 -34.5t29 -98.5h-2q-18 -108 -123 -149q122 -67 105 -162q-14 -81 -76 -125t-162 -44zM169 163q-12 -70 12.5 -108t82.5 -38q52 0 85.5 29.5t43.5 83.5q7 37 -23.5 70
t-92.5 57q-23 9 -42 21q-48 -33 -63 -115h-3zM245 486q-8 -44 14.5 -78.5t71.5 -53.5q25 -10 43 -19q37 34 54 123h1q11 62 -9 95.5t-68 33.5q-43 0 -71 -26t-36 -75z" />
    <glyph glyph-name="nine" unicode="9" horiz-adv-x="541" 
d="M521 182q-35 -200 -162.5 -312.5t-326.5 -119.5l2 16q143 5 238 102.5t128 272.5q-57 -80 -149 -80l21 28q89 0 139 115q8 38 14 73q12 69 -11.5 106t-78.5 37t-90 -42.5t-46 -120.5q-14 -81 4 -124.5t67 -43.5l-21 -28q-92 0 -133 49.5t-25 140.5q11 94 78.5 145.5
t180.5 51.5q105 0 149.5 -69t21.5 -197z" />
    <glyph glyph-name="colon" unicode=":" horiz-adv-x="253" 
d="M189 365q-34 0 -49.5 18.5t-9.5 53.5t28 54t57 19q71 0 59 -73q-13 -72 -85 -72zM124 -5q-34 0 -49.5 18.5t-9.5 53.5q13 72 85 72q34 0 49.5 -18.5t9.5 -53.5q-13 -72 -85 -72z" />
    <glyph glyph-name="semicolon" unicode=";" horiz-adv-x="259" 
d="M51 -161l3 16q44 18 72 63.5t28 94.5q-18 -18 -27 -18q-34 0 -49.5 18.5t-9.5 53.5q13 72 85 72q48 0 59 -35q14 -28 6 -68q-12 -67 -55.5 -118.5t-111.5 -78.5zM191 365q-34 0 -49.5 18.5t-9.5 53.5q13 72 85 72q34 0 49.5 -18.5t9.5 -53.5q-13 -72 -85 -72zM204 118z
" />
    <glyph glyph-name="less" unicode="&#x3c;" horiz-adv-x="512" 
d="M76 222l9 50q2 0 5.5 2t4.5 2l424 167h1l-9 -50l-383 -146l331 -147l-9 -50zM87 231l-2 -13z" />
    <glyph glyph-name="equal" unicode="=" horiz-adv-x="507" 
d="M116 194h359l-8 -45h-359zM134 294h359l-8 -45h-359z" />
    <glyph glyph-name="greater" unicode="&#x3e;" horiz-adv-x="501" 
d="M78 50l9 50l373 147l-320 146l9 50h-1h1l353 -167q2 0 5 -2.5t5 -2.5l-8 -48l-12 -5l10 58l-8 -45h-1l-2 -13z" />
    <glyph glyph-name="question" unicode="?" horiz-adv-x="343" 
d="M166 500q-44 0 -36 42l-1 1q14 65 89 65q96 0 138.5 -58.5t23.5 -166.5q-21 -115 -152 -115h-34l-20 -55h-13l-2 116q0 15 16 15h35q141 0 149 50q11 65 -21 100.5t-103 35.5q-10 0 -34.5 -15t-34.5 -15zM129 -5q-34 0 -49.5 18.5t-9.5 53.5q13 72 85 72q34 0 49.5 -18.5
t9.5 -53.5q-13 -72 -85 -72z" />
    <glyph glyph-name="at" unicode="@" horiz-adv-x="1130" 
d="M538 -263q-255 0 -371 128.5t-74 365.5t198 365t403 128q246 0 360 -109t79 -311q-28 -158 -113.5 -244t-215.5 -86q-82 0 -122 32t-35 94q-79 -94 -200 -94q-82 0 -119 42t-24 119q22 128 111.5 197.5t231.5 69.5q94 0 106 -68l27 59h95l-104 -225q-43 -92 -28 -141.5
t84 -49.5q85 0 144 76.5t85 218.5q33 188 -62.5 290t-304.5 102q-210 0 -344.5 -120.5t-173.5 -344.5q-40 -224 57 -345t315 -121q150 0 270.5 61t192.5 174h34q-81 -126 -211.5 -194.5t-290.5 -68.5zM417 187q-10 -61 13.5 -93.5t77.5 -32.5q47 0 88.5 31t71.5 89q3 9 8 19
l53 115q8 44 -15 68t-73 24q-89 0 -147 -57t-77 -163z" />
    <glyph glyph-name="A" unicode="A" horiz-adv-x="573" 
d="M1 0v5q17 0 28.5 13.5t34.5 54.5q50 91 149.5 272.5t149.5 271.5h24l138 -544h5q11 -45 18 -56.5t22 -11.5q0 -1 -1 -3v-2h-164v5q17 0 22 8t2 30l-38 163h-224l-64 -118h2q-37 -69 -23 -80q3 -2 11 -3h5q0 -1 -1 -3v-2h-96zM323 498l-144 -268h206z" />
    <glyph glyph-name="B" unicode="B" horiz-adv-x="554" 
d="M292 0h-255v5q17 0 24 13.5t14 54.5h2l87 495q1 17 -4 23.5t-17 6.5v5h231q104 0 153.5 -38.5t36.5 -109.5q-20 -111 -162 -140q90 -11 132 -50.5t32 -102.5q-13 -78 -84.5 -120t-189.5 -42zM213 297l-47 -269h117q75 0 122 35t59 99q11 65 -34 100t-140 35h-77zM262 575
l-44 -253h85q67 0 109.5 34.5t53.5 98.5q10 58 -15 89t-82 31h-107z" />
    <glyph glyph-name="C" unicode="C" horiz-adv-x="690" 
d="M391 -5q-160 0 -233.5 80t-47.5 227t127 226.5t262 79.5q156 0 230 -72h2l-3 -3l-13 -61h-5l-3 15q-17 63 -107 85v1q-53 12 -97 12q-115 0 -187 -73t-97 -210q-24 -136 22.5 -209.5t155.5 -73.5q76 0 143.5 22.5t101.5 75.5l9 15h5l-8 -65l-6 10h-1l6 -10
q-99 -72 -256 -72z" />
    <glyph glyph-name="D" unicode="D" horiz-adv-x="650" 
d="M39 0v5q15 0 22 10.5t13 40.5q17 94 92 523q-3 19 -21 19v5h220q166 0 241.5 -78t50.5 -223q-26 -145 -120.5 -223.5t-244.5 -78.5h-253zM161 0l5 28h131q103 0 171.5 71.5t91.5 202.5t-29 202t-171 71h-98z" />
    <glyph glyph-name="E" unicode="E" 
d="M42 5q15 0 22 10.5t13 40.5q17 94 92 523q-3 19 -21 19v5h406l-3 -12q-7 -34 -14 -60h-4q-4 29 -27 38.5t-86 9.5h-155l4 24q-16 -93 -56 -319.5t-46 -259.5h163q63 0 91 9.5t48 38.5h4q-3 -10 -9.5 -30t-9.5 -30h1l-4 -12h-409v5zM332 299h-116l4 24h116q53 0 72.5 5.5
t31.5 21.5h4q-1 -3 -6 -34.5t-9 -47.5h-4q-4 19 -21.5 25t-71.5 6z" />
    <glyph glyph-name="F" unicode="F" horiz-adv-x="469" 
d="M202 0h-160v5q15 0 22 10.5t13 40.5q8 49 24.5 141t36.5 207t30 170q0 24 -21 24v5h436l-1 -12h-2q-7 -34 -14 -60h-4q-4 29 -27 38.5t-86 9.5h-184l4 24q-3 -19 -21 -121.5t-29 -162.5h105q53 0 72.5 5.5t31.5 21.5h4q-1 -6 -3.5 -19.5t-3.5 -19.5h-1q-1 -7 -3.5 -21.5
t-3.5 -21.5h-4q-4 19 -22 25t-72 6h-104q-32 -184 -39 -222h1q-7 -41 -2 -54.5t28 -13.5q0 -1 -1 -3v-2z" />
    <glyph glyph-name="G" unicode="G" horiz-adv-x="724" 
d="M371 -5q-155 0 -225.5 80t-44.5 227t124.5 226.5t253.5 79.5q147 0 221 -72h1l-14 -64h-5l-3 15q-14 48 -69.5 72.5t-133.5 24.5q-105 0 -174.5 -73.5t-93.5 -208.5q-24 -136 19.5 -209.5t148.5 -73.5q81 0 156 24q2 9 6.5 36.5t13 74.5t16.5 94q1 17 -4 23.5t-17 6.5
q0 1 1 3v2h140v-5q-17 0 -24 -13t-14 -55h-2l-27 -155q-117 -60 -250 -60z" />
    <glyph glyph-name="H" unicode="H" horiz-adv-x="659" 
d="M42 0v5q15 0 22 10.5t13 40.5q8 49 24.5 141t36.5 207t30 170q0 24 -21 24v5h151v-5q-17 0 -24 -13t-15 -55h-3q-27 -154 -37 -210h336q29 159 46 262q-3 16 -20 16v5h152v-5q-17 0 -24 -13t-15 -55h-5q-14 -80 -43 -245.5t-37 -211.5h3q-7 -41 -4 -54.5t20 -13.5
q0 -1 -1 -3v-2h-151v5q20 0 28 25q5 25 21 118t26 148h-336q-34 -198 -39 -223h1q-7 -41 -4 -54.5t20 -13.5q0 -1 -1 -3v-2h-150z" />
    <glyph glyph-name="I" unicode="I" horiz-adv-x="230" 
d="M45 0v5q15 0 22 10.5t13 40.5q8 49 24.5 141t36.5 207t30 170q0 24 -21 24v5h152v-5q-17 0 -24 -13t-15 -55h-3q-14 -80 -43 -245.5t-37 -211.5h1q-7 -41 -4 -54.5t20 -13.5q0 -1 -1 -3v-2h-151z" />
    <glyph glyph-name="J" unicode="J" horiz-adv-x="340" 
d="M6 56q-1 21 12.5 32.5t39.5 11.5q40 0 42 -44t34 -44q28 0 44.5 36.5t33.5 134.5l68 385q1 17 -4 23.5t-17 6.5v5h152v-5q-17 0 -24 -13t-15 -55h-2l-47 -266q-28 -158 -74.5 -216t-146.5 -58q-94 0 -96 66z" />
    <glyph glyph-name="K" unicode="K" horiz-adv-x="599" 
d="M39 5q15 0 22 10.5t13 40.5l91 518q0 24 -21 24v5h152v-5q-17 0 -24 -13t-15 -55h-3l-33 -189l293 235q22 21 10 22h-3v5h82v-5q-18 0 -37.5 -12t-73.5 -56h-2l-149 -121q5 -10 17.5 -35.5t35 -72t44.5 -91.5q57 -115 88 -154t70 -39l-4 -22h-39q-82 0 -126.5 29.5
t-82.5 109.5q-22 45 -44.5 91.5t-35 72t-17.5 35.5l-32 -26l-41 -234h1q-7 -41 -4 -54.5t20 -13.5q0 -1 -1 -3v-2h-151v5z" />
    <glyph glyph-name="L" unicode="L" 
d="M42 0v5q15 0 22 10.5t13 40.5q17 94 92 523q-3 19 -21 19v5h151v-5q-17 0 -24 -13t-15 -55h-4q-24 -140 -89 -506h172q53 0 78.5 9.5t44.5 36.5l7 8q1 -2 3 -3h1q-12 -41 -20 -63h1l-4 -12h-408z" />
    <glyph glyph-name="M" unicode="M" horiz-adv-x="732" 
d="M29 5q17 0 25 13.5t16 54.5h1l107 495q1 17 -3 23.5t-16 6.5v5h83l-39 -56v-2l40 58l163 -477l-1 -1l6 -17l284 495h116v-5q-16 0 -23 -13.5t-12 -54.5h-3l-58 -457h3q-5 -41 -1.5 -54.5t21.5 -13.5q0 -1 -1 -3v-2h-151v5q19 0 27 22l70 490l-312 -522h-26l-19 60l1 1
l-139 421l-85 -389h1q-11 -49 -7 -66t28 -17q0 -1 -1 -3v-2h-95v5z" />
    <glyph glyph-name="N" unicode="N" horiz-adv-x="583" 
d="M38 5q15 0 22 10.5t13 40.5l91 518q0 24 -21 24v5h106l276 -450l75 429q-3 16 -20 16v5h84v-5q-17 0 -24 -13t-15 -55h-5q-70 -399 -97 -550h-15q-55 88 -163.5 265.5t-162.5 266.5l-77 -439h1q-7 -41 -4 -54.5t20 -13.5q0 -1 -1 -3v-2h-83v5z" />
    <glyph glyph-name="O" unicode="O" horiz-adv-x="731" 
d="M365 -5q-162 0 -226 83.5t-39 223.5t118.5 223t254.5 83t225.5 -83t39.5 -223t-118 -223.5t-255 -83.5zM207 302q-23 -129 16 -206t147 -77t174 77t88 206q23 128 -16 205t-147 77t-174 -76.5t-89 -205.5h1z" />
    <glyph glyph-name="P" unicode="P" horiz-adv-x="516" 
d="M190 0h-151v5q15 0 22 10.5t13 40.5q8 49 24.5 141t36.5 207t30 170q0 24 -21 24v5h235q109 0 160 -44.5t37 -126.5t-87 -127t-192 -45h-90l5 28h90q70 0 115 37.5t57 106.5t-14 106t-86 37h-112q-15 -83 -48 -272t-40 -230h1q-7 -41 -4 -54.5t20 -13.5q0 -1 -1 -3v-2z
" />
    <glyph glyph-name="Q" unicode="Q" horiz-adv-x="731" 
d="M365 -5q-162 0 -226 83.5t-39 223.5t118.5 223t254.5 83t225.5 -83t39.5 -223q-21 -120 -92.5 -199t-192.5 -101q55 -78 181 -78q91 0 116 27l10 -8q-82 -90 -157 -90q-47 0 -91 35.5t-95 108.5q-32 -2 -52 -2zM207 302q-23 -129 16 -206t147 -77t174 77t88 206
q23 128 -16 205t-147 77t-174 -76.5t-89 -205.5h1z" />
    <glyph glyph-name="R" unicode="R" horiz-adv-x="617" 
d="M39 0v5q15 0 22 10.5t13 40.5l91 518q0 24 -21 24v5h230q106 0 155.5 -41.5t36.5 -117.5q-10 -60 -52.5 -99.5t-111.5 -56.5q101 -151 135 -203q33 -50 42.5 -56.5t45.5 -6.5l-4 -22h-38q-34 0 -42.5 -0.5t-31 2t-25 2.5t-19 8.5t-18 11.5t-16 20t-19.5 26t-23 36
q-46 70 -112 170h-67l-36 -203h1q-7 -41 -4 -54.5t20 -13.5q0 -1 -1 -3v-2h-151zM214 304h86q68 0 110.5 36.5t54.5 103.5q11 63 -14 97t-82 34h-107z" />
    <glyph glyph-name="S" unicode="S" horiz-adv-x="481" 
d="M46 56l17 71h4q1 -2 2 -7t1 -7q20 -67 112 -88q0 -1 25.5 -3.5t30.5 -2.5q66 0 106.5 28t49.5 79q7 42 -31 78t-116 61q-73 22 -107 64.5t-24 97.5q15 87 75.5 134t157.5 47q87 0 148 -61l-16 -70h-4q-1 2 -2 7t-1 7q-12 42 -50 67.5t-83 25.5q-63 0 -102 -30.5
t-50 -87.5q-7 -37 30.5 -70.5t113.5 -57.5t111.5 -68.5t24.5 -103.5q-14 -82 -75.5 -126.5t-160.5 -44.5q-126 0 -187 61zM46 56l13 13z" />
    <glyph glyph-name="T" unicode="T" horiz-adv-x="591" 
d="M106 525q7 36 14 66l3 12h562l-2 -12q-1 -10 -4 -33t-5 -33h-4q-12 32 -30.5 43t-68.5 11h-125q-54 -307 -89 -506h1q-7 -41 -4 -54.5t20 -13.5q0 -1 -1 -3v-2h-151v5q16 0 23 11.5t13 46.5l91 516h-121q-46 0 -69 -9.5t-43 -36.5l-6 -8h-4z" />
    <glyph glyph-name="U" unicode="U" horiz-adv-x="550" 
d="M282 -5q-127 0 -169.5 49.5t-24.5 151.5l66 372q1 17 -4 23.5t-17 6.5v5h152v-5q-17 0 -24 -13t-15 -55h-2l-62 -352q-13 -75 13 -112t107 -37q95 0 140.5 37.5t58.5 113.5l70 392q-1 15 -6.5 20.5t-18.5 5.5v5h97v-5q-19 0 -27.5 -15.5t-16.5 -62.5h-4l-62 -351
q-16 -88 -73 -131t-178 -43z" />
    <glyph glyph-name="V" unicode="V" horiz-adv-x="567" 
d="M106 603h163v-5q-21 0 -23.5 -14t8.5 -54h-2l113 -405l222 424q12 29 9 39t-23 10v5h102v-5q-17 0 -28.5 -13.5t-34.5 -54.5h-2l-290 -545h-28l-157 582q-7 18 -13 24.5t-16 6.5v5z" />
    <glyph glyph-name="W" unicode="W" horiz-adv-x="855" 
d="M136 561q-5 22 -11 29.5t-18 7.5v5h160v-5q-18 0 -21.5 -14t3.5 -54q13 -75 39.5 -214t33.5 -180l-73 -151l305 628h26l100 -466l205 426q4 14 -1.5 19.5t-20.5 5.5v5h98v-5q-17 0 -28 -13t-32 -55h-3l-268 -545h-28l1 1l-105 456l-221 -457h-28z" />
    <glyph glyph-name="X" unicode="X" horiz-adv-x="610" 
d="M47 5q18 0 47 26l223 254l-146 282q-19 31 -35 31v5h163v-5q-11 0 -15.5 -3t-4 -11t5.5 -20t16 -34h-1l85 -163l182 212q9 19 -16 19v5h99v-5q-17 0 -33 -13t-54 -55h-5l-163 -183q24 -45 71 -136.5t71 -137.5h3q21 -41 31.5 -54.5t23.5 -13.5q0 -1 -1 -3v-2h-163v5
q15 0 18 6t-3 24l-119 230l-152 -177h3q-59 -69 -50 -79q2 -3 10 -4h5q0 -1 -1 -3v-2h-95v5z" />
    <glyph glyph-name="Y" unicode="Y" horiz-adv-x="553" 
d="M113 603h166v-5q-9 0 -13 -3t-4 -11t4.5 -20t13.5 -34h-1l96 -214l199 246q23 34 0 36h-5v5h93v-5q-15 0 -28.5 -12.5t-50.5 -55.5h-2l-204 -247l-37 -210h3q-7 -41 -4 -54.5t20 -13.5q0 -1 -1 -3v-2h-151v5q20 0 28 25l40 226l-134 319q-14 23 -28 23v5z" />
    <glyph glyph-name="Z" unicode="Z" horiz-adv-x="549" 
d="M483 0h-446l446 579h-179q-49 0 -73.5 -9t-49.5 -34h-4q4 9 11 27.5t10 27.5l5 12h408l-447 -578h208q53 0 78 9.5t44 36.5l7 8q1 -2 4 -3h1q-6 -21 -21 -63h2z" />
    <glyph glyph-name="bracketleft" unicode="[" horiz-adv-x="252" 
d="M119 -120h-77l128 723h182l-4 -22h-105q-34 -196 -124 -701zM120 -120l4 22h105l-4 -22h-105z" />
    <glyph glyph-name="backslash" unicode="\" horiz-adv-x="252" 
d="M193 -161l-141 814h35l141 -814h-35z" />
    <glyph glyph-name="bracketright" unicode="]" horiz-adv-x="253" 
d="M165 -120h-182l4 22h104q20 110 66 372.5t54 306.5h-105l4 22h183q-87 -492 -128 -723z" />
    <glyph glyph-name="asciicircum" unicode="^" horiz-adv-x="306" 
d="M36 483q-3 -4 18.5 40.5t44.5 90.5l23 46q12 28 31 28q20 0 32 -28l85 -177l-10 -8q-65 76 -107 121q-48 -50 -107 -121zM121 629v-1v1z" />
    <glyph glyph-name="underscore" unicode="_" horiz-adv-x="405" 
d="M-8 -50h403l-10 -56h-403z" />
    <glyph glyph-name="grave" unicode="`" horiz-adv-x="306" 
d="M108 598q-38 40 -38 49q0 10 22 26t35 16q6 0 31 -51q15 -19 35 -58t32 -68l12 -30l-12 -9q-83 82 -117 125z" />
    <glyph glyph-name="a" unicode="a" horiz-adv-x="476" 
d="M139 -5q-52 0 -75.5 25.5t-15.5 71.5q11 58 62.5 100t136.5 62q20 4 67 8l10 57q17 101 -25 101q-51 0 -81 -28t-35 -79h-69q5 64 60.5 99.5t151.5 35.5q60 0 85.5 -39t12.5 -112q-12 -70 -34 -194q-7 -31 -0.5 -48t29.5 -17q32 0 49 17l10 -14q-28 -27 -57.5 -39
t-78.5 -12q-33 0 -47 13t-15 40q-67 -48 -141 -48zM152 120q-11 -58 48 -58q48 0 81 13q1 5 3 17q6 31 14.5 79t11.5 65q-53 -10 -68 -14q-35 -8 -59 -35t-31 -67z" />
    <glyph glyph-name="b" unicode="b" horiz-adv-x="524" 
d="M40 0q17 97 51 291.5t51 291.5h-1q11 59 7 66q-1 2 -20 12v3l113 34h20l-4 -26h1l-48 -275q43 51 156 51q89 0 126.5 -59.5t18.5 -169.5q-19 -108 -89 -165.5t-183 -58.5q-31 0 -69.5 16t-58.5 16q-32 0 -52 -17l-8 -10h-11zM166 148q-10 -60 10.5 -92.5t69.5 -32.5
q59 0 98.5 40.5t52.5 114.5q19 109 -11 167.5t-104 58.5q-55 0 -76 -30z" />
    <glyph glyph-name="c" unicode="c" horiz-adv-x="482" 
d="M241 -5q-94 0 -135 54t-23 154q21 118 94.5 181.5t188.5 63.5q68 0 103 -25.5t31 -71.5h-1q-8 -44 -52 -44q-46 0 -41 49h1q5 64 -57 64q-58 0 -98 -46.5t-56 -132.5q-16 -89 20.5 -137t119.5 -48q52 0 109 54l9 -9h1q-114 -106 -214 -106z" />
    <glyph glyph-name="d" unicode="d" horiz-adv-x="579" 
d="M232 -5q-87 0 -125 52t-21 147q22 122 90.5 188t174.5 66q61 0 94 -41q7 41 20.5 119.5t19.5 111.5q0 4 -0.5 7t-3 5.5t-4 3.5t-7 3.5t-7.5 3.5v3l113 34h20l-20 -115q-18 -101 -52 -295t-40 -228q0 -4 0.5 -7t3 -5.5t4 -3.5t7 -3.5t7.5 -3.5v-3l-113 -34h-20l10 59
q-69 -64 -151 -64zM196 232q-15 -85 11.5 -130.5t89.5 -45.5q60 0 89 21l7 38h1q1 8 42 244q-21 62 -96 62q-53 0 -90.5 -49t-53.5 -140z" />
    <glyph glyph-name="e" unicode="e" horiz-adv-x="488" 
d="M245 -5q-95 0 -137 54t-24 154q21 118 89 181.5t173 63.5q86 0 123 -50.5t21 -143.5h-290l3 19l150 14q48 5 57 51l-8 -47h-1h1l9 47q7 39 -13 60.5t-63 21.5q-51 0 -87 -46.5t-52 -132.5q-16 -89 21 -137t122 -48q55 0 112 54l9 -9h2q-114 -106 -217 -106z" />
    <glyph glyph-name="f" unicode="f" horiz-adv-x="341" 
d="M184 0h-154v5q15 0 22 10.5t13 41.5l61 347h-64l7 39h64q14 67 18 67q17 90 80.5 139t164.5 49q52 0 78.5 -16.5t24.5 -47.5h-1q-8 -44 -52 -44q-47 0 -42 44h1q5 42 -40 42q-26 0 -67 -53.5t-55 -134.5l-8 -45h119l-7 -39h-119l-63 -359q-2 -23 2 -31.5t18 -8.5
q0 -1 -1 -3v-2z" />
    <glyph glyph-name="g" unicode="g" horiz-adv-x="447" 
d="M113 -267q-71 0 -104.5 29.5t-23.5 84.5h3q16 86 134 125q-85 20 -71 99q17 93 114 108q-75 32 -58 128q12 68 61 104.5t128 36.5q64 0 102 -25q22 3 66 9.5t66 10.5l-10 -55l-91 -2q16 -33 7 -79q-12 -68 -61.5 -105t-128.5 -37h-49q-62 0 -73 -55q-4 -23 13 -36t51 -13
q66 3 80 3q83 0 122.5 -31.5t28.5 -90.5q-18 -100 -97.5 -154.5t-208.5 -54.5zM54 -142q-8 -47 11.5 -72t63.5 -25q90 0 144.5 34t65.5 97q7 37 -23.5 57t-92.5 20q-8 0 -39.5 -1.5t-35.5 0.5q-77 -25 -91 -109zM202 307q-22 -120 50 -120q34 0 58 31.5t34 88.5t-3 88
t-47 31t-57.5 -31t-34.5 -88z" />
    <glyph glyph-name="h" unicode="h" horiz-adv-x="508" 
d="M198 0h-154v5q13 0 19.5 7t11.5 26l107 608q-2 5 -22 15v3l26 8h1l86 26h20l-20 -115h-3l-36 -206q65 71 184 71q59 0 76 -37t4 -114q-14 -80 -40 -224h3q-7 -41 -4 -54.5t20 -13.5q0 -1 -1 -3v-2h-154v5q20 0 28 24l45 258q9 48 -5.5 71t-61.5 23q-65 0 -97 -21
l-50 -287h2q-7 -41 -4 -54.5t20 -13.5q0 -1 -1 -3v-2z" />
    <glyph glyph-name="i" unicode="i" horiz-adv-x="236" 
d="M44 5q20 0 28 25q28 152 64 361q-1 5 -21 15v3l26 8h1l86 26h20l-20 -115h-2q-25 -143 -45 -255h2q-7 -41 -4 -54.5t20 -13.5q0 -1 -1 -3v-2h-154v5zM202 513q-31 0 -45 17.5t-9 49.5q11 66 77 66q32 0 46.5 -17t8.5 -49q-12 -67 -77 -67h-1z" />
    <glyph glyph-name="j" unicode="j" horiz-adv-x="232" 
d="M-79 -246q68 38 94.5 82t47.5 165q0 -1 14 74.5t30 166.5t25 142q0 4 -0.5 7t-3 5t-4 3t-7 3.5t-7.5 3.5v3l113 34h20l-20 -115h-2q-52 -298 -51 -299q-10 -59 -24 -96t-44 -70.5t-67 -58.5t-106 -64zM198 513q-31 0 -45 17.5t-9 49.5q11 66 77 66q32 0 46.5 -17t8.5 -49
q-12 -67 -77 -67h-1z" />
    <glyph glyph-name="k" unicode="k" horiz-adv-x="456" 
d="M39 5q15 0 22 10t13 40l103 589q0 2 -1.5 4t-4 4t-4.5 3l-6 3l-6 3v3l113 34h20l-20 -115h-2l-56 -321l153 118q59 47 59 54q0 3 -4 4h-3l1 3v2h93v-5q-19 0 -40 -12.5t-80 -55.5h-1l-54 -38l109 -259q18 -42 28.5 -55t27.5 -13q0 -1 -1 -3v-2h-176v5q21 0 10 36l-86 227
l-40 -29l-29 -166h1q-7 -41 -4 -54.5t20 -13.5q0 -1 -1 -3v-2h-154v5z" />
    <glyph glyph-name="l" unicode="l" horiz-adv-x="236" 
d="M198 0h-154v5q15 0 22 11t14 43q9 55 27 158.5t41.5 235t33.5 190.5q0 2 -0.5 3.5t-2 3l-2.5 2.5t-3.5 2.5t-4 2t-4.5 2l-5 2.5v3l113 34h20l-20 -115h-2q-15 -85 -47.5 -269.5t-42.5 -240.5h2q-7 -41 -4 -54.5t20 -13.5q0 -1 -1 -3v-2z" />
    <glyph glyph-name="m" unicode="m" horiz-adv-x="805" 
d="M46 5q18 0 26 20l66 368q-3 5 -21 13v3l25 8h2l86 26h20l-11 -61q64 66 186 66q71 0 86 -73q61 73 199 73q52 0 76 -39.5t11 -111.5q-14 -80 -40 -224h4q-7 -41 -4 -54.5t20 -13.5q0 -1 -1 -3v-2h-154v5q18 0 26 19l46 263q8 44 -12 69t-62 25q-79 0 -107 -23
q2 -29 -4 -61q-14 -80 -40 -224h4q-7 -41 -4 -54.5t20 -13.5q0 -1 -1 -3v-2h-154v5q18 0 26 19l46 263q8 47 -11.5 73.5t-60.5 26.5q-65 0 -98 -22l-6 -37h-4l-45 -255h4q-7 -41 -4 -54.5t20 -13.5q0 -1 -1 -3v-2h-154v5z" />
    <glyph glyph-name="n" unicode="n" horiz-adv-x="508" 
d="M198 0h-154v5q13 0 19.5 7t11.5 26l62 351q0 2 -1.5 4t-4 4t-4.5 3l-6 3l-6 3v3l113 34h20l-11 -63q65 68 181 68q59 0 76 -37t4 -114q-14 -80 -40 -224h3q-7 -41 -4 -54.5t20 -13.5q0 -1 -1 -3v-2h-154v5q20 0 28 24l45 258q9 48 -5.5 71t-61.5 23q-62 0 -94 -19l-6 -34
h-2l-45 -255h2q-7 -41 -4 -54.5t20 -13.5q0 -1 -1 -3v-2z" />
    <glyph glyph-name="o" unicode="o" horiz-adv-x="574" 
d="M287 -5q-116 0 -168.5 59t-33.5 168h1q19 109 92 167.5t189 58.5t168 -58.5t33 -167.5q-20 -109 -93 -168t-188 -59zM197 222q-17 -98 7.5 -151.5t86.5 -53.5t105.5 53.5t60.5 151.5t-7.5 151t-86.5 53t-105.5 -53t-60.5 -151z" />
    <glyph glyph-name="p" unicode="p" horiz-adv-x="570" 
d="M-3 -250q17 0 24 13t14 55h1l99 566q0 4 -0.5 7t-3 5t-4 3t-7 3.5t-7.5 3.5v3l113 34h20l-11 -62q51 67 181 67q87 0 124.5 -55t19.5 -157q-20 -116 -94 -178.5t-191 -62.5q-67 0 -104 24l-35 -201q-7 -40 -4 -54t20 -14q0 -1 -1 -3v-2h-154v5zM193 143q-10 -58 12 -89
t74 -31q68 0 111.5 36t55.5 103q19 105 -12 162t-107 57q-70 0 -97 -32l-4 -21h-1z" />
    <glyph glyph-name="q" unicode="q" horiz-adv-x="537" 
d="M215 -5q-81 0 -116 52t-18 147q22 123 90.5 188.5t174.5 65.5q30 0 67 -16.5t56 -16.5q46 0 66 28h11q-18 -104 -55 -312.5t-55 -312.5h2q-7 -40 -4 -54t20 -14q0 -1 -1 -3v-2h-154v5q13 0 19.5 7t11.5 26l49 282q-73 -70 -164 -70zM192 232q-15 -85 8 -130.5t81 -45.5
q69 0 102 30l35 199q11 65 -9 100t-69 35q-55 0 -93.5 -49t-54.5 -139z" />
    <glyph glyph-name="r" unicode="r" horiz-adv-x="360" 
d="M41 5q17 0 24 13.5t14 54.5h1q20 112 45 255q2 11 7 41q1 8 1.5 13t0 8t-3 5.5t-3.5 3t-6.5 3.5t-8.5 4v3l113 34h20l-4 -26q-4 -21 -9 -53q62 84 131 84q38 0 51 -16t7 -49l-1 -1q-8 -46 -56 -46q-16 0 -46.5 19t-46.5 19q-20 0 -42 -25q-11 -60 -30.5 -173t-22.5 -131
q-2 -23 2 -31.5t18 -8.5q0 -1 -1 -3v-2h-154v5z" />
    <glyph glyph-name="s" unicode="s" horiz-adv-x="391" 
d="M46 41l13 58h4q12 -36 47 -58.5t74 -22.5t63.5 21t31.5 59q8 49 -72 88q-116 56 -102 136q10 61 58.5 93.5t127.5 32.5q52 0 103 -51l-13 -54h-4q-2 4 -2 7q-17 36 -65 67h-1q0 1 -5.5 3t-11.5 4l-5 2q-87 0 -99 -70q-4 -22 23 -48t80 -51q92 -44 78 -122
q-12 -67 -62.5 -103.5t-131.5 -36.5q-80 0 -128 46l14 14zM381 384l13 13z" />
    <glyph glyph-name="t" unicode="t" horiz-adv-x="346" 
d="M183 -5q-63 0 -78 23t-1 100l50 286h-62l2 11q76 13 174 164h17l-24 -136h135l-7 -39h-135q-36 -207 -53 -304q-7 -38 0.5 -49t38.5 -11q34 0 98 47l6 -8q-115 -84 -161 -84z" />
    <glyph glyph-name="u" unicode="u" horiz-adv-x="473" 
d="M163 -5q-126 0 -98 159l45 254q1 17 -4 23.5t-17 6.5q0 1 1 3v2h127l-50 -278q-19 -104 87 -104q53 0 77 24q47 268 57 323q1 17 -4 23.5t-17 6.5q0 1 1 3v2h126q-33 -186 -57 -328h1q-10 -59 -7 -65q3 -4 20 -13v-3l-113 -34h-20l5 26h-2q1 5 3.5 19.5t3.5 22.5
q-71 -73 -165 -73z" />
    <glyph glyph-name="v" unicode="v" horiz-adv-x="398" 
d="M57 438q0 1 1 3v2h166v-5q-8 0 -12 -2.5t-4.5 -11.5t2 -20.5t7.5 -33.5q11 -43 33.5 -130t33.5 -131l155 263q11 19 17 31t8 20t0 11t-8 4h-4q0 1 1 3v2h85v-5q-15 0 -25.5 -9t-28.5 -35l-253 -404h-17l-118 409q-8 23 -16 31t-23 8z" />
    <glyph glyph-name="w" unicode="w" horiz-adv-x="688" 
d="M62 438q0 1 1 3v2h165v-5q-10 0 -14.5 -3t-5.5 -11.5t1 -20t7 -33.5h-1l66 -262l126 217q-2 7 -6.5 22t-6.5 23h-1q-19 65 -26 68q-3 0 -1 3v2h165v-5q-22 0 -29 -8t-3 -31l75 -290l153 261q12 20 17.5 32.5t6.5 20.5t-3 11t-13 4h-5q0 1 1 3v2h96v-5q-15 0 -25.5 -9
t-28.5 -35l-253 -404h-16l-90 310l-184 -310h-17l1 1l-110 379q-11 41 -19.5 54.5t-22.5 13.5z" />
    <glyph glyph-name="x" unicode="x" horiz-adv-x="460" 
d="M-8 5q20 0 37 13t54 55h1l123 136l-93 184q-14 26 -23 35.5t-21 9.5q0 1 1 3v2h171v-5q-10 0 -14 -3t-2.5 -11.5t6.5 -20.5t16 -33q13 -27 41 -81l99 104q34 38 22 43q-2 2 -6 2h-5q0 1 1 3v2h90v-5q-19 0 -35.5 -12.5t-59.5 -55.5h-1l-98 -96l113 -223q14 -27 22 -36.5
t19 -9.5q0 -1 -1 -3v-2h-165v5q8 0 11 3t1.5 11.5t-7 20.5t-15.5 33l-58 116l-105 -119q-45 -53 -34 -62q3 -2 12 -3h6q0 -1 -1 -3v-2h-102v5z" />
    <glyph glyph-name="y" unicode="y" horiz-adv-x="398" 
d="M-11 -255q-31 0 -46 12.5t-11 35.5l-1 1h1q8 42 58 42q25 0 75 -25q15 1 37 27.5t67 98.5q18 35 41 67l-117 404q-13 30 -35 30q0 1 1 3v2h166v-5q-8 0 -12 -2.5t-4.5 -11.5t2 -20.5t7.5 -33.5h-1l67 -261l171 290q11 22 11.5 30t-9.5 9h-4q0 1 1 3v2h85v-5
q-18 0 -31 -13t-38 -55h-1l-237 -379v-1q-20 -26 -40 -62q-66 -106 -108.5 -144.5t-94.5 -38.5z" />
    <glyph glyph-name="z" unicode="z" horiz-adv-x="455" 
d="M38 0l317 421l-103 -1q-49 0 -72 -6.5t-46 -25.5h-4q9 26 17 44l5 11h335l-315 -421h103q53 0 78 9.5t44 36.5l7 8q1 -2 4 -3h1q-10 -34 -20 -62l-3 -11h-348z" />
    <glyph glyph-name="braceleft" unicode="{" horiz-adv-x="229" 
d="M73 -133q-62 0 -89 32.5t-17 93.5l30 169q12 65 -38 65h-1l3 16h1q50 0 56 42l34 192q10 61 49 93.5t101 32.5h40l-3 -17h-18q-35 0 -58.5 -28.5t-33.5 -80.5l-24 -136q-16 -93 -96 -106q75 -16 55 -128l-21 -114q-9 -53 5 -81t49 -28h18l-3 -17h-39z" />
    <glyph glyph-name="bar" unicode="|" horiz-adv-x="190" 
d="M89 -254h-78l177 1002h78q-64 -362 -177 -1002z" />
    <glyph glyph-name="braceright" unicode="}" horiz-adv-x="229" 
d="M-23 -133l3 17h18q35 0 58.5 28.5t33.5 80.5l24 136q17 94 97 106q-76 16 -56 128l21 114q9 53 -5 81t-49 28h-18l3 17h39q62 0 89 -32.5t17 -93.5l-30 -169q-10 -65 38 -65h1l-3 -16h-1q-50 0 -56 -42l-34 -192q-10 -61 -49 -93.5t-101 -32.5h-40z" />
    <glyph glyph-name="asciitilde" unicode="~" horiz-adv-x="306" 
d="M28 282h-17q0 59 19.5 91.5t54.5 32.5q25 0 76 -31t76 -31q42 0 42 60h16q0 -61 -20.5 -94t-58.5 -33q-24 0 -76 31.5t-77 31.5q-35 0 -35 -58z" />
    <glyph glyph-name="uni00A0" unicode="&#xa0;" horiz-adv-x="197" 
 />
    <glyph glyph-name="exclamdown" unicode="&#xa1;" horiz-adv-x="239" 
d="M89 -165q-71 0 -48 72q16 92 42 172.5t44 114.5l18 35h13q2 -5 4.5 -14t7.5 -40t7 -65.5t-1 -89.5t-13 -113q1 -34 -18.5 -53t-55.5 -19zM164 304q-35 0 -50.5 18.5t-9.5 53.5q12 72 87 72q35 0 50 -19t8 -53q-13 -72 -85 -72z" />
    <glyph glyph-name="cent" unicode="&#xa2;" horiz-adv-x="482" 
d="M241 -5q-94 0 -135 54t-23 154q19 108 83.5 171t165.5 73l13 71h33q-5 -27 -12 -70q68 0 103 -25.5t31 -71.5h-1q-8 -44 -52 -44q-46 0 -41 49h1q5 58 -46 63q-10 -52 -33 -183.5t-31 -176.5q18 -3 39 -3q52 0 109 54l9 -9h1q-86 -80 -168 -100q-3 -16 -7.5 -42t-5.5 -34
h-34q1 7 5.5 31.5t7.5 38.5h-12zM196 241q-24 -136 69 -173q11 61 62 350q-102 -17 -131 -177z" />
    <glyph glyph-name="guillemotleft" unicode="&#xab;" horiz-adv-x="421" 
d="M209 216l2 11q2 0 24.5 16.5t78.5 61.5t126 104l9 -11q-50 -43 -143 -179q12 -35 32.5 -78.5t35.5 -69.5l15 -26l-12 -10v-1v1q-2 2 -39.5 44.5t-76 85.5t-48.5 51h-4zM60 215l-6 1l2 11q2 0 24 15.5t79.5 60.5t129.5 106l9 -11q-49 -41 -147 -178q12 -34 33.5 -77.5
t37.5 -70.5l16 -27l-12 -10v-1v1q-2 2 -39 44t-76 84.5t-51 51.5zM55 218v-2v2zM210 217v-1v1z" />
    <glyph glyph-name="acute" unicode="&#xb4;" horiz-adv-x="306" 
d="M77 473l-11 9q42 113 75 156q25 51 31 51q13 0 35 -16t22 -26q0 -9 -37 -49q-15 -19 -43.5 -50.5t-50.5 -53.5z" />
    <glyph glyph-name="guillemotright" unicode="&#xbb;" horiz-adv-x="421" 
d="M117 220q-98 140 -143 178l9 11q69 -59 126 -104.5t79 -61.5l23 -16l2 -10v-1h-3q-10 -8 -48.5 -50.5t-76 -85.5t-39.5 -45v-1v1l-12 10q58 96 83 175zM124 398l9 11q71 -60 129 -105.5t80 -61.5l23 -15l2 -11v2v-2h-5q-12 -10 -53.5 -55.5t-76.5 -86.5l-36 -40l-13 11
q61 99 87 176q-93 132 -146 177z" />
    <glyph glyph-name="onequarter" unicode="&#xbc;" horiz-adv-x="660" 
d="M49 13l632 613l37 -36l-632 -613zM369 60l2 14q181 199 203 210v-1h14q-2 -10 -4 -24v-1q-6 -30 -28 -161h49l-7 -38h-49q-1 -9 -4.5 -27t-4.5 -25h-85q1 7 4.5 25t4.5 27h-76v1h-19zM183 390q12 0 17 20l29 166l-2 2q4 20 3 27t-10 7l1 1h54v3h56v-4q-7 0 -12 -6
q-4 -22 -15.5 -88.5t-16.5 -92.5h1q-4 -19 -2.5 -25.5t9.5 -6.5v-4h-15v-2h-85l1 1h-13v2zM482 159q-42 -44 -59 -62h48q8 52 11 62z" />
    <glyph glyph-name="onehalf" unicode="&#xbd;" horiz-adv-x="660" 
d="M86 -23l-37 36l632 613l37 -36zM376 8l4 22q15 8 41 19.5t36 17t23.5 16t19.5 24.5t10 34q5 30 -25 30q-37 0 -54 -30l-9 6q50 86 116 86q40 0 58.5 -16.5t13.5 -47.5q-8 -44 -76 -82h25l2 2q33 0 38 11v2h1q-2 -9 -6.5 -26.5t-6.5 -26.5h-1l-10 -38h-194zM183 390
q12 0 17 20l29 166l-2 2q4 20 3 27t-10 7l1 1h54v3h56v-4q-7 0 -12 -6q-4 -22 -15.5 -88.5t-16.5 -92.5h1q-4 -19 -2.5 -25.5t9.5 -6.5v-4h-15v-2h-85l1 1h-13v2zM383 11q20 3 58 29q-17 -8 -58 -29z" />
    <glyph glyph-name="threequarters" unicode="&#xbe;" horiz-adv-x="660" 
d="M49 13l632 613l37 -36l-632 -613zM144 312l3 3l1 13q52 3 83.5 26t38.5 63q4 27 -42 27q-15 0 -32 -5l2 14l3 1v2q44 13 63 32q-2 1 -15 1h17q11 10 17.5 24.5t1 26.5t-27.5 12q-49 0 -69 -25l-9 6q64 81 131 81q37 0 54 -16.5t12 -46.5q-6 -36 -68 -68q59 -16 50 -63
q-8 -47 -64 -75t-150 -33zM375 57l2 14q181 199 203 210v-1h14q-2 -10 -4 -24v-1q-6 -30 -28 -161h49l-7 -38h-49q-1 -9 -4.5 -27t-4.5 -25h-85q1 7 4.5 25t4.5 27h-76v1h-19zM488 156q-42 -44 -59 -62h48q8 52 11 62z" />
    <glyph glyph-name="questiondown" unicode="&#xbf;" horiz-adv-x="343" 
d="M203 -165q-96 0 -138 58.5t-23 166.5q21 115 152 115h34l20 55h13l2 -116q-7 -15 -18 -15h-33q-141 0 -149 -50q-11 -65 21 -100.5t102 -35.5q11 0 35.5 15t34.5 15q42 0 36 -43l-1 -1q-5 -31 -28 -48t-60 -16zM265 304q-34 0 -49.5 18.5t-9.5 53.5q12 72 86 72
q35 0 50 -19t8 -53q-13 -72 -85 -72z" />
    <glyph glyph-name="Agrave" unicode="&#xc0;" horiz-adv-x="573" 
d="M97 0h-96v5q17 0 28.5 13.5t34.5 54.5q50 91 149.5 272.5t149.5 271.5h24l138 -544h5q11 -45 18 -56.5t22 -11.5q0 -1 -1 -3v-2h-164v5q17 0 22 8t2 30l-38 163h-224l-64 -118h2q-37 -69 -23 -80q3 -2 11 -3h5q0 -1 -1 -3v-2zM179 230h206l-62 268zM360 758
q-32 40 -30 50q3 10 26.5 25.5t37.5 15.5q8 0 23 -51q12 -19 24.5 -58t18.5 -68l7 -30l-12 -9q-69 80 -96 125h1z" />
    <glyph glyph-name="Aacute" unicode="&#xc1;" horiz-adv-x="573" 
d="M97 0h-96v5q17 0 28.5 13.5t34.5 54.5q50 91 149.5 272.5t149.5 271.5h24l138 -544h5q11 -45 18 -56.5t22 -11.5q0 -1 -1 -3v-2h-164v5q17 0 22 8t2 30l-38 163h-224l-64 -118h2q-37 -69 -23 -80q3 -2 11 -3h5q0 -1 -1 -3v-2zM323 498l-144 -268h206zM320 633l-9 9
q62 114 102 156q34 51 40 51q13 0 32 -16t17 -26q-1 -9 -44 -48v-1q-18 -19 -52.5 -50.5t-59.5 -53.5l-25 -21h-1z" />
    <glyph glyph-name="Acircumflex" unicode="&#xc2;" horiz-adv-x="573" 
d="M1 0v5q17 0 28.5 13.5t34.5 54.5q50 91 149.5 272.5t149.5 271.5h24l138 -544h5q11 -45 18 -56.5t22 -11.5q0 -1 -1 -3v-2h-164v5q17 0 22 8t2 30l-38 163h-224l-64 -118h2q-37 -69 -23 -80q3 -2 11 -3h5q0 -1 -1 -3v-2h-96zM179 230h206l-62 268zM267 643q-6 -6 46.5 73
t68.5 102v2q19 28 37 28q19 0 28 -28l54 -177l-11 -8q-1 0 -14.5 19.5t-35.5 51t-36 50.5q-61 -54 -128 -121z" />
    <glyph glyph-name="Atilde" unicode="&#xc3;" horiz-adv-x="573" 
d="M1 0v5q17 0 28.5 13.5t34.5 54.5q50 91 149.5 272.5t149.5 271.5h24l138 -544h5q11 -45 18 -56.5t22 -11.5q0 -1 -1 -3v-2h-164v5q17 0 22 8t2 30l-38 163h-224l-64 -118h2q-37 -69 -23 -80q3 -2 11 -3h5q0 -1 -1 -3v-2h-96zM179 230h206l-62 268zM268 698h-17
q10 60 35.5 92.5t60.5 32.5q25 0 71 -31t70 -31q41 0 52 60h17q-11 -61 -37 -94t-64 -33q-25 0 -71.5 31t-70.5 31q-35 0 -46 -58z" />
    <glyph glyph-name="Adieresis" unicode="&#xc4;" horiz-adv-x="573" 
d="M1 0v5q17 0 28.5 13.5t34.5 54.5q50 91 149.5 272.5t149.5 271.5h24l138 -544h5q11 -45 18 -56.5t22 -11.5q0 -1 -1 -3v-2h-164v5q17 0 22 8t2 30l-38 163h-224l-64 -118h2q-37 -69 -23 -80q3 -2 11 -3h5q0 -1 -1 -3v-2h-96zM323 498l-144 -268h206zM294 673
q-60 0 -51 61q11 61 72 61t50 -61t-71 -61zM487 673q-60 0 -51 61q11 61 72 61t50 -61t-71 -61z" />
    <glyph glyph-name="Aring" unicode="&#xc5;" horiz-adv-x="573" 
d="M1 0v5q17 0 28.5 13.5t34.5 54.5q50 91 149.5 272.5t149.5 271.5h24l138 -544h5q11 -45 18 -56.5t22 -11.5q0 -1 -1 -3v-2h-164v5q17 0 22 8t2 30l-38 163h-224l-64 -118h2q-37 -69 -23 -80q3 -2 11 -3h5q0 -1 -1 -3v-2h-96zM382 638q-41 0 -63.5 26.5t-15.5 66.5
q7 44 36.5 68t75.5 24t66.5 -24t13.5 -68q-7 -40 -39.5 -66.5t-73.5 -26.5zM179 230h206l-62 268zM331 731q-5 -31 11 -51t45 -20t52 20t28 51q12 70 -56 70t-80 -70z" />
    <glyph glyph-name="Ccedilla" unicode="&#xc7;" horiz-adv-x="690" 
d="M382 -5q-156 2 -226.5 82t-45.5 225q26 147 127 226.5t262 79.5q156 0 230 -72h2l-3 -3l-13 -61h-5l-3 15q-17 63 -107 85v1q-53 12 -97 12q-115 0 -187 -73t-97 -210q-24 -136 22.5 -209.5t155.5 -73.5q76 0 143.5 22.5t101.5 75.5l9 15h5l-8 -65l-6 10h-1l6 -10
q-94 -67 -240 -72q-22 -13 -60 -68q28 14 61 14q39 0 57 -19.5t11 -55.5q-16 -86 -120 -86q-49 0 -77 31l7 11q13 -13 56 -13q64 0 74 57q5 28 -5 41.5t-29 13.5q-21 0 -48 -15h-1l-5 3q11 18 24 39t20 32t10 15z" />
    <glyph glyph-name="Egrave" unicode="&#xc8;" 
d="M451 0h-409v5q15 0 22 10.5t13 40.5q17 94 92 523q-3 19 -21 19v5h406l-3 -12q-7 -34 -14 -60h-4q-4 29 -27 38.5t-86 9.5h-155l4 24q-16 -93 -56 -319.5t-46 -259.5h163q63 0 91 9.5t48 38.5h4q-3 -10 -9.5 -30t-9.5 -30h1zM327 758q-32 40 -29 49q2 10 26.5 26t37.5 16
q8 0 23 -51q12 -19 24.5 -58t18.5 -68l7 -30l-12 -9q-69 80 -96 125zM332 299h-116l4 24h116q53 0 72.5 5.5t31.5 21.5h4q-1 -3 -6 -34.5t-9 -47.5h-4q-4 19 -21.5 25t-71.5 6z" />
    <glyph glyph-name="Eacute" unicode="&#xc9;" 
d="M451 0h-409v5q15 0 22 10.5t13 40.5q17 94 92 523q-3 19 -21 19v5h406l-3 -12q-7 -34 -14 -60h-4q-4 29 -27 38.5t-86 9.5h-155l4 24q-16 -93 -56 -319.5t-46 -259.5h163q63 0 91 9.5t48 38.5h4q-3 -10 -9.5 -30t-9.5 -30h1zM326 642q62 113 102 156q34 51 40 51
q13 0 32.5 -16t17.5 -26q-2 -9 -46 -49q-18 -19 -52.5 -50.5t-59.5 -53.5l-25 -21zM216 299l4 24h116q53 0 72.5 5.5t31.5 21.5h4q-1 -3 -6 -34.5t-9 -47.5h-4q-4 19 -21.5 25t-71.5 6h-116z" />
    <glyph glyph-name="Ecircumflex" unicode="&#xca;" 
d="M42 5q15 0 22 10.5t13 40.5q17 94 92 523q-3 19 -21 19v5h406l-3 -12q-7 -34 -14 -60h-4q-4 29 -27 38.5t-86 9.5h-155l4 24q-16 -93 -56 -319.5t-46 -259.5h163q63 0 91 9.5t48 38.5h4q-3 -10 -9.5 -30t-9.5 -30h1l-4 -12h-409v5zM251 643q-6 -6 46.5 73t68.5 102v2
q19 28 37 28q19 0 28 -28l54 -177l-11 -8q-1 0 -14.5 19.5t-35.5 51t-36 50.5q-61 -54 -128 -121zM332 299h-116l4 24h116q53 0 72.5 5.5t31.5 21.5h4q-1 -3 -6 -34.5t-9 -47.5h-4q-4 19 -21.5 25t-71.5 6z" />
    <glyph glyph-name="Edieresis" unicode="&#xcb;" 
d="M451 0h-409v5q15 0 22 10.5t13 40.5q17 94 92 523q-3 19 -21 19v5h406l-3 -12q-7 -34 -14 -60h-4q-4 29 -27 38.5t-86 9.5h-155l4 24q-16 -93 -56 -319.5t-46 -259.5h163q63 0 91 9.5t48 38.5h4q-3 -10 -9.5 -30t-9.5 -30h1zM471 673q-60 0 -51 61q11 61 72 61t50 -61
t-71 -61zM278 673q-60 0 -51 61q11 61 72 61t50 -61t-71 -61zM216 299l4 24h116q53 0 72.5 5.5t31.5 21.5h4q-1 -3 -6 -34.5t-9 -47.5h-4q-4 19 -21.5 25t-71.5 6h-116z" />
    <glyph glyph-name="Igrave" unicode="&#xcc;" horiz-adv-x="230" 
d="M196 0h-151v5q15 0 22 10.5t13 40.5q8 49 24.5 141t36.5 207t30 170q0 24 -21 24v5h152v-5q-17 0 -24 -13t-15 -55h-3q-14 -80 -43 -245.5t-37 -211.5h1q-7 -41 -4 -54.5t20 -13.5q0 -1 -1 -3v-2zM211 758q-32 40 -30 50q3 10 26.5 25.5t37.5 15.5q8 0 23 -51
q12 -19 24.5 -58t19.5 -68l6 -30l-12 -9q-69 80 -96 125h1z" />
    <glyph glyph-name="Iacute" unicode="&#xcd;" horiz-adv-x="230" 
d="M45 0v5q15 0 22 10.5t13 40.5q8 49 24.5 141t36.5 207t30 170q0 24 -21 24v5h152v-5q-17 0 -24 -13t-15 -55h-3q-14 -80 -43 -245.5t-37 -211.5h1q-7 -41 -4 -54.5t20 -13.5q0 -1 -1 -3v-2h-151zM162 642q62 114 102 156q34 51 40 51q13 0 32 -16t17 -26q-1 -9 -44 -48
v-1q-18 -19 -52.5 -50.5t-59.5 -53.5l-25 -21h-1z" />
    <glyph glyph-name="Icircumflex" unicode="&#xce;" horiz-adv-x="230" 
d="M196 0h-151v5q15 0 22 10.5t13 40.5q8 49 24.5 141t36.5 207t30 170q0 24 -21 24v5h152v-5q-17 0 -24 -13t-15 -55h-3q-14 -80 -43 -245.5t-37 -211.5h1q-7 -41 -4 -54.5t20 -13.5q0 -1 -1 -3v-2zM118 643q-6 -6 46.5 73t68.5 102v2q19 28 37 28q19 0 28 -28l54 -177
l-11 -8q-1 0 -14.5 19.5t-35.5 51t-36 50.5q-61 -54 -128 -121z" />
    <glyph glyph-name="Idieresis" unicode="&#xcf;" horiz-adv-x="230" 
d="M45 0v5q15 0 22 10.5t13 40.5q8 49 24.5 141t36.5 207t30 170q0 24 -21 24v5h152v-5q-17 0 -24 -13t-15 -55h-3q-14 -80 -43 -245.5t-37 -211.5h1q-7 -41 -4 -54.5t20 -13.5q0 -1 -1 -3v-2h-151zM145 673q-60 0 -51 61q11 61 72 61t50 -61t-71 -61zM338 673q-60 0 -51 61
q11 61 72 61t50 -61t-71 -61z" />
    <glyph glyph-name="Ntilde" unicode="&#xd1;" horiz-adv-x="583" 
d="M121 0h-83v5q15 0 22 10.5t13 40.5l91 518q0 24 -21 24v5h106l276 -450l75 429q-3 16 -20 16v5h84v-5q-17 0 -24 -13t-15 -55h-5q-70 -399 -97 -550h-15q-55 88 -163.5 265.5t-162.5 266.5l-77 -439h1q-7 -41 -4 -54.5t20 -13.5q0 -1 -1 -3v-2zM297 698h-17
q10 60 35.5 92.5t60.5 32.5q25 0 71 -31t70 -31q41 0 52 60h17q-11 -61 -37 -94t-64 -33q-25 0 -71 31t-71 31q-35 0 -46 -58z" />
    <glyph glyph-name="Ograve" unicode="&#xd2;" horiz-adv-x="731" 
d="M365 -5q-162 0 -226 83.5t-39 223.5t118.5 223t254.5 83t225.5 -83t39.5 -223t-118 -223.5t-255 -83.5zM207 302q-23 -129 16 -206t147 -77t174 77t88 206q23 128 -16 205t-147 77t-174 -76.5t-89 -205.5h1zM457 758q-32 40 -30 50q3 10 26.5 25.5t37.5 15.5q8 0 23 -51
q12 -19 24.5 -58t19.5 -68l6 -30l-12 -9q-69 80 -96 125h1z" />
    <glyph glyph-name="Oacute" unicode="&#xd3;" horiz-adv-x="731" 
d="M365 -5q-162 0 -226 83.5t-39 223.5t118.5 223t254.5 83t225.5 -83t39.5 -223t-118 -223.5t-255 -83.5zM207 302q-23 -129 16 -206t147 -77t174 77t88 206q23 128 -16 205t-147 77t-174 -76.5t-89 -205.5h1zM455 633l-9 9q62 114 102 156q34 51 40 51q13 0 32 -16t17 -26
q-1 -9 -44 -48v-1q-18 -19 -52.5 -50.5t-59.5 -53.5l-25 -21h-1z" />
    <glyph glyph-name="Ocircumflex" unicode="&#xd4;" horiz-adv-x="731" 
d="M365 -5q-162 0 -226 83.5t-39 223.5t118.5 223t254.5 83t225.5 -83t39.5 -223t-118 -223.5t-255 -83.5zM207 302q-23 -129 16 -206t147 -77t174 77t88 206q23 128 -16 205t-147 77t-174 -76.5t-89 -205.5h1zM364 643q-6 -6 46.5 73t68.5 102v2q19 28 37 28q19 0 28 -28
l54 -177l-11 -8q-1 0 -14.5 19.5t-35.5 51t-36 50.5q-61 -54 -128 -121z" />
    <glyph glyph-name="Otilde" unicode="&#xd5;" horiz-adv-x="731" 
d="M365 -5q-162 0 -226 83.5t-39 223.5t118.5 223t254.5 83t225.5 -83t39.5 -223t-118 -223.5t-255 -83.5zM207 302q-23 -129 16 -206t147 -77t174 77t88 206q23 128 -16 205t-147 77t-174 -76.5t-89 -205.5h1zM348 698q10 60 35.5 92.5t60.5 32.5q24 0 70 -31t71 -31
q41 0 52 60h17q-11 -61 -37 -94t-64 -33q-25 0 -71 31t-71 31q-35 0 -46 -58h-17z" />
    <glyph glyph-name="Odieresis" unicode="&#xd6;" horiz-adv-x="731" 
d="M365 -5q-162 0 -226 83.5t-39 223.5t118.5 223t254.5 83t225.5 -83t39.5 -223t-118 -223.5t-255 -83.5zM207 302q-23 -129 16 -206t147 -77t174 77t88 206q23 128 -16 205t-147 77t-174 -76.5t-89 -205.5h1zM584 673q-60 0 -51 61q11 61 72 61t50 -61t-71 -61zM391 673
q-60 0 -51 61q11 61 72 61t50 -61t-71 -61z" />
    <glyph glyph-name="Oslash" unicode="&#xd8;" horiz-adv-x="731" 
d="M35 11l96 79q-55 80 -31 212q25 140 118.5 223t254.5 83q139 0 209 -65l99 81l24 -32l-97 -80q54 -78 30 -210q-25 -140 -118 -223.5t-255 -83.5q-138 0 -208 65l-98 -81zM207 302q-16 -90 -3 -152l418 344q-39 90 -153 90q-108 0 -174 -76.5t-89 -205.5h1zM217 109
q39 -90 153 -90q108 0 174 77t88 206q16 89 3 150z" />
    <glyph glyph-name="Ugrave" unicode="&#xd9;" horiz-adv-x="550" 
d="M282 -5q-127 0 -169.5 49.5t-24.5 151.5l66 372q1 17 -4 23.5t-17 6.5v5h152v-5q-17 0 -24 -13t-15 -55h-2l-62 -352q-13 -75 13 -112t107 -37q95 0 140.5 37.5t58.5 113.5l70 392q-1 15 -6.5 20.5t-18.5 5.5v5h97v-5q-19 0 -27.5 -15.5t-16.5 -62.5h-4l-62 -351
q-16 -88 -73 -131t-178 -43zM370 758q-32 40 -30 50q3 10 26.5 25.5t37.5 15.5q8 0 23 -51q12 -19 24.5 -58t18.5 -68l7 -30l-12 -9q-69 80 -96 125h1z" />
    <glyph glyph-name="Uacute" unicode="&#xda;" horiz-adv-x="550" 
d="M282 -5q-127 0 -169.5 49.5t-24.5 151.5l66 372q1 17 -4 23.5t-17 6.5v5h152v-5q-17 0 -24 -13t-15 -55h-2l-62 -352q-13 -75 13 -112t107 -37q95 0 140.5 37.5t58.5 113.5l70 392q-1 15 -6.5 20.5t-18.5 5.5v5h97v-5q-19 0 -27.5 -15.5t-16.5 -62.5h-4l-62 -351
q-16 -88 -73 -131t-178 -43zM391 633l-9 9q62 114 102 156q34 51 40 51q13 0 32 -16t17 -26q-1 -9 -44 -48v-1q-18 -19 -52.5 -50.5t-59.5 -53.5l-25 -21h-1z" />
    <glyph glyph-name="Ucircumflex" unicode="&#xdb;" horiz-adv-x="550" 
d="M282 -5q-127 0 -169.5 49.5t-24.5 151.5l66 372q1 17 -4 23.5t-17 6.5v5h152v-5q-17 0 -24 -13t-15 -55h-2l-62 -352q-13 -75 13 -112t107 -37q95 0 140.5 37.5t58.5 113.5l70 392q-1 15 -6.5 20.5t-18.5 5.5v5h97v-5q-19 0 -27.5 -15.5t-16.5 -62.5h-4l-62 -351
q-16 -88 -73 -131t-178 -43zM277 643q-6 -6 46.5 73t68.5 102v2q19 28 37 28q19 0 28 -28l54 -177l-11 -8q-1 0 -14.5 19.5t-35.5 51t-36 50.5q-61 -54 -128 -121z" />
    <glyph glyph-name="Udieresis" unicode="&#xdc;" horiz-adv-x="550" 
d="M282 -5q-127 0 -169.5 49.5t-24.5 151.5l66 372q1 17 -4 23.5t-17 6.5v5h152v-5q-17 0 -24 -13t-15 -55h-2l-62 -352q-13 -75 13 -112t107 -37q95 0 140.5 37.5t58.5 113.5l70 392q-1 15 -6.5 20.5t-18.5 5.5v5h97v-5q-19 0 -27.5 -15.5t-16.5 -62.5h-4l-62 -351
q-16 -88 -73 -131t-178 -43zM304 673q-60 0 -51 61q11 61 72 61t50 -61t-71 -61zM497 673q-60 0 -51 61q11 61 72 61t50 -61t-71 -61z" />
    <glyph glyph-name="Yacute" unicode="&#xdd;" horiz-adv-x="553" 
d="M113 598v5h166v-5q-9 0 -13 -3t-4 -11t4.5 -20t13.5 -34h-1l96 -214l199 246q23 34 0 36h-5v5h93v-5q-15 0 -28.5 -12.5t-50.5 -55.5h-2l-204 -247l-37 -210h3q-7 -41 -4 -54.5t20 -13.5q0 -1 -1 -3v-2h-151v5q20 0 28 25l40 226l-134 319q-14 23 -28 23zM393 633l-9 9
q62 114 102 156q34 51 40 51q13 0 32 -16t17 -26q-1 -9 -44 -48v-1q-18 -19 -52.5 -50.5t-59.5 -53.5l-25 -21h-1z" />
    <glyph glyph-name="agrave" unicode="&#xe0;" horiz-adv-x="476" 
d="M139 -5q-52 0 -75.5 25.5t-15.5 71.5q11 58 62.5 100t136.5 62q20 4 67 8l10 57q17 101 -25 101q-51 0 -81 -28t-35 -79h-69q5 64 60.5 99.5t151.5 35.5q60 0 85.5 -39t12.5 -112q-12 -70 -34 -194q-7 -31 -0.5 -48t29.5 -17q32 0 49 17l10 -14q-28 -27 -57.5 -39
t-78.5 -12q-33 0 -47 13t-15 40q-67 -48 -141 -48zM152 120q-11 -58 48 -58q48 0 81 13q1 5 3 17q6 31 14.5 79t11.5 65q-53 -10 -68 -14q-35 -8 -59 -35t-31 -67zM278 599q-30 38 -29 48q2 10 26.5 26t37.5 16q8 0 23 -51l-1 -1q12 -19 24.5 -58t18.5 -68l7 -29l-12 -8
l1 -1h-2l1 1q-1 1 -14.5 17t-27 33.5t-29.5 38.5t-25 35z" />
    <glyph glyph-name="aacute" unicode="&#xe1;" horiz-adv-x="476" 
d="M139 -5q-52 0 -75.5 25.5t-15.5 71.5q11 58 62.5 100t136.5 62q20 4 67 8l10 57q17 101 -25 101q-51 0 -81 -28t-35 -79h-69q5 64 60.5 99.5t151.5 35.5q60 0 85.5 -39t12.5 -112q-12 -70 -34 -194q-7 -31 -0.5 -48t29.5 -17q32 0 49 17l10 -14q-28 -27 -57.5 -39
t-78.5 -12q-33 0 -47 13t-15 40q-67 -48 -141 -48zM152 120q-11 -58 48 -58q48 0 81 13q1 5 3 17q6 31 14.5 79t11.5 65q-53 -10 -68 -14q-35 -8 -59 -35t-31 -67zM269 473l-9 9q62 113 102 156q34 51 40 51q13 0 32.5 -16t17.5 -26q-2 -9 -46 -49q-18 -19 -52.5 -50.5
t-59.5 -53.5z" />
    <glyph glyph-name="acircumflex" unicode="&#xe2;" horiz-adv-x="476" 
d="M139 -5q-52 0 -75.5 25.5t-15.5 71.5q11 58 62.5 100t136.5 62q20 4 67 8l10 57q17 101 -25 101q-51 0 -81 -28t-35 -79h-69q5 64 60.5 99.5t151.5 35.5q60 0 85.5 -39t12.5 -112q-12 -70 -34 -194q-7 -31 -0.5 -48t29.5 -17q32 0 49 17l10 -14q-28 -27 -57.5 -39
t-78.5 -12q-33 0 -47 13t-15 40q-67 -48 -141 -48zM152 120q-11 -58 48 -58q48 0 81 13q1 5 3 17q6 31 14.5 79t11.5 65q-53 -10 -68 -14q-35 -8 -59 -35t-31 -67zM184 483q-5 -5 48 73.5t69 101.5v2q19 28 37 28q20 0 26 -28l55 -177l-12 -8l-85 121q-81 -75 -128 -121z
M295 629v-1v1z" />
    <glyph glyph-name="atilde" unicode="&#xe3;" horiz-adv-x="476" 
d="M139 -5q-52 0 -75.5 25.5t-15.5 71.5q11 58 62.5 100t136.5 62q20 4 67 8l10 57q17 101 -25 101q-51 0 -81 -28t-35 -79h-69q5 64 60.5 99.5t151.5 35.5q60 0 85.5 -39t12.5 -112q-12 -70 -34 -194q-7 -31 -0.5 -48t29.5 -17q32 0 49 17l10 -14q-28 -27 -57.5 -39
t-78.5 -12q-33 0 -47 13t-15 40q-67 -48 -141 -48zM168 538q10 60 35.5 92.5t60.5 32.5q24 0 71 -31t71 -31q41 0 52 60h17q-11 -61 -37 -94t-64 -33q-24 0 -71 31t-72 31q-36 0 -45 -58h-18zM152 120q-11 -58 48 -58q48 0 81 13q1 5 3 17q6 31 14.5 79t11.5 65
q-53 -10 -68 -14q-35 -8 -59 -35t-31 -67z" />
    <glyph glyph-name="adieresis" unicode="&#xe4;" horiz-adv-x="476" 
d="M139 -5q-52 0 -75.5 25.5t-15.5 71.5q11 58 62.5 100t136.5 62q20 4 67 8l10 57q17 101 -25 101q-51 0 -81 -28t-35 -79h-69q5 64 60.5 99.5t151.5 35.5q60 0 85.5 -39t12.5 -112q-12 -70 -34 -194q-7 -31 -0.5 -48t29.5 -17q32 0 49 17l10 -14q-28 -27 -57.5 -39
t-78.5 -12q-33 0 -47 13t-15 40q-67 -48 -141 -48zM152 120q-11 -58 48 -58q48 0 81 13q1 5 3 17q6 31 14.5 79t11.5 65q-53 -10 -68 -14q-35 -8 -59 -35t-31 -67zM402 513q-61 0 -50 61t72 61t50 -61t-72 -61zM211 513q-61 0 -50 61t72 61t50 -61t-72 -61z" />
    <glyph glyph-name="aring" unicode="&#xe5;" horiz-adv-x="476" 
d="M139 -5q-52 0 -75.5 25.5t-15.5 71.5q11 58 62.5 100t136.5 62q20 4 67 8l10 57q17 101 -25 101q-51 0 -81 -28t-35 -79h-69q5 64 60.5 99.5t151.5 35.5q60 0 85.5 -39t12.5 -112q-12 -70 -34 -194q-7 -31 -0.5 -48t29.5 -17q32 0 49 17l10 -14q-28 -27 -57.5 -39
t-78.5 -12q-33 0 -47 13t-15 40q-67 -48 -141 -48zM301 478q-41 0 -63.5 26.5t-15.5 66.5q7 44 36.5 68t75.5 24t66.5 -24t12.5 -68q-7 -40 -39 -66.5t-73 -26.5zM152 120q-11 -58 48 -58q48 0 81 13q1 5 3 17q6 31 14.5 79t11.5 65q-53 -10 -68 -14q-35 -8 -59 -35t-31 -67
zM249 571q-5 -31 11 -51t45 -20t51.5 20t28.5 51q12 70 -55 70q-68 0 -80 -70h-1z" />
    <glyph glyph-name="ccedilla" unicode="&#xe7;" horiz-adv-x="482" 
d="M232 -5q-89 3 -127.5 56.5t-21.5 151.5q21 118 94.5 181.5t188.5 63.5q68 0 103 -25.5t31 -71.5h-1q-8 -44 -52 -44q-46 0 -41 49h1q5 64 -57 64q-58 0 -98 -46.5t-56 -132.5q-16 -89 20.5 -137t119.5 -48q52 0 109 54l9 -9h1q-102 -96 -197 -105q-24 -14 -61 -69
q28 14 61 14q39 0 57 -19.5t11 -55.5q-16 -86 -120 -86q-49 0 -77 31l7 11q13 -13 56 -13q64 0 74 57q5 28 -5 41.5t-29 13.5q-21 0 -48 -15h-1l-5 3q11 18 24 39t20 32t10 15z" />
    <glyph glyph-name="egrave" unicode="&#xe8;" horiz-adv-x="488" 
d="M245 -5q-95 0 -137 54t-24 154q21 118 89 181.5t173 63.5q86 0 123 -50.5t21 -143.5h-290l3 19l150 14q48 5 57 51l-8 -47h-1h1l9 47q7 39 -13 60.5t-63 21.5q-51 0 -87 -46.5t-52 -132.5q-16 -89 21 -137t122 -48q55 0 112 54l9 -9h2q-114 -106 -217 -106zM326 599
q-30 38 -29 48q2 10 26.5 26t37.5 16q8 0 23 -51l-1 -1q12 -19 24.5 -58t18.5 -68l7 -29l-12 -8l1 -1h-2l1 1q-1 1 -14.5 17t-27 33.5t-29.5 38.5t-25 35z" />
    <glyph glyph-name="eacute" unicode="&#xe9;" horiz-adv-x="488" 
d="M245 -5q-95 0 -137 54t-24 154q21 118 89 181.5t173 63.5q86 0 123 -50.5t21 -143.5h-290l3 19l150 14q48 5 57 51l-8 -47h-1h1l9 47q7 39 -13 60.5t-63 21.5q-51 0 -87 -46.5t-52 -132.5q-16 -89 21 -137t122 -48q55 0 112 54l9 -9h2q-114 -106 -217 -106zM309 482
q62 113 102 156q34 51 40 51q13 0 32.5 -16t17.5 -26q-2 -9 -46 -49q-18 -19 -52.5 -50.5t-59.5 -53.5l-25 -21z" />
    <glyph glyph-name="ecircumflex" unicode="&#xea;" horiz-adv-x="488" 
d="M245 -5q-95 0 -137 54t-24 154q21 118 89 181.5t173 63.5q86 0 123 -50.5t21 -143.5h-290l3 19l150 14q48 5 57 51l-8 -47h-1h1l9 47q7 39 -13 60.5t-63 21.5q-51 0 -87 -46.5t-52 -132.5q-16 -89 21 -137t122 -48q55 0 112 54l9 -9h2q-114 -106 -217 -106zM234 483
l41 64l75 113q19 28 37 28q21 0 27 -28l54 -177l-11 -8q-1 0 -14.5 19.5t-35.5 51t-36 50.5q-61 -54 -128 -121zM344 629v-1v1z" />
    <glyph glyph-name="edieresis" unicode="&#xeb;" horiz-adv-x="488" 
d="M245 -5q-95 0 -137 54t-24 154q21 118 89 181.5t173 63.5q86 0 123 -50.5t21 -143.5h-290l3 19l150 14q48 5 57 51l-8 -47h-1h1l9 47q7 39 -13 60.5t-63 21.5q-51 0 -87 -46.5t-52 -132.5q-16 -89 21 -137t122 -48q55 0 112 54l9 -9h2q-114 -106 -217 -106zM451 513
q-61 0 -50 61t72 61t50 -61t-72 -61zM259 513q-61 0 -50 61t72 61t50 -61t-72 -61z" />
    <glyph glyph-name="igrave" unicode="&#xec;" horiz-adv-x="236" 
d="M196 0h-154v5q15 0 22 10.5t13 41.5q42 240 58 328q0 5 -2 8t-3.5 4.5t-8 4.5t-8.5 4v3l113 34h20l-20 -115l-45 -255q-7 -41 -4 -54.5t20 -13.5q0 -1 -1 -3v-2zM179 599q-30 38 -29 48q2 10 26.5 26t37.5 16q8 0 23 -51l-1 -1q12 -19 24.5 -58t19.5 -68l6 -29l-12 -8
l1 -1h-2l1 1q-1 1 -14.5 17t-27 33.5t-29.5 38.5t-25 35z" />
    <glyph glyph-name="iacute" unicode="&#xed;" horiz-adv-x="236" 
d="M196 0h-154v5q15 0 22 10.5t13 41.5q42 240 58 328q0 5 -2 8t-3.5 4.5t-8 4.5t-8.5 4v3l113 34h20l-20 -115l-45 -255q-7 -41 -4 -54.5t20 -13.5q0 -1 -1 -3v-2zM125 473l-9 9q62 113 102 156q34 51 40 51q13 0 32.5 -16t17.5 -26q-2 -9 -46 -49q-18 -19 -52.5 -50.5
t-59.5 -53.5z" />
    <glyph glyph-name="icircumflex" unicode="&#xee;" horiz-adv-x="236" 
d="M196 0h-154v5q15 0 22 10.5t13 41.5q42 240 58 328q0 5 -2 8t-3.5 4.5t-8 4.5t-8.5 4v3l113 34h20l-20 -115l-45 -255q-7 -41 -4 -54.5t20 -13.5q0 -1 -1 -3v-2zM87 483l41 64l75 113q19 28 37 28q21 0 27 -28l54 -177l-11 -8q-1 0 -14.5 19.5t-35.5 51t-36 50.5
q-61 -54 -128 -121zM197 629v-1v1z" />
    <glyph glyph-name="idieresis" unicode="&#xef;" horiz-adv-x="236" 
d="M196 0h-154v5q15 0 22 10.5t13 41.5q42 240 58 328q0 5 -2 8t-3.5 4.5t-8 4.5t-8.5 4v3l113 34h20l-20 -115l-45 -255q-7 -41 -4 -54.5t20 -13.5q0 -1 -1 -3v-2zM304 513q-61 0 -50 61t72 61t50 -61t-72 -61zM112 513q-61 0 -50 61t72 61t50 -61t-72 -61z" />
    <glyph glyph-name="ntilde" unicode="&#xf1;" horiz-adv-x="508" 
d="M198 0h-154v5q13 0 19.5 7t11.5 26l62 351q0 2 -1.5 4t-4 4t-4.5 3l-6 3l-6 3v3l113 34h20l-11 -63q65 68 181 68q59 0 76 -37t4 -114q-14 -80 -40 -224h3q-7 -41 -4 -54.5t20 -13.5q0 -1 -1 -3v-2h-154v5q20 0 28 24l45 258q9 48 -5.5 71t-61.5 23q-62 0 -94 -19l-6 -34
h-2l-45 -255h2q-7 -41 -4 -54.5t20 -13.5q0 -1 -1 -3v-2zM211 538q10 60 35.5 92.5t60.5 32.5q25 0 71 -31t71 -31q41 0 52 60h17q-11 -61 -37 -94t-64 -33q-25 0 -72 31t-71 31q-36 0 -45 -58h-18z" />
    <glyph glyph-name="ograve" unicode="&#xf2;" horiz-adv-x="574" 
d="M287 -5q-116 0 -168.5 59t-33.5 168h1q19 109 92 167.5t189 58.5t168 -58.5t33 -167.5q-20 -109 -93 -168t-188 -59zM197 222q-17 -98 7.5 -151.5t86.5 -53.5t105.5 53.5t60.5 151.5t-7.5 151t-86.5 53t-105.5 -53t-60.5 -151zM349 599q-30 38 -29 48q2 10 26.5 26
t37.5 16q8 0 23 -51l-1 -1q12 -19 24.5 -58t19.5 -68l6 -29l-12 -8l1 -1h-2l1 1q-1 1 -14.5 17t-27 33.5t-29.5 38.5t-25 35z" />
    <glyph glyph-name="oacute" unicode="&#xf3;" horiz-adv-x="574" 
d="M287 -5q-116 0 -168.5 59t-33.5 168h1q19 109 92 167.5t189 58.5t168 -58.5t33 -167.5q-20 -109 -93 -168t-188 -59zM197 222q-17 -98 7.5 -151.5t86.5 -53.5t105.5 53.5t60.5 151.5t-7.5 151t-86.5 53t-105.5 -53t-60.5 -151zM341 473l-9 9q62 113 102 156q34 51 40 51
q13 0 32.5 -16t17.5 -26q-2 -9 -46 -49q-18 -19 -52.5 -50.5t-59.5 -53.5z" />
    <glyph glyph-name="ocircumflex" unicode="&#xf4;" horiz-adv-x="574" 
d="M287 -5q-116 0 -168.5 59t-33.5 168h1q19 109 92 167.5t189 58.5t168 -58.5t33 -167.5q-20 -109 -93 -168t-188 -59zM197 222q-17 -98 7.5 -151.5t86.5 -53.5t105.5 53.5t60.5 151.5t-7.5 151t-86.5 53t-105.5 -53t-60.5 -151zM257 483l41 64l75 113q19 28 37 28
q21 0 27 -28l54 -177l-11 -8q-1 0 -14.5 19.5t-35.5 51t-36 50.5q-61 -54 -128 -121zM367 629v-1v1z" />
    <glyph glyph-name="otilde" unicode="&#xf5;" horiz-adv-x="574" 
d="M287 -5q-116 0 -168.5 59t-33.5 168h1q19 109 92 167.5t189 58.5t168 -58.5t33 -167.5q-20 -109 -93 -168t-188 -59zM197 222q-17 -98 7.5 -151.5t86.5 -53.5t105.5 53.5t60.5 151.5t-7.5 151t-86.5 53t-105.5 -53t-60.5 -151zM240 538q10 60 35.5 92.5t60.5 32.5
q24 0 70.5 -31t70.5 -31q41 0 52 60h17q-11 -61 -37 -94t-64 -33q-25 0 -71 31t-71 31q-36 0 -45 -58h-18z" />
    <glyph glyph-name="odieresis" unicode="&#xf6;" horiz-adv-x="574" 
d="M287 -5q-116 0 -168.5 59t-33.5 168h1q19 109 92 167.5t189 58.5t168 -58.5t33 -167.5q-20 -109 -93 -168t-188 -59zM197 222q-17 -98 7.5 -151.5t86.5 -53.5t105.5 53.5t60.5 151.5t-7.5 151t-86.5 53t-105.5 -53t-60.5 -151zM474 513q-61 0 -50 61t72 61t50 -61
t-72 -61zM282 513q-61 0 -50 61t72 61t50 -61t-72 -61z" />
    <glyph glyph-name="oslash" unicode="&#xf8;" horiz-adv-x="574" 
d="M37 7l73 59q-42 56 -25 156h1q19 109 92 167.5t189 58.5q105 0 158 -48l74 60l18 -24l-72 -58q41 -60 23 -156q-20 -109 -93 -168t-188 -59q-103 0 -157 48l-75 -60zM197 222q-9 -51 -6 -91l268 216q-18 79 -96 79q-62 0 -105.5 -53t-60.5 -151zM196 96q19 -79 95 -79
q62 0 105.5 53.5t60.5 151.5q9 49 7 90z" />
    <glyph glyph-name="ugrave" unicode="&#xf9;" horiz-adv-x="473" 
d="M163 -5q-126 0 -98 159l45 254q1 17 -4 23.5t-17 6.5q0 1 1 3v2h127l-50 -278q-19 -104 87 -104q53 0 77 24q47 268 57 323q1 17 -4 23.5t-17 6.5q0 1 1 3v2h126q-33 -186 -57 -328h1q-10 -59 -7 -65q3 -4 20 -13v-3l-113 -34h-20l5 26h-2q1 5 3.5 19.5t3.5 22.5
q-71 -73 -165 -73zM291 599q-30 38 -29 48q2 10 26.5 26t37.5 16q8 0 23 -51l-1 -1q12 -19 24.5 -58t19.5 -68l6 -29l-12 -8l1 -1h-2l1 1q-1 1 -14.5 17t-27 33.5t-29.5 38.5t-25 35z" />
    <glyph glyph-name="uacute" unicode="&#xfa;" horiz-adv-x="473" 
d="M163 -5q-126 0 -98 159l45 254q1 17 -4 23.5t-17 6.5q0 1 1 3v2h127l-50 -278q-19 -104 87 -104q53 0 77 24q47 268 57 323q1 17 -4 23.5t-17 6.5q0 1 1 3v2h126q-33 -186 -57 -328h1q-10 -59 -7 -65q3 -4 20 -13v-3l-113 -34h-20l5 26h-2q1 5 3.5 19.5t3.5 22.5
q-71 -73 -165 -73zM282 473l-9 9q62 113 102 156q34 51 40 51q13 0 32.5 -16t17.5 -26q-2 -9 -46 -49q-18 -19 -52.5 -50.5t-59.5 -53.5z" />
    <glyph glyph-name="ucircumflex" unicode="&#xfb;" horiz-adv-x="473" 
d="M163 -5q-126 0 -98 159l45 254q1 17 -4 23.5t-17 6.5q0 1 1 3v2h127l-50 -278q-19 -104 87 -104q53 0 77 24q47 268 57 323q1 17 -4 23.5t-17 6.5q0 1 1 3v2h126q-33 -186 -57 -328h1q-10 -59 -7 -65q3 -4 20 -13v-3l-113 -34h-20l5 26h-2q1 5 3.5 19.5t3.5 22.5
q-71 -73 -165 -73zM197 483q-5 -5 48 73.5t69 101.5v2q19 28 37 28q20 0 26 -28l55 -177l-12 -8l-85 121q-81 -75 -128 -121zM308 629v-1v1z" />
    <glyph glyph-name="udieresis" unicode="&#xfc;" horiz-adv-x="473" 
d="M163 -5q-126 0 -98 159l45 254q1 17 -4 23.5t-17 6.5q0 1 1 3v2h127l-50 -278q-19 -104 87 -104q53 0 77 24q47 268 57 323q1 17 -4 23.5t-17 6.5q0 1 1 3v2h126q-33 -186 -57 -328h1q-10 -59 -7 -65q3 -4 20 -13v-3l-113 -34h-20l5 26h-2q1 5 3.5 19.5t3.5 22.5
q-71 -73 -165 -73zM415 513q-61 0 -50 61t72 61t50 -61t-72 -61zM224 513q-61 0 -50 61t72 61t50 -61t-72 -61z" />
    <glyph glyph-name="ydieresis" unicode="&#xff;" horiz-adv-x="398" 
d="M-11 -255q-31 0 -46 12.5t-11 35.5l-1 1h1q8 42 58 42q25 0 75 -25q15 1 37 27.5t67 98.5q18 35 41 67l-117 404q-13 30 -35 30q0 1 1 3v2h166v-5q-8 0 -12 -2.5t-4.5 -11.5t2 -20.5t7.5 -33.5h-1l67 -261l171 290q11 22 11.5 30t-9.5 9h-4q0 1 1 3v2h85v-5
q-18 0 -31 -13t-38 -55h-1l-237 -379v-1q-20 -26 -40 -62q-66 -106 -108.5 -144.5t-94.5 -38.5zM406 513q-61 0 -50 61t72 61t50 -61t-72 -61zM214 513q-61 0 -50 61t72 61t50 -61t-72 -61z" />
    <glyph glyph-name="Amacron" unicode="&#x100;" horiz-adv-x="573" 
d="M97 0h-96v5q17 0 28.5 13.5t34.5 54.5q50 91 149.5 272.5t149.5 271.5h24l138 -544h5q11 -45 18 -56.5t22 -11.5q0 -1 -1 -3v-2h-164v5q17 0 22 8t2 30l-38 163h-224l-64 -118h2q-37 -69 -23 -80q3 -2 11 -3h5q0 -1 -1 -3v-2zM323 498l-144 -268h206zM534 706h-280l10 56
h280z" />
    <glyph glyph-name="amacron" unicode="&#x101;" horiz-adv-x="476" 
d="M139 -5q-52 0 -75.5 25.5t-15.5 71.5q11 58 62.5 100t136.5 62q20 4 67 8l10 57q17 101 -25 101q-51 0 -81 -28t-35 -79h-69q5 64 60.5 99.5t151.5 35.5q60 0 85.5 -39t12.5 -112q-12 -70 -34 -194q-7 -31 -0.5 -48t29.5 -17q32 0 49 17l10 -14q-28 -27 -57.5 -39
t-78.5 -12q-33 0 -47 13t-15 40q-67 -48 -141 -48zM152 120q-11 -58 48 -58q48 0 81 13q1 5 3 17q6 31 14.5 79t11.5 65q-53 -10 -68 -14q-35 -8 -59 -35t-31 -67zM173 546l10 56h279l-10 -56h-279z" />
    <glyph glyph-name="Abreve" unicode="&#x102;" horiz-adv-x="573" 
d="M1 5q17 0 28.5 13.5t34.5 54.5q50 91 149.5 272.5t149.5 271.5h24l138 -544h5q11 -45 18 -56.5t22 -11.5q0 -1 -1 -3v-2h-164v5q17 0 22 8t2 30l-38 163h-224l-64 -118h2q-37 -69 -23 -80q3 -2 11 -3h5q0 -1 -1 -3v-2h-96v5zM179 230h206l-62 268zM391 686q-34 0 -59 33
t-36 95l17 6q12 -67 89 -67q76 0 113 67l16 -6q-69 -128 -140 -128z" />
    <glyph glyph-name="abreve" unicode="&#x103;" horiz-adv-x="476" 
d="M139 -5q-52 0 -75.5 25.5t-15.5 71.5q11 58 62.5 100t136.5 62q20 4 67 8l10 57q17 101 -25 101q-51 0 -81 -28t-35 -79h-69q5 64 60.5 99.5t151.5 35.5q60 0 85.5 -39t12.5 -112q-12 -70 -34 -194q-7 -31 -0.5 -48t29.5 -17q32 0 49 17l10 -14q-28 -27 -57.5 -39
t-78.5 -12q-33 0 -47 13t-15 40q-67 -48 -141 -48zM152 120q-11 -58 48 -58q48 0 81 13q1 5 3 17q6 31 14.5 79t11.5 65q-53 -10 -68 -14q-35 -8 -59 -35t-31 -67zM209 624h1l17 6q12 -67 90 -67q76 0 112 67l16 -6q-69 -128 -140 -128t-96 128z" />
    <glyph glyph-name="Aogonek" unicode="&#x104;" horiz-adv-x="573" 
d="M1 0v5q17 0 28.5 13.5t34.5 54.5q50 91 149.5 272.5t149.5 271.5h24l138 -544h5q11 -45 18 -56.5t22 -11.5q0 -1 -1 -3v-2h-126q-33 -11 -77.5 -54.5t-52.5 -89.5q-5 -31 15.5 -47.5t64.5 -16.5q48 0 58 12l6 -8q-34 -32 -91 -32q-62 0 -92.5 21t-23.5 60q7 41 53.5 84.5
t101.5 73.5v2h4q3 1 9.5 4.5t9.5 4.5q4 8 1 29l-38 163h-224l-64 -118h2q-37 -69 -23 -80q3 -2 11 -3h5q0 -1 -1 -3v-2h-96zM323 498l-144 -268h206z" />
    <glyph glyph-name="aogonek" unicode="&#x105;" horiz-adv-x="476" 
d="M139 -5q-52 0 -75.5 25.5t-15.5 71.5q11 58 62.5 100t136.5 62q20 4 67 8l10 57q17 101 -25 101q-51 0 -81 -28t-35 -79h-69q5 64 60.5 99.5t151.5 35.5q60 0 85.5 -39t12.5 -112q-12 -70 -34 -194q-7 -31 -0.5 -48t29.5 -17q32 0 49 17l10 -14q-14 -15 -31 -25v-1h-1
q-11 -7 -28 -14q-35 -23 -66 -59.5t-38 -74.5q-6 -36 14.5 -55.5t63.5 -19.5q47 0 58 12l6 -8q-34 -32 -91 -32q-62 0 -91.5 24t-21.5 68q12 64 112 135q-7 -1 -22 -1q-33 0 -47 13t-15 40q-67 -48 -141 -48zM152 120q-11 -58 48 -58q48 0 81 13q1 5 3 17q6 31 14.5 79
t11.5 65q-53 -10 -68 -14q-35 -8 -59 -35t-31 -67z" />
    <glyph glyph-name="Cacute" unicode="&#x106;" horiz-adv-x="690" 
d="M391 -5q-160 0 -233.5 80t-47.5 227t127 226.5t262 79.5q156 0 230 -72h2l-3 -3l-13 -61h-5l-3 15q-17 63 -107 85v1q-53 12 -97 12q-115 0 -187 -73t-97 -210q-24 -136 22.5 -209.5t155.5 -73.5q76 0 143.5 22.5t101.5 75.5l9 15h5l-8 -65l-6 10h-1l6 -10
q-99 -72 -256 -72zM458 633l-9 9q62 113 102 156q34 51 40 51q13 0 32.5 -16t17.5 -26q-2 -9 -46 -49q-18 -19 -52.5 -50.5t-59.5 -53.5z" />
    <glyph glyph-name="cacute" unicode="&#x107;" horiz-adv-x="482" 
d="M241 -5q-94 0 -135 54t-23 154q21 118 94.5 181.5t188.5 63.5q68 0 103 -25.5t31 -71.5h-1q-8 -44 -52 -44q-46 0 -41 49h1q5 64 -57 64q-58 0 -98 -46.5t-56 -132.5q-16 -89 20.5 -137t119.5 -48q52 0 109 54l9 -9h1q-114 -106 -214 -106zM284 482q62 113 102 156
q34 51 40 51q13 0 32.5 -16t17.5 -26q-2 -9 -46 -49q-18 -19 -52.5 -50.5t-59.5 -53.5l-25 -21z" />
    <glyph glyph-name="Ccircumflex" unicode="&#x108;" horiz-adv-x="690" 
d="M391 -5q-160 0 -233.5 80t-47.5 227t127 226.5t262 79.5q156 0 230 -72h2l-3 -3l-13 -61h-5l-3 15q-17 63 -107 85v1q-53 12 -97 12q-115 0 -187 -73t-97 -210q-24 -136 22.5 -209.5t155.5 -73.5q76 0 143.5 22.5t101.5 75.5l9 15h5l-8 -65l-6 10h-1l6 -10
q-99 -72 -256 -72zM389 643q-6 -6 46.5 73t68.5 102v2q19 28 37 28q19 0 28 -28l54 -177l-11 -8q-1 0 -14.5 19.5t-35.5 51t-36 50.5q-61 -54 -128 -121z" />
    <glyph glyph-name="Cdotaccent" unicode="&#x10a;" horiz-adv-x="690" 
d="M391 -5q-160 0 -233.5 80t-47.5 227t127 226.5t262 79.5q156 0 230 -72h2l-3 -3l-13 -61h-5l-3 15q-17 63 -107 85v1q-53 12 -97 12q-115 0 -187 -73t-97 -210q-24 -136 22.5 -209.5t155.5 -73.5q76 0 143.5 22.5t101.5 75.5l9 15h5l-8 -65l-6 10h-1l6 -10
q-99 -72 -256 -72zM512 673q-60 0 -51 61q11 61 72 61t50 -61t-71 -61z" />
    <glyph glyph-name="cdotaccent" unicode="&#x10b;" horiz-adv-x="482" 
d="M241 -5q-94 0 -135 54t-23 154q21 118 94.5 181.5t188.5 63.5q68 0 103 -25.5t31 -71.5h-1q-8 -44 -52 -44q-46 0 -41 49h1q5 64 -57 64q-58 0 -98 -46.5t-56 -132.5q-16 -89 20.5 -137t119.5 -48q52 0 109 54l9 -9h1q-114 -106 -214 -106zM376 513q-61 0 -50 61t72 61
t50 -61t-72 -61z" />
    <glyph glyph-name="Ccaron" unicode="&#x10c;" horiz-adv-x="690" 
d="M391 -5q-160 0 -233.5 80t-47.5 227t127 226.5t262 79.5q156 0 230 -72h2l-3 -3l-13 -61h-5l-3 15q-17 63 -107 85v1q-53 12 -97 12q-115 0 -187 -73t-97 -210q-24 -136 22.5 -209.5t155.5 -73.5q76 0 143.5 22.5t101.5 75.5l9 15h5l-8 -65l-6 10h-1l6 -10
q-99 -72 -256 -72zM481 688q-1 4 -17 53.5t-27.5 87.5t-8.5 34l11 8q49 -75 86 -122q82 75 129 122l8 -8q-40 -61 -116 -177l-1 1v-1q-19 -28 -37 -28q-21 0 -27 28v2z" />
    <glyph glyph-name="ccaron" unicode="&#x10d;" horiz-adv-x="482" 
d="M241 -5q-94 0 -135 54t-23 154q21 118 94.5 181.5t188.5 63.5q68 0 103 -25.5t31 -71.5h-1q-8 -44 -52 -44q-46 0 -41 49h1q5 64 -57 64q-58 0 -98 -46.5t-56 -132.5q-16 -89 20.5 -137t119.5 -48q52 0 109 54l9 -9h1q-114 -106 -214 -106zM347 530q-10 29 -33 104
t-20 69l11 8q50 -75 86 -121q82 75 128 121l8 -8q-40 -61 -116 -177l-1 1v-1q-19 -28 -37 -28q-21 0 -27 28z" />
    <glyph glyph-name="Dcaron" unicode="&#x10e;" horiz-adv-x="650" 
d="M39 0v5q15 0 22 10.5t13 40.5q17 94 92 523q-3 19 -21 19v5h220q166 0 241.5 -78t50.5 -223q-26 -145 -120.5 -223.5t-244.5 -78.5h-253zM262 575l-101 -575l5 28h131q103 0 171.5 71.5t91.5 202.5t-29 202t-171 71h-98zM379 688q-2 6 -14 44l-40 131l12 8
q54 -82 86 -122q94 88 128 122l9 -8q-41 -63 -117 -177l-1 1v-1q-19 -28 -36 -28q-21 0 -27 28v2z" />
    <glyph glyph-name="dcaron" unicode="&#x10f;" horiz-adv-x="579" 
d="M232 -5q-87 0 -125 52t-21 147q22 122 90.5 188t174.5 66q61 0 94 -41q7 41 20.5 119.5t19.5 111.5q0 4 -0.5 7t-3 5.5t-4 3.5t-7 3.5t-7.5 3.5v3l113 34h20l-20 -115q-18 -101 -52 -295t-40 -228q0 -4 0.5 -7t3 -5.5t4 -3.5t7 -3.5t7.5 -3.5v-3l-113 -34h-20l10 59
q-69 -64 -151 -64zM196 232q-15 -85 11.5 -130.5t89.5 -45.5q60 0 89 21l7 38h1q1 8 42 244q-21 62 -96 62q-53 0 -90.5 -49t-53.5 -140zM601 457l53 165q34 108 60 108q12 0 25 -2t24 -7.5t10 -13.5q-7 -30 -60 -108l-100 -146z" />
    <glyph glyph-name="Emacron" unicode="&#x112;" 
d="M451 0h-409v5q15 0 22 10.5t13 40.5q17 94 92 523q-3 19 -21 19v5h406l-3 -12q-7 -34 -14 -60h-4q-4 29 -27 38.5t-86 9.5h-155l4 24q-16 -93 -56 -319.5t-46 -259.5h163q63 0 91 9.5t48 38.5h4q-3 -10 -9.5 -30t-9.5 -30h1zM238 706l10 56h280l-10 -56h-280zM216 299
l4 24h116q53 0 72.5 5.5t31.5 21.5h4q-1 -3 -6 -34.5t-9 -47.5h-4q-4 19 -21.5 25t-71.5 6h-116z" />
    <glyph glyph-name="emacron" unicode="&#x113;" horiz-adv-x="488" 
d="M245 -5q-95 0 -137 54t-24 154q21 118 89 181.5t173 63.5q86 0 123 -50.5t21 -143.5h-290l3 19l150 14q48 5 57 51l-8 -47h-1h1l9 47q7 39 -13 60.5t-63 21.5q-51 0 -87 -46.5t-52 -132.5q-16 -89 21 -137t122 -48q55 0 112 54l9 -9h2q-114 -106 -217 -106zM501 546h-280
l10 56h280z" />
    <glyph glyph-name="Ebreve" unicode="&#x114;" 
d="M42 0v5q15 0 22 10.5t13 40.5q17 94 92 523q-3 19 -21 19v5h406l-3 -12q-7 -34 -14 -60h-4q-4 29 -27 38.5t-86 9.5h-155l4 24q-16 -93 -56 -319.5t-46 -259.5h163q63 0 91 9.5t48 38.5h4q-3 -10 -9.5 -30t-9.5 -30h1l-4 -12h-409zM280 814l17 6q12 -67 89 -67
q76 0 113 67l16 -6q-69 -128 -140 -128q-34 0 -59 33t-36 95zM332 299h-116l4 24h116q53 0 72.5 5.5t31.5 21.5h4q-1 -3 -6 -34.5t-9 -47.5h-4q-4 19 -21.5 25t-71.5 6z" />
    <glyph glyph-name="ebreve" unicode="&#x115;" horiz-adv-x="488" 
d="M245 -5q-95 0 -137 54t-24 154q21 118 89 181.5t173 63.5q86 0 123 -50.5t21 -143.5h-290l3 19l150 14q48 5 57 51l-8 -47h-1h1l9 47q7 39 -13 60.5t-63 21.5q-51 0 -87 -46.5t-52 -132.5q-16 -89 21 -137t122 -48q55 0 112 54l9 -9h2q-114 -106 -217 -106zM262 654h1
l18 6q12 -67 89 -67q76 0 112 67l16 -6q-69 -128 -140 -128t-96 128z" />
    <glyph glyph-name="Edotaccent" unicode="&#x116;" 
d="M42 5q15 0 22 10.5t13 40.5q17 94 92 523q-3 19 -21 19v5h406l-3 -12q-7 -34 -14 -60h-4q-4 29 -27 38.5t-86 9.5h-155l4 24q-16 -93 -56 -319.5t-46 -259.5h163q63 0 91 9.5t48 38.5h4q-3 -10 -9.5 -30t-9.5 -30h1l-4 -12h-409v5zM374 673q-60 0 -51 61q11 61 72 61
t50 -61t-71 -61zM332 299h-116l4 24h116q53 0 72.5 5.5t31.5 21.5h4q-1 -3 -6 -34.5t-9 -47.5h-4q-4 19 -21.5 25t-71.5 6z" />
    <glyph glyph-name="edotaccent" unicode="&#x117;" horiz-adv-x="488" 
d="M245 -5q-95 0 -137 54t-24 154q21 118 89 181.5t173 63.5q86 0 123 -50.5t21 -143.5h-290l3 19l150 14q48 5 57 51l-8 -47h-1h1l9 47q7 39 -13 60.5t-63 21.5q-51 0 -87 -46.5t-52 -132.5q-16 -89 21 -137t122 -48q55 0 112 54l9 -9h2q-114 -106 -217 -106zM355 513
q-61 0 -50 61t72 61t50 -61t-72 -61z" />
    <glyph glyph-name="Eogonek" unicode="&#x118;" 
d="M42 0v5q15 0 22 10.5t13 40.5q17 94 92 523q-3 19 -21 19v5h406l-3 -12q-7 -34 -14 -60h-4q-4 29 -27 38.5t-86 9.5h-155l4 24q-16 -93 -56 -319.5t-46 -259.5h163q63 0 91 9.5t48 38.5h4q-3 -10 -9.5 -30t-9.5 -30h1l-4 -12h-4q-33 -11 -77.5 -54.5t-52.5 -89.5
q-5 -31 15.5 -47.5t64.5 -16.5q47 0 58 12l6 -8q-34 -32 -91 -32q-62 0 -92.5 21t-23.5 60q7 40 52 82.5t98 72.5h-362zM216 299l4 24h116q53 0 72.5 5.5t31.5 21.5h4q-1 -3 -6 -34.5t-9 -47.5h-4q-4 19 -21.5 25t-71.5 6h-116z" />
    <glyph glyph-name="eogonek" unicode="&#x119;" horiz-adv-x="488" 
d="M245 -5q-95 0 -137 54t-24 154q21 118 89 181.5t173 63.5q86 0 123 -50.5t21 -143.5h-290l3 19l150 14q48 5 57 51l-8 -47h-1h1l9 47q7 39 -13 60.5t-63 21.5q-51 0 -87 -46.5t-52 -132.5q-16 -89 21 -137t122 -48q55 0 112 54l9 -9h2q-46 -43 -96 -71q-43 -16 -84 -63
t-48 -90q-7 -40 12.5 -62.5t63.5 -22.5q48 0 58 12l6 -8q-34 -32 -91 -32q-62 0 -91 26.5t-21 75.5q11 64 101 131q-18 -2 -27 -2z" />
    <glyph glyph-name="Ecaron" unicode="&#x11a;" 
d="M42 0v5q15 0 22 10.5t13 40.5q17 94 92 523q-3 19 -21 19v5h406l-3 -12q-7 -34 -14 -60h-4q-4 29 -27 38.5t-86 9.5h-155l4 24q-16 -93 -56 -319.5t-46 -259.5h163q63 0 91 9.5t48 38.5h4q-3 -10 -9.5 -30t-9.5 -30h1l-4 -12h-409zM343 688q-1 4 -17 53.5t-27.5 87.5
t-8.5 34l11 8q49 -75 86 -122q82 75 129 122l8 -8q-40 -61 -116 -177l-1 1v-1q-19 -28 -37 -28q-21 0 -27 28v2zM216 299l4 24h116q53 0 72.5 5.5t31.5 21.5h4q-1 -3 -6 -34.5t-9 -47.5h-4q-4 19 -21.5 25t-71.5 6h-116z" />
    <glyph glyph-name="ecaron" unicode="&#x11b;" horiz-adv-x="488" 
d="M245 -5q-95 0 -137 54t-24 154q21 118 89 181.5t173 63.5q86 0 123 -50.5t21 -143.5h-290l3 19l150 14q48 5 57 51l-8 -47h-1h1l9 47q7 39 -13 60.5t-63 21.5q-51 0 -87 -46.5t-52 -132.5q-16 -89 21 -137t122 -48q55 0 112 54l9 -9h2q-114 -106 -217 -106zM326 530
q-10 29 -33 104t-20 69l11 8q50 -75 86 -121q82 75 128 121l8 -8q-40 -61 -116 -177l-1 1v-1q-19 -28 -37 -28q-21 0 -27 28z" />
    <glyph glyph-name="Gcircumflex" unicode="&#x11c;" horiz-adv-x="724" 
d="M371 -5q-155 0 -225.5 80t-44.5 227t124.5 226.5t253.5 79.5q147 0 221 -72h1l-14 -64h-5l-3 15q-14 48 -69.5 72.5t-133.5 24.5q-105 0 -174.5 -73.5t-93.5 -208.5q-24 -136 19.5 -209.5t148.5 -73.5q81 0 156 24q2 9 6.5 36.5t13 74.5t16.5 94q1 17 -4 23.5t-17 6.5
q0 1 1 3v2h140v-5q-17 0 -24 -13t-14 -55h-2l-27 -155q-117 -60 -250 -60zM369 643q-6 -6 46.5 73t68.5 102v2q19 28 37 28q19 0 28 -28l54 -177l-11 -8q-1 0 -14.5 19.5t-35.5 51t-36 50.5q-61 -54 -128 -121z" />
    <glyph glyph-name="Gbreve" unicode="&#x11e;" horiz-adv-x="724" 
d="M371 -5q-155 0 -225.5 80t-44.5 227t124.5 226.5t253.5 79.5q147 0 221 -72h1l-14 -64h-5l-3 15q-14 48 -69.5 72.5t-133.5 24.5q-105 0 -174.5 -73.5t-93.5 -208.5q-24 -136 19.5 -209.5t148.5 -73.5q81 0 156 24q2 9 6.5 36.5t13 74.5t16.5 94q1 17 -4 23.5t-17 6.5
q0 1 1 3v2h140v-5q-17 0 -24 -13t-14 -55h-2l-27 -155q-117 -60 -250 -60zM398 814l17 6q12 -67 89 -67q76 0 113 67l16 -6q-69 -128 -140 -128q-34 0 -59 33t-36 95z" />
    <glyph glyph-name="gbreve" unicode="&#x11f;" horiz-adv-x="447" 
d="M113 -267q-71 0 -104.5 29.5t-23.5 84.5h3q16 86 134 125q-85 20 -71 99q17 93 114 108q-75 32 -58 128q12 68 61 104.5t128 36.5q64 0 102 -25q22 3 66 9.5t66 10.5l-10 -55l-91 -2q16 -33 7 -79q-12 -68 -61.5 -105t-128.5 -37h-49q-62 0 -73 -55q-4 -23 13 -36t51 -13
q66 3 80 3q83 0 122.5 -31.5t28.5 -90.5q-18 -100 -97.5 -154.5t-208.5 -54.5zM54 -142q-8 -47 11.5 -72t63.5 -25q90 0 144.5 34t65.5 97q7 37 -23.5 57t-92.5 20q-8 0 -39.5 -1.5t-35.5 0.5q-77 -25 -91 -109zM202 307q-22 -120 50 -120q34 0 58 31.5t34 88.5t-3 88
t-47 31t-57.5 -31t-34.5 -88zM216 654h1l18 6q12 -67 89 -67q76 0 112 67l16 -6q-69 -128 -140 -128t-96 128z" />
    <glyph glyph-name="Gdotaccent" unicode="&#x120;" horiz-adv-x="724" 
d="M371 -5q-155 0 -225.5 80t-44.5 227t124.5 226.5t253.5 79.5q147 0 221 -72h1l-14 -64h-5l-3 15q-14 48 -69.5 72.5t-133.5 24.5q-105 0 -174.5 -73.5t-93.5 -208.5q-24 -136 19.5 -209.5t148.5 -73.5q81 0 156 24q2 9 6.5 36.5t13 74.5t16.5 94q1 17 -4 23.5t-17 6.5
q0 1 1 3v2h140v-5q-17 0 -24 -13t-14 -55h-2l-27 -155q-117 -60 -250 -60zM492 673q-60 0 -51 61q11 61 72 61t50 -61t-71 -61z" />
    <glyph glyph-name="gdotaccent" unicode="&#x121;" horiz-adv-x="447" 
d="M113 -267q-71 0 -104.5 29.5t-23.5 84.5h3q16 86 134 125q-85 20 -71 99q17 93 114 108q-75 32 -58 128q12 68 61 104.5t128 36.5q64 0 102 -25q22 3 66 9.5t66 10.5l-10 -55l-91 -2q16 -33 7 -79q-12 -68 -61.5 -105t-128.5 -37h-49q-62 0 -73 -55q-4 -23 13 -36t51 -13
q66 3 80 3q83 0 122.5 -31.5t28.5 -90.5q-18 -100 -97.5 -154.5t-208.5 -54.5zM54 -142q-8 -47 11.5 -72t63.5 -25q90 0 144.5 34t65.5 97q7 37 -23.5 57t-92.5 20q-8 0 -39.5 -1.5t-35.5 0.5q-77 -25 -91 -109zM202 307q-22 -120 50 -120q34 0 58 31.5t34 88.5t-3 88
t-47 31t-57.5 -31t-34.5 -88zM309 513q-61 0 -50 61t72 61t50 -61t-72 -61z" />
    <glyph glyph-name="Hcircumflex" unicode="&#x124;" horiz-adv-x="659" 
d="M192 0h-150v5q15 0 22 10.5t13 40.5q8 49 24.5 141t36.5 207t30 170q0 24 -21 24v5h151v-5q-17 0 -24 -13t-15 -55h-3q-27 -154 -37 -210h336q29 159 46 262q-3 16 -20 16v5h152v-5q-17 0 -24 -13t-15 -55h-5q-14 -80 -43 -245.5t-37 -211.5h3q-7 -41 -4 -54.5t20 -13.5
q0 -1 -1 -3v-2h-151v5q20 0 28 25q5 25 21 118t26 148h-336q-34 -198 -39 -223h1q-7 -41 -4 -54.5t20 -13.5q0 -1 -1 -3v-2zM331 643q-3 -3 20.5 32t57.5 86t37 55l1 4q19 28 37 28t27 -28l55 -177l-12 -8l-85 121q-81 -75 -128 -121z" />
    <glyph glyph-name="Itilde" unicode="&#x128;" horiz-adv-x="230" 
d="M45 5q15 0 22 10.5t13 40.5q8 49 24.5 141t36.5 207t30 170q0 24 -21 24v5h152v-5q-17 0 -24 -13t-15 -55h-3q-14 -80 -43 -245.5t-37 -211.5h1q-7 -41 -4 -54.5t20 -13.5q0 -1 -1 -3v-2h-151v5zM119 698h-17q10 60 35.5 92.5t60.5 32.5q24 0 70 -31t71 -31q41 0 52 60
h17q-11 -61 -37 -94t-64 -33q-25 0 -71.5 31t-70.5 31q-35 0 -46 -58z" />
    <glyph glyph-name="itilde" unicode="&#x129;" horiz-adv-x="236" 
d="M196 0h-154v5q15 0 22 10.5t13 41.5q42 240 58 328q0 5 -2 8t-3.5 4.5t-8 4.5t-8.5 4v3l113 34h20l-20 -115l-45 -255q-7 -41 -4 -54.5t20 -13.5q0 -1 -1 -3v-2zM70 538q10 60 35.5 92.5t60.5 32.5q24 0 70 -31t71 -31q41 0 52 60h17q-11 -61 -37 -94t-64 -33
q-25 0 -71 31t-71 31q-36 0 -45 -58h-18z" />
    <glyph glyph-name="Imacron" unicode="&#x12a;" horiz-adv-x="230" 
d="M196 0h-151v5q15 0 22 10.5t13 40.5q8 49 24.5 141t36.5 207t30 170q0 24 -21 24v5h152v-5q-17 0 -24 -13t-15 -55h-3q-14 -80 -43 -245.5t-37 -211.5h1q-7 -41 -4 -54.5t20 -13.5q0 -1 -1 -3v-2zM385 706h-280l10 56h280z" />
    <glyph glyph-name="imacron" unicode="&#x12b;" horiz-adv-x="236" 
d="M196 0h-154v5q15 0 22 10.5t13 41.5q42 240 58 328q0 5 -2 8t-3.5 4.5t-8 4.5t-8.5 4v3l113 34h20l-20 -115l-45 -255q-7 -41 -4 -54.5t20 -13.5q0 -1 -1 -3v-2zM354 546h-280l10 56h280z" />
    <glyph glyph-name="Ibreve" unicode="&#x12c;" horiz-adv-x="230" 
d="M45 0v5q15 0 22 10.5t13 40.5q8 49 24.5 141t36.5 207t30 170q0 24 -21 24v5h152v-5q-17 0 -24 -13t-15 -55h-3q-14 -80 -43 -245.5t-37 -211.5h1q-7 -41 -4 -54.5t20 -13.5q0 -1 -1 -3v-2h-151zM147 814l17 6q12 -67 89 -67q76 0 113 67l16 -6q-69 -128 -140 -128
q-34 0 -59 33t-36 95z" />
    <glyph glyph-name="ibreve" unicode="&#x12d;" horiz-adv-x="236" 
d="M196 0h-154v5q15 0 22 10.5t13 41.5q42 240 58 328q0 5 -2 8t-3.5 4.5t-8 4.5t-8.5 4v3l113 34h20l-20 -115l-45 -255q-7 -41 -4 -54.5t20 -13.5q0 -1 -1 -3v-2zM115 654h1l18 6q12 -67 89 -67q76 0 112 67l16 -6q-69 -128 -140 -128t-96 128z" />
    <glyph glyph-name="Idotaccent" unicode="&#x130;" horiz-adv-x="230" 
d="M45 0v5q15 0 22 10.5t13 40.5q8 49 24.5 141t36.5 207t30 170q0 24 -21 24v5h152v-5q-17 0 -24 -13t-15 -55h-3q-14 -80 -43 -245.5t-37 -211.5h1q-7 -41 -4 -54.5t20 -13.5q0 -1 -1 -3v-2h-151zM241 673q-60 0 -51 61q11 61 72 61t50 -61t-71 -61z" />
    <glyph glyph-name="dotlessi" unicode="&#x131;" horiz-adv-x="236" 
d="M42 0v5q15 0 22 10.5t13 41.5q42 240 58 328q0 5 -2 8t-3.5 4.5t-8 4.5t-8.5 4v3l113 34h20l-20 -115l-45 -255q-7 -41 -4 -54.5t20 -13.5q0 -1 -1 -3v-2h-154z" />
    <glyph glyph-name="Jcircumflex" unicode="&#x134;" horiz-adv-x="340" 
d="M6 56q-1 21 12.5 32.5t39.5 11.5q40 0 42 -44t34 -44q28 0 44.5 36.5t33.5 134.5l68 385q1 17 -4 23.5t-17 6.5v5h152v-5q-17 0 -24 -13t-15 -55h-2l-47 -266q-28 -158 -74.5 -216t-146.5 -58q-94 0 -96 66zM225 643q-3 -3 20.5 32t57.5 86t37 55l1 4q19 28 37 28t27 -28
l55 -177l-12 -8l-85 121q-81 -75 -128 -121z" />
    <glyph glyph-name="Lacute" unicode="&#x139;" 
d="M450 0h-408v5q15 0 22 10.5t13 40.5q17 94 92 523q-3 19 -21 19v5h151v-5q-17 0 -24 -13t-15 -55h-4q-24 -140 -89 -506h172q53 0 78.5 9.5t44.5 36.5l7 8q1 -2 3 -3h1q-12 -41 -20 -63h1zM206 633l-9 9q62 114 102 156q34 51 40 51q13 0 32 -16t17 -26q-1 -9 -44 -48v-1
q-18 -19 -52.5 -50.5t-59.5 -53.5l-25 -21h-1z" />
    <glyph glyph-name="Lcaron" unicode="&#x13d;" 
d="M42 0v5q15 0 22 10.5t13 40.5q17 94 92 523q-3 19 -21 19v5h151v-5q-17 0 -24 -13t-15 -55h-4q-24 -140 -89 -506h172q53 0 78.5 9.5t44.5 36.5l7 8q1 -2 3 -3h1q-12 -41 -20 -63h1l-4 -12h-408zM315 358l-11 4l53 165q34 108 61 108q12 0 25 -2t23.5 -7.5t9.5 -13.5
q-2 -9 -19 -41.5t-41 -66.5z" />
    <glyph glyph-name="lcaron" unicode="&#x13e;" horiz-adv-x="236" 
d="M44 0v5q15 0 22 11t14 43q9 55 27 158.5t41.5 235t33.5 190.5q0 2 -0.5 3.5t-2 3l-2.5 2.5t-3.5 2.5t-4 2t-4.5 2l-5 2.5v3l113 34h20l-20 -115h-2q-15 -85 -47.5 -269.5t-42.5 -240.5h2q-7 -41 -4 -54.5t20 -13.5q0 -1 -1 -3v-2h-154zM304 423l-12 4l53 165h1
q34 108 60 108q12 0 25 -2t24 -7.5t9 -13.5q-7 -30 -60 -108z" />
    <glyph glyph-name="Lslash" unicode="&#x141;" 
d="M42 0v5q15 0 22 10.5t13 40.5q3 15 9 50.5t12.5 73t12.5 72.5l-50 -17l6 33l50 16q42 240 52 295q-3 19 -21 19v5h151v-5q-17 0 -24 -13t-15 -55h-4q-21 -121 -37 -212l152 50l-6 -33l-152 -50q-11 -61 -27 -151t-19 -110h172q53 0 78.5 9.5t44.5 36.5l7 8q1 -2 3 -3h1
q-12 -41 -20 -63h1l-4 -12h-408z" />
    <glyph glyph-name="lslash" unicode="&#x142;" horiz-adv-x="236" 
d="M125 315l-105 -33l6 34l105 33q6 32 24.5 139.5t26.5 154.5q0 2 -0.5 3.5t-2 3l-2.5 2.5t-3.5 2.5t-4 2t-4.5 2l-5 2.5v3l113 34h20l-20 -115h-2q-11 -61 -35 -201l108 34l-6 -34l-108 -34q-42 -235 -49 -275h2q-7 -41 -4 -54.5t20 -13.5q0 -1 -1 -3v-2h-154v5
q15 0 22 11t14 43q4 25 45 256z" />
    <glyph glyph-name="Nacute" unicode="&#x143;" horiz-adv-x="583" 
d="M121 0h-83v5q15 0 22 10.5t13 40.5l91 518q0 24 -21 24v5h106l276 -450l75 429q-3 16 -20 16v5h84v-5q-17 0 -24 -13t-15 -55h-5q-70 -399 -97 -550h-15q-55 88 -163.5 265.5t-162.5 266.5l-77 -439h1q-7 -41 -4 -54.5t20 -13.5q0 -1 -1 -3v-2zM371 642q62 113 102 156
q34 51 40 51q13 0 32.5 -16t17.5 -26q-2 -9 -46 -49q-18 -19 -52.5 -50.5t-59.5 -53.5l-25 -21z" />
    <glyph glyph-name="nacute" unicode="&#x144;" horiz-adv-x="508" 
d="M198 0h-154v5q13 0 19.5 7t11.5 26l62 351q0 2 -1.5 4t-4 4t-4.5 3l-6 3l-6 3v3l113 34h20l-11 -63q65 68 181 68q59 0 76 -37t4 -114q-14 -80 -40 -224h3q-7 -41 -4 -54.5t20 -13.5q0 -1 -1 -3v-2h-154v5q20 0 28 24l45 258q9 48 -5.5 71t-61.5 23q-62 0 -94 -19l-6 -34
h-2l-45 -255h2q-7 -41 -4 -54.5t20 -13.5q0 -1 -1 -3v-2zM257 482q62 113 102 156q34 51 40 51q13 0 32.5 -16t17.5 -26q-2 -9 -46 -49q-18 -19 -52.5 -50.5t-59.5 -53.5l-25 -21z" />
    <glyph glyph-name="Ncaron" unicode="&#x147;" horiz-adv-x="583" 
d="M38 5q15 0 22 10.5t13 40.5l91 518q0 24 -21 24v5h106l276 -450l75 429q-3 16 -20 16v5h84v-5q-17 0 -24 -13t-15 -55h-5q-70 -399 -97 -550h-15q-55 88 -163.5 265.5t-162.5 266.5l-77 -439h1q-7 -41 -4 -54.5t20 -13.5q0 -1 -1 -3v-2h-83v5zM388 688q-1 4 -17 53.5
t-27.5 87.5t-8.5 34l11 8q49 -75 86 -122q82 75 129 122l8 -8q-40 -61 -116 -177l-1 1v-1q-19 -28 -37 -28q-21 0 -27 28v2z" />
    <glyph glyph-name="ncaron" unicode="&#x148;" horiz-adv-x="508" 
d="M44 0v5q13 0 19.5 7t11.5 26l62 351q0 2 -1.5 4t-4 4t-4.5 3l-6 3l-6 3v3l113 34h20l-11 -63q65 68 181 68q59 0 76 -37t4 -114q-14 -80 -40 -224h3q-7 -41 -4 -54.5t20 -13.5q0 -1 -1 -3v-2h-154v5q20 0 28 24l45 258q9 48 -5.5 71t-61.5 23q-62 0 -94 -19l-6 -34h-2
l-45 -255h2q-7 -41 -4 -54.5t20 -13.5q0 -1 -1 -3v-2h-154zM320 530q-11 34 -33.5 106t-19.5 67l12 8q43 -65 85 -121q94 88 127 121l9 -8q-41 -63 -117 -177l-1 1v-1q-19 -28 -36 -28q-21 0 -27 28z" />
    <glyph glyph-name="Omacron" unicode="&#x14c;" horiz-adv-x="731" 
d="M365 -5q-162 0 -226 83.5t-39 223.5t118.5 223t254.5 83t225.5 -83t39.5 -223t-118 -223.5t-255 -83.5zM207 302q-23 -129 16 -206t147 -77t174 77t88 206q23 128 -16 205t-147 77t-174 -76.5t-89 -205.5h1zM351 706l10 56h280l-10 -56h-280z" />
    <glyph glyph-name="omacron" unicode="&#x14d;" horiz-adv-x="574" 
d="M287 -5q-116 0 -168.5 59t-33.5 168h1q19 109 92 167.5t189 58.5t168 -58.5t33 -167.5q-20 -109 -93 -168t-188 -59zM197 222q-17 -98 7.5 -151.5t86.5 -53.5t105.5 53.5t60.5 151.5t-7.5 151t-86.5 53t-105.5 -53t-60.5 -151zM524 546h-280l10 56h280z" />
    <glyph glyph-name="Obreve" unicode="&#x14e;" horiz-adv-x="731" 
d="M365 -5q-162 0 -226 83.5t-39 223.5t118.5 223t254.5 83t225.5 -83t39.5 -223t-118 -223.5t-255 -83.5zM207 302q-23 -129 16 -206t147 -77t174 77t88 206q23 128 -16 205t-147 77t-174 -76.5t-89 -205.5h1zM393 814l17 6q12 -67 89 -67q76 0 113 67l16 -6
q-69 -128 -140 -128q-34 0 -59 33t-36 95z" />
    <glyph glyph-name="obreve" unicode="&#x14f;" horiz-adv-x="574" 
d="M287 -5q-116 0 -168.5 59t-33.5 168h1q19 109 92 167.5t189 58.5t168 -58.5t33 -167.5q-20 -109 -93 -168t-188 -59zM197 222q-17 -98 7.5 -151.5t86.5 -53.5t105.5 53.5t60.5 151.5t-7.5 151t-86.5 53t-105.5 -53t-60.5 -151zM285 654h1l18 6q12 -67 89 -67q76 0 112 67
l16 -6q-69 -128 -140 -128t-96 128z" />
    <glyph glyph-name="Racute" unicode="&#x154;" horiz-adv-x="617" 
d="M190 0h-151v5q15 0 22 10.5t13 40.5l91 518q0 24 -21 24v5h230q106 0 155.5 -41.5t36.5 -117.5q-10 -60 -52.5 -99.5t-111.5 -56.5q101 -151 135 -203q33 -50 42.5 -56.5t45.5 -6.5l-4 -22h-38q-34 0 -42.5 -0.5t-31 2t-25 2.5t-19 8.5t-18 11.5t-16 20t-19.5 26t-23 36
q-46 70 -112 170h-67l-36 -203h1q-7 -41 -4 -54.5t20 -13.5q0 -1 -1 -3v-2zM262 575l-48 -271h86q68 0 110.5 36.5t54.5 103.5q11 63 -14 97t-82 34h-107zM314 633l-9 9q62 114 102 156q34 51 40 51q13 0 32 -16t17 -26q-1 -9 -44 -48v-1q-18 -19 -52.5 -50.5t-59.5 -53.5
l-25 -21h-1z" />
    <glyph glyph-name="Rcaron" unicode="&#x158;" horiz-adv-x="617" 
d="M39 0v5q15 0 22 10.5t13 40.5l91 518q0 24 -21 24v5h230q106 0 155.5 -41.5t36.5 -117.5q-10 -60 -52.5 -99.5t-111.5 -56.5q101 -151 135 -203q33 -50 42.5 -56.5t45.5 -6.5l-4 -22h-38q-34 0 -42.5 -0.5t-31 2t-25 2.5t-19 8.5t-18 11.5t-16 20t-19.5 26t-23 36
q-46 70 -112 170h-67l-36 -203h1q-7 -41 -4 -54.5t20 -13.5q0 -1 -1 -3v-2h-151zM262 575l-48 -271h86q68 0 110.5 36.5t54.5 103.5q11 63 -14 97t-82 34h-107zM368 688q-1 4 -17 53.5t-27.5 87.5t-8.5 34l11 8q49 -75 86 -122q82 75 129 122l8 -8q-40 -61 -116 -177l-1 1
v-1q-19 -28 -37 -28q-21 0 -27 28v2z" />
    <glyph glyph-name="rcaron" unicode="&#x159;" horiz-adv-x="360" 
d="M41 5q17 0 24 13.5t14 54.5h1q20 112 45 255q2 11 7 41q1 8 1.5 13t0 8t-3 5.5t-3.5 3t-6.5 3.5t-8.5 4v3l113 34h20l-4 -26q-4 -21 -9 -53q62 84 131 84q38 0 51 -16t7 -49l-1 -1q-8 -46 -56 -46q-16 0 -46.5 19t-46.5 19q-20 0 -42 -25q-11 -60 -30.5 -173t-22.5 -131
q-2 -23 2 -31.5t18 -8.5q0 -1 -1 -3v-2h-154v5zM236 530q-11 34 -33.5 106t-19.5 67l12 8q43 -65 85 -121q94 88 127 121l9 -8q-41 -63 -117 -177l-1 1v-1q-19 -28 -36 -28q-21 0 -27 28z" />
    <glyph glyph-name="Sacute" unicode="&#x15a;" horiz-adv-x="481" 
d="M233 -5q-126 0 -187 61l17 71h4q1 -2 2 -7t1 -7q20 -67 112 -88q0 -1 25.5 -3.5t30.5 -2.5q66 0 106.5 28t49.5 79q7 42 -31 78t-116 61q-73 22 -107 64.5t-24 97.5q15 87 75.5 134t157.5 47q87 0 148 -61l-16 -70h-4q-1 2 -2 7t-1 7q-12 42 -50 67.5t-83 25.5
q-63 0 -102 -30.5t-50 -87.5q-7 -37 30.5 -70.5t113.5 -57.5t111.5 -68.5t24.5 -103.5q-14 -82 -75.5 -126.5t-160.5 -44.5zM295 642q62 113 102 156q34 51 40 51q13 0 32.5 -16t17.5 -26q-2 -9 -46 -49q-18 -19 -52.5 -50.5t-59.5 -53.5l-25 -21zM46 56l13 13z" />
    <glyph glyph-name="sacute" unicode="&#x15b;" horiz-adv-x="391" 
d="M46 41l13 58h4q12 -36 47 -58.5t74 -22.5t63.5 21t31.5 59q8 49 -72 88q-116 56 -102 136q10 61 58.5 93.5t127.5 32.5q52 0 103 -51l-13 -54h-4q-2 4 -2 7q-17 36 -65 67h-1q0 1 -5.5 3t-11.5 4l-5 2q-87 0 -99 -70q-4 -22 23 -48t80 -51q92 -44 78 -122
q-12 -67 -62.5 -103.5t-131.5 -36.5q-80 0 -128 46l14 14zM208 482q62 113 102 156q34 51 40 51q13 0 32.5 -16t17.5 -26q-2 -9 -46 -49q-18 -19 -52.5 -50.5t-59.5 -53.5l-25 -21zM381 384l13 13z" />
    <glyph glyph-name="Scircumflex" unicode="&#x15c;" horiz-adv-x="481" 
d="M233 -5q-126 0 -187 61l17 71h4q1 -2 2 -7t1 -7q20 -67 112 -88q0 -1 25.5 -3.5t30.5 -2.5q66 0 106.5 28t49.5 79q7 42 -31 78t-116 61q-73 22 -107 64.5t-24 97.5q15 87 75.5 134t157.5 47q87 0 148 -61l-16 -70h-4q-1 2 -2 7t-1 7q-12 42 -50 67.5t-83 25.5
q-63 0 -102 -30.5t-50 -87.5q-7 -37 30.5 -70.5t113.5 -57.5t111.5 -68.5t24.5 -103.5q-14 -82 -75.5 -126.5t-160.5 -44.5zM235 643q-6 -6 46.5 73t68.5 102v2q19 28 37 28q19 0 28 -28l54 -177l-11 -8q-1 0 -14.5 19.5t-35.5 51t-36 50.5q-61 -54 -128 -121zM46 56l13 13z
" />
    <glyph glyph-name="Scedilla" unicode="&#x15e;" horiz-adv-x="481" 
d="M224 -5q-119 3 -178 61l17 71h4q1 -2 2 -7t1 -7q14 -48 63 -71t105 -23q66 0 106.5 28t49.5 79q7 42 -31 78t-116 61q-73 22 -107 64.5t-24 97.5q15 87 75.5 134t157.5 47q87 0 148 -61l-16 -70h-4q-1 2 -2 7t-1 7q-12 42 -50 67.5t-83 25.5q-63 0 -102 -30.5t-50 -87.5
q-7 -37 30.5 -70.5t113.5 -57.5t111.5 -68.5t24.5 -103.5q-14 -78 -71 -122.5t-149 -48.5q-22 -13 -60 -68q28 14 61 14q39 0 57 -19.5t11 -55.5q-16 -86 -120 -86q-49 0 -77 31l7 11q13 -13 56 -13q64 0 74 57q5 28 -5 41.5t-29 13.5q-21 0 -48 -15h-1l-5 3q11 18 24 39
t20 32t10 15zM46 56l13 13z" />
    <glyph glyph-name="scedilla" unicode="&#x15f;" horiz-adv-x="391" 
d="M46 41l13 58h4q12 -36 47 -58.5t74 -22.5t63.5 21t31.5 59q8 49 -72 88q-116 56 -102 136q10 61 58.5 93.5t127.5 32.5q52 0 103 -51l-13 -54h-4q-2 4 -2 7q-17 36 -65 67h-1q0 1 -5.5 3t-11.5 4l-5 2q-87 0 -99 -70q-4 -22 23 -48t80 -51q92 -44 78 -122
q-11 -64 -58 -100t-122 -40q-22 -13 -60 -68q28 14 61 14q39 0 57 -19.5t11 -55.5q-16 -86 -120 -86q-49 0 -77 31l7 11q13 -13 56 -13q64 0 74 57q5 28 -5 41.5t-29 13.5q-21 0 -48 -15h-1l-5 3q11 18 24 39t20 32t10 15q-74 5 -117 46l13 14zM394 397l-13 -13z" />
    <glyph glyph-name="Scaron" unicode="&#x160;" horiz-adv-x="481" 
d="M46 56l17 71h4q1 -2 2 -7t1 -7q20 -67 112 -88q0 -1 25.5 -3.5t30.5 -2.5q66 0 106.5 28t49.5 79q7 42 -31 78t-116 61q-73 22 -107 64.5t-24 97.5q15 87 75.5 134t157.5 47q87 0 148 -61l-16 -70h-4q-1 2 -2 7t-1 7q-12 42 -50 67.5t-83 25.5q-63 0 -102 -30.5
t-50 -87.5q-7 -37 30.5 -70.5t113.5 -57.5t111.5 -68.5t24.5 -103.5q-14 -82 -75.5 -126.5t-160.5 -44.5q-126 0 -187 61zM327 688q-1 4 -17 53.5t-27.5 87.5t-8.5 34l11 8q49 -75 86 -122q82 75 129 122l8 -8q-40 -61 -116 -177l-1 1v-1q-19 -28 -37 -28q-21 0 -27 28v2z
M46 56l13 13z" />
    <glyph glyph-name="scaron" unicode="&#x161;" horiz-adv-x="391" 
d="M46 41l13 58h4q12 -36 47 -58.5t74 -22.5t63.5 21t31.5 59q8 49 -72 88q-116 56 -102 136q10 61 58.5 93.5t127.5 32.5q52 0 103 -51l-13 -54h-4q-2 4 -2 7q-17 36 -65 67h-1q0 1 -5.5 3t-11.5 4l-5 2q-87 0 -99 -70q-4 -22 23 -48t80 -51q92 -44 78 -122
q-12 -67 -62.5 -103.5t-131.5 -36.5q-80 0 -128 46l14 14zM271 530q-10 29 -33 104t-20 69l11 8q50 -75 86 -121q82 75 128 121l8 -8q-40 -61 -116 -177l-1 1v-1q-19 -28 -37 -28q-21 0 -27 28zM394 397l-13 -13z" />
    <glyph glyph-name="Tcaron" unicode="&#x164;" horiz-adv-x="591" 
d="M110 525h-4q7 36 14 66l3 12h562l-2 -12q-1 -10 -4 -33t-5 -33h-4q-12 32 -30.5 43t-68.5 11h-125q-54 -307 -89 -506h1q-7 -41 -4 -54.5t20 -13.5q0 -1 -1 -3v-2h-151v5q16 0 23 11.5t13 46.5l91 516h-121q-46 0 -69 -9.5t-43 -36.5zM387 688q-1 4 -17 53.5t-27.5 87.5
t-8.5 34l11 8q49 -75 86 -122q82 75 129 122l8 -8q-40 -61 -116 -177l-1 1v-1q-19 -28 -37 -28q-21 0 -27 28v2z" />
    <glyph glyph-name="tcaron" unicode="&#x165;" horiz-adv-x="346" 
d="M183 -5q-63 0 -78 23t-1 100l50 286h-62l2 11q76 13 174 164h17l-24 -136h135l-7 -39h-135q-36 -207 -53 -304q-7 -38 0.5 -49t38.5 -11q34 0 98 47l6 -8q-115 -84 -161 -84zM453 423l-12 4l53 165h1q34 108 60 108q12 0 25 -2t24 -7.5t9 -13.5q-7 -30 -60 -108z" />
    <glyph glyph-name="Utilde" unicode="&#x168;" horiz-adv-x="550" 
d="M282 -5q-127 0 -169.5 49.5t-24.5 151.5l66 372q1 17 -4 23.5t-17 6.5v5h152v-5q-17 0 -24 -13t-15 -55h-2l-62 -352q-13 -75 13 -112t107 -37q95 0 140.5 37.5t58.5 113.5l70 392q-1 15 -6.5 20.5t-18.5 5.5v5h97v-5q-19 0 -27.5 -15.5t-16.5 -62.5h-4l-62 -351
q-16 -88 -73 -131t-178 -43zM278 698h-17q10 60 35.5 92.5t60.5 32.5q25 0 71 -31t70 -31q41 0 52 60h17q-11 -61 -37 -94t-64 -33q-24 0 -71 31t-71 31q-35 0 -46 -58z" />
    <glyph glyph-name="utilde" unicode="&#x169;" horiz-adv-x="473" 
d="M163 -5q-126 0 -98 159l45 254q1 17 -4 23.5t-17 6.5q0 1 1 3v2h127l-50 -278q-19 -104 87 -104q53 0 77 24q47 268 57 323q1 17 -4 23.5t-17 6.5q0 1 1 3v2h126q-33 -186 -57 -328h1q-10 -59 -7 -65q3 -4 20 -13v-3l-113 -34h-20l5 26h-2q1 5 3.5 19.5t3.5 22.5
q-71 -73 -165 -73zM199 538h-18q10 60 35.5 92.5t60.5 32.5q25 0 71 -31t71 -31q41 0 52 60h17q-11 -61 -37 -94t-64 -33q-25 0 -72 31t-71 31q-36 0 -45 -58z" />
    <glyph glyph-name="Umacron" unicode="&#x16a;" horiz-adv-x="550" 
d="M282 -5q-127 0 -169.5 49.5t-24.5 151.5l66 372q1 17 -4 23.5t-17 6.5v5h152v-5q-17 0 -24 -13t-15 -55h-2l-62 -352q-13 -75 13 -112t107 -37q95 0 140.5 37.5t58.5 113.5l70 392q-1 15 -6.5 20.5t-18.5 5.5v5h97v-5q-19 0 -27.5 -15.5t-16.5 -62.5h-4l-62 -351
q-16 -88 -73 -131t-178 -43zM264 706l10 56h280l-10 -56h-280z" />
    <glyph glyph-name="umacron" unicode="&#x16b;" horiz-adv-x="473" 
d="M163 -5q-126 0 -98 159l45 254q1 17 -4 23.5t-17 6.5q0 1 1 3v2h127l-50 -278q-19 -104 87 -104q53 0 77 24q47 268 57 323q1 17 -4 23.5t-17 6.5q0 1 1 3v2h126q-33 -186 -57 -328h1q-10 -59 -7 -65q3 -4 20 -13v-3l-113 -34h-20l5 26h-2q1 5 3.5 19.5t3.5 22.5
q-71 -73 -165 -73zM465 546h-279l10 56h279z" />
    <glyph glyph-name="Ubreve" unicode="&#x16c;" horiz-adv-x="550" 
d="M282 -5q-127 0 -169.5 49.5t-24.5 151.5l66 372q1 17 -4 23.5t-17 6.5v5h152v-5q-17 0 -24 -13t-15 -55h-2l-62 -352q-13 -75 13 -112t107 -37q95 0 140.5 37.5t58.5 113.5l70 392q-1 15 -6.5 20.5t-18.5 5.5v5h97v-5q-19 0 -27.5 -15.5t-16.5 -62.5h-4l-62 -351
q-16 -88 -73 -131t-178 -43zM306 814l17 6q12 -67 89 -67q76 0 113 67l16 -6q-69 -128 -140 -128q-34 0 -59 33t-36 95z" />
    <glyph glyph-name="ubreve" unicode="&#x16d;" horiz-adv-x="473" 
d="M163 -5q-126 0 -98 159l45 254q1 17 -4 23.5t-17 6.5q0 1 1 3v2h127l-50 -278q-19 -104 87 -104q53 0 77 24q47 268 57 323q1 17 -4 23.5t-17 6.5q0 1 1 3v2h126q-33 -186 -57 -328h1q-10 -59 -7 -65q3 -4 20 -13v-3l-113 -34h-20l5 26h-2q1 5 3.5 19.5t3.5 22.5
q-71 -73 -165 -73zM227 654h1l17 6q12 -67 90 -67q76 0 112 67l16 -6q-69 -128 -140 -128t-96 128z" />
    <glyph glyph-name="Uring" unicode="&#x16e;" horiz-adv-x="550" 
d="M282 -5q-127 0 -169.5 49.5t-24.5 151.5l66 372q1 17 -4 23.5t-17 6.5v5h152v-5q-17 0 -24 -13t-15 -55h-2l-62 -352q-13 -75 13 -112t107 -37q95 0 140.5 37.5t58.5 113.5l70 392q-1 15 -6.5 20.5t-18.5 5.5v5h97v-5q-19 0 -27.5 -15.5t-16.5 -62.5h-4l-62 -351
q-16 -88 -73 -131t-178 -43zM392 638q-41 0 -63.5 26.5t-15.5 66.5q7 44 36.5 68t75.5 24t66.5 -24t13.5 -68q-7 -40 -39.5 -66.5t-73.5 -26.5zM341 731q-5 -31 11 -51t45 -20t52 20t28 51q12 70 -56 70t-80 -70z" />
    <glyph glyph-name="uring" unicode="&#x16f;" horiz-adv-x="473" 
d="M163 -5q-126 0 -98 159l45 254q1 17 -4 23.5t-17 6.5q0 1 1 3v2h127l-50 -278q-19 -104 87 -104q53 0 77 24q47 268 57 323q1 17 -4 23.5t-17 6.5q0 1 1 3v2h126q-33 -186 -57 -328h1q-10 -59 -7 -65q3 -4 20 -13v-3l-113 -34h-20l5 26h-2q1 5 3.5 19.5t3.5 22.5
q-71 -73 -165 -73zM314 478q-41 0 -63.5 26.5t-15.5 66.5q7 44 36.5 68t75.5 24t66.5 -24t12.5 -68q-7 -40 -39 -66.5t-73 -26.5zM262 571q-5 -31 11 -51t45 -20t51.5 20t28.5 51q12 70 -55 70q-68 0 -80 -70h-1z" />
    <glyph glyph-name="Wcircumflex" unicode="&#x174;" horiz-adv-x="855" 
d="M107 598v5h160v-5q-18 0 -21.5 -14t3.5 -54q13 -75 39.5 -214t33.5 -180l-73 -151l305 628h26l100 -466l205 426q4 14 -1.5 19.5t-20.5 5.5v5h98v-5q-17 0 -28 -13t-32 -55h-3l-268 -545h-28l1 1l-105 456l-221 -457h-28l-113 576q-5 22 -11 29.5t-18 7.5zM456 643
q-3 -3 20.5 32t57.5 86t37 55l1 4q19 28 37 28t27 -28l55 -177l-12 -8l-85 121q-81 -75 -128 -121z" />
    <glyph glyph-name="Ycircumflex" unicode="&#x176;" horiz-adv-x="553" 
d="M141 575q-14 23 -28 23v5h166v-5q-9 0 -13 -3t-4 -11t4.5 -20t13.5 -34h-1l96 -214l199 246q23 34 0 36h-5v5h93v-5q-15 0 -28.5 -12.5t-50.5 -55.5h-2l-204 -247l-37 -210h3q-7 -41 -4 -54.5t20 -13.5q0 -1 -1 -3v-2h-151v5q20 0 28 25l40 226zM279 643q-6 -6 46.5 73
t68.5 102v2q19 28 37 28q19 0 28 -28l54 -177l-11 -8q-1 0 -14.5 19.5t-35.5 51t-36 50.5q-61 -54 -128 -121z" />
    <glyph glyph-name="Ydieresis" unicode="&#x178;" horiz-adv-x="553" 
d="M113 598v5h166v-5q-9 0 -13 -3t-4 -11t4.5 -20t13.5 -34h-1l96 -214l199 246q23 34 0 36h-5v5h93v-5q-15 0 -28.5 -12.5t-50.5 -55.5h-2l-204 -247l-37 -210h3q-7 -41 -4 -54.5t20 -13.5q0 -1 -1 -3v-2h-151v5q20 0 28 25l40 226l-134 319q-14 23 -28 23zM306 673
q-60 0 -51 61q11 61 72 61t50 -61t-71 -61zM499 673q-60 0 -51 61q11 61 72 61t50 -61t-71 -61z" />
    <glyph glyph-name="Zacute" unicode="&#x179;" horiz-adv-x="549" 
d="M483 0h-446l446 579h-179q-49 0 -73.5 -9t-49.5 -34h-4q4 9 11 27.5t10 27.5l5 12h408l-447 -578h208q53 0 78 9.5t44 36.5l7 8q1 -2 4 -3h1q-6 -21 -21 -63h2zM424 633l-9 9q62 114 102 156q34 51 40 51q13 0 32 -16t17 -26q-1 -9 -44 -48v-1q-18 -19 -52.5 -50.5
t-59.5 -53.5l-25 -21h-1z" />
    <glyph glyph-name="zacute" unicode="&#x17a;" horiz-adv-x="455" 
d="M38 0l317 421l-103 -1q-49 0 -72 -6.5t-46 -25.5h-4q9 26 17 44l5 11h335l-315 -421h103q53 0 78 9.5t44 36.5l7 8q1 -2 4 -3h1q-10 -34 -20 -62l-3 -11h-348zM260 473l-9 9q62 113 102 156q34 51 40 51q13 0 32.5 -16t17.5 -26q-2 -9 -46 -49q-18 -19 -52.5 -50.5
t-59.5 -53.5z" />
    <glyph glyph-name="Zdotaccent" unicode="&#x17b;" horiz-adv-x="549" 
d="M37 0l446 579h-179q-49 0 -73.5 -9t-49.5 -34h-4q4 9 11 27.5t10 27.5l5 12h408l-447 -578h208q53 0 78 9.5t44 36.5l7 8q1 -2 4 -3h1q-6 -21 -21 -63h2l-4 -13h-446zM433 673q-60 0 -51 61q11 61 72 61t50 -61t-71 -61z" />
    <glyph glyph-name="zdotaccent" unicode="&#x17c;" horiz-adv-x="455" 
d="M38 0l317 421l-103 -1q-49 0 -72 -6.5t-46 -25.5h-4q9 26 17 44l5 11h335l-315 -421h103q53 0 78 9.5t44 36.5l7 8q1 -2 4 -3h1q-10 -34 -20 -62l-3 -11h-348zM344 513q-62 0 -51 61t73 61q61 0 50 -61t-72 -61z" />
    <glyph glyph-name="Zcaron" unicode="&#x17d;" horiz-adv-x="549" 
d="M37 0l446 579h-179q-49 0 -73.5 -9t-49.5 -34h-4q4 9 11 27.5t10 27.5l5 12h408l-447 -578h208q53 0 78 9.5t44 36.5l7 8q1 -2 4 -3h1q-6 -21 -21 -63h2l-4 -13h-446zM402 688q-1 4 -17 53.5t-27.5 87.5t-8.5 34l11 8q49 -75 86 -122q82 75 129 122l8 -8
q-40 -61 -116 -177l-1 1v-1q-19 -28 -37 -28q-21 0 -27 28v2z" />
    <glyph glyph-name="zcaron" unicode="&#x17e;" horiz-adv-x="455" 
d="M38 0l317 421l-103 -1q-49 0 -72 -6.5t-46 -25.5h-4q9 26 17 44l5 11h335l-315 -421h103q53 0 78 9.5t44 36.5l7 8q1 -2 4 -3h1q-10 -34 -20 -62l-3 -11h-348zM314 530q-11 34 -33.5 106t-19.5 67l12 8q43 -65 85 -121q94 88 127 121l9 -8q-41 -63 -117 -177l-1 1v-1
q-19 -28 -36 -28q-21 0 -27 28z" />
    <glyph glyph-name="uni01EB" unicode="&#x1eb;" horiz-adv-x="676" 
d="M340 -5q-146 0 -205.5 68.5t-38.5 184.5h-1q21 116 104.5 184.5t229.5 68.5t205.5 -68.5t39.5 -184.5q-17 -97 -79.5 -162t-170.5 -84q32 -45 66 -67t82 -22q70 0 97 27l7 -6q-79 -77 -129 -77q-57 0 -150 141q-27 -3 -57 -3zM178 248q-19 -107 21 -170.5t144 -63.5
q105 0 167 63.5t81 170.5t-20.5 171t-144.5 64q-104 0 -166.5 -64t-81.5 -171z" />
    <glyph glyph-name="uni0226" unicode="&#x226;" horiz-adv-x="573" 
d="M1 5q17 0 28.5 13.5t34.5 54.5q50 91 149.5 272.5t149.5 271.5h24l138 -544h5q11 -45 18 -56.5t22 -11.5q0 -1 -1 -3v-2h-164v5q17 0 22 8t2 30l-38 163h-224l-64 -118h2q-37 -69 -23 -80q3 -2 11 -3h5q0 -1 -1 -3v-2h-96v5zM179 230h206l-62 268zM390 673q-60 0 -51 61
q11 61 72 61t50 -61t-71 -61z" />
    <glyph glyph-name="uni0262" unicode="&#x262;" horiz-adv-x="674" 
d="M338 -5q-138 0 -201 65.5t-41 187.5t108 187.5t224 65.5q132 0 203 -73l-1 -1l-14 -59h-4q-13 70 -86 99q-51 16 -103 16q-98 0 -161.5 -61t-83.5 -174t22.5 -173.5t140.5 -60.5q74 0 158 30q1 6 8 44.5l13 71.5h-1q7 40 4 54t-20 14q0 1 1 3v2h121v-5q-15 0 -22 -10.5
t-13 -41.5q-19 -112 -21 -118l1 -2q-117 -61 -232 -61z" />
    <glyph glyph-name="uni026A" unicode="&#x26a;" horiz-adv-x="219" 
d="M56 0v5q15 0 22 10t13 40q33 196 72 412q0 14 -4.5 19t-15.5 5v5h128v-5q-17 0 -24 -13t-14 -55h-3q-36 -205 -61 -350h1q-7 -41 -4 -54.5t20 -13.5q0 -1 -1 -3v-2h-129z" />
    <glyph glyph-name="uni0274" unicode="&#x274;" horiz-adv-x="522" 
d="M39 5q15 0 22 10t13 40l72 412q0 14 -4.5 19t-15.5 5v5h88l-3 -3l4 3l250 -376l62 352q-1 19 -20 19v5h75v-5q-17 0 -24 -13t-14 -55h-4q-74 -418 -78 -440h-6l-40 60l1 1l-255 383l-62 -354h1q-7 -41 -4 -54.5t20 -13.5q0 -1 -1 -3v-2h-77v5zM168 461l1 1h-1v-1z" />
    <glyph glyph-name="uni0280" unicode="&#x280;" horiz-adv-x="557" 
d="M171 0h-129v5q17 0 24 13.5t14 54.5h2l66 377q2 24 -2 32.5t-17 8.5v5h177q95 0 140 -33.5t35 -94.5q-18 -107 -153 -133q50 -59 130 -146q52 -57 62.5 -64.5t41.5 -7.5l-3 -17h-31q-24 0 -30 -0.5t-23 2t-19.5 3t-17 8t-18 11.5t-20 19.5t-25.5 26t-32 36.5
q-98 107 -111 121h-48l-32 -181q-2 -24 2 -32.5t18 -8.5q0 -1 -1 -3v-2zM188 249h60q64 0 104 31t51 88q9 51 -16.5 79t-82.5 28l-77 -1z" />
    <glyph glyph-name="uni028F" unicode="&#x28f;" horiz-adv-x="478" 
d="M101 496h138v-5q-9 0 -13 -3t-4 -11t4.5 -20t13.5 -34h-1l76 -176l128 156q61 73 52 84q-3 3 -10 4h-5v5h84v-5q-15 0 -29.5 -13t-49.5 -55l-162 -193l-35 -195q-1 -17 4 -23.5t17 -6.5q0 -1 -1 -3v-2h-129v5q17 0 24 13.5t14 54.5h3l24 134l-114 260q-9 14 -14.5 19
t-14.5 5v5z" />
    <glyph glyph-name="uni0299" unicode="&#x299;" horiz-adv-x="484" 
d="M44 5q15 0 22 10t13 40l73 417q-1 19 -20 19v5h178q93 0 137.5 -31.5t33.5 -90.5q-15 -88 -135 -114q80 -10 118 -42t29 -84q-11 -64 -76 -99t-174 -35h-97l4 22h86q75 0 121 29t56 83t-33.5 83.5t-133.5 29.5h-58l3 17h62q64 0 103.5 28.5t48.5 81.5q8 49 -18 75t-83 26
q-11 0 -29.5 -0.5t-32.5 -0.5h-15l-83 -474h-100v5z" />
    <glyph glyph-name="uni029C" unicode="&#x29c;" horiz-adv-x="604" 
d="M47 0v5q15 0 22 10t13 40q33 196 72 412q0 14 -4.5 19t-15.5 5v5h128v-5q-17 0 -24 -13t-14 -55h-3q-9 -57 -28 -158h319q13 73 36 202q0 14 -4.5 19t-15.5 5v5h128v-5q-17 0 -24 -13t-14 -55h-3q-36 -205 -61 -350h1q-7 -41 -4 -54.5t20 -13.5q0 -1 -1 -3v-2h-129v5
q15 0 22 10t13 40q2 12 13.5 80t19.5 111h-319q-3 -19 -30 -173h1q-7 -41 -4 -54.5t20 -13.5q0 -1 -1 -3v-2h-129z" />
    <glyph glyph-name="uni029F" unicode="&#x29f;" horiz-adv-x="449" 
d="M47 0v5q15 0 22 10t13 40q26 152 73 417q-1 19 -20 19v5h128v-5q-17 0 -24 -13t-14 -55h-4q-46 -261 -71 -404h128q53 0 78 9.5t44 36.5l7 8q1 -2 4 -3h1q-3 -10 -9.5 -30.5t-9.5 -30.5l-3 -9h-343z" />
    <glyph glyph-name="circumflex" unicode="&#x2c6;" horiz-adv-x="306" 
d="M36 483q-3 -4 18.5 40.5t44.5 90.5l23 46q12 28 31 28q20 0 32 -28l85 -177l-10 -8q-65 76 -107 121q-48 -50 -107 -121zM121 629v-1v1z" />
    <glyph glyph-name="caron" unicode="&#x2c7;" horiz-adv-x="306" 
d="M122 526q-1 2 -2.5 5.5t-7 14t-10.5 20.5t-12 24.5t-13.5 27t-13 26.5t-12 24.5t-9.5 19t-5.5 12.5t-0.5 3l10 8q59 -71 107 -121l107 121l10 -8q-29 -61 -85 -177q-12 -28 -32 -28q-19 0 -31 28zM121 558v-1v1z" />
    <glyph glyph-name="uni02C9" unicode="&#x2c9;" horiz-adv-x="306" 
d="M14 546v56h279v-56h-279z" />
    <glyph glyph-name="breve" unicode="&#x2d8;" horiz-adv-x="306" 
d="M35 654l17 6q25 -67 101 -67q77 0 102 67l16 -6q-47 -128 -118 -128t-118 128z" />
    <glyph glyph-name="dotaccent" unicode="&#x2d9;" horiz-adv-x="306" 
d="M92 574q0 61 61 61t61 -61t-61 -61t-61 61z" />
    <glyph glyph-name="ring" unicode="&#x2da;" horiz-adv-x="306" 
d="M153 478q-41 0 -68 26.5t-27 66.5q0 44 24.5 68t70.5 24t71 -24t25 -68q0 -40 -27.5 -66.5t-68.5 -26.5zM85 571q0 -31 19.5 -51t48.5 -20t48.5 20t19.5 51q0 70 -68 70t-68 -70z" />
    <glyph glyph-name="uni1D00" unicode="&#x1d00;" horiz-adv-x="497" 
d="M3 0v5q17 0 28.5 13t35.5 55q83 145 247 435h18l117 -435h4q11 -45 18 -56.5t23 -11.5q0 -1 -1 -3v-2h-141v5q17 0 22 7.5t2 29.5l-32 128h-199l-45 -82h1q-14 -24 -20.5 -39t-8 -25t2 -14t13.5 -5h5q0 -1 -1 -3v-2h-89zM283 419l-127 -230h183z" />
    <glyph glyph-name="uni1D04" unicode="&#x1d04;" horiz-adv-x="642" 
d="M359 -5q-143 0 -208.5 66t-43.5 188q21 121 110 186.5t231 65.5t213 -73h2l-14 -60h-4q-23 115 -200 115q-103 0 -169.5 -61t-85.5 -173q-22 -126 37 -186t185 -46q135 16 192 111h4l-8 -60l-5 8q-1 0 -1 -1l5 -7q-98 -73 -240 -73zM656 421l6 6q-1 -1 -2.5 -2t-2.5 -2
t-1 -2z" />
    <glyph glyph-name="uni1D05" unicode="&#x1d05;" horiz-adv-x="580" 
d="M243 0h-199v5q15 0 22 10t13 40q26 152 73 417q-1 19 -20 19v5h174q151 0 221.5 -64.5t49.5 -183.5t-107.5 -183.5t-226.5 -64.5zM148 22h99q103 0 169 58.5t86 167.5t-32.5 168t-167.5 59q-12 0 -37.5 -0.5t-37.5 -0.5q-48 -275 -79 -452z" />
    <glyph glyph-name="uni1D07" unicode="&#x1d07;" horiz-adv-x="449" 
d="M47 5q15 0 22 10t13 40q26 152 73 417q-1 19 -20 19v5h340q-2 -11 -7 -33t-8 -33h-4q-4 26 -22.5 36t-65.5 12q-47 -1 -137 -1l3 19q-9 -53 -43 -244.5t-41 -232.5h117q63 0 91 9.5t48 38.5h4q-3 -10 -9 -29t-9 -29l-3 -9h-342v5zM262 247h-71l3 18h73q53 0 72.5 5.5
t31.5 21.5h4l-6 -36h-2q-1 -7 -3 -20.5t-3 -19.5h-4q-4 19 -22.5 25t-72.5 6z" />
    <glyph glyph-name="uni1D0A" unicode="&#x1d0a;" horiz-adv-x="276" 
d="M77 -10q-35 0 -54 15.5t-18 44.5q0 34 40 34q33 0 33 -34q0 -43 23 -43q22 0 35.5 30.5t27.5 112.5l55 311q1 17 -3.5 23.5t-16.5 6.5v5h128v-5q-17 0 -24 -13t-14 -55h-2l-37 -209q-23 -129 -59.5 -176.5t-113.5 -47.5z" />
    <glyph glyph-name="uni1D0B" unicode="&#x1d0b;" horiz-adv-x="529" 
d="M44 0v5q15 0 22 10t13 40l72 412q0 14 -4.5 19t-15.5 5v5h128v-5q-17 0 -24 -13t-14 -55h-3l-24 -140l186 140q75 57 75 65q1 3 -6 3v5h70v-5q-17 0 -37 -12.5t-76 -55.5h-1l-112 -86q7 -11 68 -127q62 -118 95 -158t69 -40l-3 -17h-31q-70 0 -113.5 33.5t-90.5 123.5
q-36 68 -68 128l-30 -24l-32 -183h1q-7 -41 -4 -54.5t20 -13.5q0 -1 -1 -3v-2h-129z" />
    <glyph glyph-name="uni1D0D" unicode="&#x1d0d;" horiz-adv-x="657" 
d="M29 0v5q17 0 25 13t17 55h2l84 376q4 25 1 33.5t-17 8.5v5h69l-29 -42l30 42l151 -398l-1 -1l7 -17l-51 -85l301 501h36v1h61v-5q-17 -5 -23 -16t-11 -52h-1l-41 -351h2q-5 -41 -1 -54.5t21 -13.5q0 -1 -1 -3v-2h-129v5q19 0 27 24q12 96 53 407l-275 -441h-19l-18 48
l1 1l-131 355l-77 -341q-5 -31 1 -42t26 -11q0 -1 -1 -3v-2h-89z" />
    <glyph glyph-name="uni1D0F" unicode="&#x1d0f;" horiz-adv-x="676" 
d="M340 -5q-146 0 -205.5 68.5t-38.5 184.5h-1q21 116 104.5 184.5t229.5 68.5t205.5 -68.5t39.5 -184.5q-21 -116 -104.5 -184.5t-229.5 -68.5zM178 248q-19 -107 21 -170.5t144 -63.5q105 0 167 63.5t81 170.5t-20.5 171t-144.5 64q-104 0 -166.5 -64t-81.5 -171z" />
    <glyph glyph-name="uni1D18" unicode="&#x1d18;" horiz-adv-x="450" 
d="M172 0h-129v5q17 0 24 13.5t14 54.5h1q7 41 32 182.5t36 205.5q1 17 -3.5 23.5t-16.5 6.5v5h184q99 0 146 -36.5t35 -103.5q-12 -68 -76.5 -104.5t-171.5 -36.5h-65l-25 -142q-7 -41 -4 -54.5t20 -13.5q0 -1 -1 -3v-2zM186 237h65q69 0 112.5 31t53.5 88t-17.5 88
t-88.5 31q-13 0 -41.5 -0.5t-42.5 -0.5q-6 -33 -20 -114.5t-21 -122.5z" />
    <glyph glyph-name="uni1D1B" unicode="&#x1d1b;" horiz-adv-x="538" 
d="M93 424q2 10 6.5 31.5t6.5 31.5h1l2 9h500l-1 -9h-1q-1 -10 -4 -31.5t-5 -31.5h-4q-12 32 -30.5 43t-68.5 11h-104q-42 -240 -71 -405h1q-7 -41 -4 -54.5t20 -13.5q0 -1 -1 -3v-2h-130v5q15 0 22 10.5t13 41.5l74 421h-100q-46 0 -69 -9.5t-43 -36.5l-6 -8h-4z" />
    <glyph glyph-name="uni1D1C" unicode="&#x1d1c;" horiz-adv-x="499" 
d="M258 -5q-111 0 -149 40t-23 122l54 304q1 17 -3.5 23.5t-16.5 6.5v5h128v-5q-17 0 -24 -13t-14 -55h-2l-49 -281q-11 -61 14.5 -91t100.5 -30q86 0 126.5 30t51.5 92l52 294q4 32 -0.5 43t-21.5 11v5h88v-5q-19 0 -27.5 -15.5t-16.5 -62.5h-1l-49 -279
q-13 -70 -62 -104.5t-156 -34.5z" />
    <glyph glyph-name="uni1D20" unicode="&#x1d20;" horiz-adv-x="493" 
d="M94 491v5h137v-5q-21 0 -23 -13.5t10 -54.5h-2l97 -338l163 308h-1q15 29 23 47t10 29.5t-2 16t-14 5.5h-6v5h93v-5q-16 0 -27.5 -13t-34.5 -55q-40 -73 -118 -219t-118 -219h-21l-139 479q-11 27 -27 27z" />
    <glyph glyph-name="uni1D21" unicode="&#x1d21;" horiz-adv-x="719" 
d="M90 496h133v-5q-18 0 -21 -13.5t4 -54.5h-2l58 -329l198 412h22l79 -406q85 173 167 343q12 29 9.5 38.5t-21.5 9.5v5h88v-5q-17 0 -28 -13t-31 -55h-1l-217 -438h-22l-83 396l-190 -396h-22l-94 478q-5 16 -10.5 22t-15.5 6v5z" />
    <glyph glyph-name="uni1D22" unicode="&#x1d22;" horiz-adv-x="495" 
d="M43 0l394 478h-141q-49 0 -73 -9t-49 -34h-4q16 40 23 61h345l-394 -476h175q53 0 78.5 9.5t44.5 36.5l7 8q1 -2 4 -3h1q-3 -10 -9.5 -30.5t-9.5 -30.5h-1l-3 -10h-388z" />
    <glyph glyph-name="Wgrave" unicode="&#x1e80;" horiz-adv-x="855" 
d="M136 561q-5 22 -11 29.5t-18 7.5v5h160v-5q-18 0 -21.5 -14t3.5 -54q13 -75 39.5 -214t33.5 -180l-73 -151l305 628h26l100 -466l205 426q4 14 -1.5 19.5t-20.5 5.5v5h98v-5q-17 0 -28 -13t-32 -55h-3l-268 -545h-28l1 1l-105 456l-221 -457h-28zM551 758q-32 40 -30 50
q3 10 26.5 25.5t37.5 15.5q8 0 23 -51q12 -19 24.5 -58t19.5 -68l6 -30l-12 -9q-69 80 -96 125h1z" />
    <glyph glyph-name="Wacute" unicode="&#x1e82;" horiz-adv-x="855" 
d="M136 561q-5 22 -11 29.5t-18 7.5v5h160v-5q-18 0 -21.5 -14t3.5 -54q13 -75 39.5 -214t33.5 -180l-73 -151l305 628h26l100 -466l205 426q4 14 -1.5 19.5t-20.5 5.5v5h98v-5q-17 0 -28 -13t-32 -55h-3l-268 -545h-28l1 1l-105 456l-221 -457h-28zM510 633l-9 9
q62 114 102 156q34 51 40 51q13 0 32 -16t17 -26q-1 -9 -44 -48v-1q-18 -19 -52.5 -50.5t-59.5 -53.5l-25 -21h-1z" />
    <glyph glyph-name="Wdieresis" unicode="&#x1e84;" horiz-adv-x="855" 
d="M136 561q-5 22 -11 29.5t-18 7.5v5h160v-5q-18 0 -21.5 -14t3.5 -54q13 -75 39.5 -214t33.5 -180l-73 -151l305 628h26l100 -466l205 426q4 14 -1.5 19.5t-20.5 5.5v5h98v-5q-17 0 -28 -13t-32 -55h-3l-268 -545h-28l1 1l-105 456l-221 -457h-28zM485 673q-60 0 -51 61
q11 61 72 61t50 -61t-71 -61zM677 673q-60 0 -51 61q11 61 72 61t50 -61t-71 -61z" />
    <glyph glyph-name="uni1EBC" unicode="&#x1ebc;" 
d="M451 0h-409v5q15 0 22 10.5t13 40.5q17 94 92 523q-3 19 -21 19v5h406l-3 -12q-7 -34 -14 -60h-4q-4 29 -27 38.5t-86 9.5h-155l4 24q-16 -93 -56 -319.5t-46 -259.5h163q63 0 91 9.5t48 38.5h4q-3 -10 -9.5 -30t-9.5 -30h1zM235 698q10 60 35.5 92.5t60.5 32.5
q25 0 71 -31t70 -31q41 0 52 60h17q-11 -61 -37 -94t-64 -33q-24 0 -71 31t-71 31q-35 0 -46 -58h-17zM216 299l4 24h116q53 0 72.5 5.5t31.5 21.5h4q-1 -3 -6 -34.5t-9 -47.5h-4q-4 19 -21.5 25t-71.5 6h-116z" />
    <glyph glyph-name="Ygrave" unicode="&#x1ef2;" horiz-adv-x="553" 
d="M113 603h166v-5q-9 0 -13 -3t-4 -11t4.5 -20t13.5 -34h-1l96 -214l199 246q23 34 0 36h-5v5h93v-5q-15 0 -28.5 -12.5t-50.5 -55.5h-2l-204 -247l-37 -210h3q-7 -41 -4 -54.5t20 -13.5q0 -1 -1 -3v-2h-151v5q20 0 28 25l40 226l-134 319q-14 23 -28 23v5zM372 758
q-32 40 -30 50q3 10 26.5 25.5t37.5 15.5q8 0 23 -51q12 -19 24.5 -58t18.5 -68l7 -30l-12 -9q-69 80 -96 125h1z" />
    <glyph glyph-name="quoteleft" unicode="&#x2018;" horiz-adv-x="259" 
d="M-33 333q-23 31 -14 82q12 67 55 118.5t111 78.5l4 -15q-43 -18 -70 -55t-33 -89q20 4 28 4q32 0 48 -19.5t9 -53.5q-13 -72 -85 -72q-38 0 -52 21h-1z" />
    <glyph glyph-name="quoteright" unicode="&#x2019;" horiz-adv-x="259" 
d="M137 308l-4 15q92 38 103 144q-20 -4 -28 -4q-32 0 -48 19.5t-9 53.5q13 72 85 72q38 0 52 -21h1q24 -31 14 -82q-12 -67 -55 -118.5t-111 -78.5z" />
    <glyph glyph-name="quotedblleft" unicode="&#x201c;" horiz-adv-x="466" 
d="M174 332q-24 34 -15 83q12 67 55 118.5t111 78.5l4 -15q-42 -17 -69 -54.5t-33 -89.5q20 4 28 4q31 0 47 -19.5t9 -53.5q-13 -72 -85 -72q-36 0 -51 20h-1zM-33 333q-23 31 -14 82q12 67 55 118.5t111 78.5l4 -15q-43 -18 -70 -55t-33 -89q20 4 28 4q32 0 48 -19.5
t9 -53.5q-13 -72 -85 -72q-38 0 -52 21h-1z" />
    <glyph glyph-name="quotedblright" unicode="&#x201d;" horiz-adv-x="466" 
d="M345 308l-4 15q42 17 69 54.5t33 89.5q-20 -4 -27 -4q-32 0 -48 20t-9 53q13 72 85 72q36 0 51 -20h1q24 -34 15 -83q-12 -67 -55 -118.5t-111 -78.5zM133 323q92 38 103 144q-20 -4 -28 -4q-32 0 -48 19.5t-9 53.5q13 72 85 72q38 0 52 -21h1q24 -31 14 -82
q-12 -67 -55 -118.5t-111 -78.5z" />
    <glyph glyph-name="ellipsis" unicode="&#x2026;" horiz-adv-x="592" 
d="M496 0q-34 0 -49.5 18.5t-9.5 53.5q13 72 85 72q34 0 49.5 -18.5t9.5 -53.5q-13 -72 -85 -72zM296 0q-34 0 -49.5 18.5t-9.5 53.5q13 72 85 72q34 0 49.5 -18.5t9.5 -53.5q-13 -72 -85 -72zM96 0q-34 0 -49.5 18.5t-9.5 53.5q13 72 85 72q34 0 49.5 -18.5t9.5 -53.5
q-13 -72 -85 -72z" />
    <glyph glyph-name="perthousand" unicode="&#x2030;" horiz-adv-x="1103" 
d="M607 -5q-75 0 -107.5 46.5t-16.5 131.5h-1q16 91 65.5 140.5t124.5 49.5q77 0 110 -45.5t18 -130.5q-17 -92 -67 -142t-126 -50zM949 -5q-71 0 -102 46.5t-15 131.5h-1q16 91 64 140.5t119 49.5t101 -45.5t15 -130.5q-17 -92 -64 -142t-117 -50zM235 335q-71 0 -102 46.5
t-15 132.5q16 91 63.5 140t118.5 49t101 -45.5t15 -129.5q-16 -93 -63 -143t-118 -50zM196 -14l-39 28l577 699l39 -29zM584 193q-14 -79 -4 -122t42 -43q56 0 78 125q15 87 2.5 134t-50.5 47q-44 0 -69 -141h1zM221 533q-14 -79 -6.5 -122.5t36.5 -43.5q44 0 66 126
q31 181 -36 181q-37 0 -62 -141h2zM932 192q-14 -79 -6 -121.5t37 -42.5q44 0 66 124q31 182 -35 182q-37 0 -62 -142z" />
    <glyph glyph-name="guilsinglleft" unicode="&#x2039;" horiz-adv-x="273" 
d="M157 224l84 -176l-13 -11l-173 180l2 11l234 181l9 -11z" />
    <glyph glyph-name="guilsinglright" unicode="&#x203a;" horiz-adv-x="273" 
d="M46 37l-13 11l84 176l-143 174l9 11l234 -181l2 -11z" />
    <glyph glyph-name="fraction" unicode="&#x2044;" horiz-adv-x="467" 
d="M46 -14l-39 28l578 699l39 -29z" />
    <glyph glyph-name="Euro" unicode="&#x20ac;" horiz-adv-x="734" 
d="M74 205l23 72h53q1 5 9 50h-53l23 72h54q44 102 135.5 155.5t223.5 53.5q157 0 231 -72h2l-3 -3l-13 -61h-5l-3 15q-17 63 -106 85h-1v1q-52 12 -97 12q-186 0 -258 -186h277l-23 -72h-276q-8 -45 -9 -50h276l-23 -72h-257q3 -90 50.5 -138t135.5 -48q85 0 151 26t95 72
l9 15h5l-8 -65l-6 10h-1l6 -10q-99 -72 -257 -72q-131 0 -204 54t-81 156h-75z" />
    <glyph glyph-name="uniA730" unicode="&#xa730;" horiz-adv-x="412" 
d="M186 0h-139v5q15 0 22 10t13 40q33 196 72 412q0 14 -4.5 19t-15.5 5v5h370l-1 -9h-1q-2 -9 -6.5 -28.5t-6.5 -28.5h-4q-4 27 -23 36.5t-67 11.5q-55 -1 -164 -1q-5 -27 -18 -100.5t-20 -114.5h63q53 0 72.5 5.5t31.5 21.5h4q-4 -24 -7 -36h1q-3 -19 -8 -41h-4
q-4 19 -21.5 25t-71.5 6h-63l2 16q-3 -18 -15 -87.5t-17 -98.5h1q-7 -41 -2 -54.5t28 -13.5q0 -1 -1 -3v-2z" />
    <glyph glyph-name="uniA731" unicode="&#xa731;" horiz-adv-x="424" 
d="M210 -5q-101 0 -163 62h2l14 65h5l3 -15q12 -42 51 -69q48 -24 94 -24q57 0 92.5 23t42.5 66q7 37 -26.5 67.5t-102.5 50.5q-62 18 -92 52.5t-22 79.5q13 71 63 109.5t130 38.5q63 0 125 -62l-1 -1l-14 -64h-5l-3 15q-13 55 -69 83h-1q-22 11 -39 11q-54 0 -87.5 -26
t-41.5 -73q-6 -34 25 -62.5t93 -46.5q68 -20 100 -56.5t24 -84.5q-12 -67 -63 -103t-134 -36z" />
    <glyph glyph-name="uniF078" unicode="&#xf078;" horiz-adv-x="543" 
d="M138 0h-85v5q17 0 33 13t54 55q50 54 148 162q-12 22 -128 224q-20 32 -36 32v5h137v-5q-10 0 -14.5 -3t-3 -11t7 -20t17.5 -34h-1l67 -118l154 162q18 24 -9 24v5h84v-5q-17 0 -34.5 -13t-57.5 -55h-4l-126 -129l125 -221h1q23 -41 34.5 -54.5t24.5 -13.5q0 -1 -1 -3v-2
h-137v5q11 0 15.5 3t3 11t-7.5 20t-18 34q-28 50 -86 150l-120 -135h2q-61 -68 -53 -79q2 -3 10 -4h5q0 -1 -1 -3v-2z" />
  </font>
</defs>
</svg>
