<?xml version="1.0" standalone="no"?>
<!DOCTYPE svg PUBLIC "-//W3C//DTD SVG 1.1//EN" "http://www.w3.org/Graphics/SVG/1.1/DTD/svg11.dtd" >
<svg xmlns="http://www.w3.org/2000/svg" xmlns:xlink="http://www.w3.org/1999/xlink" version="1.1">
<metadata>
Created by FontForge 20190801 at Sat Dec  5 11:58:26 2020
 By www-data
Maulana Creative
</metadata>
<defs>
<font id="BolinGerii" horiz-adv-x="724" >
  <font-face 
    font-family="BolinGerii"
    font-weight="400"
    font-stretch="normal"
    units-per-em="1000"
    panose-1="0 0 0 0 0 0 0 0 0 0"
    ascent="750"
    descent="-250"
    x-height="745"
    cap-height="750"
    bbox="0 -197.84 1464 1047"
    underline-thickness="50"
    underline-position="-100"
    unicode-range="U+000D-FB00"
  />
<missing-glyph horiz-adv-x="500" 
 />
    <glyph glyph-name="f_f" unicode="ff" horiz-adv-x="1464" 
d="M999 835q69 16 135.5 25.5t126.5 7.5t112 -18t91 -52l-29 -32q-36 34 -82.5 52t-100.5 23.5t-113.5 1t-122.5 -16.5q20 -12 37 -28l-29 -32q-16 15 -34 26.5t-38 20.5q-26 -5 -51 -11.5t-51 -13.5v-282h162q24 0 45.5 11.5t35.5 30.5v-91q-14 20 -35.5 30.5t-45.5 10.5
h-162v-411v-14t2 -15q3 -14 9 -28.5t17 -23.5q4 -4 6 -5l1 -1h-136l2 2q11 8 20 19q7 9 13 23t6 33v1v7v688q-59 -16 -112.5 -29t-101.5 -19q-36 -6 -66 -6q-41 0 -71 11v-224h162q24 0 45.5 11.5t35.5 30.5v-91q-14 20 -35.5 30.5t-45.5 10.5h-162v-411v-14t2 -15
q3 -14 9 -28.5t17 -23.5q4 -4 7 -5q0 -1 1 -1h-137l2 2q11 8 20 19q7 9 13 23t6 33v1q1 2 1 7v688q-59 -16 -113 -29t-101 -19q-37 -6 -67 -6q-67 0 -99 28l19 30q14 -25 50 -38t95 -5q54 7 116.5 22.5t130.5 33.5q78 21 159.5 41t158.5 30t146 6t124 -32zM822 790
q28 8 56 15t57 15q-49 18 -107.5 22t-122 -2t-131 -20t-135.5 -32q0 -14 11.5 -25.5t31 -19t44 -10.5t49.5 1q54 7 116.5 22.5t130.5 33.5z" />
    <glyph glyph-name="r_a" unicode="ra" horiz-adv-x="1207" 
d="M1098 86q6 11 6 26q0 12 -3 24t-6 21l-130 355h-114l-122 -355q-12 -32 -9 -49.5t8 -20.5l15 -9h-86l12 9q8 6 14 11t11.5 12t11 17t11.5 26l211 614l219 -615q6 -17 19 -35t29 -30l12 -9h-114zM962 521l-54 160l-55 -160h109zM352 269q30 -5 60 -25t62.5 -46.5t67 -56
t73.5 -54t83 -40.5t94.5 -15t108 23t123.5 72q-70 -66 -128.5 -100t-108.5 -44.5t-92 -1t-78.5 31.5t-69 52.5t-63 62t-60 59.5t-60.5 46q-17 10 -34 15.5t-35 5.5q-1 1 -3 1v0q-47 -10 -93.5 -12t-94.5 0h-4v-157q0 -23 6.5 -47t28.5 -38q0 -1 1 -1h-136q20 14 30.5 39
t10.5 47v579q0 23 -10.5 47.5t-30.5 38.5h186q42 0 87.5 -5.5t88 -19.5t78.5 -39.5t59 -64.5q35 -59 35 -127q0 -91 -49.5 -145.5t-132.5 -80.5zM158 248q38 0 79.5 4.5t80 17.5t71 37t51.5 63q15 29 22 60.5t7 63.5q0 72 -29.5 127t-95.5 88q-49 25 -105.5 29.5t-109.5 4.5
h-1l-2 -1q-17 -14 -21.5 -36t-4.5 -42v-415h4q14 -1 27 -1h27z" />
    <glyph glyph-name="r_e" unicode="re" horiz-adv-x="1149" 
d="M673 738q-3 4 -11 10l-2 2h481l-21 -58q-5 22 -21 36.5t-41 14.5h-273l-1 -1q-15 -14 -19.5 -34.5t-4.5 -39.5v-165h164q27 0 47 11.5t34 31.5v-93q-13 19 -35.5 30.5t-45.5 11.5h-164l1 -332q0 -20 4.5 -40t18.5 -35l1 -1h274q45 0 59 45q0 3 2 7l21 -61h-480
q18 15 29.5 39t11.5 47v500q0 17 -8.5 39.5t-20.5 34.5zM352 268q30 -5 65.5 -27.5t76.5 -54t87 -67.5t96.5 -67.5t106 -53.5t114.5 -26t122 14.5t129 68.5q-70 -66 -134 -97t-122.5 -36.5t-112 10.5t-102 45t-92 66t-82.5 73t-74 67.5t-66 49.5q-17 9 -34 14.5t-35 6.5h-3
v0q-47 -9 -93.5 -11.5t-94.5 -0.5h-4v-157q0 -23 6.5 -47t28.5 -38l1 -1h-136q20 14 30.5 39t10.5 47v580q0 22 -10.5 46.5t-30.5 38.5h186q42 0 87.5 -5t88 -19.5t78.5 -39.5t59 -64q34 -58 34 -128q0 -91 -48.5 -145.5t-132.5 -80.5zM158 247q38 0 79.5 4.5t80 18t71 37.5
t51.5 63q15 29 21.5 60t6.5 63q0 72 -29 127.5t-95 88.5q-49 25 -105.5 29.5t-109.5 4.5h-2l-1 -1q-17 -15 -21.5 -36.5t-4.5 -41.5v-416h4q14 0 27 -0.5t27 -0.5z" />
    <glyph glyph-name="r_o" unicode="ro" horiz-adv-x="1255" 
d="M932 747q68 0 127 -26.5t102.5 -72.5t68.5 -106t25 -128q0 -67 -25 -127.5t-68.5 -106.5t-102.5 -72.5t-127 -26.5t-126.5 26.5t-102 72.5t-68.5 106.5t-25 127.5q0 68 25 128t68.5 106t102 72.5t126.5 26.5zM932 87q39 0 73.5 13.5t63.5 36t52.5 52.5t39.5 63
q18 38 26.5 78.5t8.5 82.5t-8.5 83t-26.5 79q-16 34 -39.5 64t-52.5 52.5t-63.5 36t-73.5 13.5t-73.5 -13.5t-63 -36t-51.5 -53t-40 -63.5q-19 -38 -27.5 -79t-8.5 -83t8.5 -82.5t27.5 -78.5q17 -33 40 -63t51.5 -52.5t63 -36t73.5 -13.5zM351 268q30 -5 65.5 -27.5t77 -54
t87.5 -67.5t96.5 -67.5t105.5 -53.5t114.5 -26t122 14.5t128.5 68.5q-70 -66 -134 -97t-122.5 -36.5t-111.5 10.5t-101.5 45t-92 66t-83 73t-74.5 67.5t-66 49.5q-17 9 -33.5 14.5t-34.5 6.5h-3v0q-47 -9 -94 -11.5t-95 -0.5h-4v-157q0 -23 6.5 -47t28.5 -38q1 0 1 -1h-135
q19 14 29.5 39t10.5 47v580q0 22 -10.5 46.5t-29.5 38.5h186q42 0 87.5 -5t88 -19.5t78 -39.5t58.5 -64q35 -59 35 -128q0 -91 -49 -145.5t-133 -80.5zM157 247q38 0 79.5 4.5t80 18t71 37.5t52.5 63q28 56 28 123q0 72 -29.5 127.5t-95.5 88.5q-49 25 -105 29.5t-110 4.5
h-1l-1 -1q-17 -15 -22 -36.5t-5 -41.5v-416h4q14 0 27 -0.5t27 -0.5z" />
    <glyph glyph-name="r_r" unicode="rr" horiz-adv-x="1148" 
d="M626 78q17 13 26.5 35t9.5 42v519q0 20 -9.5 41.5t-26.5 34.5h166q38 0 78.5 -4.5t78.5 -17.5t70 -35.5t53 -57.5q31 -52 31 -114q0 -82 -44.5 -131t-119.5 -72l-4 -1l89 -162q11 -21 26 -39t36 -30q2 -2 4.5 -3.5t5.5 -3.5h-120q3 3 5 10q3 11 3 20q0 12 -4 24.5
t-9 23.5l-82 149h-2q-42 -8 -84 -10t-85 -1l-3 1v-141q0 -20 5.5 -42t25.5 -34q0 -1 1 -1h-121zM715 301h3q12 -1 24.5 -1h24.5q34 0 71.5 4t72 16t63 33.5t46.5 56.5q13 26 19 53.5t6 56.5q0 64 -26.5 114t-85.5 79q-44 23 -94 26.5t-98 3.5h-2h-1q-14 -14 -18.5 -33.5
t-4.5 -36.5v-372zM351 268q14 0 40.5 -21.5t64.5 -54.5t85 -72t101.5 -73t115 -58.5t125 -29t131.5 17t134 78.5q-80 -73 -156 -103.5t-147 -30t-135.5 25t-121.5 61.5t-105 80t-85.5 80t-63.5 61.5t-39 24.5h-3v0q-47 -9 -94 -11.5t-95 -0.5h-4v-157q0 -23 6.5 -47
t28.5 -38q1 0 1 -1h-135q19 14 29.5 39t10.5 47v580q0 22 -10.5 46.5t-29.5 38.5h186q42 0 87.5 -5t88 -19.5t78 -39.5t58.5 -64q35 -59 35 -128q0 -91 -49 -145.5t-133 -80.5zM157 247q38 0 79.5 4.5t80 18t71 37.5t52.5 63q28 56 28 123q0 72 -29.5 127.5t-95.5 88.5
q-49 25 -105 29.5t-110 4.5h-1l-1 -1q-17 -15 -22 -36.5t-5 -41.5v-416h4q14 0 27 -0.5t27 -0.5z" />
    <glyph glyph-name="t_e" unicode="te" horiz-adv-x="929" 
d="M906 54q0 3 2 7l21 -61h-480q18 15 29.5 39t11.5 47v579q0 17 -8.5 39.5t-20.5 34.5l-1 1h-140l-1 -1q-14 -16 -18.5 -36t-4.5 -40v-578q0 -10 1.5 -22t5.5 -24t11 -22.5t17 -16.5h-135q20 15 31 37.5t11 47.5v579q0 8 -2.5 18.5t-6 21t-9 20t-11.5 15.5l-1 1h-125
q-46 0 -60 -45q0 -2 -0.5 -4t-0.5 -4l-22 63l929 1l-21 -58q-5 22 -21 36.5t-41 14.5h-159h-114l-1 -1q0 -1 -2 -3q-14 -14 -18 -33.5t-4 -37.5v-165h164q27 0 47 11.5t34 31.5v-93q-13 19 -35.5 30.5t-45.5 11.5h-164l1 -411q0 -20 4.5 -40t18.5 -35l1 -1h274q45 0 59 45z
" />
    <glyph glyph-name="e_t" unicode="et" horiz-adv-x="1097" 
d="M1097 750l-22 -63q0 2 -2 8q-6 21 -21 33t-38 12h-285l-1 -1q-14 -16 -19 -36t-5 -40v-578q0 -10 2 -22t6 -24t10.5 -22.5t16.5 -16.5h-134q19 15 30 37.5t11 47.5v579q0 8 -2 18.5t-6 21t-9 20t-11 15.5l-1 1l-492 4l-1 -1q-15 -14 -19.5 -34.5t-4.5 -39.5v-165h164
q27 0 47 11.5t34 31.5v-93q-13 19 -35.5 30.5t-45.5 11.5h-164l1 -411q0 -20 4.5 -40t18.5 -35l1 -1h274q45 0 59 45q0 3 2 7l21 -61h-480q18 15 29.5 39t11.5 47v579q0 17 -8.5 39.5t-20.5 34.5q-3 4 -11 10l-2 2z" />
    <glyph glyph-name="c_c" unicode="cc" horiz-adv-x="1016" 
d="M709 14q55 0 96 7.5t74.5 24t63 43.5t62.5 67l1 -16q-31 -38 -63 -64t-67.5 -41.5t-76 -22.5t-89.5 -7q-57 0 -108 16.5t-94 46.5q-43 -30 -94.5 -46.5t-108.5 -16.5q-49 0 -89.5 7t-75.5 22.5t-67 41.5t-63 64l1 16q33 -40 62.5 -67t62.5 -43.5t74 -24t96 -7.5
q52 0 96.5 20t79.5 54q-62 52 -98 127.5t-36 163.5t36 163t99 127q-36 35 -80.5 55t-97.5 20q-33 0 -66 -6t-63 -23q-16 -9 -32.5 -21.5t-29.5 -28.5t-21.5 -34.5t-8.5 -39.5q0 -7 1 -11l-85 37q12 7 19 17q56 63 130 90t156 27q57 0 108 -16.5t95 -46.5q43 30 94 46.5
t108 16.5q82 0 156.5 -27t129.5 -90l9.5 -9.5t10.5 -7.5l-85 -37q0 3 0.5 5.5t0.5 5.5q0 21 -8.5 39.5t-21.5 34.5t-29.5 28.5t-33.5 21.5q-29 17 -62.5 23t-66.5 6q-52 0 -97 -20t-81 -55q63 -52 99 -127t36 -163t-35.5 -163.5t-98.5 -127.5q36 -34 80 -54t96 -20zM454 198
q11 -22 24 -43t30 -40q16 19 29.5 40t24.5 43q20 43 29.5 88t9.5 93q0 47 -9.5 92.5t-29.5 88.5q-23 46 -54 83q-33 -37 -54 -83q-21 -43 -30.5 -88.5t-9.5 -92.5q0 -97 40 -181z" />
    <glyph glyph-name="c_a" unicode="ca" horiz-adv-x="1070" 
d="M361 14q55 0 96 7.5t74 24t62.5 43.5t62.5 67l1 -16q-31 -38 -63 -64t-67 -41.5t-75.5 -22.5t-89.5 -7q-77 0 -143 30t-115 81t-76.5 119t-27.5 144t28 143.5t76.5 118.5t115 80.5t142.5 29.5q82 0 156 -27t130 -90q8 -12 19 -17l-85 -37q1 4 1 11q0 21 -8.5 39.5
t-21.5 34.5t-29.5 28.5t-32.5 21.5q-30 17 -63 23t-66 6q-44 0 -82.5 -14.5t-71.5 -39.5t-59 -58.5t-44 -71.5q-20 -43 -29.5 -88.5t-9.5 -92.5q0 -48 9.5 -93t29.5 -88q18 -37 44 -70.5t58.5 -59t71 -40t82.5 -14.5zM969 -2q8 13 8 32q0 14 -3 27t-8 26l-143 391h-133
l-84 -243q-14 -38 -10.5 -59t11.5 -26h-70q9 7 16.5 13t13.5 14t12.5 19.5t13.5 29.5l87 252l4 9l90 265l240 -674q7 -20 22 -41t34 -35h-101zM820 483l-66 180l-61 -180h127z" />
    <glyph glyph-name="c_o" unicode="co" horiz-adv-x="667" 
d="M361 14q55 0 96 7.5t74.5 24t63 43.5t62.5 67v-16q-31 -38 -62.5 -64t-67 -41.5t-76 -22.5t-89.5 -7q-76 0 -142.5 30t-115 81t-76.5 119t-28 144t28 143.5t76.5 118.5t115 80.5t142.5 29.5q82 0 156.5 -27t129.5 -90q10 -12 19 -17l-84 -37v11q0 21 -8.5 39.5
t-21.5 34.5t-29.5 28.5t-32.5 21.5q-29 17 -62.5 23t-66.5 6q-44 0 -82.5 -14.5t-71 -39.5t-58.5 -58.5t-44 -71.5q-21 -43 -30.5 -88.5t-9.5 -92.5q0 -48 9.5 -93t30.5 -88q18 -37 44 -70.5t58 -59t70.5 -40t82.5 -14.5zM380 597q42 0 79.5 -16.5t65 -45t43.5 -67t16 -82.5
q0 -43 -16 -81.5t-43.5 -67t-65 -45t-79.5 -16.5t-79.5 16.5t-65.5 45t-44 67t-16 81.5q0 44 16 82.5t44 67t65.5 45t79.5 16.5zM380 180q27 0 54 13t49 39t36 64.5t14 89.5q0 59 -16.5 98.5t-40 63.5t-50 34.5t-46.5 10.5t-46.5 -10t-50.5 -34t-40.5 -64t-16.5 -99
q0 -57 16.5 -96.5t40.5 -64t50.5 -35t46.5 -10.5z" />
    <glyph glyph-name="o_o" unicode="oo" horiz-adv-x="1086" 
d="M724 745q76 0 142 -30t115 -81t77 -118.5t28 -143.5t-28 -144t-77 -119t-115 -81t-142 -30q-51 0 -96 13t-85 37q-40 -24 -85.5 -37t-95.5 -13q-76 0 -142.5 30t-115 81t-76.5 119t-28 144t28 143.5t76.5 118.5t115 81t142.5 30q50 0 95.5 -13t85.5 -37q40 24 85 37
t96 13zM362 5q45 0 84.5 15.5t72.5 42.5q-36 26 -65 59.5t-49.5 73.5t-31.5 84.5t-11 91.5t11 91.5t31.5 84t49.5 73.5t65 59q-33 27 -72.5 43t-84.5 16q-44 0 -82.5 -15t-71 -40.5t-58.5 -59.5t-45 -72q-21 -43 -30.5 -88.5t-9.5 -92.5q0 -48 9.5 -93.5t30.5 -87.5
q19 -37 45 -71t58.5 -59t71 -40t82.5 -15zM543 84q46 46 75 106q20 42 30 87.5t10 93.5q0 47 -10 92.5t-30 88.5q-29 59 -75 107q-47 -47 -76 -107q-21 -43 -30.5 -88.5t-9.5 -92.5q0 -48 9.5 -93.5t30.5 -87.5q14 -29 33.5 -56t42.5 -50zM724 5q44 0 82.5 15t71 40t58.5 59
t44 71q20 42 30 87.5t10 93.5q0 47 -10 92.5t-30 88.5q-18 38 -44 72t-58.5 59.5t-71 40.5t-82.5 15q-46 0 -85.5 -16t-72.5 -43q36 -25 65 -59t50 -73.5t32 -84t11 -91.5t-11 -91.5t-32 -84.5t-50 -73.5t-65 -59.5q33 -27 72.5 -42.5t85.5 -15.5z" />
    <glyph glyph-name="q_a" unicode="qa" horiz-adv-x="1283" 
d="M724 87q8 6 14 11t11.5 12t11 17t11.5 26l211 614l219 -615q5 -17 18 -35t30 -30l12 -9h-114l4 8q7 10 7 26q0 12 -3 24t-7 21l-130 355h-113l-122 -355q-12 -32 -9.5 -49.5t7.5 -20.5l16 -9h-86zM908 521h109l-55 160zM644 42q61 9 123 18t123 14t118.5 4t108.5 -11
t93 -31.5t73 -56.5l-32 -29q-43 50 -106.5 74.5t-139.5 31.5t-161 0.5t-172 -19.5q-16 -2 -29 -4q-11 -2 -20.5 -3t-11.5 -2v0q-45 -7 -88 -12.5t-82 -8.5q-37 -9 -79 -9q-76 0 -142 30t-115 81t-77 119t-28 144t28 143.5t77 118.5t115 81t142 30q77 0 143 -30t114.5 -81
t76.5 -118.5t28 -143.5q0 -60 -17.5 -115t-49 -101t-75.5 -81t-97 -55q38 5 77.5 10.5t81.5 11.5zM432 15q63 20 110 67.5t76 107.5q21 42 30.5 87.5t9.5 93.5q0 47 -9.5 92.5t-30.5 88.5q-18 38 -44 72t-58.5 59.5t-71 40.5t-82.5 15t-82.5 -15t-71 -40.5t-58.5 -59.5
t-45 -72q-20 -43 -30 -88.5t-10 -92.5q0 -48 10 -93.5t30 -87.5q22 -45 53.5 -82.5t72.5 -63.5v0l23 29q10 -26 44.5 -44t94.5 -16q9 1 18.5 1t20.5 1z" />
    <glyph glyph-name="q_e" unicode="qe" horiz-adv-x="1282" 
d="M802 738q-3 4 -11 10l-2 2h481l-21 -58q-5 22 -21 36.5t-41 14.5h-273l-1 -1q-15 -14 -19.5 -34.5t-4.5 -39.5v-125h164q27 0 47 11.5t34 31.5v-93q-13 19 -35.5 30.5t-45.5 11.5h-164l1 -348q0 -20 4.5 -40t18.5 -35l1 -1h274q45 0 59 45q0 3 2 7l21 -61h-480
q18 15 29.5 39t11.5 47v476q0 17 -8.5 39.5t-20.5 34.5zM644 42q61 9 123 18t123 14t118 4t108 -11t93 -31.5t73 -56.5l-32 -29q-43 50 -106 74.5t-139.5 31.5t-161.5 0.5t-172 -19.5q-15 -2 -28 -4q-11 -2 -20.5 -3t-11.5 -2v0q-46 -7 -89 -12.5t-82 -8.5q-37 -9 -78 -9
q-76 0 -142.5 30t-115 81t-76.5 119t-28 144t28 143.5t76.5 118.5t115 81t142.5 30t142 -30t114.5 -81t76.5 -118.5t28 -143.5q0 -60 -17.5 -115t-49 -101t-75 -81t-96.5 -55q37 5 77 10.5t82 11.5zM431 15q63 20 110.5 67.5t76.5 107.5q20 42 29.5 87.5t9.5 93.5
q0 47 -9.5 92.5t-29.5 88.5q-18 38 -44 72t-58.5 59.5t-71 40.5t-82.5 15t-83 -15t-71.5 -40.5t-58.5 -59.5t-44 -72q-21 -43 -30.5 -88.5t-9.5 -92.5q0 -48 9.5 -93.5t30.5 -87.5q22 -45 53.5 -82.5t72.5 -63.5h-1l23 29q11 -26 45 -44t94 -16q10 1 19.5 1t19.5 1z" />
    <glyph glyph-name="o_g" unicode="og" horiz-adv-x="1095" 
d="M1095 391l-1 -1q-20 -14 -27 -38t-7 -47v-166l-1 -1q0 -1 -0.5 -1t-0.5 -1q-33 -38 -68 -67q-50 -43 -109 -56.5t-122 -13.5q-56 0 -106 15.5t-92 44.5q-43 -29 -93 -45t-106 -16q-76 0 -142.5 30t-115 81t-76.5 119t-28 144t28 143.5t76.5 118.5t115 81t142.5 30
q56 0 106 -16t92 -45q43 29 93 45t106 16q82 0 156.5 -27.5t129.5 -89.5q2 -3 6 -7t6 -5q4 -4 7 -6l-85 -36q1 4 1 12q0 21 -8.5 39.5t-22 34t-30 28.5t-32.5 22q-29 17 -62 23t-66 6q-51 0 -95 -20t-80 -53q65 -52 102.5 -128.5t37.5 -165.5t-37.5 -165.5t-100.5 -128.5
q35 -32 78.5 -52t94.5 -20q67 0 130 17.5t111 69.5l1 2l-1 210q0 22 -10 47t-29 39h134zM362 5q51 0 95 20t79 53q-64 51 -101.5 128t-37.5 167q0 88 37.5 164.5t100.5 128.5q-35 33 -78.5 53t-94.5 20q-44 0 -82.5 -15t-71 -40.5t-58.5 -59.5t-45 -72q-21 -43 -30.5 -88.5
t-9.5 -92.5q0 -48 9.5 -93.5t30.5 -87.5q19 -37 45 -71t58.5 -59t71 -40t82.5 -15zM502 192q24 -48 59 -89q17 20 31.5 42t25.5 45q21 42 30.5 87.5t9.5 93.5q0 47 -9.5 92.5t-30.5 88.5q-22 47 -58 89q-17 -20 -31.5 -42t-26.5 -45q-21 -43 -30.5 -88.5t-9.5 -92.5
q0 -97 40 -181z" />
    <glyph glyph-name="a_a" unicode="aa" horiz-adv-x="919" 
d="M818 0q8 13 8 32q0 14 -3 27t-8 26l-16 43l-8 23l-73 198l-8 22l-32 87q-11 8 -19.5 11t-10.5 4q-51 19 -104 19l-10 -29l-3 -8l-68 -199l64 -180q7 -20 22 -41t34 -35h-101q8 13 8 32q0 14 -3 27t-8 26l-38 105l-5 14l-82 223q-33 -26 -59 -60.5t-41 -77.5
q-22 -60 -18.5 -120.5t28.5 -114t69.5 -95.5t104.5 -64q29 -11 57 -12.5t53.5 3t46.5 12.5t34 17l-14 -39q-45 -11 -90.5 -8.5t-89.5 19.5q-60 22 -106 64t-73 99q-27 58 -30 120t19 122q32 89 106 144l-84 229l-198 -580q-14 -38 -10.5 -59t11.5 -26h-70q9 7 16.5 13
t13.5 14t12.5 19.5t13.5 29.5l231 674l103 -289q8 5 19 10q61 28 129 30l85 249l240 -674q7 -20 22 -41t34 -35h-101zM534 492q-77 -3 -141 -39l65 -183l64 186l3 8zM651 482q2 -1 7.5 -3t14.5 -7l-70 193l-56 -164q55 -2 104 -19z" />
    <glyph glyph-name="h_a" unicode="ha" horiz-adv-x="1050" 
d="M101 751q-14 -17 -19 -40t-5 -41v-588q0 -20 5 -42.5t19 -39.5h-101q14 16 23 37t9 43v591q0 22 -9 42.5t-23 37.5h101zM949 0q8 13 8 32q0 14 -3 27t-8 26l-35 96l-3 9l-5 14l-6 16l-45 122q-30 53 -74 93.5t-99 66.5l-143 -417q-2 -5 -3 -10t-3 -10q2 -17 7.5 -34.5
t16.5 -30.5h-17h-70h-14q14 16 22.5 37t8.5 43v458q-52 -4 -98.5 -21.5t-84 -45.5t-64.5 -65t-40 -80h-41q18 39 45 70.5t56.5 56t56.5 41t45 23.5q60 25 125 30v124q0 22 -8.5 42.5t-22.5 37.5h100q-14 -17 -19 -40t-5 -41v-122q70 -3 140 -31q2 -2 4 -2l81 235l103 -289
l3 -8l65 -183l5 -14l64 -180q7 -20 22 -41t34 -35h-101zM670 506q-32 14 -67.5 22.5t-73.5 10.5v-445zM795 431q12 -11 22.5 -23.5t20.5 -25.5l-17 45l-3 9l-84 229l-53 -154q64 -30 114 -80z" />
    <glyph glyph-name="a_j" unicode="aj" horiz-adv-x="802" 
d="M802 750l-1 -1q-21 -14 -28 -38.5t-7 -46.5v-542q0 -68 -17.5 -117.5t-44 -84.5t-58 -57t-59 -34t-47.5 -16.5t-23 -5.5q-63 -11 -123.5 3t-112.5 51t-85 89.5t-44 115.5t3.5 123.5t51.5 112.5q29 41 67 69.5t83 45.5l-90 248l-198 -580q-14 -38 -10.5 -59t11.5 -26h-70
q9 7 16.5 13t13.5 14t12.5 19.5t13.5 29.5l231 674l114 -321q3 0 5.5 0.5t5.5 1.5q46 8 91.5 2t87.5 -24l7 -41q-12 11 -31 23t-43 20.5t-52.5 12t-58.5 -1.5q-2 -1 -4.5 -1t-4.5 -1l123 -344q7 -20 22 -41t34 -35h-101q8 13 8 32q0 14 -3 27t-8 26l-119 323
q-51 -18 -92 -53t-68 -80t-37.5 -98.5t-1.5 -109.5q11 -63 44.5 -114t81.5 -85t107 -48.5t122 -3.5q3 0 18.5 4t37 15.5t45.5 32t44 54t33.5 82.5t13.5 117v544q0 24 -11 47t-30 38h135z" />
    <glyph glyph-name="h_j" unicode="hj" horiz-adv-x="805" 
d="M805 750l-1 -1q-21 -14 -28 -38.5t-7 -46.5v-542q0 -68 -17.5 -117.5t-44 -84.5t-58 -57t-59 -34t-47 -16.5t-23.5 -5.5q-63 -11 -123.5 3t-112.5 51t-85 89.5t-44 115.5t3 123.5t51 112.5t90 85t116 44q32 6 69 4v236q0 22 -8.5 42.5t-22.5 37.5h100q-14 -17 -19 -40
t-5 -41v-241q32 -6 65 -20l7 -41q-11 11 -30 22.5t-42 20.5v-329q0 -20 5.5 -42.5t19.5 -39.5h-101q14 16 22.5 37t8.5 43v342q-32 6 -68 0q-63 -10 -114 -43.5t-85 -81.5t-48.5 -107.5t-4.5 -122.5q11 -63 44 -114t81 -85t107.5 -48.5t122.5 -3.5q3 0 18.5 4t37 15.5
t45.5 32t44 54t33.5 82.5t13.5 117v544q0 24 -11 47t-31 38h136zM101 751q-14 -17 -19 -40t-5 -41v-588q0 -20 5 -42.5t19 -39.5h-101q14 16 23 37t9 43v591q0 22 -9 42.5t-23 37.5h101z" />
    <glyph glyph-name="o_c" unicode="oc" horiz-adv-x="1048" 
d="M741 14q55 0 96 7t74.5 23.5t63 44t62.5 67.5l1 -16q-31 -39 -63 -64.5t-67.5 -41.5t-76 -22.5t-89.5 -6.5q-52 0 -99 13.5t-88 39.5q-42 -27 -90.5 -42.5t-102.5 -15.5q-76 0 -142.5 30t-115 81t-76.5 119t-28 144t28 143.5t76.5 118.5t115 81t142.5 30q52 0 99 -13.5
t88 -39.5q42 27 90.5 42t102.5 15q82 0 156.5 -27.5t129.5 -90.5q5 -5 9.5 -9t10.5 -8l-85 -37v12q0 21 -8.5 39.5t-21.5 34.5t-29.5 28.5t-32.5 21.5q-29 17 -62.5 23t-66.5 6q-49 0 -91.5 -18t-77.5 -49q69 -52 109.5 -131t40.5 -172q0 -91 -39 -169t-105 -130
q34 -28 74.5 -44.5t87.5 -16.5zM618 554q-14 27 -31 52.5t-37 47.5q-20 -21 -36 -45t-28 -50q-21 -42 -30.5 -87.5t-9.5 -93.5q0 -47 9.5 -92.5t30.5 -87.5q27 -56 68 -100q20 21 35.5 44.5t28.5 49.5q20 42 29.5 88t9.5 93t-9.5 93t-29.5 88zM362 7q49 0 91 18.5t77 49.5
q-69 51 -109.5 130.5t-40.5 172.5q0 91 39.5 169t105.5 130q-34 29 -74.5 46.5t-88.5 17.5q-44 0 -83 -15t-71.5 -40.5t-58.5 -59.5t-44 -72q-21 -42 -30.5 -88t-9.5 -93q0 -48 9.5 -93.5t30.5 -87.5q19 -37 45 -71t58.5 -59t71 -40t82.5 -15z" />
    <glyph glyph-name="t_t" unicode="tt" horiz-adv-x="1464" 
d="M999 835q69 16 135.5 25.5t126.5 7.5t112 -18t91 -52l-29 -32q-36 34 -82.5 52t-100.5 23.5t-113.5 1t-122.5 -16.5q10 -6 19.5 -13t17.5 -15l-29 -32q-30 28 -72 47q-26 -5 -51 -11.5t-51 -13.5v-701v-14t2 -15q3 -14 9 -28.5t17 -23.5q4 -4 7 -5q0 -1 1 -1h-137l2 2
q11 8 20 19q7 9 13 23t6 33v1q0 2 0.5 3.5t0.5 3.5v688q-59 -16 -113 -29t-101 -19q-37 -6 -67 -6q-41 0 -71 11v-643q0 -7 0.5 -14t1.5 -15q3 -14 9 -28.5t17 -23.5q4 -4 7 -5q0 -1 1 -1h-137q2 0 2 2q11 8 20 19q8 9 14 23t6 33v1v7v688q-59 -16 -112.5 -29t-101.5 -19
q-37 -6 -67 -6q-67 0 -99 28l20 30q13 -25 49 -38t96 -5q54 7 116 22.5t130 33.5q78 21 159.5 41t158.5 30t146 6t124 -32zM822 790q28 8 56 15t57 15q-49 18 -107.5 22t-122 -2t-131 -20t-135.5 -32q0 -14 11.5 -25.5t31 -19t44 -10.5t49.5 1q54 7 116.5 22.5t130.5 33.5z
" />
    <glyph glyph-name="t_f" unicode="tf" horiz-adv-x="1464" 
d="M999 835q69 16 135.5 25.5t126.5 7.5t112 -18t91 -52l-29 -32q-36 34 -82.5 52t-100.5 23.5t-113.5 1t-122.5 -16.5q10 -6 19.5 -13t17.5 -15l-29 -32q-30 28 -72 47q-26 -5 -51 -11.5t-51 -13.5v-282h162q24 0 45.5 11.5t35.5 30.5v-91q-14 20 -35.5 30.5t-45.5 10.5
h-162v-411v-14t2 -15q3 -14 9 -28.5t17 -23.5q4 -4 7 -5q0 -1 1 -1h-137l2 2q11 8 20 19q7 9 13 23t6 33v1q1 2 1 7v688q-59 -16 -113 -29t-101 -19q-37 -6 -67 -6q-41 0 -71 11v-643q0 -7 0.5 -14t1.5 -15q3 -14 9 -28.5t17 -23.5q3 -3 7 -5l1 -1h-137q2 0 2 2q11 8 20 19
q8 9 14 23t6 33v1v7v688q-59 -16 -112.5 -29t-101.5 -19q-37 -6 -67 -6q-67 0 -99 28l20 30q13 -25 49 -38t96 -5q54 7 116 22.5t130 33.5q78 21 159.5 41t158.5 30t146 6t124 -32zM822 790q28 8 56 15t57 15q-49 18 -107.5 22t-122 -2t-131 -20t-135.5 -32
q0 -14 11.5 -25.5t31 -19t44 -10.5t49.5 1q54 7 116.5 22.5t130.5 33.5z" />
    <glyph glyph-name="l_l" unicode="ll" horiz-adv-x="831" 
d="M285 78q20 15 30.5 37.5t10.5 47.5v502q0 25 -10.5 47.5t-30.5 37.5h136l-1 -1q-21 -16 -28 -39t-7 -47v-500q0 -19 4.5 -39t18.5 -35l1 -1h272q23 0 38.5 12t21.5 33q2 6 2 8l22 -63h-480zM831 -14l-1 -1q-34 -35 -77.5 -49t-94.5 -12q-39 2 -80 11t-84 23t-86 31
t-85 34q-23 9 -45.5 18t-43.5 17q-7 2 -13.5 5t-13.5 5q-11 4 -21.5 7.5t-21.5 6.5q-5 2 -9.5 3t-9.5 3q-5 1 -13 3l-15 3q-4 0 -6 1h-1h-2q-25 3 -45 -3q-4 -2 -7 -2.5t-6 -2.5q-22 -10 -33 -32l-1 -3l-16 35l1 1q4 3 7.5 6t7.5 5l12 6q18 6 43 6h5v554q0 25 -11 47.5
t-31 37.5h137q-1 0 -1 -0.5t-1 -0.5q-21 -16 -28 -39t-7 -47v-560v0q2 -1 2.5 -1t2.5 -1l24 -6q4 -2 7.5 -2.5t8.5 -2.5t9.5 -3t9.5 -3q11 -4 21.5 -8t21.5 -8q7 -2 13 -5t13 -5q14 -6 29 -12l30 -12h1q62 -25 131 -48t135 -30q137 -15 214 65l1 1z" />
    <glyph glyph-name="l_e" unicode="le" horiz-adv-x="830" 
d="M311 738q-3 4 -11 10l-2 2h481l-21 -58q-5 22 -21 36.5t-41 14.5h-273l-1 -1q-15 -14 -19.5 -34.5t-4.5 -39.5v-165h164q27 0 47 11.5t34 31.5v-93q-13 19 -35.5 30.5t-45.5 11.5h-164l1 -332q0 -20 4.5 -40t18.5 -35l1 -1h274q45 0 59 45q0 3 2 7l21 -61h-480
q18 15 29.5 39t11.5 47v500q0 17 -8.5 39.5t-20.5 34.5zM830 -14l-1 -1q-34 -35 -77.5 -49t-93.5 -12q-39 2 -80.5 11t-84.5 23t-85.5 31t-84.5 34q-23 9 -45.5 18t-44.5 17q-7 2 -13.5 5t-12.5 5q-11 4 -22 7.5t-22 6.5q-5 2 -9.5 3t-9.5 3q-3 1 -6.5 1.5t-6.5 1.5l-15 3
q-4 0 -6 1v0h-2q-25 3 -46 -3q-3 -2 -6 -2.5t-6 -2.5q-24 -11 -33 -32l-2 -3l-15 35v1q4 3 7.5 6t8.5 5q3 2 11 6q20 6 43 6h5v554q0 25 -10.5 47.5t-30.5 37.5h136q-1 -1 -2 -1q-21 -16 -28 -39t-7 -47v-560v0q2 -1 3 -1t3 -1q5 -2 11 -3t12 -3q5 -2 8.5 -2.5t7.5 -2.5
q5 -2 9.5 -3t9.5 -3l22 -8l22 -8q6 -2 12 -5t13 -5q29 -12 60 -24v0q62 -25 131 -48t136 -30q138 -15 213 65l1 1z" />
    <glyph glyph-name="l_a" unicode="la" horiz-adv-x="830" 
d="M343 78h-85l11 9q8 6 14 11t11.5 12t11 17t12.5 26l210 614l219 -615q6 -17 19 -35t29 -30l12 -9h-114l5 8q6 11 6 26q0 12 -3 24t-6 21l-130 355h-114l-122 -355q-11 -32 -8.5 -49.5t7.5 -20.5zM453 521h109l-54 160zM830 -14v-1q-35 -35 -78 -49t-94 -12
q-39 2 -80.5 11t-84 23t-85.5 31t-85 34q-23 9 -45.5 18t-44.5 17q-7 2 -13 5t-13 5q-11 4 -21.5 7.5t-21.5 6.5q-5 2 -10 3t-10 3l-12 3l-15 3q-5 0 -7 1v0h-2q-25 3 -46 -3q-3 -2 -6 -2.5t-6 -2.5q-22 -10 -33 -32l-2 -3l-15 35l1 1q7 7 15 11q3 2 11 6q20 6 44 6h4v554
q0 25 -10.5 47.5t-30.5 37.5h136l-1 -1q-21 -16 -28 -39t-7 -47v-560v0q1 -1 2 -1t3 -1q6 -2 11.5 -3t12.5 -3q4 -2 7.5 -2.5t7.5 -2.5q5 -2 10 -3t10 -3q11 -4 21.5 -8t21.5 -8q6 -2 12.5 -5t12.5 -5l60 -24v0q63 -25 132 -48t135 -30q138 -15 213 65l2 1z" />
    <glyph glyph-name="l_o" unicode="lo" horiz-adv-x="896" 
d="M573 81q-68 0 -126.5 26.5t-102 72.5t-68.5 106.5t-25 127.5q0 68 25 128t68.5 106t102 72.5t126.5 26.5t127 -26.5t102.5 -72.5t68.5 -106t25 -128q0 -67 -25 -127.5t-68.5 -106.5t-102.5 -72.5t-127 -26.5zM309 413q0 -42 8.5 -82.5t27.5 -78.5q17 -33 40 -63
t51.5 -52.5t63 -36t73.5 -13.5t73.5 13.5t63.5 36t52.5 52.5t39.5 63q18 38 26.5 78.5t8.5 82.5t-8.5 83t-26.5 79q-16 34 -39.5 64t-52.5 52.5t-63.5 36t-73.5 13.5t-73.5 -13.5t-63 -36t-51.5 -53t-40 -63.5q-19 -38 -27.5 -79t-8.5 -83zM808 22l22 -36l-1 -1
q-34 -35 -77.5 -49t-93.5 -12q-39 2 -80.5 11t-84.5 23t-85.5 31t-84.5 34q-23 9 -45.5 18t-44.5 17q-7 2 -13.5 5t-12.5 5q-11 4 -22 7.5t-21 6.5q-5 2 -10 3t-10 3l-12 3q-9 2 -15 3q-5 0 -7 1v0h-2q-25 3 -46 -3q-3 -2 -6 -2.5t-6 -2.5q-22 -10 -33 -32l-2 -3l-15 35l1 1
q7 7 15 11q3 2 11 6q20 6 43 6h5v554q0 25 -10.5 47.5t-30.5 37.5h136l-1 -1q-21 -16 -28.5 -39t-7.5 -47v-560h1q1 -1 2 -1t3 -1q11 -3 24 -6q4 -2 7.5 -2.5t7.5 -2.5q5 -2 9.5 -3t9.5 -3l22 -8l22 -8q6 -2 12.5 -5t12.5 -5q29 -12 60 -24v0q62 -25 131 -48t136 -30
q138 -15 213 65z" />
    <glyph glyph-name="f_t" unicode="ft" horiz-adv-x="1464" 
d="M1000 835q68 16 134.5 25.5t127 7.5t112 -18t90.5 -52l-29 -32q-36 34 -82.5 52t-100.5 23.5t-113.5 1t-122.5 -16.5q21 -12 37 -28l-28 -32q-31 28 -73 47q-26 -5 -51 -11.5t-51 -13.5v-701q0 -7 0.5 -14t1.5 -15q3 -14 9 -28.5t17 -23.5q3 -3 7 -5l1 -1h-137q2 0 2 2
q11 8 20 19q8 9 14 23t6 33v1v7v688q-59 -16 -112.5 -29t-101.5 -19q-37 -6 -67 -6q-41 0 -71 11v-224h162q24 0 45.5 11.5t35.5 30.5v-91q-14 20 -35.5 30.5t-45.5 10.5h-162v-411q0 -14 3 -29q3 -14 9 -28.5t17 -23.5q4 -4 6 -5l1 -1h-136l2 2q11 8 20 19q7 9 13 23t6 33
v1v7v688q-59 -16 -112.5 -29t-101.5 -19q-37 -6 -67 -6q-65 0 -99 28l20 30q14 -25 49.5 -38t95.5 -5q54 7 116 22.5t131 33.5q78 21 159 41t158 30t146.5 6t124.5 -32zM822 790q29 8 56.5 15t56.5 15q-49 18 -107.5 22t-122 -2t-131 -20t-135.5 -32q0 -14 12 -25.5t31 -19
t44 -10.5t50 1q54 7 116 22.5t130 33.5z" />
    <glyph glyph-name=".notdef" horiz-adv-x="500" 
 />
    <glyph glyph-name=".null" horiz-adv-x="0" 
 />
    <glyph glyph-name=".null" horiz-adv-x="0" 
 />
    <glyph glyph-name="uni000D" unicode="&#xd;" horiz-adv-x="250" 
 />
    <glyph glyph-name="space" unicode=" " horiz-adv-x="230" 
 />
    <glyph glyph-name="exclam" unicode="!" horiz-adv-x="96" 
d="M41 122l-29 618h65l-21 -618h-15zM49 96q19 0 33 -14.5t14 -33.5q0 -20 -14 -34.5t-33 -14.5q-20 0 -34.5 14.5t-14.5 34.5q0 19 14.5 33.5t34.5 14.5z" />
    <glyph glyph-name="quotedbl" unicode="&#x22;" horiz-adv-x="151" 
d="M0 750h58l-8 -122h-40zM151 750l-8 -122h-40l-10 122h58z" />
    <glyph glyph-name="numbersign" unicode="#" horiz-adv-x="592" 
d="M476 410l-33 -212h149v-26h-153l-27 -172h-47l27 172h-232l-27 -172h-46l27 172h-114v26h118l34 212h-152v26h156l24 156h47l-25 -156h232l25 156h46l-24 -156h111v-26h-116zM430 410h-232l-34 -212h232z" />
    <glyph glyph-name="dollar" unicode="$" horiz-adv-x="511" 
d="M285 414q43 -12 84 -27.5t72.5 -40t50.5 -61t19 -90.5q0 -13 -3 -26.5t-7 -26.5q-13 -42 -42 -72.5t-68 -50.5q-29 -14 -60.5 -18.5t-63.5 -4.5q-5 0 -9 0.5t-9 0.5v-87h-42v93q-40 9 -70.5 27.5t-52.5 40t-37 42t-24 32.5q-5 6 -10.5 11t-12.5 9l79 38q-3 -18 -3 -37
q0 -45 24 -83q19 -30 47 -46t60 -23v408q-1 0 -1 1q-21 7 -44 13.5t-45.5 15.5t-42.5 20t-34 27q-15 17 -21.5 36t-6.5 42q0 11 3 23t6 23q5 16 13 30t18 28q29 35 69.5 50t85.5 17v77h42v-77q35 -2 61.5 -9.5t50 -22t45 -35.5t45.5 -50q5 -5 9 -9.5t10 -7.5l-84 -43
q3 15 3 29q0 34 -11 59t-30.5 42.5t-44.5 27t-54 12.5v-317q9 -3 18 -5.5t18 -4.5zM207 741q-45 -5 -80.5 -30.5t-55.5 -68.5q-7 -14 -12.5 -30.5t-5.5 -33.5q0 -42 20.5 -68.5t53.5 -43.5q17 -9 35.5 -16t38.5 -13q2 0 6 -2v306zM267 8q88 0 132 50t44 137q0 17 -5 35
q-3 16 -14 38t-33 46t-56.5 48t-85.5 45v-399h18z" />
    <glyph glyph-name="percent" unicode="%" horiz-adv-x="744" 
d="M720 326q24 -49 24 -118q0 -46 -15 -87q-8 -23 -22.5 -45.5t-33.5 -40t-42.5 -28t-50.5 -10.5t-50.5 10.5t-42.5 27t-33.5 38.5t-22.5 44q-16 41 -16 91q0 73 25 123q27 50 64 73q38 24 76 24q40 0 78 -26t62 -76zM580 11q23 0 41 12.5t31 29.5t20.5 34t10.5 26
q8 23 15.5 48t7.5 51q0 20 -3.5 43t-11 46.5t-19 45t-26.5 37.5q-28 30 -66 30t-67 -33q-13 -16 -24.5 -36.5t-19.5 -43t-12.5 -45.5t-4.5 -44q0 -19 3.5 -42t11 -45.5t19 -44t27.5 -38.5q28 -31 67 -31zM314 446q-8 -23 -22.5 -45.5t-33.5 -40t-42.5 -28t-50.5 -10.5
t-50.5 10.5t-42.5 27t-33 38.5t-23 44q-8 21 -12 44t-4 47q0 72 26 122q24 49 63 74q38 24 76 24q40 0 78 -26q39 -28 62 -76q13 -26 18.5 -54.5t5.5 -63.5q0 -46 -15 -87zM165 739q-37 0 -66 -33q-13 -16 -24.5 -36.5t-19.5 -43t-12.5 -45.5t-4.5 -45q0 -19 3.5 -41.5
t11 -45t19 -44t27.5 -38.5q27 -31 66 -31q23 0 41 12.5t31 29.5t21 34t11 26q8 23 15 48t7 50q0 20 -3.5 43.5t-11 46.5t-19 44.5t-26.5 38.5q-27 30 -66 30zM580 740l-416 -744l-16 7l415 745z" />
    <glyph glyph-name="ampersand" unicode="&#x26;" horiz-adv-x="646" 
d="M624 8q12 -5 22 -8h-110q-32 26 -63.5 51.5t-60.5 54.5l-6 5l-4 -6q-17 -23 -39 -42.5t-45 -36.5q-31 -23 -64.5 -32.5t-71.5 -9.5q-36 0 -68.5 14t-58 38t-40.5 56.5t-15 68.5q0 35 9.5 65t31.5 59q21 28 47 51.5t55 42.5l8 5l-6 6l-7 7q-17 19 -34 40q-25 32 -42 64
t-18 73v3q0 34 15 63.5t39 51t55.5 34t64.5 12.5h4q31 -1 57.5 -9t48.5 -28q40 -36 40 -90q0 -32 -11.5 -57.5t-34.5 -48.5q-26 -26 -55 -48.5t-60 -41.5l-7 -5l5 -6q19 -22 39 -43l40 -42q36 -38 71.5 -76t73.5 -73l6 -6l5 7q13 21 28.5 52t28.5 64.5t21.5 67t8.5 58.5
q0 11 -3 24.5t-16 21.5q-8 4 -12 5h135q-26 -7 -43.5 -24t-32.5 -46q-14 -28 -27 -62q-9 -23 -18 -44.5t-19 -43.5q-11 -21 -22 -41.5t-25 -39.5l-4 -6l5 -4q17 -15 39.5 -36t45.5 -43q24 -21 48.5 -39.5t45.5 -26.5zM85 614q0 -23 11 -50.5t27.5 -54t35 -50t33.5 -38.5
l4 -5l5 3q23 15 45 33t41 40t26.5 46t7.5 52q0 26 -9.5 49.5t-26.5 42t-40 29.5t-49 11h-3q-23 0 -43 -6.5t-37 -24.5q-15 -17 -21.5 -36t-6.5 -41zM403 116l-6 5q-28 27 -56 54.5t-55 56.5q-33 35 -64.5 70t-63.5 71l-4 4l-5 -3q-46 -32 -75.5 -73t-29.5 -101
q0 -35 16 -66.5t41.5 -55.5t58 -38.5t66.5 -14.5q56 0 95.5 24.5t76.5 61.5z" />
    <glyph glyph-name="quotesingle" unicode="'" horiz-adv-x="58" 
d="M58 750l-8 -122h-40l-10 122h58z" />
    <glyph glyph-name="parenleft" unicode="(" horiz-adv-x="336" 
d="M336 772q-57 -8 -103.5 -45.5t-84.5 -91.5q-75 -108 -75 -260t75 -260q38 -55 84.5 -92.5t103.5 -45.5v-8q-70 6 -131.5 40t-107 88.5t-71.5 126t-26 152.5t26 152.5t71.5 126t107 88.5t131.5 40v-11z" />
    <glyph glyph-name="parenright" unicode=")" horiz-adv-x="336" 
d="M0 783q71 -6 132 -40t106.5 -88.5t71.5 -126t26 -152.5t-26 -152.5t-71.5 -126t-106.5 -88.5t-132 -40v8q57 8 104 45.5t85 92.5q75 108 75 260t-75 260q-38 54 -85 91.5t-104 45.5v11z" />
    <glyph glyph-name="asterisk" unicode="*" horiz-adv-x="234" 
d="M126 627l108 -55l-33 -42l-79 89l20 -119h-53l25 120l-81 -90l-33 42l108 55l-108 55l33 42l80 -89l-24 115h53l-19 -115l78 89l33 -42z" />
    <glyph glyph-name="plus" unicode="+" horiz-adv-x="204" 
d="M204 369v-19h-75v-91h-54v91h-75v19h75v94h54v-94h75z" />
    <glyph glyph-name="comma" unicode="," horiz-adv-x="75" 
d="M74 36q1 -17 -3.5 -30.5t-11 -23t-14.5 -16t-15 -9.5q5 10 9 19q3 8 4.5 15t-0.5 10l-5 -1q-16 0 -27 10.5t-11 25.5t11 26t27 11q14 0 25 -11t11 -26z" />
    <glyph glyph-name="hyphen" unicode="-" horiz-adv-x="204" 
d="M204 387v-53h-204v53h204z" />
    <glyph glyph-name="period" unicode="." horiz-adv-x="73" 
d="M36 73q16 0 26.5 -10.5t10.5 -25.5t-10.5 -25.5t-26.5 -10.5q-15 0 -25.5 10.5t-10.5 25.5t10.5 25.5t25.5 10.5z" />
    <glyph glyph-name="slash" unicode="/" horiz-adv-x="313" 
d="M313 739q-23 -12 -37 -36t-21 -48l-168 -573q-6 -19 -6 -42q0 -12 4 -24t14 -20h-99l1 1q23 12 40 35t25 47l168 574q2 8 3 16.5t1 16.5q0 12 -4.5 27.5t-14.5 25.5h94z" />
    <glyph glyph-name="zero" unicode="0" horiz-adv-x="580" 
d="M537 576q24 -50 33.5 -102t9.5 -108q0 -80 -27 -154q-15 -42 -41 -81.5t-59.5 -70t-74.5 -49t-88 -18.5q-46 0 -87 17.5t-74.5 47t-59.5 68t-41 79.5q-15 39 -21.5 79.5t-6.5 82.5q0 57 9 111.5t35 105.5q20 39 47.5 73t64.5 57q31 19 64.5 30.5t69.5 11.5q38 0 72 -12
t66 -34q36 -25 62.5 -59.5t46.5 -74.5zM480 195q15 43 27.5 87.5t12.5 90.5q0 38 -6.5 80.5t-20 84t-34 79.5t-47.5 68q-25 26 -55 40.5t-67 14.5q-38 0 -68 -16.5t-54 -44.5q-25 -30 -45 -67.5t-34.5 -78t-22.5 -81.5t-8 -79t7 -80t21 -83t34.5 -78.5t47.5 -66.5
q25 -27 54.5 -41t67.5 -14q37 0 67.5 18t54 45t41 59.5t27.5 62.5z" />
    <glyph glyph-name="one" unicode="1" horiz-adv-x="159" 
d="M5 0q48 17 48 81v493v31q0 5 -0.5 9.5t-0.5 9.5t-1 7q0 4 -1 6q-6 16 -22 16q-5 0 -12.5 -2.5t-15.5 -4.5q17 10 30.5 19t26 20.5t24.5 25.5t27 33h6v-663q0 -64 45 -81h-154z" />
    <glyph glyph-name="two" unicode="2" horiz-adv-x="477" 
d="M400 52q27 0 45 9.5t32 28.5l-24 -90h-453q17 15 33 31l32 32q27 26 52.5 53t51.5 55q19 20 37 41t35 44q20 27 40 57t36 62t26.5 66.5t10.5 70.5q0 39 -12.5 73t-35.5 58.5t-55 38.5t-72 14q-59 0 -105.5 -35t-66.5 -89h-1q11 45 37.5 81.5t64.5 60.5q26 17 54.5 23.5
t59.5 6.5q41 0 77 -14.5t62.5 -40t42 -60.5t15.5 -77q0 -34 -8 -65t-22 -62q-24 -53 -60 -101t-79 -93t-88.5 -86.5t-88.5 -79.5l-14 -13h341z" />
    <glyph glyph-name="three" unicode="3" horiz-adv-x="402" 
d="M385 278q17 -40 17 -82q0 -44 -19 -81.5t-50.5 -64.5t-72 -42t-82.5 -15q-26 0 -52 5t-49 19q-42 24 -77 59v17q35 -34 75 -54t92 -20q29 0 58 8t51 31q15 16 27 35.5t17 42.5q8 35 8 68q0 27 -5.5 54.5t-22.5 50.5q-11 16 -26 32t-32 26q-8 5 -15.5 7t-14.5 4
q-18 5 -35.5 6.5t-34.5 2.5q-15 1 -30.5 1h-31.5v12h29q87 0 134 45t47 133q0 32 -8 62t-25 54t-43.5 38.5t-62.5 14.5q-25 0 -48 -7.5t-41 -27.5l6 32l7 1q8 2 11 2q22 4 40 6.5t41 2.5q36 0 69 -12.5t59 -34.5t41.5 -53t15.5 -68q0 -17 -3 -33.5t-8 -33.5
q-16 -50 -56.5 -76.5t-90.5 -39.5l-45 -11l46 -3q34 -2 67 -10.5t60 -28.5q21 -14 37.5 -32.5t25.5 -41.5z" />
    <glyph glyph-name="four" unicode="4" horiz-adv-x="495" 
d="M377 296v-214q0 -17 5 -36.5t21 -32.5q8 -6 14 -8.5t15 -4.5h-164q6 2 12 5.5t11 7.5q16 13 20.5 32.5t4.5 36.5v214h-316l361 445h16v-414h118v-31h-118zM316 653h-12l-261 -326h273v326z" />
    <glyph glyph-name="five" unicode="5" horiz-adv-x="423" 
d="M166 694l-35 -260l10 2q35 7 75 7q38 0 70 -14.5t55 -39t35.5 -58.5t12.5 -73q0 -44 -17 -91t-46.5 -85.5t-68 -63.5t-81.5 -25q-28 0 -51 4.5t-43.5 13.5t-40.5 22t-41 31v18q14 -11 28.5 -21t29.5 -18q24 -13 49.5 -16.5t51.5 -3.5q38 0 67.5 23t49 58t29.5 75.5
t10 76.5t-8.5 68t-26 55.5t-44.5 37.5t-65 14q-29 0 -52 -6t-49 -16l46 326h307l-8 -41h-249z" />
    <glyph glyph-name="six" unicode="6" horiz-adv-x="458" 
d="M404 331q29 -29 41.5 -63t12.5 -75q0 -45 -18.5 -81.5t-49 -62.5t-70 -40.5t-81.5 -14.5h-4q-23 1 -44.5 3.5t-42.5 10.5q-39 15 -67 42t-46 62t-26.5 75t-8.5 81q0 38 7.5 76.5t18.5 75.5q13 43 35.5 85t51.5 79.5t64.5 68.5t75.5 51q24 12 45.5 20.5t43 14.5t44 10
t48.5 7v-3q-21 -4 -42.5 -9t-41.5 -12q-56 -18 -102 -54t-80 -84q-50 -71 -71 -145.5t-24 -160.5v-3v-44q0 -37 9 -78.5t29 -77t52.5 -59t78.5 -23.5q32 0 58.5 9.5t49.5 33.5q26 26 34 60.5t8 68.5q0 33 -10.5 66.5t-31 61t-49.5 45t-66 17.5q-26 0 -48 -6.5t-43 -19.5
q-19 -11 -33 -27.5t-25 -35.5l2 6q11 20 26 38.5t32 33.5q23 19 53 26t61 7q42 0 78.5 -13t65.5 -43z" />
    <glyph glyph-name="seven" unicode="7" horiz-adv-x="471" 
d="M471 735l-316 -735h-57l298 694h-214q-28 0 -62.5 -3.5t-60.5 -16.5q-20 -9 -34 -23.5t-25 -32.5l18 117h453z" />
    <glyph glyph-name="eight" unicode="8" horiz-adv-x="436" 
d="M346 340q40 -29 65 -67.5t25 -89.5q0 -60 -36 -105.5t-91 -67.5q-24 -9 -49 -13t-51 -4h-10q-57 0 -107 22.5t-76 74.5q-16 32 -16 64q0 39 15.5 70t40.5 56t57 44t65 35l12 6l-12 7q-29 17 -56.5 36t-49 43t-34.5 53t-13 65q0 39 17 76q26 56 76 83.5t110 27.5h7
q54 0 100.5 -23t71.5 -71q17 -32 17 -69q0 -26 -6 -49.5t-21 -45.5q-24 -35 -55.5 -56.5t-70.5 -38.5l-12 -5l11 -8l38 -24t38 -26zM237 410q2 -2 5.5 -3t5.5 -3l4 -2l3 2q57 30 84 69t27 107q0 32 -8.5 65t-33.5 58q-42 42 -101 42q-32 0 -58.5 -11t-45.5 -30.5
t-29.5 -46.5t-10.5 -59q0 -20 5.5 -39t13.5 -36q11 -26 35 -45.5t46 -32.5zM337 43q23 23 33 51.5t10 60.5q0 45 -18 78.5t-54 59.5q-24 17 -49.5 32t-51.5 30q-2 2 -4 3q-1 0 -1 0.5t-1 0.5l-4 3l-4 -2q-30 -17 -54 -36.5t-41 -43.5t-26 -53t-9 -67q0 -32 8.5 -61.5
t29.5 -54.5q22 -26 52 -36t62 -10q33 0 65 9.5t57 35.5z" />
    <glyph glyph-name="nine" unicode="9" horiz-adv-x="458" 
d="M309 742q40 -15 68 -42t46 -62t26.5 -75t8.5 -81q0 -38 -7.5 -76.5t-18.5 -75.5q-13 -43 -35.5 -85t-51.5 -79.5t-64.5 -68.5t-75.5 -51q-47 -24 -88.5 -34.5t-92.5 -17.5v3q42 8 84 21q56 18 102 54.5t79 84.5q51 71 72 145t24 161v2v44q0 37 -9 79t-29 77.5t-52 59
t-79 23.5q-32 0 -58.5 -10t-49.5 -34q-26 -26 -34 -60t-8 -68q0 -33 10.5 -66.5t31 -61.5t49.5 -45.5t66 -17.5q26 0 47.5 6.5t43.5 19.5q19 12 33 28t25 35l-3 -6q-20 -41 -58 -71q-23 -20 -53 -27t-60 -7q-42 0 -78.5 13.5t-65.5 43.5q-29 29 -41.5 62.5t-12.5 74.5
q0 45 18.5 81.5t49 62.5t70 40.5t81.5 14.5h4q23 -1 44 -3.5t42 -10.5z" />
    <glyph glyph-name="colon" unicode=":" horiz-adv-x="74" 
d="M37 482q-15 0 -26 10.5t-11 25.5q0 16 11 26.5t26 10.5t26 -10.5t11 -26.5q0 -15 -11 -25.5t-26 -10.5zM37 226q15 0 26 -11t11 -26t-11 -26t-26 -11t-26 11t-11 26t11 26t26 11z" />
    <glyph glyph-name="semicolon" unicode=";" horiz-adv-x="75" 
d="M36 481q-15 0 -25.5 10.5t-10.5 25.5q0 16 10.5 26.5t25.5 10.5q16 0 26.5 -10.5t10.5 -26.5q0 -15 -10.5 -25.5t-26.5 -10.5zM74 186q1 -17 -3.5 -30t-11.5 -23t-15 -16.5t-15 -9.5q6 11 9 20q4 8 5.5 15t-0.5 9l-6 -1q-15 0 -26 10.5t-11 25.5q0 16 11 27t26 11
q14 0 25.5 -11t11.5 -27z" />
    <glyph glyph-name="less" unicode="&#x3c;" horiz-adv-x="243" 
d="M243 480l-221 -105l221 -102v-54l-243 114v54l243 114v-21z" />
    <glyph glyph-name="equal" unicode="=" horiz-adv-x="203" 
d="M0 318h203v-54h-203v54zM203 447v-53h-203v53h203z" />
    <glyph glyph-name="greater" unicode="&#x3e;" horiz-adv-x="243" 
d="M243 387v-54l-243 -114v21l221 104l-221 103v54z" />
    <glyph glyph-name="question" unicode="?" horiz-adv-x="464" 
d="M455 615q9 -33 9 -56q0 -34 -8 -59.5t-22 -46t-32.5 -37t-40.5 -31.5q-24 -17 -49.5 -37.5t-46.5 -49.5t-34.5 -69t-13.5 -97h-9q0 59 7 100t20 70.5t30.5 50.5t38.5 38q18 15 35 30.5t30 36t20.5 47.5t7.5 63q0 26 -6.5 54.5t-23 53t-44.5 40.5t-71 16q-37 0 -67.5 -11
t-48.5 -25q-25 -19 -34 -46t-9 -59q0 -16 5 -36l-98 49q14 3 23 17l2 2q45 56 94 87q47 30 133 30q65 0 108 -20q72 -35 95 -105zM209 96q19 0 33.5 -14.5t14.5 -33.5q0 -20 -14.5 -34.5t-33.5 -14.5q-20 0 -34.5 14.5t-14.5 34.5q0 19 14.5 33.5t34.5 14.5z" />
    <glyph glyph-name="at" unicode="@" horiz-adv-x="599" 
d="M599 127l-2 -4q-19 -36 -53 -71q-45 -45 -98 -66t-121 -21q-102 0 -173 42q-74 43 -113 125t-39 194q0 122 46 222q43 95 108 141q68 50 165 50q62 0 113 -25q49 -24 85 -68q35 -43 53.5 -98.5t18.5 -118.5q0 -121 -68 -212q-57 -75 -120 -75q-30 0 -40 15t-12 43l-2 34
l-20 -27q-16 -23 -40 -43.5t-50 -20.5q-42 0 -73 40q-37 51 -37 134q0 33 7 66t21 65q27 64 64 93q38 29 70 29q26 0 48.5 -18.5t39.5 -51.5l16 -33l16 91h35l-45 -265q-2 -11 -4 -22.5t-4 -22.5v-4q-1 -2 -1 -6q-1 -4 -1 -11q0 -13 8.5 -26.5t26.5 -13.5q14 0 33 13
q15 9 25 19q21 19 36.5 44.5t25.5 54t15 57.5t5 55q0 77 -32.5 140t-90.5 98q-57 35 -126 35q-81 0 -145.5 -45t-104.5 -130q-39 -85 -39 -197q0 -77 20.5 -138t59 -103.5t94 -65t125.5 -22.5q78 0 140.5 32t97.5 92l1 1h35zM308 207q19 16 32.5 39.5t22.5 49.5t13.5 53
t4.5 51q0 61 -25 97q-27 35 -65 35q-28 0 -57 -24q-27 -24 -48 -82q-22 -61 -22 -114q0 -60 25 -96q26 -36 59 -36q27 0 60 27z" />
    <glyph glyph-name="A" unicode="A" horiz-adv-x="583" 
d="M482 0q8 13 8 32q0 14 -3 27t-8 26l-143 391h-133l-134 -391q-14 -38 -10.5 -59t11.5 -26h-70q9 7 16.5 13t13.5 14t12.5 19.5t13.5 29.5l137 400l4 9l90 265l240 -674q7 -20 22 -41t34 -35h-101zM333 485l-66 180l-61 -180h127z" />
    <glyph glyph-name="B" unicode="B" horiz-adv-x="534" 
d="M286 500q51 -9 96 -26.5t79 -46t53.5 -70t19.5 -98.5q0 -70 -34 -128q-23 -39 -58.5 -64t-77.5 -39.5t-87.5 -19.5t-87.5 -5h-189q19 14 30.5 39t11.5 46v580q0 20 -11.5 45.5t-29.5 39.5h170q35 0 78 -3.5t81 -16.5t63.5 -39.5t25.5 -71.5q0 -28 -11.5 -47.5t-30 -33
t-42 -21.5t-48.5 -12l-24 -3zM100 512l77 -1q19 0 42 2.5t45.5 8.5t42.5 16t34 25q12 13 17 28t5 32q0 41 -18 65.5t-45.5 37.5t-60.5 17t-64 4h-48l-1 -1q-17 -15 -21.5 -37t-4.5 -42v-155zM157 10q63 0 120 11.5t99.5 40t67.5 76.5t25 121q0 61 -19.5 112.5t-71.5 86.5
q-13 9 -31.5 17t-38 14t-38.5 9.5t-35 3.5q-33 1 -66 1.5t-65 0.5h-4v-414q0 -20 5 -42t21 -37l1 -1h30z" />
    <glyph glyph-name="C" unicode="C" horiz-adv-x="668" 
d="M362 11q55 0 95.5 7t74 23.5t63 44t62.5 67.5l1 -16q-31 -39 -63 -64.5t-67 -41.5t-76 -22.5t-90 -6.5q-76 0 -142.5 30t-115 81t-76.5 118.5t-28 143.5t28 144t77 119t115 80.5t142 29.5q83 0 157 -27.5t130 -90.5q9 -11 19 -17l-85 -36q1 3 1 11q0 21 -8.5 39.5
t-21.5 34.5t-29.5 28.5t-32.5 21.5q-30 17 -63 23t-66 6q-44 0 -82.5 -14.5t-71.5 -40t-59 -58.5t-44 -71q-20 -43 -30 -88.5t-10 -93.5q0 -47 10 -92t30 -88q18 -38 44 -71.5t58.5 -58.5t71 -39.5t82.5 -14.5z" />
    <glyph glyph-name="D" unicode="D" horiz-adv-x="534" 
d="M500 564q17 -42 25.5 -85.5t8.5 -88.5q0 -48 -7.5 -96.5t-24.5 -92.5t-45 -82.5t-69 -67.5q-44 -30 -96 -41.5t-105 -11.5q-47 0 -93.5 0.5t-93.5 1.5q20 14 30.5 37.5t10.5 47.5v580q0 24 -10.5 47.5t-30.5 37.5h155q54 0 106 -9.5t97.5 -31t82.5 -57t59 -88.5zM157 7
q87 0 147 31t96.5 83.5t52.5 122.5t16 147q0 76 -15.5 140.5t-50.5 111.5t-92 73.5t-141 26.5h-21t-21 -1h-2l-1 -1q-16 -15 -20.5 -36t-4.5 -41v-577q0 -20 4.5 -42t21.5 -37l1 -1h30z" />
    <glyph glyph-name="E" unicode="E" horiz-adv-x="481" 
d="M458 54q0 3 2 7l21 -61h-480q18 15 29.5 39t11.5 47v579q0 17 -8.5 39.5t-20.5 34.5q-3 4 -11 10l-2 2h481l-21 -58q-5 22 -21 36.5t-41 14.5h-273l-1 -1q-15 -14 -19.5 -34.5t-4.5 -39.5v-165h164q27 0 47 11.5t34 31.5v-93q-13 19 -35.5 30.5t-45.5 11.5h-164l1 -411
q0 -20 4.5 -40t18.5 -35l1 -1h274q45 0 59 45z" />
    <glyph glyph-name="F" unicode="F" horiz-adv-x="480" 
d="M480 750l-23 -62q-5 23 -17.5 39.5t-43.5 16.5h-272l-1 -1q-14 -16 -19 -35.5t-5 -39.5v-164h163q24 0 45.5 11.5t35.5 30.5v-91q-14 20 -35.5 30.5t-45.5 10.5h-163v-410q0 -20 7.5 -46t26.5 -40h-133q19 15 30 38t11 47v579q0 23 -11.5 47t-29.5 39h480z" />
    <glyph glyph-name="G" unicode="G" horiz-adv-x="698" 
d="M698 397q0 -1 -1 -1q-20 -14 -27 -38t-7 -47v-167h-1q0 -1 -0.5 -1t-0.5 -1q-33 -38 -68 -67q-50 -43 -109 -56.5t-122 -13.5q-76 0 -142.5 29.5t-115 80.5t-76.5 119t-28 144t28 144t76.5 119t115 80.5t142.5 29.5q82 0 156.5 -27.5t129.5 -90.5l6 -6l6 -6q1 -1 7 -5
l-85 -36q1 4 1 11q0 21 -8.5 39.5t-22 34.5t-29.5 28.5t-32 21.5q-30 17 -63 23.5t-66 6.5q-44 0 -82.5 -15t-71 -40t-58.5 -58.5t-45 -71.5q-21 -43 -30.5 -88.5t-9.5 -93.5q0 -47 10 -92.5t30 -87.5q19 -37 45 -71t58.5 -59.5t71 -40.5t82.5 -15q67 0 130 17.5t111 69.5
l1 1v211q0 22 -10.5 47t-29.5 39h134z" />
    <glyph glyph-name="H" unicode="H" horiz-adv-x="554" 
d="M453 0q14 16 22.5 37t8.5 43l1 415h-408v-413q0 -20 5 -42.5t19 -39.5h-101q14 16 23 37t9 43v591q0 22 -9 42.5t-23 37.5h101q-14 -17 -19 -40t-5 -41l1 -166h407l-1 167q0 22 -8.5 42.5t-22.5 37.5h100q-14 -17 -19 -40t-5 -41v-588q0 -20 5.5 -42.5t19.5 -39.5h-101z
" />
    <glyph glyph-name="I" unicode="I" horiz-adv-x="136" 
d="M0 0q41 32 41 85v580q0 21 -10.5 46t-29.5 39h135l-1 -1q-22 -14 -28.5 -38t-6.5 -47v-577q0 -23 6.5 -47.5t28.5 -38.5l1 -1h-136z" />
    <glyph glyph-name="J" unicode="J" horiz-adv-x="145" 
d="M145 750l-1 -1q-21 -13 -28 -38t-7 -47v-624q0 -36 -15.5 -61t-50.5 -36q-22 -8 -43 -8v6q18 1 28 12t15 26t6.5 31.5t1.5 28.5v626q0 25 -11 47.5t-30 37.5h135z" />
    <glyph glyph-name="K" unicode="K" horiz-adv-x="517" 
d="M382 0q6 8 7.5 17.5t1.5 16.5q0 13 -4.5 27.5t-10.5 25.5l-176 320l-100 -141v-179q0 -21 7.5 -47t27.5 -40h-135q19 15 30.5 38.5t11.5 46.5v580q0 24 -11.5 47t-30.5 38h134q-20 -13 -27 -39t-7 -47v-383l275 382q10 14 17.5 31.5t7.5 36.5q0 7 -3 14q-2 4 -2 5h101
q-31 -13 -57.5 -31.5t-46.5 -45.5l-159 -220l202 -368q13 -23 29.5 -43.5t39.5 -34.5q3 -2 6 -3.5l7 -3.5h-135z" />
    <glyph glyph-name="L" unicode="L" horiz-adv-x="481" 
d="M0 0q20 15 31 37.5t11 47.5v580q0 25 -11 47.5t-31 37.5h137q-1 0 -1 -0.5t-1 -0.5q-21 -16 -28 -39t-7 -47v-578q0 -19 5 -39t19 -35l1 -1h272q23 0 38 12t22 33q1 2 1 4t1 4l22 -63h-481z" />
    <glyph glyph-name="M" unicode="M" horiz-adv-x="743" 
d="M608 0q20 14 30.5 38t10.5 47v580q0 6 -1 12.5t-2 11.5l-2 9l-5 -7q-9 -10 -14 -24l-277 -661q-47 111 -93 220t-93 220l-68 159q-8 20 -16 39t-17 38l-6 12l-1 -14q-2 -16 -1.5 -32.5t0.5 -32.5v-138v-390q0 -22 7.5 -48t28.5 -39h-89q19 14 30 38t11 47v580
q0 23 -11 47t-30 38h129q-13 -10 -13 -37q0 -14 4 -26.5t9 -23.5l243 -571l241 571q5 12 9 25t4 27q0 9 -3 18.5t-10 16.5h130l-1 -1q-22 -14 -28 -38t-6 -47v-577q0 -23 6.5 -47.5t27.5 -38.5l1 -1h-135z" />
    <glyph glyph-name="N" unicode="N" horiz-adv-x="463" 
d="M463 768q-14 -17 -18.5 -39t-4.5 -42l-1 -687q-14 26 -38.5 71t-54.5 101t-64.5 118.5t-67.5 123.5l-168 308l-2 -16q-2 -20 -2 -39.5v-39.5q0 -36 -0.5 -72t-0.5 -72v-402q0 -21 5.5 -42.5t19.5 -38.5h-66q31 33 31 80v591q0 46 -31 80h113q-3 -7 -3.5 -13.5t-0.5 -12.5
v-1q8 -15 31 -58t54 -100.5t66.5 -123t68.5 -126t60 -109.5t40 -74v555q0 20 -8 41.5t-22 38.5h64z" />
    <glyph glyph-name="O" unicode="O" 
d="M362 745q77 0 143 -30t114.5 -81t76.5 -119t28 -143q0 -76 -28 -144t-76.5 -119t-114.5 -81t-143 -30q-76 0 -142 30t-115 81t-77 119t-28 144q0 75 28 143t77 119t115 81t142 30zM362 5q44 0 82.5 14.5t71 40t58.5 59t45 71.5q20 42 29.5 87.5t9.5 93.5q0 47 -9.5 92.5
t-29.5 88.5q-19 38 -45 72t-58.5 59.5t-71 40.5t-82.5 15t-82.5 -15t-71 -41t-58.5 -59.5t-44 -71.5q-21 -43 -31 -88.5t-10 -92.5q0 -48 10 -93.5t31 -87.5q18 -37 44 -71t58.5 -59t71 -40t82.5 -15z" />
    <glyph glyph-name="P" unicode="P" horiz-adv-x="535" 
d="M501 622q34 -58 34 -128t-35 -127q-28 -45 -75.5 -70.5t-103 -38t-112.5 -14.5t-104 -1h-4v-157q0 -22 7 -47t28 -38q0 -1 1 -1h-136q19 14 30.5 39t11.5 47v579q0 17 -9 39t-20 35q-3 3 -6 5.5t-6 4.5l-2 2h187q43 0 88.5 -5.5t87.5 -19.5t78 -39.5t60 -64.5zM171 248
q63 0 117.5 11t94.5 39t63 75t23 120q0 72 -28.5 127.5t-94.5 88.5q-50 25 -106.5 29.5t-109.5 4.5h-2l-1 -1q-17 -14 -21.5 -36t-4.5 -42v-415h4q17 -1 33 -1h33z" />
    <glyph glyph-name="Q" unicode="Q" horiz-adv-x="979" 
d="M499 26q35 -34 75.5 -66.5t95.5 -50t130 -12.5t179 46q-76 -49 -137 -71t-111 -24t-90 12.5t-73.5 38t-62 53t-54.5 57.5q-44 -11 -89 -11q-76 0 -142.5 30t-115 81t-76.5 119t-28 144q0 75 28 143t76.5 119t115 81t142.5 30q77 0 143 -30t114.5 -81t76.5 -119t28 -143
q0 -58 -16.5 -111.5t-46 -98.5t-71 -80t-91.5 -56zM362 5q41 0 80 14q-25 26 -50 47t-52.5 31.5t-59.5 7t-71 -27.5q31 25 59 35q69 26 130 -5q23 -11 44.5 -29.5t42.5 -38.5q44 26 77 65t56 86q21 42 30.5 87.5t9.5 93.5q0 47 -9.5 92.5t-30.5 88.5q-18 38 -44 72
t-58.5 59.5t-71 40.5t-82.5 15t-82.5 -15t-71 -41t-58.5 -59.5t-45 -71.5q-20 -43 -30 -88.5t-10 -92.5q0 -48 9.5 -93.5t30.5 -87.5q19 -37 45 -71t58.5 -59t71 -40t82.5 -15z" />
    <glyph glyph-name="R" unicode="R" horiz-adv-x="533" 
d="M444 86q13 -23 29.5 -43.5t39.5 -34.5q3 -2 6 -3.5t6 -3.5h-134q4 4 6 11q3 12 3 23q0 13 -4.5 27.5t-10.5 25.5l-91 167l-3 -1q-47 -9 -93.5 -11t-94.5 0h-4v-157q0 -23 6.5 -47t28.5 -38q0 -1 1 -1h-135q19 14 29.5 39t10.5 47v579q0 23 -10.5 47.5t-29.5 38.5h185
q42 0 87.5 -5.5t88 -19.5t78.5 -39.5t59 -64.5q35 -59 35 -128q0 -91 -50 -145.5t-134 -80.5l-4 -1zM157 248q38 0 79.5 4.5t80 17.5t71 37t52.5 63q14 29 21 60t7 63q0 72 -29.5 127.5t-95.5 88.5q-49 25 -105 29.5t-110 4.5h-1l-1 -1q-17 -14 -22 -36t-5 -42v-415h4
q14 -1 27 -1h27z" />
    <glyph glyph-name="S" unicode="S" horiz-adv-x="511" 
d="M285 417q43 -12 84 -27t72.5 -39.5t50.5 -61t19 -90.5q0 -13 -3 -27t-7 -27q-13 -42 -42 -72.5t-68 -49.5q-28 -14 -60 -18.5t-64 -4.5q-55 0 -96 18t-70.5 42t-48 49t-29.5 39q-5 6 -10.5 11.5t-12.5 8.5l80 38q-4 -16 -4 -36q0 -44 25 -83q14 -22 32.5 -36.5t40.5 -23
t46 -12t47 -3.5q88 0 132 49.5t44 137.5q0 8 -1 17.5t-3 17.5q-4 18 -17 42.5t-39.5 50.5t-69.5 52t-107 47q-21 7 -44 13.5t-45 15.5t-42 20.5t-35 27.5t-21 35.5t-6 41.5q0 11 2.5 23t5.5 23q5 17 13 31t19 27q31 39 76.5 53.5t94.5 14.5q42 0 72.5 -6.5t56 -21t49 -36.5
t49.5 -54q5 -5 9 -9.5t10 -7.5l-84 -42q3 14 3 29q0 38 -13.5 64.5t-36.5 43.5t-53 25t-62 8q-51 0 -90.5 -26t-62.5 -73q-7 -14 -12.5 -31t-5.5 -34q0 -42 20.5 -68t53.5 -43q17 -9 35.5 -16t38.5 -13t41.5 -12t42.5 -12z" />
    <glyph glyph-name="T" unicode="T" horiz-adv-x="535" 
d="M535 751l-22 -63q-1 2 -1 4t-1 4q-7 21 -21.5 33t-37.5 12h-131l-1 -1q-14 -16 -18.5 -36t-4.5 -40v-578q0 -10 1.5 -22t5.5 -24t10.5 -22.5t16.5 -16.5h-134q20 15 30.5 37.5t10.5 47.5v579q0 8 -2 18.5t-6 21t-9 20t-11 15.5l-1 1h-125q-46 0 -60 -45q-1 -2 -1 -4
t-1 -4l-22 63h535z" />
    <glyph glyph-name="U" unicode="U" horiz-adv-x="548" 
d="M548 751q-23 -14 -30.5 -36.5t-7.5 -50.5v-464q0 -43 -19 -83.5t-53 -66.5q-35 -27 -76 -39t-86 -12t-86 12t-76 38q-33 25 -53 64t-20 81l-1 471q0 22 -10.5 47t-29.5 39h137q-23 -14 -30.5 -37t-7.5 -50v-467q0 -41 11.5 -76.5t34 -61t55.5 -40t76 -14.5q42 0 75 14.5
t55 40t33.5 60.5t11.5 76v469q0 19 -8 39.5t-20 34.5q-3 3 -6 5.5t-6 4.5l-2 2h139z" />
    <glyph glyph-name="V" unicode="V" horiz-adv-x="582" 
d="M582 751q-19 -15 -33.5 -34t-22.5 -42l-231 -654l-239 654q-17 45 -56 76h100q-7 -14 -7 -31q0 -27 10 -55l205 -565l205 565q5 11 8 23.5t3 26.5q0 8 -1.5 17.5t-6.5 18.5h66z" />
    <glyph glyph-name="W" unicode="W" horiz-adv-x="882" 
d="M882 751q-19 -15 -33.5 -34t-22.5 -42l-231 -654l-153 416l-147 -416l-240 654q-17 46 -55 76h100q-5 -8 -6.5 -15.5t-1.5 -15.5q0 -14 3 -28t8 -27l205 -565l128 354l-81 221q-8 22 -22.5 41.5t-32.5 34.5h100q-5 -8 -6.5 -15.5t-1.5 -15.5q0 -28 11 -55l55 -152l55 152
q4 11 7 23.5t3 26.5q0 8 -1 17.5t-6 18.5h66q-19 -15 -33.5 -34t-22.5 -42l-63 -178l144 -397l205 565q5 11 8 23.5t3 26.5q0 8 -1 17.5t-6 18.5h66z" />
    <glyph glyph-name="X" unicode="X" horiz-adv-x="576" 
d="M484 84q14 -23 38 -48t50 -36h-92q7 10 7 24q0 16 -6 33t-14 30l-162 250l-3 -5q-27 -48 -54 -94t-53 -93q-4 -6 -11 -18t-15 -26t-14.5 -26t-8.5 -18q-6 -15 -6 -31q0 -6 1 -12t6 -11q1 -1 1 -1.5t1 -1.5h-6h-64h-65q11 6 24 15.5t25 21t22 23.5t16 23l173 301l-183 282
q-18 29 -40 49.5t-51 34.5h90q-5 -5 -6.5 -11t-1.5 -12q0 -17 9 -34.5t17 -30.5l172 -269l155 269q6 11 11.5 27.5t5.5 29.5q0 8 -2 16t-7 15h133q-27 -13 -47 -36.5t-34 -47.5l-183 -319z" />
    <glyph glyph-name="Y" unicode="Y" horiz-adv-x="580" 
d="M580 750q-30 -13 -52 -35t-39 -50l-181 -279v-301q0 -23 7 -46.5t28 -37.5l1 -1h-136q19 15 30.5 38t11.5 47v302l-162 279q-14 26 -38 48t-50 36h137q-10 -7 -10 -24q0 -16 7 -34t14 -31l154 -267l173 268q8 13 14.5 30t6.5 33t-8 25h92z" />
    <glyph glyph-name="Z" unicode="Z" horiz-adv-x="431" 
d="M340 10q30 0 52 17t39 39l-8 -66h-415q25 12 41 35.5t25 47.5l212 579q5 11 7.5 26t2.5 27q0 5 -1 11.5t-4 11.5l-1 2h-192q-31 0 -55 -17t-43 -39l14 66h407q-24 -15 -43 -36t-30 -48l-213 -580q-3 -8 -4.5 -21t-1.5 -21t1.5 -16.5t6.5 -16.5l1 -1h202z" />
    <glyph glyph-name="bracketleft" unicode="[" horiz-adv-x="260" 
d="M143 724q-16 -7 -28 -23.5t-20.5 -39t-14 -49t-8.5 -53.5t-4.5 -54t-2 -51.5t-0.5 -45v-34.5q0 -28 -0.5 -59t1.5 -63t4.5 -63t8.5 -58q2 -12 5.5 -26.5t9 -28.5t14 -26t20.5 -18q15 -8 32.5 -12t34.5 -6q16 -2 32.5 -2t32.5 -2v-7q-29 0 -57.5 1t-56.5 6q-24 4 -44 13
t-37 26q-24 24 -37 65.5t-19 88.5t-7.5 93t-1.5 79q0 34 1.5 80t8.5 92.5t20.5 87.5t38.5 66q33 33 82 40q27 4 54 5t55 1v-8h-28.5t-28.5 -2q-32 -3 -60 -13z" />
    <glyph glyph-name="backslash" unicode="\" horiz-adv-x="313" 
d="M215 -4q9 8 13.5 20t4.5 24q0 23 -6 42l-169 573q-7 24 -21 48t-37 36h95q-11 -10 -15 -25.5t-4 -27.5q0 -8 1 -16.5t3 -16.5l168 -574q8 -24 25 -47t39 -35l1 -1h-98z" />
    <glyph glyph-name="bracketright" unicode="]" horiz-adv-x="260" 
d="M191 701q25 -25 39 -66t20.5 -87.5t8 -92.5t1.5 -80q0 -33 -1.5 -79t-7.5 -93t-19 -88.5t-37 -65.5q-17 -17 -37 -26t-44 -13q-28 -5 -56.5 -6t-57.5 -1v7q16 2 32 2t33 2t34.5 6t32.5 12q12 6 20.5 18t14 26t9 28.5t5.5 26.5q6 27 8.5 58t4.5 63t1.5 63t-0.5 59v34.5
t-0.5 45t-2 51.5t-4.5 54t-8.5 53.5t-14 49t-20.5 39t-29 23.5q-14 5 -29 8t-30 5q-14 2 -28.5 2h-28.5v8q27 0 54.5 -1t54.5 -5q25 -4 45 -13.5t37 -26.5z" />
    <glyph glyph-name="asciicircum" unicode="^" horiz-adv-x="282" 
d="M282 446h-20l-109 281l-99 -281h-54l110 304h54z" />
    <glyph glyph-name="underscore" unicode="_" horiz-adv-x="352" 
d="M352 38v-46h-352v46h352z" />
    <glyph glyph-name="grave" unicode="`" horiz-adv-x="111" 
d="M111 644h-11l-100 106h80z" />
    <glyph glyph-name="a" unicode="a" horiz-adv-x="583" 
d="M482 0q8 13 8 32q0 14 -3 27t-8 26l-143 391h-133l-134 -391q-14 -38 -10.5 -59t11.5 -26h-70q9 7 16.5 13t13.5 14t12.5 19.5t13.5 29.5l137 400l4 9l90 265l240 -674q7 -20 22 -41t34 -35h-101zM333 485l-66 180l-61 -180h127z" />
    <glyph glyph-name="b" unicode="b" horiz-adv-x="534" 
d="M286 500q51 -9 96 -26.5t79 -46t53.5 -70t19.5 -98.5q0 -70 -34 -128q-23 -39 -58.5 -64t-77.5 -39.5t-87.5 -19.5t-87.5 -5h-189q19 14 30.5 39t11.5 46v580q0 20 -11.5 45.5t-29.5 39.5h170q35 0 78 -3.5t81 -16.5t63.5 -39.5t25.5 -71.5q0 -28 -11.5 -47.5t-30 -33
t-42 -21.5t-48.5 -12l-24 -3zM100 512l77 -1q19 0 42 2.5t45.5 8.5t42.5 16t34 25q12 13 17 28t5 32q0 41 -18 65.5t-45.5 37.5t-60.5 17t-64 4h-48l-1 -1q-17 -15 -21.5 -37t-4.5 -42v-155zM157 10q63 0 120 11.5t99.5 40t67.5 76.5t25 121q0 61 -19.5 112.5t-71.5 86.5
q-13 9 -31.5 17t-38 14t-38.5 9.5t-35 3.5q-33 1 -66 1.5t-65 0.5h-4v-414q0 -20 5 -42t21 -37l1 -1h30z" />
    <glyph glyph-name="c" unicode="c" horiz-adv-x="668" 
d="M362 11q55 0 95.5 7t74 23.5t63 44t62.5 67.5l1 -16q-31 -39 -63 -64.5t-67 -41.5t-76 -22.5t-90 -6.5q-76 0 -142.5 30t-115 81t-76.5 118.5t-28 143.5t28 144t77 119t115 80.5t142 29.5q83 0 157 -27.5t130 -90.5q9 -11 19 -17l-85 -36q1 3 1 11q0 21 -8.5 39.5
t-21.5 34.5t-29.5 28.5t-32.5 21.5q-30 17 -63 23t-66 6q-44 0 -82.5 -14.5t-71.5 -40t-59 -58.5t-44 -71q-20 -43 -30 -88.5t-10 -93.5q0 -47 10 -92t30 -88q18 -38 44 -71.5t58.5 -58.5t71 -39.5t82.5 -14.5z" />
    <glyph glyph-name="d" unicode="d" horiz-adv-x="534" 
d="M500 564q17 -42 25.5 -85.5t8.5 -88.5q0 -48 -7.5 -96.5t-24.5 -92.5t-45 -82.5t-69 -67.5q-44 -30 -96 -41.5t-105 -11.5q-47 0 -93.5 0.5t-93.5 1.5q20 14 30.5 37.5t10.5 47.5v580q0 24 -10.5 47.5t-30.5 37.5h155q54 0 106 -9.5t97.5 -31t82.5 -57t59 -88.5zM157 7
q87 0 147 31t96.5 83.5t52.5 122.5t16 147q0 76 -15.5 140.5t-50.5 111.5t-92 73.5t-141 26.5h-21t-21 -1h-2l-1 -1q-16 -15 -20.5 -36t-4.5 -41v-577q0 -20 4.5 -42t21.5 -37l1 -1h30z" />
    <glyph glyph-name="e" unicode="e" horiz-adv-x="481" 
d="M458 54q0 3 2 7l21 -61h-480q18 15 29.5 39t11.5 47v579q0 17 -8.5 39.5t-20.5 34.5q-3 4 -11 10l-2 2h481l-21 -58q-5 22 -21 36.5t-41 14.5h-273l-1 -1q-15 -14 -19.5 -34.5t-4.5 -39.5v-165h164q27 0 47 11.5t34 31.5v-93q-13 19 -35.5 30.5t-45.5 11.5h-164l1 -411
q0 -20 4.5 -40t18.5 -35l1 -1h274q45 0 59 45z" />
    <glyph glyph-name="f" unicode="f" horiz-adv-x="480" 
d="M480 750l-23 -62q-5 23 -17.5 39.5t-43.5 16.5h-272l-1 -1q-14 -16 -19 -35.5t-5 -39.5v-164h163q24 0 45.5 11.5t35.5 30.5v-91q-14 20 -35.5 30.5t-45.5 10.5h-163v-410q0 -20 7.5 -46t26.5 -40h-133q19 15 30 38t11 47v579q0 23 -11.5 47t-29.5 39h480z" />
    <glyph glyph-name="g" unicode="g" horiz-adv-x="698" 
d="M698 397q0 -1 -1 -1q-20 -14 -27 -38t-7 -47v-167h-1q0 -1 -0.5 -1t-0.5 -1q-33 -38 -68 -67q-50 -43 -109 -56.5t-122 -13.5q-76 0 -142.5 29.5t-115 80.5t-76.5 119t-28 144t28 144t76.5 119t115 80.5t142.5 29.5q82 0 156.5 -27.5t129.5 -90.5l6 -6l6 -6q1 -1 7 -5
l-85 -36q1 4 1 11q0 21 -8.5 39.5t-22 34.5t-29.5 28.5t-32 21.5q-30 17 -63 23.5t-66 6.5q-44 0 -82.5 -15t-71 -40t-58.5 -58.5t-45 -71.5q-21 -43 -30.5 -88.5t-9.5 -93.5q0 -47 10 -92.5t30 -87.5q19 -37 45 -71t58.5 -59.5t71 -40.5t82.5 -15q67 0 130 17.5t111 69.5
l1 1v211q0 22 -10.5 47t-29.5 39h134z" />
    <glyph glyph-name="h" unicode="h" horiz-adv-x="554" 
d="M453 0q14 16 22.5 37t8.5 43v226h-407v-224q0 -20 5 -42.5t19 -39.5h-101q14 16 23 37t9 43v591q0 22 -9 42.5t-23 37.5h101q-14 -17 -19 -40t-5 -41l1 -355h407l-1 356q0 22 -8.5 42.5t-22.5 37.5h100q-14 -17 -19 -40t-5 -41v-588q0 -20 5.5 -42.5t19.5 -39.5h-101z
" />
    <glyph glyph-name="i" unicode="i" horiz-adv-x="136" 
d="M0 0q41 32 41 85v580q0 21 -10.5 46t-29.5 39h135l-1 -1q-22 -14 -28.5 -38t-6.5 -47v-577q0 -23 6.5 -47.5t28.5 -38.5l1 -1h-136z" />
    <glyph glyph-name="j" unicode="j" horiz-adv-x="145" 
d="M145 750l-1 -1q-21 -13 -28 -38t-7 -47v-624q0 -36 -15.5 -61t-50.5 -36q-22 -8 -43 -8v6q18 1 28 12t15 26t6.5 31.5t1.5 28.5v626q0 25 -11 47.5t-30 37.5h135z" />
    <glyph glyph-name="k" unicode="k" horiz-adv-x="517" 
d="M382 0q6 8 7.5 17.5t1.5 16.5q0 13 -4.5 27.5t-10.5 25.5l-176 320l-100 -141v-179q0 -21 7.5 -47t27.5 -40h-135q19 15 30.5 38.5t11.5 46.5v580q0 24 -11.5 47t-30.5 38h134q-20 -13 -27 -39t-7 -47v-383l275 382q10 14 17.5 31.5t7.5 36.5q0 7 -3 14q-2 4 -2 5h101
q-31 -13 -57.5 -31.5t-46.5 -45.5l-159 -220l202 -368q13 -23 29.5 -43.5t39.5 -34.5q3 -2 6 -3.5l7 -3.5h-135z" />
    <glyph glyph-name="l" unicode="l" horiz-adv-x="481" 
d="M0 0q20 15 31 37.5t11 47.5v580q0 25 -11 47.5t-31 37.5h137q-1 0 -1 -0.5t-1 -0.5q-21 -16 -28 -39t-7 -47v-578q0 -19 5 -39t19 -35l1 -1h272q23 0 38 12t22 33q1 2 1 4t1 4l22 -63h-481z" />
    <glyph glyph-name="m" unicode="m" horiz-adv-x="743" 
d="M608 0q20 14 30.5 38t10.5 47v580q0 6 -1 12.5t-2 11.5l-2 9l-5 -7q-9 -10 -14 -24l-277 -661q-47 111 -93 220t-93 220l-68 159q-8 20 -16 39t-17 38l-6 12l-1 -14q-2 -16 -1.5 -32.5t0.5 -32.5v-138v-390q0 -22 7.5 -48t28.5 -39h-89q19 14 30 38t11 47v580
q0 23 -11 47t-30 38h129q-13 -10 -13 -37q0 -14 4 -26.5t9 -23.5l243 -571l241 571q5 12 9 25t4 27q0 9 -3 18.5t-10 16.5h130l-1 -1q-22 -14 -28 -38t-6 -47v-577q0 -23 6.5 -47.5t27.5 -38.5l1 -1h-135z" />
    <glyph glyph-name="n" unicode="n" horiz-adv-x="463" 
d="M463 768q-14 -17 -18.5 -39t-4.5 -42l-1 -687q-14 26 -38.5 71t-54.5 101t-64.5 118.5t-67.5 123.5l-168 308l-2 -16q-2 -20 -2 -39.5v-39.5q0 -36 -0.5 -72t-0.5 -72v-402q0 -21 5.5 -42.5t19.5 -38.5h-66q31 33 31 80v591q0 46 -31 80h113q-3 -7 -3.5 -13.5t-0.5 -12.5
v-1q8 -15 31 -58t54 -100.5t66.5 -123t68.5 -126t60 -109.5t40 -74v555q0 20 -8 41.5t-22 38.5h64z" />
    <glyph glyph-name="o" unicode="o" 
d="M362 745q77 0 143 -30t114.5 -81t76.5 -119t28 -143q0 -76 -28 -144t-76.5 -119t-114.5 -81t-143 -30q-76 0 -142 30t-115 81t-77 119t-28 144q0 75 28 143t77 119t115 81t142 30zM362 5q44 0 82.5 14.5t71 40t58.5 59t45 71.5q20 42 29.5 87.5t9.5 93.5q0 47 -9.5 92.5
t-29.5 88.5q-19 38 -45 72t-58.5 59.5t-71 40.5t-82.5 15t-82.5 -15t-71 -41t-58.5 -59.5t-44 -71.5q-21 -43 -31 -88.5t-10 -92.5q0 -48 10 -93.5t31 -87.5q18 -37 44 -71t58.5 -59t71 -40t82.5 -15z" />
    <glyph glyph-name="p" unicode="p" horiz-adv-x="535" 
d="M501 622q34 -58 34 -128t-35 -127q-28 -45 -75.5 -70.5t-103 -38t-112.5 -14.5t-104 -1h-4v-157q0 -22 7 -47t28 -38q0 -1 1 -1h-136q19 14 30.5 39t11.5 47v579q0 17 -9 39t-20 35q-3 3 -6 5.5t-6 4.5l-2 2h187q43 0 88.5 -5.5t87.5 -19.5t78 -39.5t60 -64.5zM171 248
q63 0 117.5 11t94.5 39t63 75t23 120q0 72 -28.5 127.5t-94.5 88.5q-50 25 -106.5 29.5t-109.5 4.5h-2l-1 -1q-17 -14 -21.5 -36t-4.5 -42v-415h4q17 -1 33 -1h33z" />
    <glyph glyph-name="q" unicode="q" horiz-adv-x="979" 
d="M499 26q35 -34 75.5 -66.5t95.5 -50t130 -12.5t179 46q-76 -49 -137 -71t-111 -24t-90 12.5t-73.5 38t-62 53t-54.5 57.5q-44 -11 -89 -11q-76 0 -142.5 30t-115 81t-76.5 119t-28 144q0 75 28 143t76.5 119t115 81t142.5 30q77 0 143 -30t114.5 -81t76.5 -119t28 -143
q0 -58 -16.5 -111.5t-46 -98.5t-71 -80t-91.5 -56zM362 5q41 0 80 14q-25 26 -50 47t-52.5 31.5t-59.5 7t-71 -27.5q31 25 59 35q69 26 130 -5q23 -11 44.5 -29.5t42.5 -38.5q44 26 77 65t56 86q21 42 30.5 87.5t9.5 93.5q0 47 -9.5 92.5t-30.5 88.5q-18 38 -44 72
t-58.5 59.5t-71 40.5t-82.5 15t-82.5 -15t-71 -41t-58.5 -59.5t-45 -71.5q-20 -43 -30 -88.5t-10 -92.5q0 -48 9.5 -93.5t30.5 -87.5q19 -37 45 -71t58.5 -59t71 -40t82.5 -15z" />
    <glyph glyph-name="r" unicode="r" horiz-adv-x="533" 
d="M444 86q13 -23 29.5 -43.5t39.5 -34.5q3 -2 6 -3.5t6 -3.5h-134q4 4 6 11q3 12 3 23q0 13 -4.5 27.5t-10.5 25.5l-91 167l-3 -1q-47 -9 -93.5 -11t-94.5 0h-4v-157q0 -23 6.5 -47t28.5 -38q0 -1 1 -1h-135q19 14 29.5 39t10.5 47v579q0 23 -10.5 47.5t-29.5 38.5h185
q42 0 87.5 -5.5t88 -19.5t78.5 -39.5t59 -64.5q35 -59 35 -128q0 -91 -50 -145.5t-134 -80.5l-4 -1zM157 248q38 0 79.5 4.5t80 17.5t71 37t52.5 63q14 29 21 60t7 63q0 72 -29.5 127.5t-95.5 88.5q-49 25 -105 29.5t-110 4.5h-1l-1 -1q-17 -14 -22 -36t-5 -42v-415h4
q14 -1 27 -1h27z" />
    <glyph glyph-name="s" unicode="s" horiz-adv-x="511" 
d="M285 417q43 -12 84 -27t72.5 -39.5t50.5 -61t19 -90.5q0 -13 -3 -27t-7 -27q-13 -42 -42 -72.5t-68 -49.5q-28 -14 -60 -18.5t-64 -4.5q-55 0 -96 18t-70.5 42t-48 49t-29.5 39q-5 6 -10.5 11.5t-12.5 8.5l80 38q-4 -16 -4 -36q0 -44 25 -83q14 -22 32.5 -36.5t40.5 -23
t46 -12t47 -3.5q88 0 132 49.5t44 137.5q0 8 -1 17.5t-3 17.5q-4 18 -17 42.5t-39.5 50.5t-69.5 52t-107 47q-21 7 -44 13.5t-45 15.5t-42 20.5t-35 27.5t-21 35.5t-6 41.5q0 11 2.5 23t5.5 23q5 17 13 31t19 27q31 39 76.5 53.5t94.5 14.5q42 0 72.5 -6.5t56 -21t49 -36.5
t49.5 -54q5 -5 9 -9.5t10 -7.5l-84 -42q3 14 3 29q0 38 -13.5 64.5t-36.5 43.5t-53 25t-62 8q-51 0 -90.5 -26t-62.5 -73q-7 -14 -12.5 -31t-5.5 -34q0 -42 20.5 -68t53.5 -43q17 -9 35.5 -16t38.5 -13t41.5 -12t42.5 -12z" />
    <glyph glyph-name="t" unicode="t" horiz-adv-x="535" 
d="M535 751l-22 -63q-1 2 -1 4t-1 4q-7 21 -21.5 33t-37.5 12h-131l-1 -1q-14 -16 -18.5 -36t-4.5 -40v-578q0 -10 1.5 -22t5.5 -24t10.5 -22.5t16.5 -16.5h-134q20 15 30.5 37.5t10.5 47.5v579q0 8 -2 18.5t-6 21t-9 20t-11 15.5l-1 1h-125q-46 0 -60 -45q-1 -2 -1 -4
t-1 -4l-22 63h535z" />
    <glyph glyph-name="u" unicode="u" horiz-adv-x="548" 
d="M548 751q-23 -14 -30.5 -36.5t-7.5 -50.5v-464q0 -43 -19 -83.5t-53 -66.5q-35 -27 -76 -39t-86 -12t-86 12t-76 38q-33 25 -53 64t-20 81l-1 471q0 22 -10.5 47t-29.5 39h137q-23 -14 -30.5 -37t-7.5 -50v-467q0 -41 11.5 -76.5t34 -61t55.5 -40t76 -14.5q42 0 75 14.5
t55 40t33.5 60.5t11.5 76v469q0 19 -8 39.5t-20 34.5q-3 3 -6 5.5t-6 4.5l-2 2h139z" />
    <glyph glyph-name="v" unicode="v" horiz-adv-x="582" 
d="M582 751q-19 -15 -33.5 -34t-22.5 -42l-231 -654l-239 654q-17 45 -56 76h100q-7 -14 -7 -31q0 -27 10 -55l205 -565l205 565q5 11 8 23.5t3 26.5q0 8 -1.5 17.5t-6.5 18.5h66z" />
    <glyph glyph-name="w" unicode="w" horiz-adv-x="882" 
d="M882 751q-19 -15 -33.5 -34t-22.5 -42l-231 -654l-153 416l-147 -416l-240 654q-17 46 -55 76h100q-5 -8 -6.5 -15.5t-1.5 -15.5q0 -14 3 -28t8 -27l205 -565l128 354l-81 221q-8 22 -22.5 41.5t-32.5 34.5h100q-5 -8 -6.5 -15.5t-1.5 -15.5q0 -28 11 -55l55 -152l55 152
q4 11 7 23.5t3 26.5q0 8 -1 17.5t-6 18.5h66q-19 -15 -33.5 -34t-22.5 -42l-63 -178l144 -397l205 565q5 11 8 23.5t3 26.5q0 8 -1 17.5t-6 18.5h66z" />
    <glyph glyph-name="x" unicode="x" horiz-adv-x="576" 
d="M484 84q14 -23 38 -48t50 -36h-92q7 10 7 24q0 16 -6 33t-14 30l-162 250l-3 -5q-27 -48 -54 -94t-53 -93q-4 -6 -11 -18t-15 -26t-14.5 -26t-8.5 -18q-6 -15 -6 -31q0 -6 1 -12t6 -11q1 -1 1 -1.5t1 -1.5h-6h-64h-65q11 6 24 15.5t25 21t22 23.5t16 23l173 301l-183 282
q-18 29 -40 49.5t-51 34.5h90q-5 -5 -6.5 -11t-1.5 -12q0 -17 9 -34.5t17 -30.5l172 -269l155 269q6 11 11.5 27.5t5.5 29.5q0 8 -2 16t-7 15h133q-27 -13 -47 -36.5t-34 -47.5l-183 -319z" />
    <glyph glyph-name="y" unicode="y" horiz-adv-x="580" 
d="M580 750q-30 -13 -52 -35t-39 -50l-181 -279v-301q0 -23 7 -46.5t28 -37.5l1 -1h-136q19 15 30.5 38t11.5 47v302l-162 279q-14 26 -38 48t-50 36h137q-10 -7 -10 -24q0 -16 7 -34t14 -31l154 -267l173 268q8 13 14.5 30t6.5 33t-8 25h92z" />
    <glyph glyph-name="z" unicode="z" horiz-adv-x="431" 
d="M340 10q30 0 52 17t39 39l-8 -66h-415q25 12 41 35.5t25 47.5l212 579q5 11 7.5 26t2.5 27q0 5 -1 11.5t-4 11.5l-1 2h-192q-31 0 -55 -17t-43 -39l14 66h407q-24 -15 -43 -36t-30 -48l-213 -580q-3 -8 -4.5 -21t-1.5 -21t1.5 -16.5t6.5 -16.5l1 -1h202z" />
    <glyph glyph-name="braceleft" unicode="{" horiz-adv-x="242" 
d="M242 797q-66 -15 -87 -48t-21 -64q0 -11 1.5 -27t6.5 -37q13 -61 13 -87q0 -63 -40 -104q-10 -10 -18 -19t-16 -17t-18 -14.5t-24 -12.5q44 -17 62 -38t30 -44q25 -46 25 -80q0 -27 -15 -102q-3 -14 -4 -27.5t-1 -26.5q0 -37 26 -69t80 -41v-19q-42 6 -70 24.5
t-45.5 43.5t-24.5 55.5t-7 60.5q0 24 12 91q8 35 8 58q0 35 -27 63q-19 19 -36 26q-9 5 -22 8.5t-30 8.5v18q42 6 78 34q36 29 36 79q0 16 -3 29q-5 17 -7 29.5t-4 20.5q-4 16 -5.5 31.5t-1.5 29.5q0 33 9 64t27 55.5t46 42t67 23.5v-18z" />
    <glyph glyph-name="bar" unicode="|" horiz-adv-x="46" 
d="M46 777v-804h-46v804h46z" />
    <glyph glyph-name="braceright" unicode="}" horiz-adv-x="242" 
d="M163 411q38 -28 79 -34v-18q-17 -5 -30 -8.5t-22 -8.5q-17 -7 -36 -26q-28 -28 -28 -63q0 -23 8 -58q13 -65 13 -91q0 -30 -7.5 -60.5t-24.5 -55.5t-45 -43.5t-70 -24.5v19q55 9 79 41q27 33 27 69q0 26 -6 54q-15 75 -15 102q0 32 25 80q6 12 13 23t17.5 21t25 19.5
t36.5 18.5q-14 6 -23.5 12.5t-17.5 14.5t-16 17t-18 19q-41 43 -41 104q0 12 3.5 33.5t9.5 53.5q9 42 9 64q0 31 -21 64t-87 48v18q39 -6 67 -23.5t46 -42t27 -55.5t9 -64q0 -27 -8 -61q-1 -8 -3.5 -20.5t-7.5 -29.5q-3 -13 -3 -29q0 -50 36 -79z" />
    <glyph glyph-name="asciitilde" unicode="~" horiz-adv-x="382" 
d="M0 294q48 55 84 74.5t65 19t54 -13t51.5 -22.5t57 -10.5t70.5 24.5q-34 -37 -58.5 -53t-44 -19t-35.5 3.5t-32.5 16t-35 18.5t-43 10t-57 -9t-76.5 -39z" />
    <glyph glyph-name="exclamdown" unicode="&#xa1;" horiz-adv-x="96" 
d="M56 617l28 -618l-65 1l21 617h16zM96 692q0 -20 -14.5 -34t-34.5 -14q-19 0 -33 14t-14 34t14 34t33 14q20 0 34.5 -14t14.5 -34z" />
    <glyph glyph-name="cent" unicode="&#xa2;" horiz-adv-x="668" 
d="M399 11q45 2 80 11t64.5 25.5t56.5 42.5t57 62l1 -16q-28 -35 -56.5 -59.5t-60 -40t-66.5 -24t-76 -10.5v-56h-37v55q-76 0 -142.5 30t-115 81t-76.5 118.5t-28 143.5t28 144t76.5 119t115 80.5t142.5 29.5v47h37v-48q72 -6 136 -33.5t114 -83.5q9 -11 19 -17l-85 -37
q1 4 1 12q0 21 -8.5 39.5t-21.5 34.5t-29.5 28.5t-32.5 21.5q-22 12 -45.5 18.5t-47.5 8.5v-727zM362 10v0v730q-44 0 -82.5 -14.5t-71 -40t-58.5 -58.5t-44 -71q-20 -43 -30 -88.5t-10 -93.5q0 -47 10 -92.5t30 -87.5q18 -38 44 -71.5t58.5 -58.5t71 -39.5t82.5 -14.5z" />
    <glyph glyph-name="sterling" unicode="&#xa3;" horiz-adv-x="471" 
d="M0 0q102 105 120 160q20 53 20 88q0 14 -2 26.5t-7 23.5h-123v34h109q-14 24 -32 50h-75v35h52q-21 32 -35 67t-14 76q0 28 10 59q20 68 95 105q42 20 107 20q22 0 45.5 -5t43.5 -10q23 -7 45 -16l-23 -17q-18 8 -37 14q-17 5 -36 9.5t-38 4.5q-43 0 -71 -14t-44.5 -36.5
t-23 -49t-6.5 -52.5q0 -47 15 -84t35 -71h166v-35h-146q8 -12 14.5 -24.5t12.5 -25.5h116v-34h-106q5 -20 5 -37q0 -35 -15 -76q-12 -32 -39.5 -70.5t-69.5 -84.5h316q17 0 28 6.5t17 16t9 19.5t4 17v6l29 -95h-471z" />
    <glyph glyph-name="currency" unicode="&#xa4;" horiz-adv-x="435" 
d="M418 203q10 0 13 1l4 1l-79 -70l2 3q1 2 3 7t2 12q0 15 -14 34q-57 -48 -131 -48t-132 47q-12 -16 -12 -29q0 -18 5 -23l1 -3l-80 70l17 -2q21 0 39 17q-54 65 -54 150t54 148q-20 17 -39 17q-9 0 -12 -1l-5 -1l79 68q-5 -5 -5 -23q0 -12 11 -29q58 47 133 47
q74 0 132 -47q13 16 13 32q0 8 -2 13t-3 7l-2 2l79 -70l-16 2q-21 0 -38 -17q52 -62 52 -148q0 -85 -53 -149q11 -10 20.5 -14t17.5 -4zM340 218q50 64 50 151q0 88 -50 152q-26 31 -56.5 48.5t-65.5 17.5q-36 0 -66 -17.5t-56 -48.5q-51 -63 -51 -152q0 -88 51 -151
q26 -31 56 -48.5t66 -17.5q35 0 65.5 17.5t56.5 48.5z" />
    <glyph glyph-name="yen" unicode="&#xa5;" horiz-adv-x="579" 
d="M579 750q-29 -13 -51 -35.5t-39 -49.5l-181 -279v-85h162v-37h-162v-89h162v-37h-162v-53q0 -23 7 -46.5t28 -37.5l1 -1h-136q19 15 30 38t11 47v53h-148v37h148v89h-148v37h148v86l-161 279q-15 26 -38.5 48t-49.5 36h137q-10 -7 -10 -24q0 -16 6.5 -34t14.5 -31
l154 -267l173 268q8 13 14.5 30t6.5 33q0 9 -2 14.5t-6 10.5h91z" />
    <glyph glyph-name="brokenbar" unicode="&#xa6;" horiz-adv-x="46" 
d="M46 750v-292h-46v292h46zM0 292h46v-292h-46v292z" />
    <glyph glyph-name="section" unicode="&#xa7;" horiz-adv-x="511" 
d="M501 144q-1 -6 -5 -13q15 -34 15 -81q0 -13 -3 -27t-7 -27q-13 -42 -42 -72.5t-68 -49.5q-29 -14 -60.5 -18.5t-63.5 -4.5q-55 0 -96 18t-70.5 42t-48 49t-29.5 39q-5 6 -10.5 11.5t-12.5 8.5l79 38q-2 -9 -3 -18t-1 -18q0 -44 25 -83q14 -22 33 -36.5t41 -23t46 -12
t47 -3.5q88 0 132 49.5t44 137.5v6q-1 13 -5 29q-1 12 -9 27q-8 19 -24 40.5t-42.5 43.5t-65 43t-91.5 38q-21 7 -44 13.5t-45.5 15.5t-42.5 20.5t-35 27.5q-14 16 -20.5 35.5t-6.5 41.5q0 11 3 23.5t6 23.5q2 8 5.5 15.5t7.5 14.5q-12 16 -17 33.5t-5 37.5q0 11 3 23.5
t6 23.5q8 30 31 57q32 40 77.5 54t94.5 14q42 0 72.5 -6.5t56 -21t49 -36.5t49.5 -54q9 -11 19 -17l-84 -42q3 14 3 29q0 38 -13.5 64.5t-36.5 43.5t-53 25t-62 8q-51 0 -90.5 -26t-62.5 -73q-7 -14 -12.5 -31t-5.5 -34q0 -20 6 -37q6 -20 18 -35q9 -12 22 -21.5t28 -17.5
q17 -9 35.5 -16t38.5 -13q41 -12 84 -24t84 -27t72.5 -39.5t50.5 -61t19 -90.5q0 -13 -3 -27t-7 -27zM285 268q44 -12 85 -27.5t73 -40.5q0 8 -1.5 16.5t-3.5 16.5q-4 18 -16.5 42.5t-39.5 50.5t-69.5 52t-106.5 47q-34 11 -73 23t-69 33q-5 -11 -8 -23.5t-3 -25.5
q0 -42 20.5 -68t53.5 -43q17 -9 35.5 -16t38.5 -13q41 -12 84 -24z" />
    <glyph glyph-name="dieresis" unicode="&#xa8;" horiz-adv-x="177" 
d="M33 750q14 0 24 -9.5t10 -23.5t-10 -24t-24 -10t-23.5 10t-9.5 24t9.5 23.5t23.5 9.5zM144 750q14 0 23.5 -9.5t9.5 -23.5t-9.5 -24t-23.5 -10t-24 10t-10 24t10 23.5t24 9.5z" />
    <glyph glyph-name="copyright" unicode="&#xa9;" horiz-adv-x="517" 
d="M359 595v6q0 20 -14 34.5t-29 22.5q-14 8 -29 11t-31 3q-41 0 -71 -25.5t-47 -60.5q-19 -38 -19 -84q0 -45 19 -83q17 -35 47 -60.5t71 -25.5q26 0 44.5 3.5t34 11t29.5 20.5t29 31v-7q-29 -36 -60 -49.5t-77 -13.5q-35 0 -65.5 14t-53 37.5t-35.5 55t-13 66.5t13 66.5
t35.5 55t53 37.5t65.5 14q38 0 72.5 -13t60.5 -42q5 -5 9 -8zM441 685q37 -37 56.5 -84t19.5 -99t-19.5 -99t-56.5 -84t-84 -56.5t-99 -19.5t-99 19.5t-84 56.5t-56 84t-19 99t19 99t56 84t84 56t99 19t99 -19t84 -56zM258 264q49 0 92.5 19t75.5 51t51 75.5t19 92.5t-19 92
t-51 75.5t-75.5 51t-92.5 18.5t-92 -18.5t-75.5 -51t-51 -75.5t-18.5 -92t18.5 -92.5t51 -75.5t75.5 -51t92 -19z" />
    <glyph glyph-name="ordfeminine" unicode="&#xaa;" horiz-adv-x="196" 
d="M162 498q3 5 3 11q0 5 -1 9t-3 9l-27 73h-86l-25 -73q-5 -14 -3.5 -20.5t4.5 -8.5h-24q6 5 10 9t9 17l77 226l81 -226q5 -15 19 -26h-34zM133 603l-43 118l-41 -118h84z" />
    <glyph glyph-name="guillemotleft" unicode="&#xab;" horiz-adv-x="424" 
d="M53 379l190 -108v-31v-21v-2l-243 134v2v52v2l243 134v-2v-21v-31zM424 541v-2v-21v-31l-190 -108l190 -108v-31v-21v-2l-243 134v2v52v2z" />
    <glyph glyph-name="logicalnot" unicode="&#xac;" horiz-adv-x="351" 
d="M351 391v-47v-103h-46v103h-305v47h305h46z" />
    <glyph glyph-name="registered" unicode="&#xae;" horiz-adv-x="517" 
d="M401 557q0 -42 -23 -67.5t-62 -37.5l-2 -1l46 -83q13 -23 32 -36q2 -1 3 -2t3 -2h-62q2 4 2 6q2 6 2 10q0 6 -2.5 13t-4.5 12l-42 77h-2q-21 -5 -43 -5.5t-44 -0.5l-2 1v-73q0 -11 3 -22t13 -18h1h-63q9 7 14 18t5 22v268q0 11 -5 22t-14 18h86q20 0 41 -2.5t40.5 -9
t36.5 -18.5t27 -30q16 -26 16 -59zM227 443q18 0 37 2t37 8t33 17.5t24 29.5q13 25 13 57q0 33 -13.5 58.5t-44.5 41.5q-23 11 -49 13t-50 2h-1v0q-8 -7 -10.5 -17t-2.5 -19v-193h2h25zM442 685q37 -37 56 -84t19 -99t-19 -99t-56 -84t-84 -56.5t-99 -19.5t-99 19.5
t-84 56.5t-56.5 84t-19.5 99t19.5 99t56.5 84t84 56t99 19t99 -19t84 -56zM259 264q49 0 92 19t75.5 51t51 75.5t18.5 92.5t-18.5 92t-51 75.5t-75.5 51t-92 18.5t-92.5 -18.5t-75.5 -51t-51 -75.5t-19 -92t19 -92.5t51 -75.5t75.5 -51t92.5 -19z" />
    <glyph glyph-name="degree" unicode="&#xb0;" horiz-adv-x="222" 
d="M111 748q23 0 43 -9t35 -24t24 -35t9 -43t-9 -43t-24 -35t-35 -23.5t-43 -8.5t-43 8.5t-35 23.5t-24 35t-9 43t9 43t24 35t35 24t43 9zM111 545q19 0 36 7t29.5 19.5t20 29.5t7.5 36t-7.5 36t-20 29.5t-29.5 20t-36 7.5t-36 -7.5t-29.5 -20t-20 -29.5t-7.5 -36t7.5 -36
t20 -29.5t29.5 -19.5t36 -7z" />
    <glyph glyph-name="plusminus" unicode="&#xb1;" horiz-adv-x="304" 
d="M304 415v-19h-127v-151h-54v151h-123v19h123v142h54v-142h127zM203 182h101v-19h-101h-26h-177v19h177h26z" />
    <glyph glyph-name="twosuperior" unicode="&#xb2;" horiz-adv-x="259" 
d="M217 368q27 0 42 21l-13 -49h-246q9 8 18 17l17 17q15 14 29 29l28 30q10 11 20 22.5t19 23.5q21 29 41 64.5t20 74.5q0 43 -25.5 71.5t-69.5 28.5q-32 0 -57 -19t-36 -49h-1q13 50 56 78q14 9 29 12.5t32 3.5q22 0 41.5 -8t34 -21.5t23 -32.5t8.5 -42q0 -37 -16 -69
q-13 -29 -32.5 -55t-42.5 -51q-23 -24 -48 -46.5t-48 -43.5l-8 -7h185z" />
    <glyph glyph-name="threesuperior" unicode="&#xb3;" horiz-adv-x="218" 
d="M209 491q9 -21 9 -44q0 -24 -10.5 -44.5t-27.5 -35.5t-39 -23t-45 -8q-30 0 -55 13q-22 14 -41 32v10q19 -19 40.5 -30t49.5 -11q16 0 32 4.5t27 16.5q8 9 15 19.5t9 23.5q5 20 5 37q0 14 -3.5 29t-11.5 28q-6 8 -14.5 17t-17.5 14q-7 4 -17 6q-9 3 -18.5 4t-18.5 1
q-17 2 -34 0v7h16q47 0 72.5 24.5t25.5 72.5q0 17 -4.5 33.5t-13.5 29t-23 20.5t-34 8q-14 0 -26.5 -3.5t-22.5 -14.5l3 17l4 1h7q11 2 21 4t22 2q20 0 38 -7t32 -19t22.5 -29t8.5 -37q0 -9 -2 -18t-5 -18q-8 -27 -30 -41.5t-49 -21.5l-24 -6l25 -2q18 -1 36 -5.5t33 -15.5
q11 -8 20 -17.5t14 -22.5z" />
    <glyph glyph-name="acute" unicode="&#xb4;" horiz-adv-x="111" 
d="M111 750l-100 -106h-11l31 106h80z" />
    <glyph glyph-name="uni00B5" unicode="&#xb5;" horiz-adv-x="466" 
d="M466 199q-16 -52 -33.5 -73t-34.5 -31q-17 -8 -31.5 -12.5t-28.5 -1.5t-24.5 13.5t-18 24.5t-12.5 30t-8 30q-12 -18 -29.5 -35t-40.5 -34q-24 -18 -50.5 -17.5t-50.5 12t-42.5 30t-25.5 34.5v-286h-36v717h66v-334q0 -83 53 -107q23 -10 41.5 -10t39.5 9q22 9 42 28
q24 20 32 40v374h64v-385q0 -46 23 -71q24 -24 54 -8q11 7 18 22.5t13 40.5h20z" />
    <glyph glyph-name="paragraph" unicode="&#xb6;" horiz-adv-x="399" 
d="M399 750v-41h-58v-878h-43v878h-89v-878h-46v513q-73 5 -118 57q-45 54 -45 142q2 100 51.5 154.5t139.5 52.5h208z" />
    <glyph glyph-name="periodcentered" unicode="&#xb7;" horiz-adv-x="73" 
d="M36 375q16 0 26.5 -10.5t10.5 -26.5q0 -15 -10.5 -25.5t-26.5 -10.5q-15 0 -25.5 10.5t-10.5 25.5q0 16 10.5 26.5t25.5 10.5z" />
    <glyph glyph-name="cedilla" unicode="&#xb8;" horiz-adv-x="144" 
d="M54 -31q10 8 25.5 10t29.5 -4t24.5 -20t10.5 -36q0 -31 -21.5 -52.5t-51.5 -21.5q-45 0 -61 29q-10 17 -10 38l48 12q-13 -7 -13 -27q0 -12 6 -22q8 -14 28 -14q33 0 33 49q0 16 -4.5 25.5t-10.5 15t-13 7.5t-12 2q-11 0 -29 -10l25 62h42z" />
    <glyph glyph-name="onesuperior" unicode="&#xb9;" horiz-adv-x="87" 
d="M3 340q26 9 26 44v268v17q0 7 -1 10v4q0 2 -1 3q-3 8 -12 8q-6 0 -15 -3q19 11 31 21.5t28 31.5h3v-360q0 -35 25 -44h-84z" />
    <glyph glyph-name="ordmasculine" unicode="&#xba;" horiz-adv-x="315" 
d="M292 653q13 -27 18 -55.5t5 -58.5q0 -42 -14 -84q-9 -23 -23 -44.5t-32 -38t-40.5 -26.5t-47.5 -10t-47 9.5t-40.5 25.5t-32.5 37t-23 44q-15 42 -15 87q0 31 5 61t19 57q11 21 26 39.5t35 30.5q17 11 35 17.5t38 6.5t38.5 -7t35.5 -19q20 -14 34.5 -32t25.5 -40z
M261 446q8 23 14.5 47.5t6.5 49.5q0 21 -3.5 44t-11 45.5t-18 43t-25.5 36.5q-28 30 -66 30q-21 0 -37 -9t-30 -25q-26 -32 -42.5 -78t-16.5 -87q0 -42 15.5 -88.5t44.5 -78.5q26 -31 66 -31q20 0 36.5 9.5t29.5 24.5t22 33t15 34z" />
    <glyph glyph-name="guillemotright" unicode="&#xbb;" horiz-adv-x="424" 
d="M424 407v-2v-52v-2l-243 -134v2v21v31l190 108l-190 108v31v21v2zM243 351l-243 -134v2v21v31l190 108l-190 108v31v21v2l243 -134v-2v-52v-2z" />
    <glyph glyph-name="onequarter" unicode="&#xbc;" horiz-adv-x="434" 
d="M87 217q-9 -17 -14 -34q-2 -10 -1.5 -19.5t6.5 -15.5h-78v1q20 10 39 28t30 37l255 458q3 7 5.5 13.5t4.5 13.5q2 9 2 21.5t-6 20.5h75q-21 -10 -37 -29t-26 -38zM63 701q-3 7 -10 7q-5 0 -13 -3q16 9 26 18.5t23 26.5h3v-303q0 -28 21 -37h-71q22 9 22 37v226v14v8
q0 3 -1 3v3zM380 287v-98q0 -8 2 -16.5t10 -14.5q6 -5 14 -6h-75q6 2 10 6q8 6 10 14.5t2 16.5v98h-145l165 203h7v-189h54v-14h-54zM353 450h-6l-119 -149h125v149z" />
    <glyph glyph-name="onehalf" unicode="&#xbd;" horiz-adv-x="488" 
d="M88 217q-5 -8 -8.5 -17t-5.5 -17q-2 -10 -1.5 -19.5t6.5 -15.5h-79l1 1q20 10 39 28t30 37l255 458q3 7 5.5 13.5t4.5 13.5q2 9 2 21.5t-7 20.5h76q-21 -10 -37 -29t-27 -38zM75 701q-3 7 -11 7q-4 0 -12 -3q15 9 25 18.5t24 26.5h3v-303q0 -28 20 -37h-70q22 9 22 37
v226v14v8v2l-1 1v3zM453 175q23 0 35 17l-11 -41h-206q8 8 15 14.5t14 14.5l24 24t24 25q8 10 16 19t16 20q18 25 35 54.5t17 62.5q0 36 -22 60t-58 24q-27 0 -48 -16t-30 -41h-1q11 41 47 65q22 14 52 14q18 0 34.5 -6.5t29 -18.5t19.5 -28t7 -35q0 -16 -3.5 -30t-10.5 -28
q-11 -24 -27 -46t-36 -42q-20 -21 -40.5 -40t-40.5 -36l-7 -6h156z" />
    <glyph glyph-name="threequarters" unicode="&#xbe;" horiz-adv-x="487" 
d="M183 499q0 -20 -8.5 -37t-23 -29.5t-32.5 -19.5t-38 -7q-12 0 -23.5 2.5t-22.5 8.5q-10 5 -18.5 12t-16.5 15v8q16 -16 34.5 -25t41.5 -9q14 0 26.5 3.5t23.5 14.5q7 7 12.5 15.5t7.5 19.5q2 8 3 15.5t1 15.5q0 13 -2.5 25t-10.5 23q-5 8 -12 15t-15 12q-7 4 -14 5
q-8 2 -15.5 2.5t-15.5 1.5h-29v6h14q39 0 60.5 20t21.5 61q0 29 -15 53t-48 24q-11 0 -22 -3.5t-19 -12.5l3 14q2 1 3 1q2 1 5 1q10 2 18 3t19 1q16 0 31 -5.5t27 -15.5t19 -24t7 -31q0 -14 -5 -31q-7 -23 -25.5 -35t-41.5 -18l-20 -5l21 -1q15 -2 30 -5.5t28 -12.5
q9 -7 16.5 -15t12.5 -19q7 -17 7 -37zM135 217q-9 -17 -14 -34q-2 -10 -1.5 -19.5t6.5 -15.5h-78l1 1q20 10 38.5 28t29.5 37l255 458q7 12 10 27q2 9 2 21.5t-6 20.5h75q-21 -10 -37 -29t-26 -38zM433 287v-98q0 -8 2 -16.5t10 -14.5q6 -5 13 -6h-74q6 2 10 6q8 6 9.5 14.5
t1.5 16.5v98h-144l165 203h7v-189h54v-14h-54zM405 450h-5l-119 -149h124v149z" />
    <glyph glyph-name="questiondown" unicode="&#xbf;" horiz-adv-x="464" 
d="M464 135q-13 -3 -23 -17l-2 -2q-45 -55 -93 -86q-47 -31 -133 -31q-66 0 -108 20q-74 36 -95 106q-5 16 -7.5 30t-2.5 25q0 34 8 60t22 46.5t33 36.5t41 31q24 17 49.5 37.5t46.5 49.5t34.5 69.5t13.5 97.5h9q0 -59 -7 -100.5t-20 -71t-31 -50.5t-39 -38
q-18 -15 -35 -30.5t-30 -36t-20.5 -47t-7.5 -62.5q0 -25 6.5 -54t23 -54t45 -41t71.5 -16q37 0 67.5 11t48.5 25q24 20 33 47t9 59q0 19 -4 35zM256 644q-20 0 -34 14t-14 34t14 34t34 14t34.5 -14t14.5 -34t-14.5 -34t-34.5 -14z" />
    <glyph glyph-name="Agrave" unicode="&#xc0;" horiz-adv-x="583" 
d="M482 0q8 13 8 32q0 14 -3 27t-8 26l-143 391h-133l-134 -391q-14 -38 -10.5 -59t11.5 -26h-70q9 7 16.5 13t13.5 14t12.5 19.5t13.5 29.5l137 400l4 9l90 265l240 -674q7 -20 22 -41t34 -35h-101zM333 485l-66 180l-61 -180h127zM279 807h-11l-100 106h80z" />
    <glyph glyph-name="Aacute" unicode="&#xc1;" horiz-adv-x="583" 
d="M482 0q8 13 8 32q0 14 -3 27t-8 26l-143 391h-133l-134 -391q-14 -38 -10.5 -59t11.5 -26h-70q9 7 16.5 13t13.5 14t12.5 19.5t13.5 29.5l137 400l4 9l90 265l240 -674q7 -20 22 -41t34 -35h-101zM333 485l-66 180l-61 -180h127zM409 912l-100 -106h-11l31 106h80z" />
    <glyph glyph-name="Acircumflex" unicode="&#xc2;" horiz-adv-x="583" 
d="M482 0q8 13 8 32q0 14 -3 27t-8 26l-143 391h-133l-134 -391q-14 -38 -10.5 -59t11.5 -26h-70q9 7 16.5 13t13.5 14t12.5 19.5t13.5 29.5l137 400l4 9l90 265l240 -674q7 -20 22 -41t34 -35h-101zM333 485l-66 180l-61 -180h127zM372 799h-20l-61 36l-60 -36h-21l76 97h8
z" />
    <glyph glyph-name="Atilde" unicode="&#xc3;" horiz-adv-x="583" 
d="M482 0q8 13 8 32q0 14 -3 27t-8 26l-143 391h-133l-134 -391q-14 -38 -10.5 -59t11.5 -26h-70q9 7 16.5 13t13.5 14t12.5 19.5t13.5 29.5l137 400l4 9l90 265l240 -674q7 -20 22 -41t34 -35h-101zM333 485l-66 180l-61 -180h127zM186 813q15 28 31.5 38t34 9.5t36 -7
t37 -12.5t37 -7.5t36.5 9.5q-22 -31 -38.5 -40.5t-31.5 -7t-29 12t-30.5 16.5t-36.5 6.5t-46 -17.5z" />
    <glyph glyph-name="Adieresis" unicode="&#xc4;" horiz-adv-x="583" 
d="M482 0q8 13 8 32q0 14 -3 27t-8 26l-143 391h-133l-134 -391q-14 -38 -10.5 -59t11.5 -26h-70q9 7 16.5 13t13.5 14t12.5 19.5t13.5 29.5l137 400l4 9l90 265l240 -674q7 -20 22 -41t34 -35h-101zM333 485l-66 180l-61 -180h127zM231 866q14 0 24 -9.5t10 -23.5t-10 -24
t-24 -10t-23.5 10t-9.5 24t9.5 23.5t23.5 9.5zM342 866q14 0 23.5 -9.5t9.5 -23.5t-9.5 -24t-23.5 -10t-24 10t-10 24t10 23.5t24 9.5z" />
    <glyph glyph-name="Aring" unicode="&#xc5;" horiz-adv-x="583" 
d="M482 0q8 13 8 32q0 14 -3 27t-8 26l-143 391h-133l-134 -391q-14 -38 -10.5 -59t11.5 -26h-70q9 7 16.5 13t13.5 14t12.5 19.5t13.5 29.5l137 400l4 9l90 265l240 -674q7 -20 22 -41t34 -35h-101zM333 485l-66 180l-61 -180h127zM289 929q28 0 48 -19.5t20 -48.5
q0 -28 -20 -47.5t-48 -19.5t-48 19.5t-20 47.5q0 29 20 48.5t48 19.5zM289 818q18 0 31 12.5t13 30.5t-13 31t-31 13t-31 -13t-13 -31t13 -30.5t31 -12.5z" />
    <glyph glyph-name="AE" unicode="&#xc6;" horiz-adv-x="745" 
d="M722 53q0 2 0.5 3.5t0.5 3.5l22 -61h-481q19 15 30.5 39t11.5 47v219h-161l-75 -219q-14 -38 -10.5 -59t11.5 -26h-71q9 7 16.5 13t14 14t13 19.5t13.5 29.5l231 674h457l-22 -58q-5 22 -21 37t-40 15h-273l-1 -1q-15 -15 -19.5 -35.5t-4.5 -38.5v-135v-131v-9h3h47h114
q26 0 46 11.5t35 31.5v-93q-14 19 -36 31t-45 12h-111h-47h-6v-74v-9l1 -220q0 -19 4.5 -39.5t18.5 -35.5l1 -1h98h86h89q46 0 60 45zM306 562l-38 103l-120 -352h158v249z" />
    <glyph glyph-name="Ccedilla" unicode="&#xc7;" horiz-adv-x="668" 
d="M380 12q50 1 87.5 9t69 25t60.5 43.5t60 64.5l1 -16q-30 -37 -61 -62.5t-65 -41.5t-72.5 -23t-85.5 -8l-35 -34q10 8 25.5 10t29.5 -4t24.5 -20t10.5 -36q0 -31 -21.5 -52.5t-52.5 -21.5q-44 0 -60 29q-11 19 -11 38l48 12q-12 -8 -12 -27q0 -12 6 -22q8 -14 27 -14
q34 0 34 49q0 16 -4.5 25.5t-11 15t-13 7.5t-11.5 2q-12 0 -29 -10l21 53q-72 5 -134 36.5t-107.5 82t-71.5 116t-26 138.5q0 76 28 144t76.5 119t115 80.5t142.5 29.5q82 0 156.5 -27.5t129.5 -90.5q5 -5 9.5 -9t10.5 -8l-85 -37q0 3 0.5 6t0.5 6q0 21 -8.5 39.5
t-21.5 34.5t-29.5 28.5t-33.5 21.5q-29 17 -62.5 23t-66.5 6q-43 0 -82 -14.5t-71.5 -40t-58.5 -59t-44 -71.5q-21 -42 -30.5 -87.5t-9.5 -93.5q0 -47 10 -92.5t30 -87.5q18 -37 42.5 -69.5t55.5 -57.5t68.5 -40t79.5 -17h28z" />
    <glyph glyph-name="Egrave" unicode="&#xc8;" horiz-adv-x="481" 
d="M458 54q0 3 2 7l21 -61h-480q18 15 29.5 39t11.5 47v579q0 17 -8.5 39.5t-20.5 34.5q-3 4 -11 10l-2 2h481l-21 -58q-5 22 -21 36.5t-41 14.5h-273l-1 -1q-15 -14 -19.5 -34.5t-4.5 -39.5v-165h164q27 0 47 11.5t34 31.5v-93q-13 19 -35.5 30.5t-45.5 11.5h-164l1 -411
q0 -20 4.5 -40t18.5 -35l1 -1h274q45 0 59 45zM267 811h-11l-100 106h80z" />
    <glyph glyph-name="Eacute" unicode="&#xc9;" horiz-adv-x="481" 
d="M458 54q0 3 2 7l21 -61h-480q18 15 29.5 39t11.5 47v579q0 17 -8.5 39.5t-20.5 34.5q-3 4 -11 10l-2 2h481l-21 -58q-5 22 -21 36.5t-41 14.5h-273l-1 -1q-15 -14 -19.5 -34.5t-4.5 -39.5v-165h164q27 0 47 11.5t34 31.5v-93q-13 19 -35.5 30.5t-45.5 11.5h-164l1 -411
q0 -20 4.5 -40t18.5 -35l1 -1h274q45 0 59 45zM366 918l-100 -106h-11l31 106h80z" />
    <glyph glyph-name="Ecircumflex" unicode="&#xca;" horiz-adv-x="481" 
d="M458 54q0 3 2 7l21 -61h-480q18 15 29.5 39t11.5 47v579q0 17 -8.5 39.5t-20.5 34.5q-3 4 -11 10l-2 2h481l-21 -58q-5 22 -21 36.5t-41 14.5h-273l-1 -1q-15 -14 -19.5 -34.5t-4.5 -39.5v-165h164q27 0 47 11.5t34 31.5v-93q-13 19 -35.5 30.5t-45.5 11.5h-164l1 -411
q0 -20 4.5 -40t18.5 -35l1 -1h274q45 0 59 45zM339 813h-20l-61 36l-60 -36h-21l76 97h8z" />
    <glyph glyph-name="Edieresis" unicode="&#xcb;" horiz-adv-x="481" 
d="M458 54q0 3 2 7l21 -61h-480q18 15 29.5 39t11.5 47v579q0 17 -8.5 39.5t-20.5 34.5q-3 4 -11 10l-2 2h481l-21 -58q-5 22 -21 36.5t-41 14.5h-273l-1 -1q-15 -14 -19.5 -34.5t-4.5 -39.5v-165h164q27 0 47 11.5t34 31.5v-93q-13 19 -35.5 30.5t-45.5 11.5h-164l1 -411
q0 -20 4.5 -40t18.5 -35l1 -1h274q45 0 59 45zM207 877q14 0 24 -9.5t10 -23.5t-10 -24t-24 -10t-23.5 10t-9.5 24t9.5 23.5t23.5 9.5zM318 877q14 0 23.5 -9.5t9.5 -23.5t-9.5 -24t-23.5 -10t-24 10t-10 24t10 23.5t24 9.5z" />
    <glyph glyph-name="Igrave" unicode="&#xcc;" horiz-adv-x="176" 
d="M40 0q41 32 41 85v580q0 21 -10.5 46t-29.5 39h135l-1 -1q-22 -14 -28.5 -38t-6.5 -47v-577q0 -23 6.5 -47.5t28.5 -38.5l1 -1h-136zM111 811h-11l-100 106h80z" />
    <glyph glyph-name="Iacute" unicode="&#xcd;" horiz-adv-x="180" 
d="M0 0q41 32 41 85v580q0 21 -10.5 46t-29.5 39h135l-1 -1q-22 -14 -28.5 -38t-6.5 -47v-577q0 -23 6.5 -47.5t28.5 -38.5l1 -1h-136zM180 917l-100 -106h-11l31 106h80z" />
    <glyph glyph-name="Icircumflex" unicode="&#xce;" horiz-adv-x="162" 
d="M15 0q41 32 41 85v580q0 21 -10.5 46t-29.5 39h135l-1 -1q-22 -14 -28.5 -38t-6.5 -47v-577q0 -23 6.5 -47.5t28.5 -38.5l1 -1h-136zM162 807h-20l-61 36l-60 -36h-21l76 97h8z" />
    <glyph glyph-name="Idieresis" unicode="&#xcf;" horiz-adv-x="177" 
d="M20 0q41 32 41 85v580q0 21 -10.5 46t-29.5 39h135l-1 -1q-22 -14 -28.5 -38t-6.5 -47v-577q0 -23 6.5 -47.5t28.5 -38.5l1 -1h-136zM33 870q14 0 24 -9.5t10 -23.5t-10 -24t-24 -10t-23.5 10t-9.5 24t9.5 23.5t23.5 9.5zM144 870q14 0 23.5 -9.5t9.5 -23.5t-9.5 -24
t-23.5 -10t-24 10t-10 24t10 23.5t24 9.5z" />
    <glyph glyph-name="Eth" unicode="&#xd0;" horiz-adv-x="595" 
d="M560 564q18 -42 26.5 -85.5t8.5 -88.5q0 -48 -7.5 -96.5t-24.5 -92.5t-45 -82.5t-69 -67.5q-44 -30 -96 -41.5t-105 -11.5q-48 0 -94 0.5t-93 1.5q20 14 30.5 37.5t10.5 47.5v369h-102v27h102v184q0 24 -10.5 47t-30.5 38h155q54 0 106 -9.5t97.5 -31t82 -57t58.5 -88.5z
M218 7q87 0 147 31t96.5 83.5t52.5 122.5t16 147q0 76 -15.5 140.5t-50.5 111.5t-92 73.5t-141 26.5q-11 0 -21.5 -0.5t-21.5 -0.5h-1l-1 -1q-16 -15 -21 -36t-5 -41v-183h107v-27h-107v-367q0 -20 5 -42t22 -37l1 -1h30z" />
    <glyph glyph-name="Ntilde" unicode="&#xd1;" horiz-adv-x="463" 
d="M463 768q-14 -17 -18.5 -39t-4.5 -42l-1 -687q-14 26 -38.5 71t-54.5 101t-64.5 118.5t-67.5 123.5l-168 308l-2 -16q-2 -20 -2 -39.5v-39.5q0 -36 -0.5 -72t-0.5 -72v-402q0 -21 5.5 -42.5t19.5 -38.5h-66q31 33 31 80v591q0 46 -31 80h113q-3 -7 -3.5 -13.5t-0.5 -12.5
v-1q8 -15 31 -58t54 -100.5t66.5 -123t68.5 -126t60 -109.5t40 -74v555q0 20 -8 41.5t-22 38.5h64zM125 833q15 28 31.5 38t34 9.5t36 -7t37 -12.5t37 -7.5t36.5 9.5q-22 -31 -38.5 -40.5t-31.5 -7t-29 12t-30.5 16.5t-36.5 6.5t-46 -17.5z" />
    <glyph glyph-name="Ograve" unicode="&#xd2;" 
d="M362 745q77 0 143 -30t114.5 -81t76.5 -119t28 -143q0 -76 -28 -144t-76.5 -119t-114.5 -81t-143 -30q-76 0 -142 30t-115 81t-77 119t-28 144q0 75 28 143t77 119t115 81t142 30zM362 5q44 0 82.5 14.5t71 40t58.5 59t45 71.5q20 42 29.5 87.5t9.5 93.5q0 47 -9.5 92.5
t-29.5 88.5q-19 38 -45 72t-58.5 59.5t-71 40.5t-82.5 15t-82.5 -15t-71 -41t-58.5 -59.5t-44 -71.5q-21 -43 -31 -88.5t-10 -92.5q0 -48 10 -93.5t31 -87.5q18 -37 44 -71t58.5 -59t71 -40t82.5 -15zM358 811h-11l-100 106h80z" />
    <glyph glyph-name="Oacute" unicode="&#xd3;" 
d="M362 745q77 0 143 -30t114.5 -81t76.5 -119t28 -143q0 -76 -28 -144t-76.5 -119t-114.5 -81t-143 -30q-76 0 -142 30t-115 81t-77 119t-28 144q0 75 28 143t77 119t115 81t142 30zM362 5q44 0 82.5 14.5t71 40t58.5 59t45 71.5q20 42 29.5 87.5t9.5 93.5q0 47 -9.5 92.5
t-29.5 88.5q-19 38 -45 72t-58.5 59.5t-71 40.5t-82.5 15t-82.5 -15t-71 -41t-58.5 -59.5t-44 -71.5q-21 -43 -31 -88.5t-10 -92.5q0 -48 10 -93.5t31 -87.5q18 -37 44 -71t58.5 -59t71 -40t82.5 -15zM476 917l-100 -106h-11l31 106h80z" />
    <glyph glyph-name="Ocircumflex" unicode="&#xd4;" 
d="M362 745q77 0 143 -30t114.5 -81t76.5 -119t28 -143q0 -76 -28 -144t-76.5 -119t-114.5 -81t-143 -30q-76 0 -142 30t-115 81t-77 119t-28 144q0 75 28 143t77 119t115 81t142 30zM362 5q44 0 82.5 14.5t71 40t58.5 59t45 71.5q20 42 29.5 87.5t9.5 93.5q0 47 -9.5 92.5
t-29.5 88.5q-19 38 -45 72t-58.5 59.5t-71 40.5t-82.5 15t-82.5 -15t-71 -41t-58.5 -59.5t-44 -71.5q-21 -43 -31 -88.5t-10 -92.5q0 -48 10 -93.5t31 -87.5q18 -37 44 -71t58.5 -59t71 -40t82.5 -15zM441 811h-20l-61 36l-60 -36h-21l76 97h8z" />
    <glyph glyph-name="Otilde" unicode="&#xd5;" 
d="M362 745q77 0 143 -30t114.5 -81t76.5 -119t28 -143q0 -76 -28 -144t-76.5 -119t-114.5 -81t-143 -30q-76 0 -142 30t-115 81t-77 119t-28 144q0 75 28 143t77 119t115 81t142 30zM362 5q44 0 82.5 14.5t71 40t58.5 59t45 71.5q20 42 29.5 87.5t9.5 93.5q0 47 -9.5 92.5
t-29.5 88.5q-19 38 -45 72t-58.5 59.5t-71 40.5t-82.5 15t-82.5 -15t-71 -41t-58.5 -59.5t-44 -71.5q-21 -43 -31 -88.5t-10 -92.5q0 -48 10 -93.5t31 -87.5q18 -37 44 -71t58.5 -59t71 -40t82.5 -15zM258 823q15 28 31.5 38t34 9.5t36 -7t37 -12.5t37 -7.5t36.5 9.5
q-22 -31 -38.5 -40.5t-31.5 -7t-29 12t-30.5 16.5t-36.5 6.5t-46 -17.5z" />
    <glyph glyph-name="Odieresis" unicode="&#xd6;" 
d="M362 745q77 0 143 -30t114.5 -81t76.5 -119t28 -143q0 -76 -28 -144t-76.5 -119t-114.5 -81t-143 -30q-76 0 -142 30t-115 81t-77 119t-28 144q0 75 28 143t77 119t115 81t142 30zM362 5q44 0 82.5 14.5t71 40t58.5 59t45 71.5q20 42 29.5 87.5t9.5 93.5q0 47 -9.5 92.5
t-29.5 88.5q-19 38 -45 72t-58.5 59.5t-71 40.5t-82.5 15t-82.5 -15t-71 -41t-58.5 -59.5t-44 -71.5q-21 -43 -31 -88.5t-10 -92.5q0 -48 10 -93.5t31 -87.5q18 -37 44 -71t58.5 -59t71 -40t82.5 -15zM311 875q14 0 24 -9.5t10 -23.5t-10 -24t-24 -10t-23.5 10t-9.5 24
t9.5 23.5t23.5 9.5zM422 875q14 0 23.5 -9.5t9.5 -23.5t-9.5 -24t-23.5 -10t-24 10t-10 24t10 23.5t24 9.5z" />
    <glyph glyph-name="multiply" unicode="&#xd7;" horiz-adv-x="183" 
d="M130 361l52 -53l-38 -38l-52 53l-54 -54l-38 38l54 54l-54 53l38 38l54 -54l53 54l38 -38z" />
    <glyph glyph-name="Oslash" unicode="&#xd8;" 
d="M607 646q54 -52 85.5 -122.5t31.5 -151.5q0 -76 -28 -144t-77 -119t-115 -81t-142 -30q-62 0 -117 20t-100 55l-66 -82l-29 24l66 83q-54 51 -85 122t-31 152q0 75 28 143t76.5 119t115 81t142.5 30q62 0 116.5 -19.5t99.5 -54.5l65 81l30 -24zM105 190q8 -16 17 -31.5
t20 -29.5l415 515q-38 42 -87 68.5t-108 26.5q-44 0 -82.5 -15t-71 -41t-58.5 -59.5t-45 -71.5q-21 -43 -30.5 -88.5t-9.5 -92.5q0 -48 9.5 -93.5t30.5 -87.5zM362 5q44 0 82.5 14.5t71 40t58.5 59t44 71.5q21 42 30.5 87.5t9.5 93.5q0 47 -10 92.5t-30 88.5q-8 16 -17 31.5
t-20 30.5l-415 -515q38 -42 87 -68t109 -26z" />
    <glyph glyph-name="Ugrave" unicode="&#xd9;" horiz-adv-x="548" 
d="M548 751q-23 -14 -30.5 -36.5t-7.5 -50.5v-464q0 -43 -19 -83.5t-53 -66.5q-35 -27 -76 -39t-86 -12t-86 12t-76 38q-33 25 -53 64t-20 81l-1 471q0 22 -10.5 47t-29.5 39h137q-23 -14 -30.5 -37t-7.5 -50v-467q0 -41 11.5 -76.5t34 -61t55.5 -40t76 -14.5q42 0 75 14.5
t55 40t33.5 60.5t11.5 76v469q0 19 -8 39.5t-20 34.5q-3 3 -6 5.5t-6 4.5l-2 2h139zM291 811h-11l-100 106h80z" />
    <glyph glyph-name="Uacute" unicode="&#xda;" horiz-adv-x="548" 
d="M548 751q-23 -14 -30.5 -36.5t-7.5 -50.5v-464q0 -43 -19 -83.5t-53 -66.5q-35 -27 -76 -39t-86 -12t-86 12t-76 38q-33 25 -53 64t-20 81l-1 471q0 22 -10.5 47t-29.5 39h137q-23 -14 -30.5 -37t-7.5 -50v-467q0 -41 11.5 -76.5t34 -61t55.5 -40t76 -14.5q42 0 75 14.5
t55 40t33.5 60.5t11.5 76v469q0 19 -8 39.5t-20 34.5q-3 3 -6 5.5t-6 4.5l-2 2h139zM396 917l-100 -106h-11l31 106h80z" />
    <glyph glyph-name="Ucircumflex" unicode="&#xdb;" horiz-adv-x="548" 
d="M548 751q-23 -14 -30.5 -36.5t-7.5 -50.5v-464q0 -43 -19 -83.5t-53 -66.5q-35 -27 -76 -39t-86 -12t-86 12t-76 38q-33 25 -53 64t-20 81l-1 471q0 22 -10.5 47t-29.5 39h137q-23 -14 -30.5 -37t-7.5 -50v-467q0 -41 11.5 -76.5t34 -61t55.5 -40t76 -14.5q42 0 75 14.5
t55 40t33.5 60.5t11.5 76v469q0 19 -8 39.5t-20 34.5q-3 3 -6 5.5t-6 4.5l-2 2h139zM361 807h-20l-61 36l-60 -36h-21l76 97h8z" />
    <glyph glyph-name="Udieresis" unicode="&#xdc;" horiz-adv-x="548" 
d="M548 751q-23 -14 -30.5 -36.5t-7.5 -50.5v-464q0 -43 -19 -83.5t-53 -66.5q-35 -27 -76 -39t-86 -12t-86 12t-76 38q-33 25 -53 64t-20 81l-1 471q0 22 -10.5 47t-29.5 39h137q-23 -14 -30.5 -37t-7.5 -50v-467q0 -41 11.5 -76.5t34 -61t55.5 -40t76 -14.5q42 0 75 14.5
t55 40t33.5 60.5t11.5 76v469q0 19 -8 39.5t-20 34.5q-3 3 -6 5.5t-6 4.5l-2 2h139zM220 870q14 0 24 -9.5t10 -23.5t-10 -24t-24 -10t-23.5 10t-9.5 24t9.5 23.5t23.5 9.5zM331 870q14 0 23.5 -9.5t9.5 -23.5t-9.5 -24t-23.5 -10t-24 10t-10 24t10 23.5t24 9.5z" />
    <glyph glyph-name="Yacute" unicode="&#xdd;" horiz-adv-x="580" 
d="M580 750q-30 -13 -52 -35t-39 -50l-181 -279v-301q0 -23 7 -46.5t28 -37.5l1 -1h-136q19 15 30.5 38t11.5 47v302l-162 279q-14 26 -38 48t-50 36h137q-10 -7 -10 -24q0 -16 7 -34t14 -31l154 -267l173 268q8 13 14.5 30t6.5 33t-8 25h92zM420 901l-100 -106h-11l31 106
h80z" />
    <glyph glyph-name="Thorn" unicode="&#xde;" horiz-adv-x="535" 
d="M500 566q35 -59 35 -128q0 -70 -36 -127q-28 -45 -75.5 -70.5t-103 -38t-112.5 -14.5t-104 -1h-4v-101q0 -22 7 -47t28 -38q0 -1 1 -1h-136q19 14 30.5 39t11.5 47v664l58 1v-56h86q43 0 88.5 -5.5t87.5 -19.5t78 -39.5t60 -64.5zM170 191q63 0 117.5 11t95 39t63.5 75.5
t23 120.5q0 72 -29 127.5t-95 88.5q-23 12 -54.5 19t-65 10t-66 4t-59.5 1v-495h4q17 0 33 -0.5t33 -0.5z" />
    <glyph glyph-name="germandbls" unicode="&#xdf;" horiz-adv-x="541" 
d="M295 493q69 -12 116.5 -36t76 -55.5t41 -70t12.5 -80.5q0 -97 -38.5 -156.5t-103 -91.5t-149 -43t-177.5 -11v16q52 2 102 6t94 14.5t81 29.5t63.5 50t41.5 76.5t15 109.5q0 45 -10 84.5t-35.5 71t-69.5 52.5t-111 29l-128 1v-401q0 -46 17 -66q11 -17 26 -20l5 -2h-164
l8 4q20 10 32 41q9 17 10 42v664h66v-28q17 8 39 12t48 4q20 0 37 -0.5t31 -1.5q158 -11 158 -129q0 -28 -12 -48.5t-31 -34t-43 -21.5t-48 -11zM196 504q51 0 100 17q70 25 70 88q0 43 -17 68q-32 43 -93 47q-11 1 -22 1.5t-22 0.5q-30 0 -48 -9t-28.5 -20.5t-14.5 -22.5
t-5 -16v-154h80z" />
    <glyph glyph-name="agrave" unicode="&#xe0;" horiz-adv-x="583" 
d="M482 0q8 13 8 32q0 14 -3 27t-8 26l-143 391h-133l-134 -391q-14 -38 -10.5 -59t11.5 -26h-70q9 7 16.5 13t13.5 14t12.5 19.5t13.5 29.5l137 400l4 9l90 265l240 -674q7 -20 22 -41t34 -35h-101zM333 485l-66 180l-61 -180h127zM279 807h-11l-100 106h80z" />
    <glyph glyph-name="aacute" unicode="&#xe1;" horiz-adv-x="583" 
d="M482 0q8 13 8 32q0 14 -3 27t-8 26l-143 391h-133l-134 -391q-14 -38 -10.5 -59t11.5 -26h-70q9 7 16.5 13t13.5 14t12.5 19.5t13.5 29.5l137 400l4 9l90 265l240 -674q7 -20 22 -41t34 -35h-101zM333 485l-66 180l-61 -180h127zM409 912l-100 -106h-11l31 106h80z" />
    <glyph glyph-name="acircumflex" unicode="&#xe2;" horiz-adv-x="583" 
d="M482 0q8 13 8 32q0 14 -3 27t-8 26l-143 391h-133l-134 -391q-14 -38 -10.5 -59t11.5 -26h-70q9 7 16.5 13t13.5 14t12.5 19.5t13.5 29.5l137 400l4 9l90 265l240 -674q7 -20 22 -41t34 -35h-101zM333 485l-66 180l-61 -180h127zM372 799h-20l-61 36l-60 -36h-21l76 97h8
z" />
    <glyph glyph-name="atilde" unicode="&#xe3;" horiz-adv-x="583" 
d="M482 0q8 13 8 32q0 14 -3 27t-8 26l-143 391h-133l-134 -391q-14 -38 -10.5 -59t11.5 -26h-70q9 7 16.5 13t13.5 14t12.5 19.5t13.5 29.5l137 400l4 9l90 265l240 -674q7 -20 22 -41t34 -35h-101zM333 485l-66 180l-61 -180h127zM186 813q15 28 31.5 38t34 9.5t36 -7
t37 -12.5t37 -7.5t36.5 9.5q-22 -31 -38.5 -40.5t-31.5 -7t-29 12t-30.5 16.5t-36.5 6.5t-46 -17.5z" />
    <glyph glyph-name="adieresis" unicode="&#xe4;" horiz-adv-x="583" 
d="M482 0q8 13 8 32q0 14 -3 27t-8 26l-143 391h-133l-134 -391q-14 -38 -10.5 -59t11.5 -26h-70q9 7 16.5 13t13.5 14t12.5 19.5t13.5 29.5l137 400l4 9l90 265l240 -674q7 -20 22 -41t34 -35h-101zM333 485l-66 180l-61 -180h127zM231 866q14 0 24 -9.5t10 -23.5t-10 -24
t-24 -10t-23.5 10t-9.5 24t9.5 23.5t23.5 9.5zM342 866q14 0 23.5 -9.5t9.5 -23.5t-9.5 -24t-23.5 -10t-24 10t-10 24t10 23.5t24 9.5z" />
    <glyph glyph-name="aring" unicode="&#xe5;" horiz-adv-x="583" 
d="M482 0q8 13 8 32q0 14 -3 27t-8 26l-143 391h-133l-134 -391q-14 -38 -10.5 -59t11.5 -26h-70q9 7 16.5 13t13.5 14t12.5 19.5t13.5 29.5l137 400l4 9l90 265l240 -674q7 -20 22 -41t34 -35h-101zM333 485l-66 180l-61 -180h127zM289 929q28 0 48 -19.5t20 -48.5
q0 -28 -20 -47.5t-48 -19.5t-48 19.5t-20 47.5q0 29 20 48.5t48 19.5zM289 818q18 0 31 12.5t13 30.5t-13 31t-31 13t-31 -13t-13 -31t13 -30.5t31 -12.5z" />
    <glyph glyph-name="ae" unicode="&#xe6;" horiz-adv-x="745" 
d="M722 53q0 2 0.5 3.5t0.5 3.5l22 -61h-481q19 15 30.5 39t11.5 47v219h-161l-75 -219q-14 -38 -10.5 -59t11.5 -26h-71q9 7 16.5 13t14 14t13 19.5t13.5 29.5l231 674h457l-22 -58q-5 22 -21 37t-40 15h-273l-1 -1q-15 -15 -19.5 -35.5t-4.5 -38.5v-135v-131v-9h3h47h114
q26 0 46 11.5t35 31.5v-93q-14 19 -36 31t-45 12h-111h-47h-6v-74v-9l1 -220q0 -19 4.5 -39.5t18.5 -35.5l1 -1h98h86h89q46 0 60 45zM306 562l-38 103l-120 -352h158v249z" />
    <glyph glyph-name="ccedilla" unicode="&#xe7;" horiz-adv-x="668" 
d="M380 12q50 1 87.5 9t69 25t60.5 43.5t60 64.5l1 -16q-30 -37 -61 -62.5t-65 -41.5t-72.5 -23t-85.5 -8l-35 -34q10 8 25.5 10t29.5 -4t24.5 -20t10.5 -36q0 -31 -21.5 -52.5t-52.5 -21.5q-44 0 -60 29q-11 19 -11 38l48 12q-12 -8 -12 -27q0 -12 6 -22q8 -14 27 -14
q34 0 34 49q0 16 -4.5 25.5t-11 15t-13 7.5t-11.5 2q-12 0 -29 -10l21 53q-72 5 -134 36.5t-107.5 82t-71.5 116t-26 138.5q0 76 28 144t76.5 119t115 80.5t142.5 29.5q82 0 156.5 -27.5t129.5 -90.5q5 -5 9.5 -9t10.5 -8l-85 -37q0 3 0.5 6t0.5 6q0 21 -8.5 39.5
t-21.5 34.5t-29.5 28.5t-33.5 21.5q-29 17 -62.5 23t-66.5 6q-43 0 -82 -14.5t-71.5 -40t-58.5 -59t-44 -71.5q-21 -42 -30.5 -87.5t-9.5 -93.5q0 -47 10 -92.5t30 -87.5q18 -37 42.5 -69.5t55.5 -57.5t68.5 -40t79.5 -17h28z" />
    <glyph glyph-name="egrave" unicode="&#xe8;" horiz-adv-x="481" 
d="M458 54q0 3 2 7l21 -61h-480q18 15 29.5 39t11.5 47v579q0 17 -8.5 39.5t-20.5 34.5q-3 4 -11 10l-2 2h481l-21 -58q-5 22 -21 36.5t-41 14.5h-273l-1 -1q-15 -14 -19.5 -34.5t-4.5 -39.5v-165h164q27 0 47 11.5t34 31.5v-93q-13 19 -35.5 30.5t-45.5 11.5h-164l1 -411
q0 -20 4.5 -40t18.5 -35l1 -1h274q45 0 59 45zM267 811h-11l-100 106h80z" />
    <glyph glyph-name="eacute" unicode="&#xe9;" horiz-adv-x="481" 
d="M458 54q0 3 2 7l21 -61h-480q18 15 29.5 39t11.5 47v579q0 17 -8.5 39.5t-20.5 34.5q-3 4 -11 10l-2 2h481l-21 -58q-5 22 -21 36.5t-41 14.5h-273l-1 -1q-15 -14 -19.5 -34.5t-4.5 -39.5v-165h164q27 0 47 11.5t34 31.5v-93q-13 19 -35.5 30.5t-45.5 11.5h-164l1 -411
q0 -20 4.5 -40t18.5 -35l1 -1h274q45 0 59 45zM366 918l-100 -106h-11l31 106h80z" />
    <glyph glyph-name="ecircumflex" unicode="&#xea;" horiz-adv-x="481" 
d="M458 54q0 3 2 7l21 -61h-480q18 15 29.5 39t11.5 47v579q0 17 -8.5 39.5t-20.5 34.5q-3 4 -11 10l-2 2h481l-21 -58q-5 22 -21 36.5t-41 14.5h-273l-1 -1q-15 -14 -19.5 -34.5t-4.5 -39.5v-165h164q27 0 47 11.5t34 31.5v-93q-13 19 -35.5 30.5t-45.5 11.5h-164l1 -411
q0 -20 4.5 -40t18.5 -35l1 -1h274q45 0 59 45zM339 813h-20l-61 36l-60 -36h-21l76 97h8z" />
    <glyph glyph-name="edieresis" unicode="&#xeb;" horiz-adv-x="481" 
d="M458 54q0 3 2 7l21 -61h-480q18 15 29.5 39t11.5 47v579q0 17 -8.5 39.5t-20.5 34.5q-3 4 -11 10l-2 2h481l-21 -58q-5 22 -21 36.5t-41 14.5h-273l-1 -1q-15 -14 -19.5 -34.5t-4.5 -39.5v-165h164q27 0 47 11.5t34 31.5v-93q-13 19 -35.5 30.5t-45.5 11.5h-164l1 -411
q0 -20 4.5 -40t18.5 -35l1 -1h274q45 0 59 45zM207 877q14 0 24 -9.5t10 -23.5t-10 -24t-24 -10t-23.5 10t-9.5 24t9.5 23.5t23.5 9.5zM318 877q14 0 23.5 -9.5t9.5 -23.5t-9.5 -24t-23.5 -10t-24 10t-10 24t10 23.5t24 9.5z" />
    <glyph glyph-name="igrave" unicode="&#xec;" horiz-adv-x="176" 
d="M40 0q41 32 41 85v580q0 21 -10.5 46t-29.5 39h135l-1 -1q-22 -14 -28.5 -38t-6.5 -47v-577q0 -23 6.5 -47.5t28.5 -38.5l1 -1h-136zM111 811h-11l-100 106h80z" />
    <glyph glyph-name="iacute" unicode="&#xed;" horiz-adv-x="180" 
d="M0 0q41 32 41 85v580q0 21 -10.5 46t-29.5 39h135l-1 -1q-22 -14 -28.5 -38t-6.5 -47v-577q0 -23 6.5 -47.5t28.5 -38.5l1 -1h-136zM180 917l-100 -106h-11l31 106h80z" />
    <glyph glyph-name="icircumflex" unicode="&#xee;" horiz-adv-x="162" 
d="M15 0q41 32 41 85v580q0 21 -10.5 46t-29.5 39h135l-1 -1q-22 -14 -28.5 -38t-6.5 -47v-577q0 -23 6.5 -47.5t28.5 -38.5l1 -1h-136zM162 807h-20l-61 36l-60 -36h-21l76 97h8z" />
    <glyph glyph-name="idieresis" unicode="&#xef;" horiz-adv-x="177" 
d="M20 0q41 32 41 85v580q0 21 -10.5 46t-29.5 39h135l-1 -1q-22 -14 -28.5 -38t-6.5 -47v-577q0 -23 6.5 -47.5t28.5 -38.5l1 -1h-136zM33 870q14 0 24 -9.5t10 -23.5t-10 -24t-24 -10t-23.5 10t-9.5 24t9.5 23.5t23.5 9.5zM144 870q14 0 23.5 -9.5t9.5 -23.5t-9.5 -24
t-23.5 -10t-24 10t-10 24t10 23.5t24 9.5z" />
    <glyph glyph-name="ntilde" unicode="&#xf1;" horiz-adv-x="463" 
d="M463 768q-14 -17 -18.5 -39t-4.5 -42l-1 -687q-14 26 -38.5 71t-54.5 101t-64.5 118.5t-67.5 123.5l-168 308l-2 -16q-2 -20 -2 -39.5v-39.5q0 -36 -0.5 -72t-0.5 -72v-402q0 -21 5.5 -42.5t19.5 -38.5h-66q31 33 31 80v591q0 46 -31 80h113q-3 -7 -3.5 -13.5t-0.5 -12.5
v-1q8 -15 31 -58t54 -100.5t66.5 -123t68.5 -126t60 -109.5t40 -74v555q0 20 -8 41.5t-22 38.5h64zM125 833q15 28 31.5 38t34 9.5t36 -7t37 -12.5t37 -7.5t36.5 9.5q-22 -31 -38.5 -40.5t-31.5 -7t-29 12t-30.5 16.5t-36.5 6.5t-46 -17.5z" />
    <glyph glyph-name="ograve" unicode="&#xf2;" 
d="M362 745q77 0 143 -30t114.5 -81t76.5 -119t28 -143q0 -76 -28 -144t-76.5 -119t-114.5 -81t-143 -30q-76 0 -142 30t-115 81t-77 119t-28 144q0 75 28 143t77 119t115 81t142 30zM362 5q44 0 82.5 14.5t71 40t58.5 59t45 71.5q20 42 29.5 87.5t9.5 93.5q0 47 -9.5 92.5
t-29.5 88.5q-19 38 -45 72t-58.5 59.5t-71 40.5t-82.5 15t-82.5 -15t-71 -41t-58.5 -59.5t-44 -71.5q-21 -43 -31 -88.5t-10 -92.5q0 -48 10 -93.5t31 -87.5q18 -37 44 -71t58.5 -59t71 -40t82.5 -15zM358 811h-11l-100 106h80z" />
    <glyph glyph-name="oacute" unicode="&#xf3;" 
d="M362 745q77 0 143 -30t114.5 -81t76.5 -119t28 -143q0 -76 -28 -144t-76.5 -119t-114.5 -81t-143 -30q-76 0 -142 30t-115 81t-77 119t-28 144q0 75 28 143t77 119t115 81t142 30zM362 5q44 0 82.5 14.5t71 40t58.5 59t45 71.5q20 42 29.5 87.5t9.5 93.5q0 47 -9.5 92.5
t-29.5 88.5q-19 38 -45 72t-58.5 59.5t-71 40.5t-82.5 15t-82.5 -15t-71 -41t-58.5 -59.5t-44 -71.5q-21 -43 -31 -88.5t-10 -92.5q0 -48 10 -93.5t31 -87.5q18 -37 44 -71t58.5 -59t71 -40t82.5 -15zM476 917l-100 -106h-11l31 106h80z" />
    <glyph glyph-name="ocircumflex" unicode="&#xf4;" 
d="M362 745q77 0 143 -30t114.5 -81t76.5 -119t28 -143q0 -76 -28 -144t-76.5 -119t-114.5 -81t-143 -30q-76 0 -142 30t-115 81t-77 119t-28 144q0 75 28 143t77 119t115 81t142 30zM362 5q44 0 82.5 14.5t71 40t58.5 59t45 71.5q20 42 29.5 87.5t9.5 93.5q0 47 -9.5 92.5
t-29.5 88.5q-19 38 -45 72t-58.5 59.5t-71 40.5t-82.5 15t-82.5 -15t-71 -41t-58.5 -59.5t-44 -71.5q-21 -43 -31 -88.5t-10 -92.5q0 -48 10 -93.5t31 -87.5q18 -37 44 -71t58.5 -59t71 -40t82.5 -15zM441 811h-20l-61 36l-60 -36h-21l76 97h8z" />
    <glyph glyph-name="otilde" unicode="&#xf5;" 
d="M362 745q77 0 143 -30t114.5 -81t76.5 -119t28 -143q0 -76 -28 -144t-76.5 -119t-114.5 -81t-143 -30q-76 0 -142 30t-115 81t-77 119t-28 144q0 75 28 143t77 119t115 81t142 30zM362 5q44 0 82.5 14.5t71 40t58.5 59t45 71.5q20 42 29.5 87.5t9.5 93.5q0 47 -9.5 92.5
t-29.5 88.5q-19 38 -45 72t-58.5 59.5t-71 40.5t-82.5 15t-82.5 -15t-71 -41t-58.5 -59.5t-44 -71.5q-21 -43 -31 -88.5t-10 -92.5q0 -48 10 -93.5t31 -87.5q18 -37 44 -71t58.5 -59t71 -40t82.5 -15zM258 823q15 28 31.5 38t34 9.5t36 -7t37 -12.5t37 -7.5t36.5 9.5
q-22 -31 -38.5 -40.5t-31.5 -7t-29 12t-30.5 16.5t-36.5 6.5t-46 -17.5z" />
    <glyph glyph-name="odieresis" unicode="&#xf6;" 
d="M362 745q77 0 143 -30t114.5 -81t76.5 -119t28 -143q0 -76 -28 -144t-76.5 -119t-114.5 -81t-143 -30q-76 0 -142 30t-115 81t-77 119t-28 144q0 75 28 143t77 119t115 81t142 30zM362 5q44 0 82.5 14.5t71 40t58.5 59t45 71.5q20 42 29.5 87.5t9.5 93.5q0 47 -9.5 92.5
t-29.5 88.5q-19 38 -45 72t-58.5 59.5t-71 40.5t-82.5 15t-82.5 -15t-71 -41t-58.5 -59.5t-44 -71.5q-21 -43 -31 -88.5t-10 -92.5q0 -48 10 -93.5t31 -87.5q18 -37 44 -71t58.5 -59t71 -40t82.5 -15zM311 875q14 0 24 -9.5t10 -23.5t-10 -24t-24 -10t-23.5 10t-9.5 24
t9.5 23.5t23.5 9.5zM422 875q14 0 23.5 -9.5t9.5 -23.5t-9.5 -24t-23.5 -10t-24 10t-10 24t10 23.5t24 9.5z" />
    <glyph glyph-name="divide" unicode="&#xf7;" horiz-adv-x="224" 
d="M224 387v-53h-224v53h224zM110 414q-15 0 -25.5 10.5t-10.5 26.5q0 15 10.5 25.5t25.5 10.5t25.5 -10.5t10.5 -25.5q0 -16 -10.5 -26.5t-25.5 -10.5zM110 308q15 0 25.5 -10.5t10.5 -26.5q0 -15 -10.5 -25.5t-25.5 -10.5t-25.5 10.5t-10.5 25.5q0 16 10.5 26.5t25.5 10.5
z" />
    <glyph glyph-name="oslash" unicode="&#xf8;" 
d="M607 646q54 -52 85.5 -122.5t31.5 -151.5q0 -76 -28 -144t-77 -119t-115 -81t-142 -30q-62 0 -117 20t-100 55l-66 -82l-29 24l66 83q-54 51 -85 122t-31 152q0 75 28 143t76.5 119t115 81t142.5 30q62 0 116.5 -19.5t99.5 -54.5l65 81l30 -24zM105 190q8 -16 17 -31.5
t20 -29.5l415 515q-38 42 -87 68.5t-108 26.5q-44 0 -82.5 -15t-71 -41t-58.5 -59.5t-45 -71.5q-21 -43 -30.5 -88.5t-9.5 -92.5q0 -48 9.5 -93.5t30.5 -87.5zM362 5q44 0 82.5 14.5t71 40t58.5 59t44 71.5q21 42 30.5 87.5t9.5 93.5q0 47 -10 92.5t-30 88.5q-8 16 -17 31.5
t-20 30.5l-415 -515q38 -42 87 -68t109 -26z" />
    <glyph glyph-name="ugrave" unicode="&#xf9;" horiz-adv-x="548" 
d="M548 751q-23 -14 -30.5 -36.5t-7.5 -50.5v-464q0 -43 -19 -83.5t-53 -66.5q-35 -27 -76 -39t-86 -12t-86 12t-76 38q-33 25 -53 64t-20 81l-1 471q0 22 -10.5 47t-29.5 39h137q-23 -14 -30.5 -37t-7.5 -50v-467q0 -41 11.5 -76.5t34 -61t55.5 -40t76 -14.5q42 0 75 14.5
t55 40t33.5 60.5t11.5 76v469q0 19 -8 39.5t-20 34.5q-3 3 -6 5.5t-6 4.5l-2 2h139zM291 811h-11l-100 106h80z" />
    <glyph glyph-name="uacute" unicode="&#xfa;" horiz-adv-x="548" 
d="M548 751q-23 -14 -30.5 -36.5t-7.5 -50.5v-464q0 -43 -19 -83.5t-53 -66.5q-35 -27 -76 -39t-86 -12t-86 12t-76 38q-33 25 -53 64t-20 81l-1 471q0 22 -10.5 47t-29.5 39h137q-23 -14 -30.5 -37t-7.5 -50v-467q0 -41 11.5 -76.5t34 -61t55.5 -40t76 -14.5q42 0 75 14.5
t55 40t33.5 60.5t11.5 76v469q0 19 -8 39.5t-20 34.5q-3 3 -6 5.5t-6 4.5l-2 2h139zM396 917l-100 -106h-11l31 106h80z" />
    <glyph glyph-name="ucircumflex" unicode="&#xfb;" horiz-adv-x="548" 
d="M548 751q-23 -14 -30.5 -36.5t-7.5 -50.5v-464q0 -43 -19 -83.5t-53 -66.5q-35 -27 -76 -39t-86 -12t-86 12t-76 38q-33 25 -53 64t-20 81l-1 471q0 22 -10.5 47t-29.5 39h137q-23 -14 -30.5 -37t-7.5 -50v-467q0 -41 11.5 -76.5t34 -61t55.5 -40t76 -14.5q42 0 75 14.5
t55 40t33.5 60.5t11.5 76v469q0 19 -8 39.5t-20 34.5q-3 3 -6 5.5t-6 4.5l-2 2h139zM361 807h-20l-61 36l-60 -36h-21l76 97h8z" />
    <glyph glyph-name="udieresis" unicode="&#xfc;" horiz-adv-x="548" 
d="M548 751q-23 -14 -30.5 -36.5t-7.5 -50.5v-464q0 -43 -19 -83.5t-53 -66.5q-35 -27 -76 -39t-86 -12t-86 12t-76 38q-33 25 -53 64t-20 81l-1 471q0 22 -10.5 47t-29.5 39h137q-23 -14 -30.5 -37t-7.5 -50v-467q0 -41 11.5 -76.5t34 -61t55.5 -40t76 -14.5q42 0 75 14.5
t55 40t33.5 60.5t11.5 76v469q0 19 -8 39.5t-20 34.5q-3 3 -6 5.5t-6 4.5l-2 2h139zM220 870q14 0 24 -9.5t10 -23.5t-10 -24t-24 -10t-23.5 10t-9.5 24t9.5 23.5t23.5 9.5zM331 870q14 0 23.5 -9.5t9.5 -23.5t-9.5 -24t-23.5 -10t-24 10t-10 24t10 23.5t24 9.5z" />
    <glyph glyph-name="yacute" unicode="&#xfd;" horiz-adv-x="580" 
d="M580 750q-30 -13 -52 -35t-39 -50l-181 -279v-301q0 -23 7 -46.5t28 -37.5l1 -1h-136q19 15 30.5 38t11.5 47v302l-162 279q-14 26 -38 48t-50 36h137q-10 -7 -10 -24q0 -16 7 -34t14 -31l154 -267l173 268q8 13 14.5 30t6.5 33t-8 25h92zM420 901l-100 -106h-11l31 106
h80z" />
    <glyph glyph-name="thorn" unicode="&#xfe;" horiz-adv-x="534" 
d="M499 518q35 -59 35 -128q0 -70 -36 -127q-28 -45 -75.5 -70.5t-102.5 -38t-112.5 -14.5t-104.5 -1h-4v-53q0 -22 7 -47t28 -38l1 -1h-135q18 14 29.5 39t11.5 47v664l58 1v-104h87q42 0 87.5 -5.5t88 -19.5t78.5 -39.5t59 -64.5zM169 143q63 0 117.5 11t95 39t63.5 75.5
t23 120.5q0 72 -28.5 127.5t-94.5 88.5q-24 12 -55 19t-65 10t-66.5 4t-59.5 1v-14v0v-481h4q17 0 33 -0.5t33 -0.5z" />
    <glyph glyph-name="ydieresis" unicode="&#xff;" horiz-adv-x="580" 
d="M580 750q-30 -13 -52 -35t-39 -50l-181 -279v-301q0 -23 7 -46.5t28 -37.5l1 -1h-136q19 15 30.5 38t11.5 47v302l-162 279q-14 26 -38 48t-50 36h137q-10 -7 -10 -24q0 -16 7 -34t14 -31l154 -267l173 268q8 13 14.5 30t6.5 33t-8 25h92zM254 876q14 0 24 -9.5t10 -23.5
t-10 -24t-24 -10t-23.5 10t-9.5 24t9.5 23.5t23.5 9.5zM365 876q14 0 23.5 -9.5t9.5 -23.5t-9.5 -24t-23.5 -10t-24 10t-10 24t10 23.5t24 9.5z" />
    <glyph glyph-name="dotlessi" unicode="&#x131;" horiz-adv-x="136" 
d="M0 0q41 32 41 85v330q0 21 -10.5 46t-29.5 39h135l-1 -1q-22 -14 -28.5 -38t-6.5 -47v-327q0 -23 6.5 -47.5t28.5 -38.5l1 -1h-136z" />
    <glyph glyph-name="Lslash" unicode="&#x141;" horiz-adv-x="560" 
d="M79 0q20 15 31 37.5t11 47.5v222l-91 -113l-30 24l121 150v297q0 25 -11 47.5t-31 37.5h137q-1 0 -1 -0.5t-1 -0.5q-21 -16 -28 -39t-7 -47v-223l113 140l29 -24l-142 -177v-294q0 -19 4.5 -39t18.5 -35l2 -1h272q23 0 38 12t22 33q1 2 1 4t1 4l22 -63h-481z" />
    <glyph glyph-name="lslash" unicode="&#x142;" horiz-adv-x="560" 
d="M79 0q20 15 31 37.5t11 47.5v222l-91 -113l-30 24l121 150v297q0 25 -11 47.5t-31 37.5h137q-1 0 -1 -0.5t-1 -0.5q-21 -16 -28 -39t-7 -47v-223l113 140l29 -24l-142 -177v-294q0 -19 4.5 -39t18.5 -35l2 -1h272q23 0 38 12t22 33q1 2 1 4t1 4l22 -63h-481z" />
    <glyph glyph-name="OE" unicode="&#x152;" horiz-adv-x="826" 
d="M803 53q1 2 1 3.5t1 3.5l21 -61h-433q-8 -1 -15.5 -1h-15.5q-76 0 -142.5 30t-115 81t-76.5 119t-28 144q0 74 27 141t74.5 117.5t111.5 81.5t139 33q-2 1 -5 4q-1 0 -1 0.5t-1 0.5h481l-21 -58q-5 22 -21 37t-41 15h-273l-1 -1l-9 -12q-2 -3 -6 -11q-5 -13 -6.5 -26
t-1.5 -25v-275h163q14 0 25.5 3.5t21.5 8.5q19 12 34 31v-93q-12 18 -32 29q-23 14 -49 14h-163v-303q0 -14 2.5 -29.5t9.5 -29.5q3 -6 8 -11q1 -2 1.5 -2.5t1.5 -2.5l2 -1h273q45 0 59 45zM387 665q0 17 -8.5 39t-19.5 34q-43 0 -81.5 -15t-70.5 -40.5t-58 -59t-44 -71.5
q-21 -43 -30.5 -88.5t-9.5 -92.5q0 -48 9.5 -93.5t30.5 -87.5q18 -37 43 -70t56.5 -58t68.5 -40t79 -17q16 15 25.5 37.5t9.5 42.5v580z" />
    <glyph glyph-name="oe" unicode="&#x153;" horiz-adv-x="826" 
d="M803 53q1 2 1 3.5t1 3.5l21 -61h-433q-8 -1 -15.5 -1h-15.5q-76 0 -142.5 30t-115 81t-76.5 119t-28 144q0 74 27 141t74.5 117.5t111.5 81.5t139 33q-2 1 -5 4q-1 0 -1 0.5t-1 0.5h481l-21 -58q-5 22 -21 37t-41 15h-273l-1 -1l-9 -12q-2 -3 -6 -11q-5 -13 -6.5 -26
t-1.5 -25v-275h163q14 0 25.5 3.5t21.5 8.5q19 12 34 31v-93q-12 18 -32 29q-23 14 -49 14h-163v-303q0 -14 2.5 -29.5t9.5 -29.5q3 -6 8 -11q1 -2 1.5 -2.5t1.5 -2.5l2 -1h273q45 0 59 45zM387 665q0 17 -8.5 39t-19.5 34q-43 0 -81.5 -15t-70.5 -40.5t-58 -59t-44 -71.5
q-21 -43 -30.5 -88.5t-9.5 -92.5q0 -48 9.5 -93.5t30.5 -87.5q18 -37 43 -70t56.5 -58t68.5 -40t79 -17q16 15 25.5 37.5t9.5 42.5v580z" />
    <glyph glyph-name="Scaron" unicode="&#x160;" horiz-adv-x="511" 
d="M285 417q43 -12 84 -27t72.5 -39.5t50.5 -61t19 -90.5q0 -13 -3 -27t-7 -27q-13 -42 -42 -72.5t-68 -49.5q-28 -14 -60 -18.5t-64 -4.5q-55 0 -96 18t-70.5 42t-48 49t-29.5 39q-5 6 -10.5 11.5t-12.5 8.5l80 38q-4 -16 -4 -36q0 -44 25 -83q14 -22 32.5 -36.5t40.5 -23
t46 -12t47 -3.5q88 0 132 49.5t44 137.5q0 8 -1 17.5t-3 17.5q-4 18 -17 42.5t-39.5 50.5t-69.5 52t-107 47q-21 7 -44 13.5t-45 15.5t-42 20.5t-35 27.5t-21 35.5t-6 41.5q0 11 2.5 23t5.5 23q5 17 13 31t19 27q31 39 76.5 53.5t94.5 14.5q42 0 72.5 -6.5t56 -21t49 -36.5
t49.5 -54q5 -5 9 -9.5t10 -7.5l-84 -42q3 14 3 29q0 38 -13.5 64.5t-36.5 43.5t-53 25t-62 8q-51 0 -90.5 -26t-62.5 -73q-7 -14 -12.5 -31t-5.5 -34q0 -42 20.5 -68t53.5 -43q17 -9 35.5 -16t38.5 -13t41.5 -12t42.5 -12zM321 906l-75 -97h-9l-78 97h21l60 -36l61 36h20z
" />
    <glyph glyph-name="scaron" unicode="&#x161;" horiz-adv-x="511" 
d="M285 417q43 -12 84 -27t72.5 -39.5t50.5 -61t19 -90.5q0 -13 -3 -27t-7 -27q-13 -42 -42 -72.5t-68 -49.5q-28 -14 -60 -18.5t-64 -4.5q-55 0 -96 18t-70.5 42t-48 49t-29.5 39q-5 6 -10.5 11.5t-12.5 8.5l80 38q-4 -16 -4 -36q0 -44 25 -83q14 -22 32.5 -36.5t40.5 -23
t46 -12t47 -3.5q88 0 132 49.5t44 137.5q0 8 -1 17.5t-3 17.5q-4 18 -17 42.5t-39.5 50.5t-69.5 52t-107 47q-21 7 -44 13.5t-45 15.5t-42 20.5t-35 27.5t-21 35.5t-6 41.5q0 11 2.5 23t5.5 23q5 17 13 31t19 27q31 39 76.5 53.5t94.5 14.5q42 0 72.5 -6.5t56 -21t49 -36.5
t49.5 -54q5 -5 9 -9.5t10 -7.5l-84 -42q3 14 3 29q0 38 -13.5 64.5t-36.5 43.5t-53 25t-62 8q-51 0 -90.5 -26t-62.5 -73q-7 -14 -12.5 -31t-5.5 -34q0 -42 20.5 -68t53.5 -43q17 -9 35.5 -16t38.5 -13t41.5 -12t42.5 -12zM321 906l-75 -97h-9l-78 97h21l60 -36l61 36h20z
" />
    <glyph glyph-name="Ydieresis" unicode="&#x178;" horiz-adv-x="580" 
d="M580 750q-30 -13 -52 -35t-39 -50l-181 -279v-301q0 -23 7 -46.5t28 -37.5l1 -1h-136q19 15 30.5 38t11.5 47v302l-162 279q-14 26 -38 48t-50 36h137q-10 -7 -10 -24q0 -16 7 -34t14 -31l154 -267l173 268q8 13 14.5 30t6.5 33t-8 25h92zM254 876q14 0 24 -9.5t10 -23.5
t-10 -24t-24 -10t-23.5 10t-9.5 24t9.5 23.5t23.5 9.5zM365 876q14 0 23.5 -9.5t9.5 -23.5t-9.5 -24t-23.5 -10t-24 10t-10 24t10 23.5t24 9.5z" />
    <glyph glyph-name="Zcaron" unicode="&#x17d;" horiz-adv-x="431" 
d="M340 10q30 0 52 17t39 39l-8 -66h-415q25 12 41 35.5t25 47.5l212 579q5 11 7.5 26t2.5 27q0 5 -1 11.5t-4 11.5l-1 2h-192q-31 0 -55 -17t-43 -39l14 66h407q-24 -15 -43 -36t-30 -48l-213 -580q-3 -8 -4.5 -21t-1.5 -21t1.5 -16.5t6.5 -16.5l1 -1h202zM294 905l-75 -97
h-9l-78 97h21l60 -36l61 36h20z" />
    <glyph glyph-name="zcaron" unicode="&#x17e;" horiz-adv-x="431" 
d="M340 10q30 0 52 17t39 39l-8 -66h-415q25 12 41 35.5t25 47.5l212 579q5 11 7.5 26t2.5 27q0 5 -1 11.5t-4 11.5l-1 2h-192q-31 0 -55 -17t-43 -39l14 66h407q-24 -15 -43 -36t-30 -48l-213 -580q-3 -8 -4.5 -21t-1.5 -21t1.5 -16.5t6.5 -16.5l1 -1h202zM294 905l-75 -97
h-9l-78 97h21l60 -36l61 36h20z" />
    <glyph glyph-name="florin" unicode="&#x192;" horiz-adv-x="528" 
d="M528 664h-20q-8 33 -21 52t-46 19q-53 0 -77 -47q-12 -24 -21 -53.5t-17 -64.5l-21 -103h107l-4 -27h-108l-55 -287q-2 -14 -5 -20q0 -5 -4 -21q-5 -20 -10.5 -39.5t-10.5 -36.5q-6 -17 -15 -35t-22 -38q-26 -39 -69.5 -65t-108.5 -26q23 2 47 14q20 9 43.5 29t43.5 57
q7 13 11.5 25t8.5 23q4 12 8.5 30.5t11.5 44.5q1 5 2 9l2 8l63 328h-107l4 27h107l13 62q13 63 30 109q17 47 56 80q38 35 106 35q31 0 71 -12z" />
    <glyph glyph-name="circumflex" unicode="&#x2c6;" horiz-adv-x="162" 
d="M162 653h-20l-61 36l-60 -36h-21l76 97h8z" />
    <glyph glyph-name="caron" unicode="&#x2c7;" horiz-adv-x="162" 
d="M162 750l-75 -97h-9l-78 97h21l60 -36l61 36h20z" />
    <glyph glyph-name="breve" unicode="&#x2d8;" horiz-adv-x="255" 
d="M255 748q0 -29 -10 -58q-11 -30 -40 -50q-28 -21 -78 -21q-51 0 -79 22q-28 21 -39 51q-9 30 -8 56h16q3 -33 26 -51q24 -18 82 -18q32 0 52.5 3.5t33 11.5t18.5 21.5t9 32.5h17z" />
    <glyph glyph-name="dotaccent" unicode="&#x2d9;" horiz-adv-x="73" 
d="M37 750q15 0 25.5 -10.5t10.5 -26.5q0 -15 -10.5 -25.5t-25.5 -10.5q-16 0 -26.5 10.5t-10.5 25.5q0 16 10.5 26.5t26.5 10.5z" />
    <glyph glyph-name="ring" unicode="&#x2da;" horiz-adv-x="136" 
d="M68 750q28 0 48 -19.5t20 -48.5q0 -28 -20 -47.5t-48 -19.5t-48 19.5t-20 47.5q0 29 20 48.5t48 19.5zM68 639q18 0 31 12.5t13 30.5t-13 31t-31 13t-31 -13t-13 -31t13 -30.5t31 -12.5z" />
    <glyph glyph-name="ogonek" unicode="&#x2db;" horiz-adv-x="191" 
d="M191 -111q-54 -52 -111 -52q-44 0 -62 24q-18 22 -18 50q0 50 42 95h22q-1 -2 -4.5 -10.5t-6.5 -16.5q-7 -19 -7 -38q0 -30 18 -45.5t48 -15.5q33 0 67 21z" />
    <glyph glyph-name="tilde" unicode="&#x2dc;" horiz-adv-x="212" 
d="M0 702q15 28 31.5 38t34 9.5t36 -7t37 -12.5t37 -7.5t36.5 9.5q-22 -31 -38.5 -40.5t-31.5 -7t-29 12t-30.5 16.5t-36.5 6.5t-46 -17.5z" />
    <glyph glyph-name="hungarumlaut" unicode="&#x2dd;" horiz-adv-x="242" 
d="M139 750l-121 -139h-18l87 139h52zM242 750l-122 -139h-17l87 139h52z" />
    <glyph glyph-name="endash" unicode="&#x2013;" horiz-adv-x="262" 
d="M262 386v-53h-262v53h262z" />
    <glyph glyph-name="emdash" unicode="&#x2014;" horiz-adv-x="388" 
d="M388 386v-53h-388v53h388z" />
    <glyph glyph-name="quoteleft" unicode="&#x2018;" horiz-adv-x="74" 
d="M37 707q16 0 26.5 -10.5t10.5 -25.5q0 -16 -10.5 -26.5t-26.5 -10.5q-14 0 -25 10.5t-11 26.5q-1 17 3.5 30t11 23t14.5 16.5t15 9.5q-5 -10 -9 -19q-3 -8 -5 -15t0 -10z" />
    <glyph glyph-name="quoteright" unicode="&#x2019;" horiz-adv-x="75" 
d="M74 713q1 -17 -3.5 -30.5t-11.5 -23t-15 -16t-15 -9.5q6 10 9 19q4 8 5.5 15t-0.5 9l-6 -1q-15 0 -26 10.5t-11 26.5q0 15 11 26t26 11t26 -11t11 -26z" />
    <glyph glyph-name="quotesinglbase" unicode="&#x201a;" horiz-adv-x="75" 
d="M74 150q1 -17 -3.5 -30.5t-11.5 -23t-15 -16t-15 -9.5q6 10 9 19q4 8 5.5 15t-0.5 9l-6 -1q-15 0 -26 10.5t-11 26.5q0 15 11 26t26 11q14 0 25.5 -11t11.5 -26z" />
    <glyph glyph-name="quotedblleft" unicode="&#x201c;" horiz-adv-x="175" 
d="M138 707q16 0 26.5 -10.5t10.5 -25.5q0 -16 -10.5 -26.5t-26.5 -10.5q-14 0 -25 10.5t-11 26.5q-1 17 3.5 30t11 23t14.5 16.5t15 9.5q-5 -10 -9 -19q-3 -8 -5 -15t0 -10zM37 707q16 0 26.5 -10.5t10.5 -25.5q0 -16 -10.5 -26.5t-26.5 -10.5q-14 0 -25 10.5t-11 26.5
q-1 17 3.5 30t11 23t14.5 16.5t15 9.5q-5 -10 -9 -19q-3 -8 -5 -15t0 -10z" />
    <glyph glyph-name="quotedblright" unicode="&#x201d;" horiz-adv-x="176" 
d="M37 750q15 0 26 -11t11 -26q1 -17 -3.5 -30.5t-11.5 -23t-15 -16t-15 -9.5q6 10 9 19q4 8 5.5 15t-0.5 9l-6 -1q-15 0 -26 10.5t-11 26.5q0 15 11 26t26 11zM175 713q1 -17 -3.5 -30.5t-11.5 -23t-15 -16t-15 -9.5q6 10 9 19q4 8 5.5 15t-0.5 9l-6 -1q-15 0 -26 10.5
t-11 26.5q0 15 11 26t26 11t26 -11t11 -26z" />
    <glyph glyph-name="quotedblbase" unicode="&#x201e;" horiz-adv-x="176" 
d="M37 187q14 0 25.5 -11t11.5 -26q1 -17 -3.5 -30.5t-11.5 -23t-15 -16t-15 -9.5q6 10 9 19q4 8 5.5 15t-0.5 9l-6 -1q-15 0 -26 10.5t-11 26.5q0 15 11 26t26 11zM175 150q1 -17 -3.5 -30.5t-11.5 -23t-15 -16t-15 -9.5q6 10 9 19q4 8 5.5 15t-0.5 9l-6 -1q-15 0 -26 10.5
t-11 26.5q0 15 11 26t26 11q14 0 25.5 -11t11.5 -26z" />
    <glyph glyph-name="dagger" unicode="&#x2020;" horiz-adv-x="219" 
d="M132 605v-519q0 -69 44 -87l5 -1h-147l7 4q11 5 24.5 24.5t18.5 58.5v520h-84v13h84v35q-6 59 -43 84l-7 4h148l-5 -1q-16 -5 -28 -21q-17 -22 -17 -66v-35h87v-13h-87z" />
    <glyph glyph-name="daggerdbl" unicode="&#x2021;" horiz-adv-x="220" 
d="M133 592v-466h87v-14h-87v-26q0 -30 7.5 -47.5t17.5 -26.5q10 -11 24 -14h-147l7 4q11 5 25 24.5t18 58.5v27h-85v14h85v466h-85v14h85v47q-6 60 -43 84l-7 4h148l-5 -1q-5 -2 -12.5 -7t-15 -14.5t-12.5 -25.5t-5 -40v-47h87v-14h-87z" />
    <glyph glyph-name="bullet" unicode="&#x2022;" horiz-adv-x="125" 
d="M63 422q26 0 44 -18t18 -44t-18 -44.5t-44 -18.5t-44.5 18.5t-18.5 44.5t18.5 44t44.5 18z" />
    <glyph glyph-name="ellipsis" unicode="&#x2026;" horiz-adv-x="301" 
d="M37 166q15 0 25.5 -10.5t10.5 -26.5q0 -15 -10.5 -25.5t-25.5 -10.5q-16 0 -26.5 10.5t-10.5 25.5q0 16 10.5 26.5t26.5 10.5zM151 166q15 0 25.5 -10.5t10.5 -26.5q0 -15 -10.5 -25.5t-25.5 -10.5q-16 0 -26.5 10.5t-10.5 25.5q0 16 10.5 26.5t26.5 10.5zM264 166
q16 0 26.5 -10.5t10.5 -26.5q0 -15 -10.5 -25.5t-26.5 -10.5q-15 0 -25.5 10.5t-10.5 25.5q0 16 10.5 26.5t25.5 10.5z" />
    <glyph glyph-name="perthousand" unicode="&#x2030;" horiz-adv-x="885" 
d="M525 470q17 -11 29 -27t20 -33q11 -23 15 -46.5t4 -48.5q0 -35 -12 -68q-7 -19 -18.5 -37t-26.5 -31.5t-33.5 -22t-39.5 -8.5q-20 0 -38.5 8t-33.5 21t-26.5 30.5t-18.5 35.5q-13 33 -13 73q0 26 4.5 50t15.5 47q9 17 21 32t29 26q30 19 60 19q33 0 62 -20zM548 239
q8 19 13 39t5 41q0 17 -3 36t-9 37.5t-15 35.5t-21 30q-23 25 -55 25q-17 0 -30 -7.5t-24 -19.5q-23 -26 -36.5 -65t-13.5 -72q0 -35 13 -73.5t37 -64.5q22 -25 54 -25q17 0 30.5 8t24 20.5t18.5 27t12 27.5zM866 410q11 -23 15 -46.5t4 -48.5q0 -35 -12 -68
q-7 -19 -18.5 -37t-26.5 -31.5t-33.5 -22t-39.5 -8.5q-20 0 -38.5 8t-33.5 21t-26.5 30.5t-18.5 35.5q-13 33 -13 73q0 26 4.5 50t15.5 47q9 17 21 32t29 26q30 19 60 19q33 0 62 -20q17 -11 28.5 -27t20.5 -33zM840 239q8 19 13 39t5 41q0 17 -3 36t-9 37.5t-15 35.5
t-21 30q-23 25 -55 25q-17 0 -30.5 -7.5t-24.5 -19.5q-22 -26 -35.5 -65t-13.5 -72q0 -35 13 -73.5t37 -64.5q22 -25 54 -25q17 0 30.5 8t24 20.5t18.5 27t12 27.5zM248 507q-7 -19 -18.5 -36.5t-26.5 -31t-33.5 -22t-39.5 -8.5q-41 0 -72 29t-45 66q-13 33 -13 73
q0 26 4.5 50t15.5 47q9 17 21 32t29 26q30 19 60 19q17 0 32.5 -5.5t29.5 -15.5q17 -11 29 -26.5t20 -33.5q11 -22 15 -45.5t4 -48.5q0 -36 -12 -69zM76 442q21 -25 54 -25q17 0 30.5 8t24.5 20t18.5 27t12.5 28q7 19 12 39t5 40q0 17 -3 36t-9 38t-15 36t-21 30
q-23 25 -55 25q-17 0 -30 -7.5t-24 -20.5q-23 -26 -36.5 -64.5t-13.5 -72.5t13 -72.5t37 -64.5zM171 217q-9 -17 -14 -34q-2 -10 -1.5 -19.5t6.5 -15.5h-78v1q20 10 39 28t30 37l255 458q3 7 5.5 13.5t4.5 13.5q2 9 2 21.5t-6 20.5h75q-21 -10 -37 -29t-27 -38z" />
    <glyph glyph-name="guilsinglleft" unicode="&#x2039;" horiz-adv-x="243" 
d="M243 541v-2v-21v-31l-190 -108l190 -108v-31v-21v-2l-243 134v2v52v2z" />
    <glyph glyph-name="guilsinglright" unicode="&#x203a;" horiz-adv-x="243" 
d="M243 407v-2v-52v-2l-243 -134v2v21v31l190 108l-190 108v31v21v2z" />
    <glyph glyph-name="fraction" unicode="&#x2044;" horiz-adv-x="313" 
d="M313 739q-23 -12 -37 -36t-21 -48l-168 -573q-6 -19 -6 -42q0 -12 4 -24t14 -20h-99l1 1q23 12 40 35t25 47l168 574q2 8 3 16.5t1 16.5q0 12 -4.5 27.5t-14.5 25.5h94z" />
    <glyph glyph-name="Euro" unicode="&#x20ac;" horiz-adv-x="796" 
d="M490 10q55 0 95.5 7t74 23.5t63 44t62.5 67.5l1 -16q-31 -39 -63 -64.5t-67 -41.5t-76 -22.5t-90 -6.5q-67 0 -126.5 23t-106 63.5t-78.5 95.5t-44 118h-135v38h130q-1 9 -1.5 17.5t-0.5 17.5q0 14 1 27t3 26h-132v38h139q15 60 47.5 111.5t78.5 89.5t103.5 59.5
t121.5 21.5q83 0 157 -27.5t130 -90.5q9 -11 19 -17l-85 -37q1 4 1 12q0 21 -8.5 39.5t-21.5 34.5t-29.5 28.5t-32.5 21.5q-30 17 -63 23t-66 6q-44 0 -82.5 -14.5t-71.5 -40t-59 -58.5t-44 -71q-11 -22 -18.5 -45t-12.5 -46h166v-38h-172q-3 -25 -3 -53q0 -9 0.5 -17.5
t1.5 -17.5h173v-38h-169q5 -28 13.5 -54.5t20.5 -52.5q18 -38 44 -71.5t58.5 -58.5t71 -39.5t82.5 -14.5z" />
    <glyph glyph-name="trademark" unicode="&#x2122;" horiz-adv-x="827" 
d="M744 287q11 8 18 23t7 29v358q0 7 -2 15l-1 6l-3 -5q-6 -6 -9 -15l-171 -408q-29 69 -57.5 136t-57.5 136l-42 99q-5 11 -9.5 23.5t-10.5 23.5l-4 7l-1 -8q-1 -10 -0.5 -20t0.5 -20v-86v-241q0 -13 4.5 -29t17.5 -24h-55q11 9 18.5 23.5t7.5 28.5v358q0 14 -7.5 29
t-18.5 24h80q-5 -4 -6.5 -9.5t-1.5 -13.5t2.5 -16t5.5 -15l150 -352l149 352q3 8 5 16t2 16q0 6 -1.5 12t-6.5 10h81v-1q-14 -8 -18 -23t-4 -29v-357q0 -14 4 -29.5t18 -23.5v0h-83zM0 750h330l-14 -39q0 3 -1 5q-8 28 -36 28h-81l-1 -1q-8 -10 -11 -22.5t-3 -24.5v-357
q0 -13 4.5 -28.5t16.5 -23.5h-83q26 20 26 52v358q0 10 -5 24.5t-13 21.5v1h-77q-29 0 -37 -28q-1 -2 -1 -5z" />
    <glyph glyph-name="minus" unicode="&#x2212;" horiz-adv-x="224" 
d="M224 387v-53h-224v53h224z" />
    <glyph glyph-name="A_ss01" horiz-adv-x="693" 
d="M592 -1q8 13 8 32q0 14 -3 27t-8 26l-16 43l-8 23l-72 198l-9 23l-31 86q-12 8 -20.5 11t-10.5 4q-50 19 -104 19l-10 -29l-3 -8l-126 -370q-14 -38 -10.5 -59t11.5 -26h-70q9 7 16.5 13t13.5 14t12.5 19.5t13.5 29.5l130 380l3 9l10 27q-46 -1 -89.5 -16t-80.5 -41
t-65.5 -63t-45.5 -83q-22 -60 -18 -120.5t29 -114t69 -95.5t104 -64q29 -10 57.5 -11.5t54 2.5t46 12t33.5 17l-14 -39q-89 -21 -180 11q-60 22 -106 64t-73 99q-26 58 -29 120t19 122q21 60 63.5 106t99.5 73q61 28 129 30l85 249l240 -674q7 -20 22 -41t34 -35h-101z
M425 481q2 -1 8 -3t15 -7l-71 193l-56 -164q26 0 52 -5t52 -14z" />
    <glyph glyph-name="B_ss01" horiz-adv-x="644" 
d="M396 500q51 -9 96 -29.5t78.5 -53.5t53.5 -78t20 -102q0 -67 -27 -134t-74 -119.5t-111 -85.5t-139 -33q-59 0 -112 22t-95 64t-64 95t-22 112t22 112t64 95q29 30 65 50v253q0 20 -11.5 45.5t-29.5 39.5h170q35 0 78.5 -3.5t81 -16.5t63 -39.5t25.5 -71.5
q0 -28 -11.5 -47.5t-30 -33t-42 -21.5t-48.5 -12l-24 -3zM209 512l78 -1q19 0 41.5 2.5t45 8.5t43 16t34.5 25q11 13 16 28t5 32q0 41 -18 65.5t-45.5 37.5t-60.5 17t-64 4h-47l-1 -1q-17 -15 -22 -37t-5 -42v-155zM293 -126q48 0 99 21.5t92 66.5t67.5 113.5t26.5 161.5
q0 30 -4.5 62t-15 61.5t-28 54.5t-43.5 43q-13 9 -31 17t-37.5 14t-39 9.5t-35.5 3.5q-33 1 -65.5 1.5t-65.5 0.5h-4v-65q41 12 84 12q68 0 128 -29v-44q-21 28 -55 46t-73 18q-43 0 -84 -12v-343q0 -23 6.5 -47.5t28.5 -38.5l1 -1h-136q41 32 41 85l1 319
q-64 -37 -103 -102t-39 -144q0 -59 22.5 -110.5t61 -90t90 -61t110.5 -22.5z" />
    <glyph glyph-name="C_ss01" horiz-adv-x="668" 
d="M362 14q55 0 100.5 16t82.5 45t65 68.5t47 87.5l1 -91q-37 -39 -70 -65t-66.5 -41.5t-72 -22t-87.5 -6.5q-76 0 -142.5 30t-115 81t-76.5 118.5t-28 143.5t28 144t77 119t115 80.5t142 29.5q82 0 156.5 -27.5t130.5 -90.5q9 -11 19 -17l-85 -36q0 2 0.5 5t0.5 6
q0 21 -8.5 39.5t-21.5 34.5t-29.5 28.5t-33.5 21.5q-29 17 -62 23t-66 6q-44 0 -82.5 -14.5t-71.5 -40t-59 -58.5t-44 -71q-20 -43 -30 -88.5t-10 -93.5q0 -47 10 -92t30 -88q18 -38 44 -71.5t58.5 -58.5t71 -39.5t82.5 -14.5z" />
    <glyph glyph-name="D_ss01" horiz-adv-x="654" 
d="M265 750q114 0 189.5 -31.5t119.5 -85.5t62 -126.5t18 -154.5q0 -57 -9 -115t-27.5 -112t-48 -101.5t-69.5 -82.5t-91.5 -55.5t-115.5 -20.5q-59 0 -112 22t-95 64t-64 95t-22 112t22 112t64 95q29 30 65 50v250q0 24 -10.5 47.5t-30.5 37.5h155zM293 -126q58 0 102.5 20
t77.5 55t55 82t35.5 100t19.5 110t6 112q0 68 -13.5 137.5t-48 125.5t-94.5 91.5t-153 35.5h-21.5t-21.5 -1h-1l-1 -1q-16 -15 -21 -36t-5 -41v-186v0v-39q41 12 84 12q68 0 129 -29v-44q-21 28 -55.5 46t-73.5 18q-43 0 -84 -12l1 -343q0 -23 6 -47.5t28 -38.5l1 -1h-136
q41 32 41 85l1 315v4q-64 -37 -103 -102t-39 -144q0 -59 22.5 -110.5t61 -90t90 -61t110.5 -22.5z" />
    <glyph glyph-name="E_ss01" horiz-adv-x="831" 
d="M831 -72l-1 -1q-34 -36 -77.5 -49.5t-94.5 -11.5q-39 1 -80 10.5t-84 23t-86 30.5t-85 34q-23 10 -45 19t-44 17v0l-24 9q-2 0 -3 1q-11 4 -21.5 7.5t-21.5 6.5q-5 2 -9 3t-9 2q-1 0 -1 1q-5 1 -13 3l-15 3q-4 0 -6 1v0h-2q-24 3 -46 -4h-1q-8 -2 -12 -4q-23 -11 -33 -32
l-1 -3l-16 35l1 1q4 3 7.5 6t7.5 5q8 4 12 5q17 7 43 7v0h6v612q0 17 -8.5 39.5t-20.5 34.5q-3 4 -11 10l-2 2h481l-21 -58q-5 22 -21 36.5t-41 14.5h-273l-1 -1q-15 -14 -19.5 -34.5t-4.5 -39.5v-251h164q27 0 47 11.5t34 31.5v-93q-13 19 -35.5 30.5t-45.5 11.5h-164
l1 -366v0q2 0 3 -1h2q5 -2 11 -3t11 -3q4 -2 8 -2.5t8 -2.5q5 -2 9.5 -3t9.5 -3l22 -8l22 -8q0 -1 2 -1q5 -2 11 -4.5t12 -4.5v0q14 -6 29 -12l30 -12h1q62 -26 131 -48.5t135 -29.5q71 -8 123.5 8.5t90.5 56.5l1 1z" />
    <glyph glyph-name="F_ss01" horiz-adv-x="1053" 
d="M412 789q59 16 120 31.5t120.5 27t117 17t109 1t96 -20.5t78.5 -48l-28 -32q-48 45 -114 62t-142.5 15.5t-160.5 -17.5t-169 -38v-283h162q24 0 45.5 11.5t35.5 30.5v-91q-14 20 -35.5 30.5t-45.5 10.5h-162v-410q0 -14 3 -29q3 -14 9 -28.5t17 -24.5q2 -1 3 -2t3 -2
l1 -1h-136q1 1 2 1q11 9 20 20q7 11 13 25t6 31v0v8v688q-59 -16 -112.5 -29t-101.5 -19q-37 -6 -67 -6q-64 0 -99 27l20 31q14 -25 49.5 -38.5t95.5 -5.5q54 8 116 23.5t131 33.5z" />
    <glyph glyph-name="G_ss01" horiz-adv-x="1053" 
d="M411 326q89 24 180.5 46t177 29.5t159 -6.5t125.5 -62l-29 -32q-39 36 -92 55v-212h-1q0 -1 -0.5 -1t-0.5 -1q-33 -38 -68 -67q-49 -43 -108 -56.5t-123 -13.5t-121 21t-102.5 58.5t-78.5 88.5t-48 110q-31 -8 -60 -13.5t-56 -9.5q-19 -3 -35.5 -4t-31.5 -1q-67 0 -98 27
l19 30q14 -25 50 -38t95 -5q26 4 55 9.5t60 12.5q-5 21 -7.5 43t-2.5 44q0 76 28 144t76.5 119t115 80.5t142.5 29.5q82 0 156.5 -27.5t129.5 -90.5l6 -6l6 -6q2 -2 3.5 -2.5t3.5 -2.5l-84 -36v11q0 21 -8.5 39.5t-21.5 34.5t-29.5 28.5t-32.5 21.5q-30 17 -63 23.5t-66 6.5
q-44 0 -82.5 -15t-71 -40t-58.5 -58.5t-45 -71.5q-20 -43 -30 -88.5t-10 -93.5q0 -36 6 -71q17 5 35 9.5t36 9.5zM873 100v272q-47 8 -99 7.5t-107.5 -8t-113 -20t-114.5 -27.5l-60 -16q-9 -3 -18.5 -5.5t-19.5 -4.5q10 -52 33 -100q19 -37 45 -71t58.5 -59.5t71.5 -40.5
t83 -15q33 0 66 4t63.5 13.5t58.5 26.5t52 43z" />
    <glyph glyph-name="H_ss01" horiz-adv-x="691" 
d="M590 0q14 16 23 37t9 43v177q-6 46 -24 87t-46 74q-35 42 -83 70t-105 36q-3 1 -9 1q-19 3 -39 3q-54 0 -102 -18v-428q0 -20 5.5 -42.5t19.5 -39.5h-101q14 16 22.5 37t8.5 43v410q-36 -19 -65.5 -47.5t-50.5 -63t-32.5 -75t-11.5 -84.5q0 -63 24 -119t66 -98t98 -66
t119 -24q31 0 58 8t49.5 20.5t39.5 27t26 27.5v-41q-38 -25 -81.5 -38t-91.5 -13q-63 0 -120.5 24t-102.5 69t-69 102.5t-24 120.5q0 64 24 121.5t69 102.5q35 35 76 57v170q0 22 -8.5 42.5t-22.5 37.5h100q-14 -17 -19 -40t-5 -41v-150q51 17 102 17q21 0 42 -3
q2 0 4.5 -0.5t4.5 -0.5q49 -8 93.5 -30.5t79.5 -58.5l3 -3q58 -59 79 -137v367q0 22 -9 42.5t-23 37.5h101q-14 -17 -19 -40t-5 -41v-588q0 -20 5 -42.5t19 -39.5h-101z" />
    <glyph glyph-name="I_ss01" horiz-adv-x="137" 
d="M0 -30q20 15 31 37.5t11 47.5v646q0 20 -10.5 45t-29.5 39h135h-1q-22 -14 -28.5 -38.5t-6.5 -46.5v-643q0 -22 6.5 -47t28.5 -39q1 0 1 -1h-137z" />
    <glyph glyph-name="J_ss01" horiz-adv-x="654" 
d="M654 750l-1 -1q-21 -13 -28 -38t-7 -47v-542q0 -68 -17.5 -117.5t-44 -84.5t-57.5 -57t-58.5 -34t-47.5 -16.5t-23 -5.5q-63 -11 -124 3t-113 51q-51 37 -84 89.5t-44 115.5t3 123.5t51 112.5t89.5 85t115.5 44q93 15 179 -22l7 -41q-11 11 -30 23t-43 20.5t-52.5 12
t-58.5 -1.5q-63 -10 -114.5 -43.5t-85.5 -81.5t-48.5 -107t-3.5 -122t44 -114.5t81 -85.5t107 -48.5t122 -3.5q3 0 18.5 4t37 15.5t45.5 32t44 54t33.5 82.5t13.5 117v544q0 25 -11 47.5t-30 37.5h135z" />
    <glyph glyph-name="K_ss01" horiz-adv-x="739" 
d="M435 85q39 -72 79 -110.5t78.5 -52.5t75.5 -9.5t71 17.5q-59 -35 -110.5 -37.5t-96 20.5t-83.5 68t-73 106l-176 320l-100 -141v-179q0 -21 7 -47t28 -40h-135q19 15 30 38.5t11 46.5v580q0 23 -11 46.5t-30 38.5h134q-20 -14 -27 -39.5t-7 -46.5v-383l274 382
q11 14 18 31.5t7 36.5q0 7 -3 14q0 1 -2 5h101q-30 -13 -56.5 -31.5t-46.5 -45.5l-159 -220z" />
    <glyph glyph-name="L_ss01" horiz-adv-x="831" 
d="M831 -72l-1 -1q-34 -36 -77.5 -49.5t-94.5 -11.5q-39 1 -80 10.5t-84 23t-86 30.5t-85 34q-23 10 -45.5 19t-43.5 17q-7 2 -13.5 5t-13.5 5q-11 4 -21.5 7.5t-21.5 6.5q-5 2 -9.5 3t-9.5 3q-5 1 -13 3l-15 3q-4 0 -6 1h-1h-2q-23 3 -45 -4q-8 -2 -13 -4q-22 -10 -33 -32
l-1 -3l-16 35l1 1q4 3 7.5 6t7.5 5q8 4 12 5q17 7 43 7h5v612q0 25 -11 47.5t-31 37.5h137q-1 0 -1 -0.5t-1 -0.5q-21 -16 -28 -39t-7 -47v-618v-1q4 0 5 -1l24 -6q4 -2 7.5 -2.5t8.5 -2.5t9.5 -3t9.5 -3q11 -4 21.5 -8t21.5 -8q7 -2 13 -5t13 -5q14 -6 29 -12l30 -12h1
q62 -26 131 -48.5t135 -29.5q137 -15 214 65l1 1z" />
    <glyph glyph-name="M_ss01" horiz-adv-x="832" 
d="M708 90q0 -23 6.5 -47.5t28.5 -38.5q0 -1 1 -1h-136q20 14 30.5 38t10.5 47v623q-48 -70 -84 -158.5t-66 -183.5q-2 -5 -3.5 -11t-3.5 -11q-21 -68 -41.5 -129t-43.5 -111q-8 -17 -15.5 -32t-15.5 -27q-13 -21 -27 -36l-2 -2q-22 -24 -47 -31l-15 33q27 -3 54 18
q-45 105 -88.5 209t-88.5 210l-68 160q-8 19 -15.5 38t-17.5 38l-6 12l-1 -14q-2 -16 -1.5 -32.5t0.5 -32.5v-138v-390q0 -22 7.5 -48t28.5 -39h-89q19 14 30.5 38t11.5 47v580q0 23 -11.5 47t-30.5 38h130q-8 -6 -11 -15t-3 -22q0 -14 4 -26.5t9 -23.5l252 -589
q10 17 18 34q17 35 32 77.5t29 89.5q6 17 11.5 35t11.5 36q3 9 5.5 18t5.5 18q28 88 59 175t73 159q5 9 10 17.5t10 16.5q35 54 77.5 91.5t96.5 51.5l12 -42q-35 -9 -66 -27.5t-58 -44.5v-692z" />
    <glyph glyph-name="N_ss01" horiz-adv-x="734" 
d="M439 107q36 -73 74 -113t75.5 -56t74.5 -13t71 14q-47 -25 -88.5 -30.5t-78 5.5t-68.5 36.5t-60 63.5q-8 11 -16 23t-16 25q-8 12 -14.5 24.5t-13.5 26.5l-2 5q-22 41 -48 89t-53.5 98t-55 101t-53.5 97q-60 110 -121 222l-2 -16q-3 -20 -3 -39.5v-39.5v-144v-401
q0 -22 5.5 -43.5t19.5 -38.5h-66q14 16 22.5 36.5t8.5 43.5v591q0 46 -31 80h113q-3 -7 -4 -13.5t-1 -12.5v-1q8 -15 31 -58t54.5 -100.5t67 -123t68.5 -126t59.5 -109.5t39.5 -74v555q0 20 -7.5 41.5t-21.5 38.5h64q-15 -17 -19.5 -39t-4.5 -42v-583z" />
    <glyph glyph-name="O_ss01" 
d="M608 646q54 -52 85 -122.5t31 -151.5q0 -76 -28 -144t-76.5 -119t-114.5 -81t-143 -30q-76 0 -142 30t-115 81t-77 119t-28 144t28 144t77 119t115 81t142 30q65 0 121.5 -21.5t102.5 -58.5q6 -5 11.5 -10t10.5 -10zM362 5q44 0 82.5 15t71 40t58.5 59t44 71
q21 43 30.5 88.5t9.5 92.5t-9.5 93t-30.5 88q-16 34 -38 64.5t-50 55.5q-29 5 -58.5 5t-59.5 -7q-62 -13 -112 -48t-82.5 -84t-45 -109t0.5 -122q1 -4 6.5 -22.5t22 -43.5t45.5 -50.5t76 -42.5l2 -50q-49 23 -79.5 57t-48.5 66t-24.5 56t-7.5 28q-14 63 -2 123.5t47 114.5
t86 88.5t114 47.5q27 5 53.5 6.5t52.5 -2.5q-32 26 -70.5 41t-83.5 15q-44 0 -82.5 -15t-71 -40.5t-58.5 -59.5t-44 -72q-21 -42 -31 -87.5t-10 -93.5q0 -47 10 -93t31 -88q18 -37 44 -71t58.5 -59t71 -40t82.5 -15z" />
    <glyph glyph-name="P_ss01" horiz-adv-x="680" 
d="M301 883q102 0 174 -28t117.5 -72.5t66.5 -100t21 -111.5q0 -57 -15.5 -113t-53 -101t-100.5 -75.5t-158 -37.5q-28 -2 -54.5 -2t-49.5 1h-4v-157q0 -21 7 -46t28 -39q0 -1 1 -1h-135q18 15 29.5 39.5t11.5 46.5v248q-55 21 -99 62q-43 41 -65.5 93t-22.5 109t22.5 109
t65.5 93t98 62t115 21zM315 248q63 0 117.5 16t95 52.5t63.5 95t23 142.5q0 49 -14 105t-49.5 104t-96 80t-153.5 32q-60 0 -113.5 -22t-93.5 -59.5t-63 -88t-23 -107.5q0 -43 13 -82t37 -72.5t57 -59t72 -41.5v233h-1v90q0 20 -10.5 45t-29.5 39h135h-1q-22 -14 -28.5 -38
t-6.5 -47v-89v0v-250q31 -6 59 -3.5t51.5 10.5t41.5 20t30 25v-39q-60 -26 -126 -26q-14 0 -28 1t-28 4v-69h4q17 0 33 -0.5t33 -0.5z" />
    <glyph glyph-name="Q_ss01" horiz-adv-x="1102" 
d="M1102 -120l-1 -1q-34 -36 -77.5 -49.5t-93.5 -11.5q-39 1 -80.5 10.5t-84.5 23t-85.5 30.5t-84.5 34q-46 19 -90 36q-7 2 -13.5 4.5t-12.5 5.5q-11 4 -22 7.5t-21 6.5q-5 2 -10 3l-10 2q-5 2 -13 4l-15 3h-6v0q-1 0 -1 0.5t-1 0.5q-27 2 -46 -4q-8 -2 -12 -4
q-11 -6 -17.5 -15t-10.5 -18q-5 -9 -7 -20l-15 53v1q4 3 7.5 6t8.5 5q5 4 11 5q5 2 13 4q-67 9 -124 42t-99 83t-65.5 113t-23.5 132q0 76 28 144t76.5 119t115 81t142.5 30q64 0 120.5 -21.5t102.5 -58.5q6 -5 11.5 -10t10.5 -10q54 -52 85.5 -122.5t31.5 -151.5
q0 -72 -25.5 -137t-70 -115.5t-105.5 -82t-132 -37.5q5 -2 9.5 -2.5t10.5 -2.5q5 -2 11 -3t12 -3q5 -2 8.5 -3t7.5 -2q5 -2 9.5 -3.5t9.5 -3.5q11 -3 22 -7l22 -8q6 -3 12.5 -5.5t12.5 -4.5q29 -12 60 -24v0q62 -26 131 -48.5t136 -29.5q139 -15 213 65l2 1zM362 5
q44 0 82.5 15t71 40t58.5 59t44 71q20 43 30 88.5t10 92.5t-10 93t-30 88q-17 34 -39 64.5t-50 55.5q-3 3 -6.5 5.5t-6.5 5.5q-33 26 -71.5 41t-82.5 15t-82.5 -15t-71 -40.5t-58.5 -59.5t-45 -72q-21 -42 -30.5 -87.5t-9.5 -93.5q0 -47 9.5 -93t30.5 -88q19 -37 45 -71
t58.5 -59t71 -40t82.5 -15z" />
    <glyph glyph-name="R_ss01" horiz-adv-x="886" 
d="M591 86q50 -86 94 -128t82 -56.5t68 -10t51 12.5q-60 -30 -110.5 -27t-93.5 30.5t-80.5 74.5t-70.5 106l-92 169q-20 -5 -41.5 -8t-44.5 -5h-1v0q-28 -2 -54 -2t-49 1h-3h-1v-157q0 -21 7 -46t27 -39l1 -1h-135q18 14 29.5 38.5t11.5 46.5v1v248q-54 21 -98 62
q-43 41 -65.5 93t-22.5 109t22.5 109t65.5 93t98 62t115 21q102 0 174 -28t117 -72.5t66 -100t21 -111.5v-22t-2 -22q-4 -40 -16 -78t-34.5 -71t-56.5 -60.5t-82 -45.5zM361 250q52 5 96.5 23t78 51.5t54 83.5t23.5 119v27q0 30 -5 63t-16 65q-13 38 -36 73t-58 61.5
t-83.5 42.5t-113.5 16q-61 0 -114 -22t-93 -59.5t-63 -88t-23 -107.5q0 -43 13 -82t37 -72.5t56.5 -59t71.5 -41.5v233v0v90q0 20 -10.5 45t-29.5 39h135h-1q-22 -14 -28.5 -38t-6.5 -47v-89v0v-250h1q31 -6 58.5 -3.5t51 10.5t41.5 20t30 25v-39q-60 -26 -126 -26
q-14 0 -27.5 1t-27.5 4h-1v-69h3h6q14 0 27.5 -0.5t27.5 -0.5h5q12 0 24 0.5t23 1.5z" />
    <glyph glyph-name="S_ss01" horiz-adv-x="654" 
d="M409 476q19 -5 44.5 -11t52.5 -17t53.5 -27t47.5 -41t34 -59.5t13 -81.5t-13 -84.5t-33.5 -66.5t-45.5 -51.5t-50 -39.5q-26 -18 -56.5 -31t-63.5 -20.5t-66 -9t-65 4.5q-63 11 -115 45t-88 86q-37 53 -50 113.5t-2 123.5q17 94 81 161l41 -7q-15 -7 -32.5 -21t-33.5 -34
t-29 -45.5t-18 -55.5q-11 -62 2.5 -121.5t47.5 -108t84.5 -82.5t113.5 -45h4q69 -12 127.5 11t101 66.5t67 99.5t24.5 111q0 69 -16 108.5t-48.5 63.5t-80.5 39t-112 36q-21 7 -44 14t-45 15.5t-42 20t-35 27.5q-15 17 -21 36t-6 41q0 11 2.5 23.5t5.5 23.5q5 16 13 30
t19 27q31 40 76.5 56t94.5 16q38 0 67 -6t53 -19t45.5 -32t44.5 -45q5 -5 7 -8q-12 -26 -29 -53q-2 -2 -3 -4t-3 -4q-51 -72 -134 -106l-34 23q29 1 71 18t77 55q29 35 22 67.5t-34.5 57t-68.5 37.5t-81 10q-50 -4 -90 -29t-63 -72q-7 -14 -12.5 -31t-5.5 -34
q0 -42 20.5 -68t53.5 -43q17 -9 35.5 -16t38.5 -13q41 -12 84 -24z" />
    <glyph glyph-name="T_ss01" horiz-adv-x="1053" 
d="M411 791q59 16 120 31.5t121 27t117.5 17t109 1t96 -20.5t78.5 -48l-29 -33q-48 45 -113.5 62.5t-142 16t-160.5 -17.5t-169 -38v-702q0 -22 6.5 -47t28.5 -39q1 0 1 -1h-137q20 15 31 37.5t11 47.5v688q-59 -16 -112.5 -28.5t-101.5 -19.5q-19 -2 -35.5 -3.5t-31.5 -1.5
q-66 0 -99 27l20 31q13 -25 49 -38.5t96 -5.5q54 8 116 23.5t130 33.5z" />
    <glyph glyph-name="U_ss01" horiz-adv-x="683" 
d="M683 1011q-39 -25 -66.5 -61t-47.5 -81q-11 -27 -19.5 -56.5t-15.5 -61.5q0 -5 -2 -13q-2 -10 -3.5 -19.5t-2.5 -19.5q-2 -7 -2.5 -13.5t-1.5 -13.5q-1 -5 -1 -9.5t-1 -9.5q-4 -42 -6 -86q-1 -14 -1.5 -28.5t-0.5 -28.5q-1 -15 -1 -30.5v-31.5v-23v-5v-19v-12v-5v-48.5
t-1 -46.5v-20v-33q0 -9 -1 -23.5t-2.5 -30t-4.5 -30t-6 -22.5q-19 -49 -58 -79q-5 -4 -9.5 -7.5t-9.5 -6.5q-32 -20 -68.5 -29t-74.5 -9q-45 0 -86 12t-76 38q-33 25 -53 64t-20 81l-1 472q0 22 -10.5 46.5t-29.5 38.5h137q-23 -14 -30.5 -37t-7.5 -49v-468
q0 -41 11.5 -76.5t34 -61t55.5 -40t76 -14.5q62 0 105 19.5t69 48t37.5 61t11.5 58.5q0 8 0.5 23t0.5 32t0.5 32.5t0.5 23.5q1 11 1 23v24v53v20v2v32v5v9v44v33.5t1 33.5t1 32.5t2 31.5q1 23 3 45l4 44v4q1 3 1 6t1 6q1 5 1 8.5t1 7.5l4 24t4 23q1 2 1 3t1 3q1 5 3 13
q0 3 0.5 5.5t1.5 5.5q1 4 2 7.5t2 7.5q2 7 4 13t4 13q2 5 3.5 9t3.5 9q17 47 43.5 83.5t64.5 60.5z" />
    <glyph glyph-name="V_ss01" horiz-adv-x="738" 
d="M738 823h-1q-83 -22 -150 -101q-46 -53 -86 -135q-5 -8 -8.5 -17t-7.5 -17l-1 -1q-2 -3 -2.5 -6t-2.5 -6q-1 -1 -1 -2t-1 -2q-1 -2 -1 -2.5t-1 -2.5q-4 -8 -7 -16t-7 -17v0v0q-8 -20 -15.5 -40.5t-15.5 -43.5q-6 -18 -12.5 -36.5t-12.5 -38.5q-2 -5 -3.5 -11t-3.5 -12
l-2 -6l-9 -27l-6 -21q-14 -43 -28.5 -85t-29.5 -79l-3 -6q0 -2 -2 -4q-2 -6 -3 -8l-2 -3q0 -1 -0.5 -1.5t-0.5 -1.5q-5 -9 -8.5 -17.5t-8.5 -16.5l-2 -4l-2 -4l-9 -15q-13 -21 -27 -36l-2 -2q-21 -23 -48 -32h-1l-17 36h2q27 -2 54 18q16 13 29 30q6 6 13 18l-229 626
q-8 23 -22.5 42t-33.5 34h100q-7 -14 -7 -31q0 -14 2.5 -28t7.5 -26l206 -569q5 11 9.5 22.5t9.5 24.5v0q1 2 1 4q6 14 11.5 30.5t11.5 35.5q3 8 6 16.5t6 17.5q3 11 6.5 21t6.5 21v1q2 8 4.5 15t4.5 14l6 18t5 18l3 9q8 22 16.5 49t18.5 56q5 13 8.5 25t8.5 23l2 6l2 6
q9 24 18 45q4 10 8 19.5t8 18.5q4 8 8 17t8 17l7.5 15t7.5 14q2 2 2.5 4.5t2.5 4.5q1 2 1.5 2.5t1.5 2.5q2 3 3.5 6.5t3.5 6.5q4 4 5 8q2 3 4.5 6.5t4.5 6.5q4 6 7.5 11.5t7.5 11.5l12 15q65 84 147 105l2 1z" />
    <glyph glyph-name="W_ss01" horiz-adv-x="900" 
d="M900 752q-19 -15 -33.5 -34t-22.5 -42l-231 -654l-164 446q-5 -13 -9.5 -26.5t-9.5 -27.5q-6 -18 -12.5 -36.5t-12.5 -38.5q-2 -5 -3.5 -11t-3.5 -12l-2 -6l-9 -27l-6 -21q-14 -43 -28.5 -85t-29.5 -79l-3 -6q0 -2 -2 -4q-2 -6 -3 -8l-2 -3q0 -2 -1 -3q-5 -9 -8.5 -17.5
t-8.5 -16.5l-2 -4l-2 -4l-9 -15q-13 -21 -27 -36l-2 -2q-21 -23 -48 -32h-1l-17 36h2q27 -2 54 18q16 13 29 30q6 6 13 18l-229 626q-8 23 -22.5 42t-33.5 34h100q-7 -14 -7 -31q0 -14 2.5 -28t7.5 -26l206 -569q5 11 9.5 22.5t9.5 24.5v0q1 2 1 4q6 14 11.5 30.5t11.5 35.5
q3 8 6 16.5t6 17.5q3 11 6.5 21t6.5 21v1q2 8 4.5 15t4.5 14l6 18t5 18l3 9q8 22 16.5 49t18.5 56q3 12 7 19l-69 187q-17 45 -55 76h100q-5 -8 -6.5 -15.5t-1.5 -15.5q0 -29 11 -54l42 -119q3 8 6 14t5 13q4 10 8 19.5t8 18.5q4 8 8 17t8 17l7.5 15t8.5 14q2 6 4 9
q1 2 1.5 2.5t1.5 2.5q2 3 3.5 6.5t3.5 6.5q2 2 6 8q4 7 8 13t7.5 11.5t7.5 11.5l12 15q65 84 147 105l2 1l12 -45h-1q-83 -22 -150 -101q-46 -53 -86 -135q-5 -8 -8.5 -17t-7.5 -17l-1 -1q-1 -4 -5 -12q-1 -1 -1 -2t-1 -2q-1 -2 -1 -2.5t-1 -2.5q-2 -4 -3 -7l154 -423
l205 566q4 11 7 23.5t3 25.5q0 9 -1 18.5t-6 17.5h66z" />
    <glyph glyph-name="X_ss01" horiz-adv-x="721" 
d="M664 41q30 -13 57 -5l-8 -36q-19 2 -37 12q-9 4 -16 9q-1 0 -1 0.5t-1 0.5q-8 6 -16.5 13t-17.5 16q-5 5 -9 9.5t-9 9.5t-9.5 11t-9.5 12q-2 2 -3.5 4.5t-3.5 4.5t-3.5 4.5t-3.5 4.5q-26 36 -53 79t-55 91l-36 56l-3 -5q-27 -47 -54 -93.5t-54 -93.5q-3 -6 -10 -18
t-15 -26q-8 -13 -15 -25.5t-9 -18.5q-2 -7 -4 -14.5t-2 -15.5q0 -14 7 -24q2 -2 3 -2h-6q-17 -1 -32.5 -1h-31.5h-65q11 6 23.5 15.5t24.5 21t22.5 23.5t16.5 23l176 307q-8 12 -15.5 24t-15.5 24q-11 18 -23.5 36t-24.5 35q-8 10 -14.5 19t-14.5 18q-29 37 -60 68.5
t-64 56.5q-39 29 -81 46t-88 19l3 43q45 -2 86 -20t79 -49q4 -3 7.5 -6.5t7.5 -6.5q5 -5 10.5 -9.5t10.5 -9.5l10 -10q5 -5 8.5 -9t8.5 -9q3 -3 4 -5q8 -8 15.5 -17t15.5 -19q5 -6 10 -12.5t10 -13.5q14 -17 26.5 -35.5t24.5 -37.5q9 -13 17.5 -26t17.5 -27
q9 -15 17.5 -29.5t17.5 -28.5l152 264q6 11 11.5 27t5.5 29q0 8 -2 16.5t-8 14.5h134q-27 -12 -47 -35.5t-34 -47.5l-183 -318q5 -8 8.5 -14.5t7.5 -13.5l1 -1q10 -17 19 -32.5t18 -31.5q26 -42 50 -79.5t47 -69.5q11 -13 21 -24q0 -1 0.5 -1t0.5 -1q5 -5 9.5 -9t9.5 -8
q19 -16 36 -23z" />
    <glyph glyph-name="Y_ss01" horiz-adv-x="769" 
d="M769 825q-46 -2 -88 -18.5t-82 -45.5q-33 -24 -64 -55t-61 -68q-5 -5 -8.5 -11t-8.5 -11l-12 -15q-13 -17 -25 -35l-24 -36q-8 -11 -15.5 -23t-15.5 -24q-8 -14 -16.5 -26.5t-16.5 -26.5l-6 -10l-6 -10q0 -2 -2 -4q-2 -5 -5 -9t-5 -8v-304q0 -22 7 -46t28 -38q1 0 1 -1
h-136q20 15 31 38t11 47v208v17v78l-162 279q-14 25 -38 47t-50 36h137q-9 -7 -9 -24q0 -16 6.5 -34t13.5 -30l154 -266q2 5 5 8.5t5 8.5q0 1 1 1q4 7 8 13.5t8 14.5q1 1 1.5 2t1.5 2q2 5 5 8q11 21 22 37q9 15 18 29.5t18 28.5q8 14 17 27t17 26q13 19 26 37.5t26 35.5l3 3
q5 6 9 11.5t9 10.5q15 20 31 37l4 4l9 9l4 4l4 4q3 3 5.5 6t5.5 5q5 5 10 9.5t10 9.5l15 12q39 31 80.5 48.5t86.5 19.5z" />
    <glyph glyph-name="Z_ss01" horiz-adv-x="836" 
d="M836 -70l-1 -1q-33 -37 -75.5 -52.5t-93.5 -15.5q-39 0 -81 7.5t-85 19.5t-87 27.5t-86 30.5q-44 16 -84.5 29.5t-76.5 23.5q-9 2 -17 3.5t-16 3.5l-15 3h-6h-1h-2q-33 3 -57 -10q-11 -6 -18 -16t-12 -21h-3q-1 0 5.5 14.5t17.5 38.5t24.5 55t26.5 65l194 527q4 11 7 26
t3 27q0 6 -1 12.5t-5 11.5l-1 2h-192q-31 0 -55 -17.5t-43 -39.5l14 66h407q-24 -14 -43 -35.5t-30 -48.5l-213 -579q-3 -8 -4.5 -21.5t-1.5 -21.5q0 -11 3 -23q1 -1 1 -1.5t1 -1.5h1v0v0q7 -2 14 -3t15 -3q4 -2 7.5 -2.5t8.5 -2.5q5 -1 9.5 -2t9.5 -3q31 -9 63.5 -20.5
t67.5 -24.5v0q63 -23 133 -42.5t136 -24.5q140 -7 211 74l1 1z" />
    </font>
</defs>
</svg>
