<?xml version="1.0" standalone="no"?>
<!DOCTYPE svg PUBLIC "-//W3C//DTD SVG 1.1//EN" "http://www.w3.org/Graphics/SVG/1.1/DTD/svg11.dtd" >
<svg xmlns="http://www.w3.org/2000/svg" xmlns:xlink="http://www.w3.org/1999/xlink" version="1.1">
<metadata>
Created by FontForge 20190801 at Fri Oct  8 16:14:55 1999
 By www-data
Copyright (c) 1989, 1990 Adobe Systems Incorporated.  All Rights Reserved.Avant Garde Gothic is a registered trademark of International Typeface Corporation.
</metadata>
<defs>
<font id="ITCAvantGardeGothicMediumCondensed" horiz-adv-x="500" >
  <font-face 
    font-family="ITCAvantGardeGothicMediumCondensed"
    font-weight="500"
    font-stretch="condensed"
    units-per-em="1000"
    panose-1="2 11 6 6 0 0 0 0 0 0"
    ascent="774"
    descent="-226"
    x-height="560"
    cap-height="724"
    bbox="-167 -226 1001 980"
    underline-thickness="50"
    underline-position="-150"
    unicode-range="U+0020-FB02"
  />
<missing-glyph horiz-adv-x="278" 
 />
    <glyph glyph-name=".notdef" horiz-adv-x="278" 
 />
    <glyph glyph-name=".null" horiz-adv-x="0" 
 />
    <glyph glyph-name="nonmarkingreturn" horiz-adv-x="333" 
 />
    <glyph glyph-name="space" unicode=" " horiz-adv-x="278" 
 />
    <glyph glyph-name="space" unicode="&#xa0;" horiz-adv-x="278" 
 />
    <glyph glyph-name="exclam" unicode="!" horiz-adv-x="222" 
d="M60 182v542h102v-542h-102zM159 0h-96v124h96v-124z" />
    <glyph glyph-name="quotedbl" unicode="&#x22;" horiz-adv-x="333" 
d="M196 476v248h82v-248h-82zM55 476v248h82v-248h-82z" />
    <glyph glyph-name="numbersign" unicode="#" horiz-adv-x="556" 
d="M507 287l-5 -66h-100l-31 -221h-82l30 221h-115l-30 -221h-83l31 221h-98l5 66h103l20 150h-99l5 66h103l30 221h83l-34 -221h119l34 221h79l-30 -221h95l-5 -66h-99l-22 -150h96zM350 437h-115l-21 -150h115z" />
    <glyph glyph-name="dollar" unicode="$" horiz-adv-x="556" 
d="M56 206h102q0 -55 29.5 -88.5t83.5 -33.5q52 0 86.5 31.5t34.5 82.5q0 46 -33 76.5t-80 49t-94.5 39.5t-80.5 63t-33 105q0 83 45.5 135t125.5 58v78h76v-78q74 -9 115.5 -66t41.5 -141h-102q-5 123 -107 123q-44 0 -71.5 -30t-27.5 -75q0 -39 33 -65.5t80 -45.5
t94.5 -42t80.5 -68.5t33 -112.5q0 -83 -49 -141.5t-132 -59.5v-88h-76v88q-84 1 -129.5 56.5t-45.5 149.5z" />
    <glyph glyph-name="percent" unicode="%" horiz-adv-x="889" 
d="M214 736q77 0 123.5 -55t46.5 -132t-46.5 -132t-123.5 -55t-123.5 55t-46.5 132t46.5 132t123.5 55zM214 664q-45 0 -66.5 -34t-21.5 -81t21.5 -81t66.5 -34t66.5 34t21.5 81t-21.5 81t-66.5 34zM675 362q77 0 123.5 -55t46.5 -132t-46.5 -132t-123.5 -55t-123.5 55
t-46.5 132t46.5 132t123.5 55zM675 290q-45 0 -66.5 -34t-21.5 -81t21.5 -81t66.5 -34t66.5 34t21.5 81t-21.5 81t-66.5 34zM289 -12h-76l371 748h77z" />
    <glyph glyph-name="ampersand" unicode="&#x26;" horiz-adv-x="611" 
d="M288 384l112 -143q68 123 108 207l86 -43q-39 -78 -130 -241q12 -15 57 -72.5t69 -91.5h-120q-43 61 -61 81q-67 -93 -173 -93q-105 0 -156 59t-51 154q0 131 126 207q-53 73 -53 154q0 77 40.5 125.5t115.5 48.5q73 0 113.5 -44t40.5 -118q0 -59 -31.5 -101t-92.5 -89z
M350 151l-141 180q-84 -56 -84 -134q0 -47 27 -82t80 -35q27 0 50 11.5t33 21.5t35 38zM260 644q-32 0 -47 -22t-15 -55q0 -59 36 -105q49 36 65.5 61.5t16.5 56.5q0 27 -15.5 45.5t-40.5 18.5z" />
    <glyph glyph-name="quotesingle" unicode="'" horiz-adv-x="222" 
d="M70 476v248h82v-248h-82z" />
    <glyph glyph-name="parenleft" unicode="(" horiz-adv-x="389" 
d="M358 742v-98q-200 -133 -200 -377t200 -377v-98q-140 64 -218 193.5t-78 281.5t78 281.5t218 193.5z" />
    <glyph glyph-name="parenright" unicode=")" horiz-adv-x="389" 
d="M31 644v98q140 -64 218 -193.5t78 -281.5t-78 -281.5t-218 -193.5v98q200 133 200 377t-200 377z" />
    <glyph glyph-name="asterisk" unicode="*" horiz-adv-x="444" 
d="M184 724h76l-20 -150l121 92l38 -66l-139 -58l139 -59l-38 -65l-121 88l20 -148h-76l20 148l-121 -92l-38 69l135 59l-135 58l38 66l121 -92z" />
    <glyph glyph-name="plus" unicode="+" horiz-adv-x="600" 
d="M258 295v211h84v-211h211v-84h-211v-211h-84v211h-211v84h211z" />
    <glyph glyph-name="comma" unicode="," horiz-adv-x="278" 
d="M6 -104l103 228h89l-106 -228h-86z" />
    <glyph glyph-name="hyphen" unicode="-" horiz-adv-x="333" 
d="M47 238v84h239v-84h-239z" />
    <glyph glyph-name="hyphen" unicode="&#xad;" horiz-adv-x="333" 
d="M47 238v84h239v-84h-239z" />
    <glyph glyph-name="period" unicode="." horiz-adv-x="278" 
d="M187 0h-96v124h96v-124z" />
    <glyph glyph-name="slash" unicode="/" horiz-adv-x="278" 
d="M-15 -12l223 748h85l-223 -748h-85z" />
    <glyph glyph-name="zero" unicode="0" horiz-adv-x="556" 
d="M278 -12q-106 0 -172.5 99.5t-66.5 274.5t66.5 274.5t172.5 99.5t172.5 -99.5t66.5 -274.5t-66.5 -274.5t-172.5 -99.5zM415 362q0 139 -39.5 210.5t-97.5 71.5t-97.5 -71.5t-39.5 -210.5t39.5 -210.5t97.5 -71.5t97.5 71.5t39.5 210.5z" />
    <glyph glyph-name="one" unicode="1" horiz-adv-x="556" 
d="M118 724h227v-724h-102v640h-125v84z" />
    <glyph glyph-name="two" unicode="2" horiz-adv-x="556" 
d="M486 0h-442v88q70 81 140 156.5t100.5 107.5t57.5 66.5t34.5 58t7.5 57.5q0 47 -30.5 78.5t-77.5 31.5q-62 0 -93.5 -37.5t-34.5 -100.5h-102q0 108 62 169t171 61q87 0 147 -56t60 -143q0 -61 -20.5 -107.5t-84.5 -121.5t-207 -216h312v-92z" />
    <glyph glyph-name="three" unicode="3" horiz-adv-x="556" 
d="M215 347v86q32 0 51.5 1.5t43 7.5t36.5 17.5t22 33t9 52.5q0 43 -29 71t-80 28q-103 0 -113 -111h-102q1 101 63.5 152t164.5 51q80 0 139 -52t59 -132q0 -60 -27.5 -107.5t-78.5 -50.5v-2q66 -13 101 -63.5t35 -125.5q0 -100 -71.5 -157.5t-167.5 -57.5q-116 0 -176 61
t-60 170h102q0 -139 133 -139q67 0 102.5 37t35.5 82q0 72 -42 111t-117 39q-9 0 -33 -2z" />
    <glyph glyph-name="four" unicode="4" horiz-adv-x="556" 
d="M308 250v300h-2l-172 -300h174zM32 158v94l271 472h107v-474h90v-92h-90v-158h-102v158h-276z" />
    <glyph glyph-name="five" unicode="5" horiz-adv-x="556" 
d="M42 217h102q-2 -57 32 -97t90 -40q137 0 137 173q0 161 -124 161q-82 0 -116 -75l-103 23l43 362h367v-92h-278l-26 -181l2 -2q36 57 124 57q72 0 122 -38.5t70.5 -94.5t20.5 -123q0 -123 -63.5 -192.5t-181.5 -69.5q-111 0 -163.5 60.5t-54.5 168.5z" />
    <glyph glyph-name="six" unicode="6" horiz-adv-x="556" 
d="M498 532h-92q-7 52 -34 86t-77 34q-40 0 -69.5 -22.5t-45.5 -62.5t-23.5 -83.5t-9.5 -96.5h2q15 39 58.5 65t97.5 26q89 0 147.5 -68.5t58.5 -165.5q0 -118 -62.5 -187t-172.5 -69t-170.5 90.5t-60.5 263.5q0 196 65 295t186 99q93 0 146 -55.5t56 -148.5zM288 386
q-53 0 -88 -42.5t-35 -98.5q0 -79 32 -122t92 -43q120 0 120 145q0 75 -33 118t-88 43z" />
    <glyph glyph-name="seven" unicode="7" horiz-adv-x="556" 
d="M30 632v92h456v-80l-221 -644h-115l224 632h-344z" />
    <glyph glyph-name="eight" unicode="8" horiz-adv-x="556" 
d="M274 -12q-109 0 -174.5 61t-65.5 174q0 62 36 110.5t92 63.5v2q-43 14 -70.5 57t-27.5 94q0 90 63.5 138t156.5 48q88 0 147.5 -51.5t59.5 -137.5q0 -110 -88 -150v1v-2q119 -39 119 -186q0 -102 -70.5 -162t-177.5 -60zM276 347q-59 0 -96.5 -37.5t-37.5 -96.5
q0 -55 39 -94t94 -39q61 0 100 35t39 96q0 63 -37.5 99.5t-100.5 36.5zM278 439q49 0 77 28.5t28 75.5q0 44 -32 72.5t-73 28.5t-73.5 -29.5t-32.5 -72.5q0 -47 28.5 -75t77.5 -28z" />
    <glyph glyph-name="nine" unicode="9" horiz-adv-x="556" 
d="M58 192h92q15 -120 120 -120q37 0 65 23.5t44.5 64.5t25 89t10.5 104h-2q-14 -50 -59 -78.5t-103 -28.5q-96 0 -151 70t-55 194q0 96 62.5 161t158.5 65q113 0 179 -91.5t66 -262.5q0 -200 -62 -297t-189 -97q-93 0 -146 55.5t-56 148.5zM268 338q56 0 89.5 37.5
t33.5 103.5q0 73 -32 119t-86 46q-126 0 -126 -145q0 -75 33 -118t88 -43z" />
    <glyph glyph-name="colon" unicode=":" horiz-adv-x="278" 
d="M187 346h-96v124h96v-124zM187 0h-96v124h96v-124z" />
    <glyph glyph-name="semicolon" unicode=";" horiz-adv-x="278" 
d="M6 -104l103 228h89l-106 -228h-86zM187 346h-96v124h96v-124z" />
    <glyph glyph-name="less" unicode="&#x3c;" horiz-adv-x="600" 
d="M553 82v-90l-506 225v72l506 225v-90l-391 -171z" />
    <glyph glyph-name="equal" unicode="=" horiz-adv-x="600" 
d="M553 400v-84h-506v84h506zM553 190v-84h-506v84h506z" />
    <glyph glyph-name="greater" unicode="&#x3e;" horiz-adv-x="600" 
d="M47 -8v90l391 171l-391 171v90l506 -225v-72z" />
    <glyph glyph-name="question" unicode="?" horiz-adv-x="444" 
d="M259 182h-96v110q0 34 16 62.5t39 48.5t46 39.5t39 44.5t16 55q0 50 -25.5 78t-73.5 28q-42 0 -69 -25.5t-27 -77.5v-37h-102v50q0 75 53 126.5t148 51.5q91 0 144.5 -54t53.5 -134q0 -49 -16.5 -88t-40.5 -62t-48 -41.5t-40.5 -38t-16.5 -40.5v-96zM259 0h-96v124h96
v-124z" />
    <glyph glyph-name="at" unicode="@" horiz-adv-x="800" 
d="M358 218q58 0 100 61t42 123q0 37 -24 64t-58 27q-59 0 -100 -58.5t-41 -122.5q0 -41 22.5 -67.5t58.5 -26.5zM530 496l18 60h73l-75 -273q-8 -24 -8 -46q0 -26 19 -26q49 0 91 63t42 142q0 116 -79 185t-196 69q-130 0 -214.5 -89.5t-84.5 -221.5t88.5 -218.5
t219.5 -86.5q67 0 129 27.5t104 75.5h72q-49 -79 -131.5 -124t-177.5 -45q-160 0 -270 108t-110 267q0 156 110 264.5t265 108.5q142 0 243.5 -87t101.5 -221q0 -67 -26 -124t-64.5 -91.5t-79 -53.5t-73.5 -19q-25 0 -42.5 15.5t-18.5 44.5h-2q-54 -60 -115 -60
q-64 0 -107 47.5t-43 115.5q0 104 64 186t161 82q79 0 116 -75z" />
    <glyph glyph-name="A" unicode="A" 
d="M94 0h-97l200 724h98l208 -724h-96l-63 214h-192zM246 564l-71 -258h145l-72 258h-2z" />
    <glyph glyph-name="B" unicode="B" horiz-adv-x="556" 
d="M70 0v724h201q107 0 161 -52t54 -142q0 -55 -24 -96.5t-76 -54.5v-2q62 -7 96.5 -54.5t34.5 -114.5q0 -107 -61.5 -157.5t-164.5 -50.5h-221zM172 326v-234h117q126 0 126 117q0 50 -35.5 83.5t-96.5 33.5h-111zM172 632v-214h93q51 0 85 27.5t34 79.5t-34 79.5t-85 27.5
h-93z" />
    <glyph glyph-name="C" unicode="C" horiz-adv-x="556" 
d="M525 446h-96q-5 43 -13.5 76t-24 64.5t-42.5 48.5t-64 17q-69 0 -108 -78.5t-39 -211.5t39 -211.5t108 -78.5q34 0 59 12t39.5 29t24 46.5t13 53t7.5 60.5h96q0 -132 -58 -208.5t-181 -76.5q-109 0 -179 96t-70 278t70 278t179 96q120 0 175 -77.5t65 -212.5z" />
    <glyph glyph-name="D" unicode="D" horiz-adv-x="611" 
d="M70 0v724h215q76 0 133 -28.5t90.5 -79t49.5 -114t16 -140.5t-16 -140.5t-49.5 -114t-90.5 -79t-133 -28.5h-215zM172 632v-540h97q203 0 203 270t-203 270h-97z" />
    <glyph glyph-name="E" unicode="E" 
d="M434 0h-364v724h364v-92h-262v-208h262v-92h-262v-240h262v-92z" />
    <glyph glyph-name="F" unicode="F" horiz-adv-x="444" 
d="M70 724h344v-92h-242v-208h242v-92h-242v-332h-102v724z" />
    <glyph glyph-name="G" unicode="G" horiz-adv-x="611" 
d="M555 483h-104q-22 169 -146 169q-83 0 -125 -81.5t-42 -208.5q0 -128 42.5 -209t128.5 -81t119 53.5t33 154.5h-205v92h307v-90q0 -140 -64.5 -217t-189.5 -77q-129 0 -201 101t-72 273q0 171 71.5 272.5t197.5 101.5q108 0 176.5 -73t73.5 -180z" />
    <glyph glyph-name="H" unicode="H" horiz-adv-x="611" 
d="M172 0h-102v724h102v-300h267v300h102v-724h-102v332h-267v-332z" />
    <glyph glyph-name="I" unicode="I" horiz-adv-x="222" 
d="M162 0h-102v724h102v-724z" />
    <glyph glyph-name="J" unicode="J" horiz-adv-x="444" 
d="M8 209h102q0 -77 22 -107t63 -30q87 0 87 116v536h102v-537q0 -97 -48.5 -148t-143.5 -51q-96 0 -140 61t-44 160z" />
    <glyph glyph-name="K" unicode="K" horiz-adv-x="556" 
d="M172 0h-102v724h102v-339h2l240 339h112l-199 -281l229 -443h-117l-181 360l-86 -124v-236z" />
    <glyph glyph-name="L" unicode="L" horiz-adv-x="444" 
d="M430 0h-360v724h102v-632h258v-92z" />
    <glyph glyph-name="M" unicode="M" horiz-adv-x="722" 
d="M166 0h-96v724h143l152 -528h2l140 528h145v-724h-96v554h-2l-148 -554h-80l-158 554h-2v-554z" />
    <glyph glyph-name="N" unicode="N" horiz-adv-x="611" 
d="M172 0h-96v724h102l258 -516h2v516h96v-724h-94l-266 536h-2v-536z" />
    <glyph glyph-name="O" unicode="O" horiz-adv-x="611" 
d="M305 736q126 0 197.5 -101.5t71.5 -272.5t-71.5 -272.5t-197.5 -101.5t-197.5 101.5t-71.5 272.5t71.5 272.5t197.5 101.5zM305 652q-83 0 -125 -81.5t-42 -208.5t42 -208.5t125 -81.5t125 81.5t42 208.5t-42 208.5t-125 81.5z" />
    <glyph glyph-name="P" unicode="P" horiz-adv-x="556" 
d="M172 632v-264h106q63 0 98 34.5t35 97.5t-35 97.5t-97 34.5h-107zM172 0h-102v724h226q97 0 157 -61.5t60 -162.5q0 -102 -60 -163t-158 -61h-123v-276z" />
    <glyph glyph-name="Q" unicode="Q" horiz-adv-x="611" 
d="M588 82v-87q-28 -7 -61 -7q-60 0 -101 31q-54 -31 -121 -31q-126 0 -197.5 101.5t-71.5 272.5t71.5 272.5t197.5 101.5t197.5 -101.5t71.5 -272.5q0 -174 -72 -274q20 -10 40 -10t46 4zM218 262q36 0 67.5 -9t59 -29t42.5 -33.5t41 -39.5q44 78 44 211q0 127 -42 208.5
t-125 81.5t-125 -81.5t-42 -208.5q0 -58 9 -108q35 8 71 8zM305 72q30 0 57 12q-24 29 -38.5 44t-44 29.5t-64.5 14.5q-21 0 -41 -6q44 -94 131 -94z" />
    <glyph glyph-name="R" unicode="R" horiz-adv-x="556" 
d="M172 0h-102v724h202q97 0 167 -56t70 -158q0 -90 -41 -148.5t-124 -69.5l206 -292h-122l-248 370h80q64 0 105.5 32t41.5 92q0 64 -38.5 101t-104.5 37h-92v-632z" />
    <glyph glyph-name="S" unicode="S" 
d="M24 223h102q0 -151 123 -151q61 0 92.5 32t31.5 91q0 36 -18.5 61.5t-48 40t-65.5 27t-72 28t-65.5 36.5t-48 59t-18.5 90q0 88 59 143.5t148 55.5q100 0 157 -55t60 -156h-102q-1 55 -29.5 91t-82.5 36q-47 0 -77.5 -30.5t-30.5 -77.5q0 -35 18.5 -59t48 -37t65.5 -24.5
t72 -27t65.5 -37.5t48 -62t18.5 -96q0 -101 -63 -157t-156 -56q-117 0 -174 62t-58 173z" />
    <glyph glyph-name="T" unicode="T" horiz-adv-x="444" 
d="M16 724h412v-92h-155v-632h-102v632h-155v92z" />
    <glyph glyph-name="U" unicode="U" horiz-adv-x="556" 
d="M398 724h102v-513q0 -103 -55.5 -163t-166.5 -60t-166.5 60t-55.5 163v513h102v-531q0 -54 33 -83.5t87 -29.5t87 29.5t33 83.5v531z" />
    <glyph glyph-name="V" unicode="V" 
d="M251 152l152 572h98l-204 -724h-94l-204 724h97l153 -572h2z" />
    <glyph glyph-name="W" unicode="W" horiz-adv-x="833" 
d="M367 724h98l128 -582h2l128 582h102l-180 -724h-98l-130 574h-2l-130 -574h-98l-180 724h102l128 -582h2z" />
    <glyph glyph-name="X" unicode="X" 
d="M251 483l110 241h109l-167 -336l195 -388h-109l-140 282l-139 -282h-109l192 388l-168 336h109z" />
    <glyph glyph-name="Y" unicode="Y" 
d="M250 404l142 320h108l-199 -432v-292h-102v292l-199 432h107z" />
    <glyph glyph-name="Z" unicode="Z" horiz-adv-x="444" 
d="M17 84l279 548h-255v92h377v-93l-281 -539h290v-92h-410v84z" />
    <glyph glyph-name="bracketleft" unicode="[" horiz-adv-x="389" 
d="M344 -210h-256v934h256v-74h-170v-786h170v-74z" />
    <glyph glyph-name="backslash" unicode="\" horiz-adv-x="278" 
d="M70 736l223 -748h-85l-223 748h85z" />
    <glyph glyph-name="bracketright" unicode="]" horiz-adv-x="389" 
d="M45 724h256v-934h-256v74h170v786h-170v74z" />
    <glyph glyph-name="asciicircum" unicode="^" horiz-adv-x="600" 
d="M259 724h82l183 -378h-92l-132 276l-132 -276h-92z" />
    <glyph glyph-name="underscore" unicode="_" 
d="M500 -125h-500v50h500v-50z" />
    <glyph glyph-name="grave" unicode="`" horiz-adv-x="222" 
d="M89 764l89 -142h-67l-131 142h109z" />
    <glyph glyph-name="a" unicode="a" 
d="M344 217v118q0 69 -28 106t-74 37q-112 0 -112 -192q0 -116 27.5 -160t79.5 -44q49 0 78 33.5t29 101.5zM440 560v-560h-82v80h-2q-18 -48 -44 -69t-82 -21q-97 0 -146.5 75.5t-49.5 214.5q0 78 19 141.5t65 106t112 42.5q48 0 79 -23.5t47 -78.5h2v92h82z" />
    <glyph glyph-name="b" unicode="b" 
d="M156 335v-118q0 -68 29 -101.5t78 -33.5q52 0 79.5 44t27.5 160q0 192 -112 192q-46 0 -74 -37t-28 -106zM60 0v724h96v-216h3q33 62 111 62q66 0 112 -42.5t65 -106t19 -141.5q0 -139 -49.5 -214.5t-146.5 -75.5q-56 0 -82 21t-44 69h-2v-80h-82z" />
    <glyph glyph-name="c" unicode="c" horiz-adv-x="444" 
d="M422 359h-96q-5 48 -27.5 83.5t-68.5 35.5q-100 0 -100 -199q0 -197 104 -197q26 0 44 10.5t27.5 31.5t13.5 38t7 44h96q-2 -93 -51 -154.5t-140 -61.5q-68 0 -113.5 42.5t-64.5 105.5t-19 142t19 142t64.5 105.5t113.5 42.5q91 0 137.5 -60t53.5 -151z" />
    <glyph glyph-name="d" unicode="d" 
d="M344 217v118q0 69 -28 106t-74 37q-112 0 -112 -192q0 -116 27.5 -160t79.5 -44q49 0 78 33.5t29 101.5zM440 724v-724h-82v80h-2q-18 -48 -44 -69t-82 -21q-97 0 -146.5 75.5t-49.5 214.5q0 78 19 141.5t65 106t112 42.5q40 0 70 -18.5t41 -43.5h3v216h96z" />
    <glyph glyph-name="e" unicode="e" horiz-adv-x="444" 
d="M414 254h-284q0 -79 25 -125.5t74 -46.5q38 0 63.5 31.5t25.5 84.5h96q-6 -84 -57 -146t-127 -62q-88 0 -142 76.5t-54 213.5t54 213.5t142 76.5q90 0 137 -72t47 -186v-58zM132 330h186q0 156 -91 156q-95 0 -95 -156z" />
    <glyph glyph-name="f" unicode="f" horiz-adv-x="222" 
d="M158 476v-476h-96v476h-60v84h60v48q0 59 27.5 87.5t88.5 28.5h51v-84h-30q-41 0 -41 -38v-42h71v-84h-71z" />
    <glyph glyph-name="g" unicode="g" 
d="M344 225v118q0 68 -29 101.5t-78 33.5q-52 0 -79.5 -44t-27.5 -160q0 -192 112 -192q46 0 74 37t28 106zM358 560h82v-584q0 -88 -55 -131t-136 -43q-92 0 -150.5 45t-58.5 132h96q3 -39 32 -62t72 -23q25 0 41 3t33 12.5t25.5 31t8.5 55.5v76h-3q-29 -82 -115 -82
q-66 0 -112 42.5t-65 106t-19 141.5q0 139 49.5 214.5t146.5 75.5q56 0 82 -21t44 -69h2v80z" />
    <glyph glyph-name="h" unicode="h" 
d="M156 0h-96v724h98v-220h2q38 66 120 66q76 0 118 -47.5t42 -130.5v-392h-96v362q0 116 -84 116q-43 0 -73.5 -30t-30.5 -86v-362z" />
    <glyph glyph-name="i" unicode="i" horiz-adv-x="222" 
d="M159 0h-96v560h96v-560zM63 622v102h96v-102h-96z" />
    <glyph glyph-name="j" unicode="j" horiz-adv-x="222" 
d="M-31 -204v92h49q48 0 48 50v622h96v-631q0 -73 -35.5 -103t-101.5 -30h-56zM162 622h-96v102h96v-102z" />
    <glyph glyph-name="k" unicode="k" horiz-adv-x="444" 
d="M156 0h-96v724h96v-412h2l176 248h107l-149 -206l167 -354h-105l-127 273l-71 -99v-174z" />
    <glyph glyph-name="l" unicode="l" horiz-adv-x="222" 
d="M159 0h-96v724h96v-724z" />
    <glyph glyph-name="m" unicode="m" horiz-adv-x="778" 
d="M60 0v560h92v-70h2q30 80 127 80q88 0 134 -71q43 71 140 71q163 0 163 -190v-380h-96v376q0 54 -20.5 78t-63.5 24q-101 0 -101 -126v-352h-96v376q0 54 -21 78t-64 24q-100 0 -100 -126v-352h-96z" />
    <glyph glyph-name="n" unicode="n" 
d="M156 0h-96v560h86v-70h2q23 44 52 62t80 18q76 0 118 -47.5t42 -130.5v-392h-96v362q0 116 -84 116q-43 0 -73.5 -30t-30.5 -86v-362z" />
    <glyph glyph-name="o" unicode="o" 
d="M466 280q0 -135 -56 -212.5t-160 -77.5t-160 77.5t-56 212.5t56 212.5t160 77.5t160 -77.5t56 -212.5zM370 280q0 110 -30.5 158t-89.5 48t-89.5 -48t-30.5 -158t30.5 -158t89.5 -48t89.5 48t30.5 158z" />
    <glyph glyph-name="p" unicode="p" 
d="M156 343v-118q0 -69 28 -106t74 -37q112 0 112 192q0 116 -27.5 160t-79.5 44q-49 0 -78 -33.5t-29 -101.5zM60 -198v758h86v-80h2q11 45 38.5 67.5t83.5 22.5q97 0 146.5 -75.5t49.5 -214.5q0 -78 -19 -141.5t-65 -106t-112 -42.5q-40 0 -70 18.5t-41 43.5h-3v-250h-96z
" />
    <glyph glyph-name="q" unicode="q" 
d="M344 225v118q0 68 -29 101.5t-78 33.5q-52 0 -79.5 -44t-27.5 -160q0 -192 112 -192q46 0 74 37t28 106zM440 560v-758h-96v270h-3q-11 -39 -40 -60.5t-71 -21.5q-66 0 -112 42.5t-65 106t-19 141.5q0 139 49.5 214.5t146.5 75.5q56 0 82 -21t44 -69h2v80h82z" />
    <glyph glyph-name="r" unicode="r" horiz-adv-x="278" 
d="M156 0h-96v560h85v-62h2q33 72 128 72v-98q-119 -3 -119 -137v-335z" />
    <glyph glyph-name="s" unicode="s" horiz-adv-x="389" 
d="M364 397h-90q-8 81 -84 81q-70 0 -70 -64q0 -30 25 -48.5t61 -30t72 -27t61 -51.5t25 -93q0 -83 -46.5 -128.5t-125.5 -45.5q-77 0 -126 52.5t-49 128.5h90q2 -41 26 -65t66 -24q35 0 55 20t20 55q0 33 -25 52.5t-61 31t-72 26.5t-61 49.5t-25 89.5q0 77 44.5 120.5
t120.5 43.5q75 0 121.5 -48.5t47.5 -124.5z" />
    <glyph glyph-name="t" unicode="t" horiz-adv-x="222" 
d="M222 476h-63v-476h-96v476h-63v84h63v134h96v-134h63v-84z" />
    <glyph glyph-name="u" unicode="u" 
d="M344 560h96v-560h-86v84h-2q-28 -94 -132 -94q-76 0 -118 47.5t-42 130.5v392h96v-362q0 -116 84 -116q43 0 73.5 30t30.5 86v362z" />
    <glyph glyph-name="v" unicode="v" horiz-adv-x="444" 
d="M170 0l-164 560h100l115 -432h2l115 432h100l-164 -560h-104z" />
    <glyph glyph-name="w" unicode="w" horiz-adv-x="667" 
d="M291 560h84l105 -462h2l78 462h95l-127 -560h-106l-88 452h-2l-88 -452h-106l-127 560h95l78 -462h2z" />
    <glyph glyph-name="x" unicode="x" horiz-adv-x="444" 
d="M330 0l-112 196l-107 -196h-110l162 289l-153 271h110l98 -192l97 192h110l-149 -271l167 -289h-113z" />
    <glyph glyph-name="y" unicode="y" horiz-adv-x="444" 
d="M438 560l-232 -758h-100l63 213l-163 545h99l117 -399h2l114 399h100z" />
    <glyph glyph-name="z" unicode="z" horiz-adv-x="444" 
d="M410 92v-92h-376v90l254 378h-235v92h349v-92l-258 -376h266z" />
    <glyph glyph-name="braceleft" unicode="{" horiz-adv-x="389" 
d="M43 232v62q65 7 65 88v238q0 45 25.5 81t76.5 35h154v-74h-118q-52 0 -52 -58v-242q0 -85 -59 -98v-2q59 -13 59 -98v-242q0 -58 52 -58h118v-74h-154q-51 -1 -76.5 35t-25.5 81v238q0 81 -65 88z" />
    <glyph glyph-name="bar" unicode="|" horiz-adv-x="222" 
d="M69 -12v748h84v-748h-84z" />
    <glyph glyph-name="braceright" unicode="}" horiz-adv-x="389" 
d="M346 294v-62q-65 -7 -65 -88v-238q0 -45 -25.5 -81t-76.5 -35h-154v74h118q52 0 52 58v242q0 85 59 98v2q-59 13 -59 98v242q0 58 -52 58h-118v74h154q51 1 76.5 -35t25.5 -81v-238q0 -81 65 -88z" />
    <glyph glyph-name="asciitilde" unicode="~" horiz-adv-x="600" 
d="M495 337l36 -78q-45 -86 -125 -86q-39 0 -111 32q-7 3 -21.5 9.5t-23 10t-20 8t-20.5 6.5t-17 2q-19 0 -36.5 -12t-27 -24.5t-24.5 -35.5l-36 78q45 86 125 86q39 0 111 -32q7 -3 21.5 -9.5t23 -10t20 -8t20.5 -6.5t17 -2q19 0 36.5 12t27 24.5t24.5 35.5z" />
    <glyph glyph-name="exclamdown" unicode="&#xa1;" horiz-adv-x="222" 
d="M162 378v-542h-102v542h102zM63 560h96v-124h-96v124z" />
    <glyph glyph-name="cent" unicode="&#xa2;" horiz-adv-x="556" 
d="M368 284h96q-3 -80 -41 -138.5t-108 -72.5v-99h-74v97q-85 13 -126 93.5t-41 193.5q0 73 16 132.5t55 103t96 52.5v104h74v-106q69 -15 103.5 -71.5t40.5 -135.5h-96q-5 49 -26.5 84t-66.5 35q-100 0 -100 -199q0 -197 104 -197q21 0 37 8t25 18.5t16 30t9.5 32t6.5 35.5
z" />
    <glyph glyph-name="sterling" unicode="&#xa3;" horiz-adv-x="556" 
d="M123 326h-114v84h59q-30 43 -30 97q0 96 67.5 161.5t163.5 65.5q87 0 149 -58t72 -144h-96q-11 52 -44.5 81t-86.5 29q-55 0 -92 -37.5t-37 -92.5q0 -49 33 -102h217v-84h-158q63 -60 63 -145q0 -35 -32 -89h51q56 0 91 31t35 86q0 17 -4 53h98q1 -5 4.5 -24.5t3.5 -31.5
q0 -80 -56.5 -143t-163.5 -63h-277v92h120q28 48 28 94q0 8 -1 16t-3.5 16.5t-4 14.5t-6.5 15.5t-7.5 14t-9.5 15.5t-9.5 14.5t-11.5 17z" />
    <glyph glyph-name="currency" unicode="&#xa4;" horiz-adv-x="556" 
d="M24 566l50 49l56 -56q59 50 148 50t148 -50l56 56l50 -49l-58 -58q52 -52 52 -146t-52 -146l58 -58l-50 -49l-56 56q-59 -50 -148 -50t-148 50l-56 -56l-50 49l58 58q-52 52 -52 146t52 146zM118 362q0 -69 47 -118t113 -49t113 49t47 118t-47 118t-113 49t-113 -49
t-47 -118z" />
    <glyph glyph-name="yen" unicode="&#xa5;" horiz-adv-x="556" 
d="M510 392h-146l-35 -76v-4h181v-84h-181v-228h-102v228h-179v84h179v4l-35 76h-144v84h106l-114 248h96l142 -320l142 320h96l-114 -248h108v-84z" />
    <glyph glyph-name="brokenbar" unicode="&#xa6;" horiz-adv-x="222" 
d="M69 -12v284h84v-284h-84zM69 452v284h84v-284h-84z" />
    <glyph glyph-name="section" unicode="&#xa7;" horiz-adv-x="444" 
d="M182 300q67 -75 102 -75q49 0 49 44q0 7 -2 14.5t-7 15.5t-9.5 14.5t-13.5 16t-14 15t-16 16.5l-16 16q-11 11 -25.5 26.5t-19.5 20.5t-13.5 12.5t-13 9.5t-11 3.5t-15.5 1.5q-17 0 -32 -12.5t-15 -32.5q0 -14 6.5 -27.5t13 -21.5t25.5 -28t27 -29zM374 656l-61 -44
q-20 29 -40 43.5t-50 14.5q-23 0 -39 -15.5t-16 -36.5q0 -26 38.5 -70t85 -85.5t85 -93t38.5 -89.5q0 -53 -30 -83t-82 -30q57 -66 57 -126q0 -52 -43.5 -86.5t-98.5 -34.5q-92 0 -159 86l60 47q46 -67 92 -67q27 0 45 19t18 50q0 22 -25.5 55.5t-61.5 69t-72 72t-61.5 76
t-25.5 70.5q0 47 31.5 75.5t76.5 35.5l-12 16t-13 17t-11 16t-10 18.5t-5.5 18.5t-2.5 21q0 57 44.5 88.5t104.5 31.5q79 0 143 -80z" />
    <glyph glyph-name="dieresis" unicode="&#xa8;" horiz-adv-x="222" 
d="M74 638h-90v98h90v-98zM238 638h-90v98h90v-98z" />
    <glyph glyph-name="copyright" unicode="&#xa9;" horiz-adv-x="800" 
d="M401 -12q-157 0 -269 106.5t-112 268.5q0 161 112.5 267t268.5 106t267.5 -106t111.5 -267q0 -162 -111.5 -268.5t-267.5 -106.5zM401 670q-125 0 -211 -88.5t-86 -218.5q0 -133 85.5 -221t211.5 -88q125 0 210 88t85 221q0 130 -85 218.5t-210 88.5zM525 294h73
q-14 -73 -64.5 -115.5t-119.5 -42.5q-98 0 -158 65t-60 163q0 100 58.5 163t157.5 63q73 0 123.5 -40.5t61.5 -114.5h-72q-7 40 -37.5 62.5t-75.5 22.5q-64 0 -99 -43t-35 -112q0 -67 37.5 -113t98.5 -46q46 0 76 24t35 64z" />
    <glyph glyph-name="ordfeminine" unicode="&#xaa;" horiz-adv-x="300" 
d="M202 532v55q0 85 -57 85q-61 0 -61 -106q0 -114 58 -114q60 0 60 80zM277 730v-336h-58v48h-2q-11 -29 -28 -41.5t-53 -12.5q-63 0 -95.5 45.5t-32.5 128.5q0 73 32 123.5t96 50.5q62 0 81 -61h2v55h58z" />
    <glyph glyph-name="guillemotleft" unicode="&#xab;" horiz-adv-x="444" 
d="M246 461l-136 -181l136 -181h-88l-136 181l136 181h88zM422 461l-136 -181l136 -181h-88l-136 181l136 181h88z" />
    <glyph glyph-name="logicalnot" unicode="&#xac;" horiz-adv-x="600" 
d="M469 106v210h-422v84h506v-294h-84z" />
    <glyph glyph-name="registered" unicode="&#xae;" horiz-adv-x="800" 
d="M352 333v-185h-84v427h162q79 0 117.5 -29.5t38.5 -92.5q0 -55 -28.5 -83t-72.5 -34l108 -188h-88l-103 185h-50zM352 513v-118h64q49 0 68.5 12.5t19.5 50.5q0 55 -81 55h-71zM401 -12q-157 0 -269 106.5t-112 268.5q0 161 112.5 267t268.5 106t267.5 -106t111.5 -267
q0 -162 -111.5 -268.5t-267.5 -106.5zM401 670q-125 0 -211 -88.5t-86 -218.5q0 -133 85.5 -221t211.5 -88q125 0 210 88t85 221q0 130 -85 218.5t-210 88.5z" />
    <glyph glyph-name="macron" unicode="&#xaf;" horiz-adv-x="222" 
d="M266 657h-310v58h310v-58z" />
    <glyph glyph-name="macron" unicode="&#x2c9;" horiz-adv-x="222" 
d="M266 657h-310v58h310v-58z" />
    <glyph glyph-name="degree" unicode="&#xb0;" horiz-adv-x="400" 
d="M200 500q36 0 62.5 28t26.5 66q0 37 -26.5 64.5t-62.5 27.5t-62.5 -27.5t-26.5 -64.5q0 -38 26.5 -66t62.5 -28zM200 450q-60 0 -101.5 41.5t-41.5 101.5t41.5 101.5t101.5 41.5t101.5 -41.5t41.5 -101.5t-41.5 -101.5t-101.5 -41.5z" />
    <glyph glyph-name="plusminus" unicode="&#xb1;" horiz-adv-x="600" 
d="M258 354v152h84v-152h211v-84h-211v-152h-84v152h-211v84h211zM47 0v84h506v-84h-506z" />
    <glyph glyph-name="twosuperior" unicode="&#xb2;" horiz-adv-x="333" 
d="M311 294h-287v61q50 55 101 106.5t68 69t28.5 38t11.5 45.5q0 24 -17 39t-50 15q-34 0 -53 -20t-18 -50h-74q0 65 41 101.5t114 36.5q57 0 96 -34t39 -86q0 -55 -28.5 -93.5t-154.5 -160.5h183v-68z" />
    <glyph glyph-name="threesuperior" unicode="&#xb3;" horiz-adv-x="333" 
d="M132 493v65q98 0 98 59q0 21 -17.5 36t-46.5 15q-61 0 -72 -54h-72q1 61 42.5 91.5t110.5 30.5q52 0 91.5 -31.5t39.5 -79.5q0 -37 -12.5 -59.5t-45.5 -35.5v-2q36 -9 57 -39.5t21 -72.5q0 -60 -47 -95t-111 -35q-154 0 -154 143h76q0 -34 19.5 -54.5t57.5 -20.5
t60.5 18.5t22.5 48.5q0 34 -27 53.5t-70 19.5q-13 0 -21 -1z" />
    <glyph glyph-name="acute" unicode="&#xb4;" horiz-adv-x="222" 
d="M44 622l89 142h109l-131 -142h-67z" />
    <glyph glyph-name="mu" unicode="&#xb5;" 
d="M344 560h96v-560h-86v84h-2q-28 -94 -132 -94q-34 0 -64 11v-199h-96v758h96v-362q0 -116 84 -116q43 0 73.5 30t30.5 86v362z" />
    <glyph glyph-name="mu" unicode="&#x3bc;" 
d="M344 560h96v-560h-86v84h-2q-28 -94 -132 -94q-34 0 -64 11v-199h-96v758h96v-362q0 -116 84 -116q43 0 73.5 30t30.5 86v362z" />
    <glyph glyph-name="paragraph" unicode="&#xb6;" horiz-adv-x="600" 
d="M260 -80v434q-98 0 -154.5 50.5t-56.5 131.5q0 188 221 188h218v-804h-82v742h-64v-742h-82z" />
    <glyph glyph-name="periodcentered" unicode="&#xb7;" horiz-adv-x="278" 
d="M139 308q22 0 38.5 -16.5t16.5 -38.5t-16.5 -38.5t-38.5 -16.5t-38.5 16.5t-16.5 38.5t16.5 38.5t38.5 16.5z" />
    <glyph glyph-name="periodcentered" unicode="&#x2219;" horiz-adv-x="278" 
d="M139 308q22 0 38.5 -16.5t16.5 -38.5t-16.5 -38.5t-38.5 -16.5t-38.5 16.5t-16.5 38.5t16.5 38.5t38.5 16.5z" />
    <glyph glyph-name="cedilla" unicode="&#xb8;" horiz-adv-x="222" 
d="M58 -107l-17 20l63 87h48l-43 -57q24 4 35 4q35 0 56 -22.5t21 -57.5q0 -46 -34.5 -69.5t-82.5 -23.5q-46 0 -98 22l17 43q39 -13 63 -13q59 0 59 35q0 20 -14 30t-35 10q-19 0 -38 -8z" />
    <glyph glyph-name="onesuperior" unicode="&#xb9;" horiz-adv-x="333" 
d="M66 728h155v-434h-78v372h-77v62z" />
    <glyph glyph-name="ordmasculine" unicode="&#xba;" horiz-adv-x="300" 
d="M151 736q140 0 140 -174t-140 -174q-142 0 -142 174t142 174zM151 680q-60 0 -60 -118t60 -118q58 0 58 118t-58 118z" />
    <glyph glyph-name="guillemotright" unicode="&#xbb;" horiz-adv-x="444" 
d="M198 99l136 181l-136 181h88l136 -181l-136 -181h-88zM22 99l136 181l-136 181h88l136 -181l-136 -181h-88z" />
    <glyph glyph-name="onequarter" unicode="&#xbc;" horiz-adv-x="834" 
d="M656 158v152h-2l-95 -152h97zM477 90v77l172 263h85v-272h51v-68h-51v-90h-78v90h-179zM581 736h81l-379 -748h-82zM94 728h155v-434h-78v372h-77v62z" />
    <glyph glyph-name="onehalf" unicode="&#xbd;" horiz-adv-x="834" 
d="M545 736h81l-379 -748h-82zM94 728h155v-434h-78v372h-77v62zM770 0h-287v61q50 55 101 106.5t68 69t28.5 38t11.5 45.5q0 24 -17 39t-50 15q-34 0 -53 -20t-18 -50h-74q0 65 41 101.5t114 36.5q57 0 96 -34t39 -86q0 -55 -28.5 -93.5t-154.5 -160.5h183v-68z" />
    <glyph glyph-name="threequarters" unicode="&#xbe;" horiz-adv-x="834" 
d="M656 158v152h-2l-95 -152h97zM477 90v77l172 263h85v-272h51v-68h-51v-90h-78v90h-179zM597 736h81l-379 -748h-82zM172 493v65q98 0 98 59q0 21 -17.5 36t-46.5 15q-61 0 -72 -54h-72q1 61 42.5 91.5t110.5 30.5q52 0 91.5 -31.5t39.5 -79.5q0 -37 -12.5 -59.5
t-45.5 -35.5v-2q36 -9 57 -39.5t21 -72.5q0 -60 -47 -95t-111 -35q-154 0 -154 143h76q0 -34 19.5 -54.5t57.5 -20.5t60.5 18.5t22.5 48.5q0 34 -27 53.5t-70 19.5q-13 0 -21 -1z" />
    <glyph glyph-name="questiondown" unicode="&#xbf;" horiz-adv-x="444" 
d="M185 378h96v-110q0 -34 -16 -63t-39 -49t-46 -39t-39 -43.5t-16 -51.5q0 -106 99 -106q42 0 69 24t27 75v37h102v-50q0 -75 -53 -126.5t-148 -51.5q-91 0 -144.5 54t-53.5 134q0 49 16.5 88t40.5 62t48 41.5t40.5 38t16.5 40.5v96zM185 560h96v-124h-96v124z" />
    <glyph glyph-name="Agrave" unicode="&#xc0;" 
d="M94 0h-97l200 724h98l208 -724h-96l-63 214h-192zM246 564l-71 -258h145l-72 258h-2zM228 904l89 -142h-67l-131 142h109z" />
    <glyph glyph-name="Aacute" unicode="&#xc1;" 
d="M94 0h-97l200 724h98l208 -724h-96l-63 214h-192zM246 564l-71 -258h145l-72 258h-2zM183 762l89 142h109l-131 -142h-67z" />
    <glyph glyph-name="Acircumflex" unicode="&#xc2;" 
d="M94 0h-97l200 724h98l208 -724h-96l-63 214h-192zM246 564l-71 -258h145l-72 258h-2zM105 762l99 142h91l100 -142h-79l-66 94l-66 -94h-79z" />
    <glyph glyph-name="Atilde" unicode="&#xc3;" 
d="M94 0h-97l200 724h98l208 -724h-96l-63 214h-192zM246 564l-71 -258h145l-72 258h-2zM370 889h50q-3 -41 -30.5 -75t-67.5 -34q-23 0 -78 19t-72 19q-16 0 -27.5 -14t-14.5 -31h-50q2 45 31 76t73 31q28 0 74 -18q44 -18 65 -18q42 0 47 45z" />
    <glyph glyph-name="Adieresis" unicode="&#xc4;" 
d="M94 0h-97l200 724h98l208 -724h-96l-63 214h-192zM246 564l-71 -258h145l-72 258h-2zM213 778h-90v98h90v-98zM377 778h-90v98h90v-98z" />
    <glyph glyph-name="Aring" unicode="&#xc5;" 
d="M94 0h-97l200 724h98l208 -724h-96l-63 214h-192zM246 564l-71 -258h145l-72 258h-2zM249 762q-45 0 -76.5 31.5t-31.5 76.5t31.5 77.5t76.5 32.5q44 0 77 -32.5t33 -77.5t-32.5 -76.5t-77.5 -31.5zM249 932q-25 0 -42.5 -18t-17.5 -44t17.5 -43t42.5 -17q26 0 44 17.5
t18 42.5q0 26 -18.5 44t-43.5 18z" />
    <glyph glyph-name="AE" unicode="&#xc6;" horiz-adv-x="833" 
d="M87 0h-105l359 724h426v-92h-271v-208h271v-92h-271v-240h271v-92h-373v214h-206zM234 306h160v326h-2z" />
    <glyph glyph-name="Ccedilla" unicode="&#xc7;" horiz-adv-x="556" 
d="M525 446h-96q-5 43 -13.5 76t-24 64.5t-42.5 48.5t-64 17q-69 0 -108 -78.5t-39 -211.5t39 -211.5t108 -78.5q34 0 59 12t39.5 29t24 46.5t13 53t7.5 60.5h96q0 -132 -58 -208.5t-181 -76.5q-109 0 -179 96t-70 278t70 278t179 96q120 0 175 -77.5t65 -212.5zM225 -107
l-17 20l63 87h48l-43 -57q24 4 35 4q35 0 56 -22.5t21 -57.5q0 -46 -34.5 -69.5t-82.5 -23.5q-46 0 -98 22l17 43q39 -13 63 -13q59 0 59 35q0 20 -14 30t-35 10q-19 0 -38 -8z" />
    <glyph glyph-name="Egrave" unicode="&#xc8;" 
d="M434 0h-364v724h364v-92h-262v-208h262v-92h-262v-240h262v-92zM234 904l89 -142h-67l-131 142h109z" />
    <glyph glyph-name="Eacute" unicode="&#xc9;" 
d="M434 0h-364v724h364v-92h-262v-208h262v-92h-262v-240h262v-92zM189 762l89 142h109l-131 -142h-67z" />
    <glyph glyph-name="Ecircumflex" unicode="&#xca;" 
d="M434 0h-364v724h364v-92h-262v-208h262v-92h-262v-240h262v-92zM111 762l99 142h91l100 -142h-79l-66 94l-66 -94h-79z" />
    <glyph glyph-name="Edieresis" unicode="&#xcb;" 
d="M434 0h-364v724h364v-92h-262v-208h262v-92h-262v-240h262v-92zM219 778h-90v98h90v-98zM383 778h-90v98h90v-98z" />
    <glyph glyph-name="Igrave" unicode="&#xcc;" horiz-adv-x="222" 
d="M162 0h-102v724h102v-724zM89 904l89 -142h-67l-131 142h109z" />
    <glyph glyph-name="Iacute" unicode="&#xcd;" horiz-adv-x="222" 
d="M162 0h-102v724h102v-724zM44 762l89 142h109l-131 -142h-67z" />
    <glyph glyph-name="Icircumflex" unicode="&#xce;" horiz-adv-x="222" 
d="M162 0h-102v724h102v-724zM-34 762l99 142h91l100 -142h-79l-66 94l-66 -94h-79z" />
    <glyph glyph-name="Idieresis" unicode="&#xcf;" horiz-adv-x="222" 
d="M162 0h-102v724h102v-724zM74 778h-90v98h90v-98zM238 778h-90v98h90v-98z" />
    <glyph glyph-name="Eth" unicode="&#xd0;" horiz-adv-x="611" 
d="M-14 426h84v298h215q76 0 133 -28.5t90.5 -79t49.5 -114t16 -140.5t-16 -140.5t-49.5 -114t-90.5 -79t-133 -28.5h-215v334h-84v92zM172 426h178v-92h-178v-242h97q203 0 203 270t-203 270h-97v-206z" />
    <glyph glyph-name="Ntilde" unicode="&#xd1;" horiz-adv-x="611" 
d="M172 0h-96v724h102l258 -516h2v516h96v-724h-94l-266 536h-2v-536zM426 889h50q-3 -41 -30.5 -75t-67.5 -34q-23 0 -78 19t-72 19q-16 0 -27.5 -14t-14.5 -31h-50q2 45 31 76t73 31q28 0 74 -18q44 -18 65 -18q42 0 47 45z" />
    <glyph glyph-name="Ograve" unicode="&#xd2;" horiz-adv-x="611" 
d="M305 736q126 0 197.5 -101.5t71.5 -272.5t-71.5 -272.5t-197.5 -101.5t-197.5 101.5t-71.5 272.5t71.5 272.5t197.5 101.5zM305 652q-83 0 -125 -81.5t-42 -208.5t42 -208.5t125 -81.5t125 81.5t42 208.5t-42 208.5t-125 81.5zM284 904l89 -142h-67l-131 142h109z" />
    <glyph glyph-name="Oacute" unicode="&#xd3;" horiz-adv-x="611" 
d="M305 736q126 0 197.5 -101.5t71.5 -272.5t-71.5 -272.5t-197.5 -101.5t-197.5 101.5t-71.5 272.5t71.5 272.5t197.5 101.5zM305 652q-83 0 -125 -81.5t-42 -208.5t42 -208.5t125 -81.5t125 81.5t42 208.5t-42 208.5t-125 81.5zM239 762l89 142h109l-131 -142h-67z" />
    <glyph glyph-name="Ocircumflex" unicode="&#xd4;" horiz-adv-x="611" 
d="M305 736q126 0 197.5 -101.5t71.5 -272.5t-71.5 -272.5t-197.5 -101.5t-197.5 101.5t-71.5 272.5t71.5 272.5t197.5 101.5zM305 652q-83 0 -125 -81.5t-42 -208.5t42 -208.5t125 -81.5t125 81.5t42 208.5t-42 208.5t-125 81.5zM161 762l99 142h91l100 -142h-79l-66 94
l-66 -94h-79z" />
    <glyph glyph-name="Otilde" unicode="&#xd5;" horiz-adv-x="611" 
d="M305 736q126 0 197.5 -101.5t71.5 -272.5t-71.5 -272.5t-197.5 -101.5t-197.5 101.5t-71.5 272.5t71.5 272.5t197.5 101.5zM305 652q-83 0 -125 -81.5t-42 -208.5t42 -208.5t125 -81.5t125 81.5t42 208.5t-42 208.5t-125 81.5zM426 889h50q-3 -41 -30.5 -75t-67.5 -34
q-23 0 -78 19t-72 19q-16 0 -27.5 -14t-14.5 -31h-50q2 45 31 76t73 31q28 0 74 -18q44 -18 65 -18q42 0 47 45z" />
    <glyph glyph-name="Odieresis" unicode="&#xd6;" horiz-adv-x="611" 
d="M305 736q126 0 197.5 -101.5t71.5 -272.5t-71.5 -272.5t-197.5 -101.5t-197.5 101.5t-71.5 272.5t71.5 272.5t197.5 101.5zM305 652q-83 0 -125 -81.5t-42 -208.5t42 -208.5t125 -81.5t125 81.5t42 208.5t-42 208.5t-125 81.5zM269 778h-90v98h90v-98zM433 778h-90v98h90
v-98z" />
    <glyph glyph-name="multiply" unicode="&#xd7;" horiz-adv-x="600" 
d="M360 253l193 -193l-59 -60l-194 194l-194 -194l-59 60l193 193l-193 193l59 60l194 -194l194 194l59 -60z" />
    <glyph glyph-name="Oslash" unicode="&#xd8;" horiz-adv-x="611" 
d="M160 201l250 400q-43 51 -105 51q-83 0 -125 -81.5t-42 -208.5q0 -91 22 -161zM450 524l-251 -400q41 -52 106 -52q83 0 125 81.5t42 208.5q0 93 -22 162zM95 -42h-87l91 145q-63 100 -63 259q0 171 71.5 272.5t197.5 101.5q92 0 155 -55l53 85h89l-91 -145
q63 -97 63 -259q0 -171 -71.5 -272.5t-197.5 -101.5q-91 0 -156 56z" />
    <glyph glyph-name="Ugrave" unicode="&#xd9;" horiz-adv-x="556" 
d="M398 724h102v-513q0 -103 -55.5 -163t-166.5 -60t-166.5 60t-55.5 163v513h102v-531q0 -54 33 -83.5t87 -29.5t87 29.5t33 83.5v531zM256 904l89 -142h-67l-131 142h109z" />
    <glyph glyph-name="Uacute" unicode="&#xda;" horiz-adv-x="556" 
d="M398 724h102v-513q0 -103 -55.5 -163t-166.5 -60t-166.5 60t-55.5 163v513h102v-531q0 -54 33 -83.5t87 -29.5t87 29.5t33 83.5v531zM211 762l89 142h109l-131 -142h-67z" />
    <glyph glyph-name="Ucircumflex" unicode="&#xdb;" horiz-adv-x="556" 
d="M398 724h102v-513q0 -103 -55.5 -163t-166.5 -60t-166.5 60t-55.5 163v513h102v-531q0 -54 33 -83.5t87 -29.5t87 29.5t33 83.5v531zM133 762l99 142h91l100 -142h-79l-66 94l-66 -94h-79z" />
    <glyph glyph-name="Udieresis" unicode="&#xdc;" horiz-adv-x="556" 
d="M398 724h102v-513q0 -103 -55.5 -163t-166.5 -60t-166.5 60t-55.5 163v513h102v-531q0 -54 33 -83.5t87 -29.5t87 29.5t33 83.5v531zM241 778h-90v98h90v-98zM405 778h-90v98h90v-98z" />
    <glyph glyph-name="Yacute" unicode="&#xdd;" 
d="M250 404l142 320h108l-199 -432v-292h-102v292l-199 432h107zM183 762l89 142h109l-131 -142h-67z" />
    <glyph glyph-name="Thorn" unicode="&#xde;" horiz-adv-x="556" 
d="M172 500v-264h107q62 0 97 34.5t35 97.5t-35 97.5t-97 34.5h-107zM172 724v-132h124q97 0 157 -61.5t60 -162.5t-60 -162.5t-157 -61.5h-124v-144h-102v724h102z" />
    <glyph glyph-name="germandbls" unicode="&#xdf;" horiz-adv-x="556" 
d="M154 0h-94v518q0 89 58 147.5t156 58.5q89 0 146 -54t57 -142q0 -127 -106 -151v-2q69 -6 110 -55.5t41 -120.5q0 -87 -57.5 -148t-149.5 -61q-59 0 -97.5 21.5t-61.5 72.5h-2v-84zM156 512v-303h33q0 -53 32 -90t82 -37q61 0 92 32.5t31 91.5q0 120 -165 120h-24v76h26
q56 0 87 31.5t31 90.5q0 52 -30.5 85t-81.5 33q-52 0 -82.5 -32t-30.5 -98z" />
    <glyph glyph-name="agrave" unicode="&#xe0;" 
d="M344 217v118q0 69 -28 106t-74 37q-112 0 -112 -192q0 -116 27.5 -160t79.5 -44q49 0 78 33.5t29 101.5zM440 560v-560h-82v80h-2q-18 -48 -44 -69t-82 -21q-97 0 -146.5 75.5t-49.5 214.5q0 78 19 141.5t65 106t112 42.5q48 0 79 -23.5t47 -78.5h2v92h82zM228 764
l89 -142h-67l-131 142h109z" />
    <glyph glyph-name="aacute" unicode="&#xe1;" 
d="M344 217v118q0 69 -28 106t-74 37q-112 0 -112 -192q0 -116 27.5 -160t79.5 -44q49 0 78 33.5t29 101.5zM440 560v-560h-82v80h-2q-18 -48 -44 -69t-82 -21q-97 0 -146.5 75.5t-49.5 214.5q0 78 19 141.5t65 106t112 42.5q48 0 79 -23.5t47 -78.5h2v92h82zM183 622
l89 142h109l-131 -142h-67z" />
    <glyph glyph-name="acircumflex" unicode="&#xe2;" 
d="M344 217v118q0 69 -28 106t-74 37q-112 0 -112 -192q0 -116 27.5 -160t79.5 -44q49 0 78 33.5t29 101.5zM440 560v-560h-82v80h-2q-18 -48 -44 -69t-82 -21q-97 0 -146.5 75.5t-49.5 214.5q0 78 19 141.5t65 106t112 42.5q48 0 79 -23.5t47 -78.5h2v92h82zM105 622
l99 142h91l100 -142h-79l-66 94l-66 -94h-79z" />
    <glyph glyph-name="atilde" unicode="&#xe3;" 
d="M344 217v118q0 69 -28 106t-74 37q-112 0 -112 -192q0 -116 27.5 -160t79.5 -44q49 0 78 33.5t29 101.5zM440 560v-560h-82v80h-2q-18 -48 -44 -69t-82 -21q-97 0 -146.5 75.5t-49.5 214.5q0 78 19 141.5t65 106t112 42.5q48 0 79 -23.5t47 -78.5h2v92h82zM370 749h50
q-3 -41 -30.5 -75t-67.5 -34q-23 0 -78 19t-72 19q-16 0 -27.5 -14t-14.5 -31h-50q2 45 31 76t73 31q28 0 74 -18q44 -18 65 -18q42 0 47 45z" />
    <glyph glyph-name="adieresis" unicode="&#xe4;" 
d="M344 217v118q0 69 -28 106t-74 37q-112 0 -112 -192q0 -116 27.5 -160t79.5 -44q49 0 78 33.5t29 101.5zM440 560v-560h-82v80h-2q-18 -48 -44 -69t-82 -21q-97 0 -146.5 75.5t-49.5 214.5q0 78 19 141.5t65 106t112 42.5q48 0 79 -23.5t47 -78.5h2v92h82zM213 638h-90
v98h90v-98zM377 638h-90v98h90v-98z" />
    <glyph glyph-name="aring" unicode="&#xe5;" 
d="M344 217v118q0 69 -28 106t-74 37q-112 0 -112 -192q0 -116 27.5 -160t79.5 -44q49 0 78 33.5t29 101.5zM440 560v-560h-82v80h-2q-18 -48 -44 -69t-82 -21q-97 0 -146.5 75.5t-49.5 214.5q0 78 19 141.5t65 106t112 42.5q48 0 79 -23.5t47 -78.5h2v92h82zM249 622
q-45 0 -76.5 31.5t-31.5 76.5t31.5 77.5t76.5 32.5q44 0 77 -32.5t33 -77.5t-32.5 -76.5t-77.5 -31.5zM249 792q-25 0 -42.5 -18t-17.5 -44t17.5 -43t42.5 -17q26 0 44 17.5t18 42.5q0 26 -18.5 44t-43.5 18z" />
    <glyph glyph-name="ae" unicode="&#xe6;" horiz-adv-x="778" 
d="M344 217v118q0 69 -28 106t-74 37q-112 0 -112 -192q0 -116 27.5 -160t79.5 -44q49 0 78 33.5t29 101.5zM744 254h-304q0 -78 29.5 -125t83.5 -47q43 0 69 31.5t26 84.5h96q-6 -84 -57 -146t-127 -62q-91 0 -118 91h-2v-81h-82v80h-2q-18 -47 -44.5 -68.5t-81.5 -21.5
q-97 0 -146.5 75.5t-49.5 214.5q0 78 19 141.5t65 106t112 42.5q97 0 125 -88h3v78h82v-81h2q29 91 118 91q88 0 136 -72.5t48 -185.5v-58zM440 330h208q0 156 -99 156q-50 0 -79.5 -39.5t-29.5 -116.5z" />
    <glyph glyph-name="ccedilla" unicode="&#xe7;" horiz-adv-x="444" 
d="M422 359h-96q-5 48 -27.5 83.5t-68.5 35.5q-100 0 -100 -199q0 -197 104 -197q26 0 44 10.5t27.5 31.5t13.5 38t7 44h96q-2 -93 -51 -154.5t-140 -61.5q-68 0 -113.5 42.5t-64.5 105.5t-19 142t19 142t64.5 105.5t113.5 42.5q91 0 137.5 -60t53.5 -151zM169 -107l-17 20
l63 87h48l-43 -57q24 4 35 4q35 0 56 -22.5t21 -57.5q0 -46 -34.5 -69.5t-82.5 -23.5q-46 0 -98 22l17 43q39 -13 63 -13q59 0 59 35q0 20 -14 30t-35 10q-19 0 -38 -8z" />
    <glyph glyph-name="egrave" unicode="&#xe8;" horiz-adv-x="444" 
d="M414 254h-284q0 -79 25 -125.5t74 -46.5q38 0 63.5 31.5t25.5 84.5h96q-6 -84 -57 -146t-127 -62q-88 0 -142 76.5t-54 213.5t54 213.5t142 76.5q90 0 137 -72t47 -186v-58zM132 330h186q0 156 -91 156q-95 0 -95 -156zM200 764l89 -142h-67l-131 142h109z" />
    <glyph glyph-name="eacute" unicode="&#xe9;" horiz-adv-x="444" 
d="M414 254h-284q0 -79 25 -125.5t74 -46.5q38 0 63.5 31.5t25.5 84.5h96q-6 -84 -57 -146t-127 -62q-88 0 -142 76.5t-54 213.5t54 213.5t142 76.5q90 0 137 -72t47 -186v-58zM132 330h186q0 156 -91 156q-95 0 -95 -156zM155 622l89 142h109l-131 -142h-67z" />
    <glyph glyph-name="ecircumflex" unicode="&#xea;" horiz-adv-x="444" 
d="M414 254h-284q0 -79 25 -125.5t74 -46.5q38 0 63.5 31.5t25.5 84.5h96q-6 -84 -57 -146t-127 -62q-88 0 -142 76.5t-54 213.5t54 213.5t142 76.5q90 0 137 -72t47 -186v-58zM132 330h186q0 156 -91 156q-95 0 -95 -156zM77 622l99 142h91l100 -142h-79l-66 94l-66 -94
h-79z" />
    <glyph glyph-name="edieresis" unicode="&#xeb;" horiz-adv-x="444" 
d="M414 254h-284q0 -79 25 -125.5t74 -46.5q38 0 63.5 31.5t25.5 84.5h96q-6 -84 -57 -146t-127 -62q-88 0 -142 76.5t-54 213.5t54 213.5t142 76.5q90 0 137 -72t47 -186v-58zM132 330h186q0 156 -91 156q-95 0 -95 -156zM185 638h-90v98h90v-98zM349 638h-90v98h90v-98z
" />
    <glyph glyph-name="igrave" unicode="&#xec;" horiz-adv-x="222" 
d="M159 0h-96v560h96v-560zM89 764l89 -142h-67l-131 142h109z" />
    <glyph glyph-name="iacute" unicode="&#xed;" horiz-adv-x="222" 
d="M159 0h-96v560h96v-560zM44 622l89 142h109l-131 -142h-67z" />
    <glyph glyph-name="icircumflex" unicode="&#xee;" horiz-adv-x="222" 
d="M159 0h-96v560h96v-560zM-34 622l99 142h91l100 -142h-79l-66 94l-66 -94h-79z" />
    <glyph glyph-name="idieresis" unicode="&#xef;" horiz-adv-x="222" 
d="M159 0h-96v560h96v-560zM74 638h-90v98h90v-98zM238 638h-90v98h90v-98z" />
    <glyph glyph-name="eth" unicode="&#xf0;" 
d="M250 370q-56 0 -88 -40.5t-32 -107.5q0 -71 31.5 -109.5t88.5 -38.5t88.5 38.5t31.5 109.5q0 67 -32 107.5t-88 40.5zM274 659l112 79l37 -50l-103 -73q68 -73 107 -169t39 -200q0 -123 -55.5 -189.5t-160.5 -66.5q-102 0 -159 63t-57 165q0 103 57 169.5t159 66.5
q33 0 82 -14q-26 72 -76 130l-111 -78l-37 50l103 73q-41 37 -98 65l35 56q69 -29 126 -77z" />
    <glyph glyph-name="ntilde" unicode="&#xf1;" 
d="M156 0h-96v560h86v-70h2q23 44 52 62t80 18q76 0 118 -47.5t42 -130.5v-392h-96v362q0 116 -84 116q-43 0 -73.5 -30t-30.5 -86v-362zM370 749h50q-3 -41 -30.5 -75t-67.5 -34q-23 0 -78 19t-72 19q-16 0 -27.5 -14t-14.5 -31h-50q2 45 31 76t73 31q28 0 74 -18
q44 -18 65 -18q42 0 47 45z" />
    <glyph glyph-name="ograve" unicode="&#xf2;" 
d="M466 280q0 -135 -56 -212.5t-160 -77.5t-160 77.5t-56 212.5t56 212.5t160 77.5t160 -77.5t56 -212.5zM370 280q0 110 -30.5 158t-89.5 48t-89.5 -48t-30.5 -158t30.5 -158t89.5 -48t89.5 48t30.5 158zM228 764l89 -142h-67l-131 142h109z" />
    <glyph glyph-name="oacute" unicode="&#xf3;" 
d="M466 280q0 -135 -56 -212.5t-160 -77.5t-160 77.5t-56 212.5t56 212.5t160 77.5t160 -77.5t56 -212.5zM370 280q0 110 -30.5 158t-89.5 48t-89.5 -48t-30.5 -158t30.5 -158t89.5 -48t89.5 48t30.5 158zM183 622l89 142h109l-131 -142h-67z" />
    <glyph glyph-name="ocircumflex" unicode="&#xf4;" 
d="M466 280q0 -135 -56 -212.5t-160 -77.5t-160 77.5t-56 212.5t56 212.5t160 77.5t160 -77.5t56 -212.5zM370 280q0 110 -30.5 158t-89.5 48t-89.5 -48t-30.5 -158t30.5 -158t89.5 -48t89.5 48t30.5 158zM105 622l99 142h91l100 -142h-79l-66 94l-66 -94h-79z" />
    <glyph glyph-name="otilde" unicode="&#xf5;" 
d="M466 280q0 -135 -56 -212.5t-160 -77.5t-160 77.5t-56 212.5t56 212.5t160 77.5t160 -77.5t56 -212.5zM370 280q0 110 -30.5 158t-89.5 48t-89.5 -48t-30.5 -158t30.5 -158t89.5 -48t89.5 48t30.5 158zM370 749h50q-3 -41 -30.5 -75t-67.5 -34q-23 0 -78 19t-72 19
q-16 0 -27.5 -14t-14.5 -31h-50q2 45 31 76t73 31q28 0 74 -18q44 -18 65 -18q42 0 47 45z" />
    <glyph glyph-name="odieresis" unicode="&#xf6;" 
d="M466 280q0 -135 -56 -212.5t-160 -77.5t-160 77.5t-56 212.5t56 212.5t160 77.5t160 -77.5t56 -212.5zM370 280q0 110 -30.5 158t-89.5 48t-89.5 -48t-30.5 -158t30.5 -158t89.5 -48t89.5 48t30.5 158zM213 638h-90v98h90v-98zM377 638h-90v98h90v-98z" />
    <glyph glyph-name="divide" unicode="&#xf7;" horiz-adv-x="600" 
d="M553 211h-506v84h506v-84zM300 532q29 0 50.5 -21t21.5 -51t-21.5 -51t-50.5 -21t-50.5 21t-21.5 51t21.5 51t50.5 21zM300 118q29 0 50.5 -21t21.5 -51t-21.5 -51t-50.5 -21t-50.5 21t-21.5 51t21.5 51t50.5 21z" />
    <glyph glyph-name="oslash" unicode="&#xf8;" 
d="M354 407l-169 -313q24 -20 65 -20q59 0 89.5 48t30.5 158q0 79 -16 127zM146 156l167 312q-24 18 -63 18q-59 0 -89.5 -48t-30.5 -158q0 -80 16 -124zM478 636l-74 -136q62 -76 62 -220q0 -135 -56 -212.5t-160 -77.5q-60 0 -106 29l-51 -95h-71l73 137q-61 78 -61 219
q0 135 56 212.5t160 77.5q60 0 104 -26l49 92h75z" />
    <glyph glyph-name="ugrave" unicode="&#xf9;" 
d="M344 560h96v-560h-86v84h-2q-28 -94 -132 -94q-76 0 -118 47.5t-42 130.5v392h96v-362q0 -116 84 -116q43 0 73.5 30t30.5 86v362zM228 764l89 -142h-67l-131 142h109z" />
    <glyph glyph-name="uacute" unicode="&#xfa;" 
d="M344 560h96v-560h-86v84h-2q-28 -94 -132 -94q-76 0 -118 47.5t-42 130.5v392h96v-362q0 -116 84 -116q43 0 73.5 30t30.5 86v362zM183 622l89 142h109l-131 -142h-67z" />
    <glyph glyph-name="ucircumflex" unicode="&#xfb;" 
d="M344 560h96v-560h-86v84h-2q-28 -94 -132 -94q-76 0 -118 47.5t-42 130.5v392h96v-362q0 -116 84 -116q43 0 73.5 30t30.5 86v362zM105 622l99 142h91l100 -142h-79l-66 94l-66 -94h-79z" />
    <glyph glyph-name="udieresis" unicode="&#xfc;" 
d="M344 560h96v-560h-86v84h-2q-28 -94 -132 -94q-76 0 -118 47.5t-42 130.5v392h96v-362q0 -116 84 -116q43 0 73.5 30t30.5 86v362zM213 638h-90v98h90v-98zM377 638h-90v98h90v-98z" />
    <glyph glyph-name="yacute" unicode="&#xfd;" horiz-adv-x="444" 
d="M438 560l-232 -758h-100l63 213l-163 545h99l117 -399h2l114 399h100zM155 622l89 142h109l-131 -142h-67z" />
    <glyph glyph-name="thorn" unicode="&#xfe;" 
d="M156 343v-118q0 -69 28 -106t74 -37q112 0 112 192q0 116 -27.5 160t-79.5 44q-49 0 -78 -33.5t-29 -101.5zM60 -198v922h96v-234h2q8 20 14 31t18 24t32 19t48 6q97 0 146.5 -75.5t49.5 -214.5q0 -78 -19 -141.5t-65 -106t-112 -42.5q-40 0 -70 18.5t-41 43.5h-3v-250
h-96z" />
    <glyph glyph-name="ydieresis" unicode="&#xff;" horiz-adv-x="444" 
d="M438 560l-232 -758h-100l63 213l-163 545h99l117 -399h2l114 399h100zM185 638h-90v98h90v-98zM349 638h-90v98h90v-98z" />
    <glyph glyph-name="dotlessi" unicode="&#x131;" horiz-adv-x="222" 
d="M159 0h-96v560h96v-560z" />
    <glyph glyph-name="Lslash" unicode="&#x141;" horiz-adv-x="444" 
d="M172 325v-233h258v-92h-360v283l-69 -28v88l69 28v353h102v-311l176 71v-88z" />
    <glyph glyph-name="lslash" unicode="&#x142;" horiz-adv-x="222" 
d="M159 383v-383h-96v333l-60 -31v80l60 31v311h96v-261l60 31v-80z" />
    <glyph glyph-name="OE" unicode="&#x152;" horiz-adv-x="889" 
d="M472 646v78h351v-92h-253v-208h253v-92h-253v-240h253v-92h-351v73h-2q-61 -85 -170 -85q-132 0 -201 97t-69 277q0 164 70.5 269t199.5 105q115 0 170 -90h2zM468 362q0 290 -168 290q-57 0 -96 -40.5t-55.5 -104t-16.5 -145.5q0 -290 168 -290t168 290z" />
    <glyph glyph-name="oe" unicode="&#x153;" horiz-adv-x="778" 
d="M130 280q0 -206 108 -206q112 0 112 206t-112 206q-108 0 -108 -206zM744 254h-298q0 -77 28.5 -124.5t78.5 -47.5q43 0 69 31.5t26 84.5h96q-6 -85 -58 -146.5t-132 -61.5q-107 0 -157 114q-52 -114 -159 -114q-95 0 -149.5 78t-54.5 212t54.5 212t149.5 78
q107 0 159 -114q52 114 163 114q88 0 136 -72.5t48 -185.5v-58zM448 330h200q0 77 -26.5 116.5t-73.5 39.5q-45 0 -72.5 -39.5t-27.5 -116.5z" />
    <glyph glyph-name="Scaron" unicode="&#x160;" 
d="M24 223h102q0 -151 123 -151q61 0 92.5 32t31.5 91q0 36 -18.5 61.5t-48 40t-65.5 27t-72 28t-65.5 36.5t-48 59t-18.5 90q0 88 59 143.5t148 55.5q100 0 157 -55t60 -156h-102q-1 55 -29.5 91t-82.5 36q-47 0 -77.5 -30.5t-30.5 -77.5q0 -35 18.5 -59t48 -37t65.5 -24.5
t72 -27t65.5 -37.5t48 -62t18.5 -96q0 -101 -63 -157t-156 -56q-117 0 -174 62t-58 173zM395 904l-99 -142h-91l-100 142h79l66 -94l66 94h79z" />
    <glyph glyph-name="scaron" unicode="&#x161;" horiz-adv-x="389" 
d="M364 397h-90q-8 81 -84 81q-70 0 -70 -64q0 -30 25 -48.5t61 -30t72 -27t61 -51.5t25 -93q0 -83 -46.5 -128.5t-125.5 -45.5q-77 0 -126 52.5t-49 128.5h90q2 -41 26 -65t66 -24q35 0 55 20t20 55q0 33 -25 52.5t-61 31t-72 26.5t-61 49.5t-25 89.5q0 77 44.5 120.5
t120.5 43.5q75 0 121.5 -48.5t47.5 -124.5zM340 764l-99 -142h-91l-100 142h79l66 -94l66 94h79z" />
    <glyph glyph-name="Ydieresis" unicode="&#x178;" 
d="M250 404l142 320h108l-199 -432v-292h-102v292l-199 432h107zM213 778h-90v98h90v-98zM377 778h-90v98h90v-98z" />
    <glyph glyph-name="Zcaron" unicode="&#x17d;" horiz-adv-x="444" 
d="M17 84l279 548h-255v92h377v-93l-281 -539h290v-92h-410v84zM367 904l-99 -142h-91l-100 142h79l66 -94l66 94h79z" />
    <glyph glyph-name="zcaron" unicode="&#x17e;" horiz-adv-x="444" 
d="M410 92v-92h-376v90l254 378h-235v92h349v-92l-258 -376h266zM367 764l-99 -142h-91l-100 142h79l66 -94l66 94h79z" />
    <glyph glyph-name="florin" unicode="&#x192;" horiz-adv-x="556" 
d="M228 354h-128l6 84h126q5 154 50.5 226t145.5 72q42 0 106 -24l-22 -90q-5 1 -22 6.5t-31 8.5t-27 3q-45 0 -68.5 -47t-23.5 -155h135l-5 -84h-137l-12 -263q-7 -153 -55 -224t-144 -71q-62 0 -107 22l27 92q36 -18 66 -18q52 0 74.5 37.5t27.5 123.5z" />
    <glyph glyph-name="circumflex" unicode="&#x2c6;" horiz-adv-x="222" 
d="M-34 622l99 142h91l100 -142h-79l-66 94l-66 -94h-79z" />
    <glyph glyph-name="caron" unicode="&#x2c7;" horiz-adv-x="222" 
d="M256 764l-99 -142h-91l-100 142h79l66 -94l66 94h79z" />
    <glyph glyph-name="breve" unicode="&#x2d8;" horiz-adv-x="222" 
d="M-43 764h50q6 -39 34.5 -58.5t69.5 -19.5t69.5 19.5t34.5 58.5h50q-2 -65 -44 -100.5t-110 -35.5t-110 35.5t-44 100.5z" />
    <glyph glyph-name="dotaccent" unicode="&#x2d9;" horiz-adv-x="222" 
d="M156 638h-90v98h90v-98z" />
    <glyph glyph-name="ring" unicode="&#x2da;" horiz-adv-x="222" 
d="M110 622q-45 0 -76.5 31.5t-31.5 76.5t31.5 77.5t76.5 32.5q44 0 77 -32.5t33 -77.5t-32.5 -76.5t-77.5 -31.5zM110 792q-25 0 -42.5 -18t-17.5 -44t17 -43t43 -17t44 17.5t18 42.5q0 26 -18 44t-44 18z" />
    <glyph glyph-name="ogonek" unicode="&#x2db;" horiz-adv-x="222" 
d="M243 -119l16 -36q-81 -57 -147 -57q-44 0 -72 22t-28 65q0 61 58 92.5t165 52.5v-10q-147 -48 -147 -122q0 -48 57 -48q34 0 98 41z" />
    <glyph glyph-name="tilde" unicode="&#x2dc;" horiz-adv-x="222" 
d="M231 749h50q-3 -41 -30.5 -75t-67.5 -34q-23 0 -78 19t-72 19q-16 0 -27.5 -14t-14.5 -31h-50q2 45 31 76t73 31q28 0 74 -18q44 -18 65 -18q42 0 47 45z" />
    <glyph glyph-name="hungarumlaut" unicode="&#x2dd;" horiz-adv-x="222" 
d="M-22 622l79 142h109l-125 -142h-63zM124 622l89 142h109l-131 -142h-67z" />
    <glyph glyph-name="endash" unicode="&#x2013;" 
d="M0 249v62h500v-62h-500z" />
    <glyph glyph-name="emdash" unicode="&#x2014;" horiz-adv-x="1000" 
d="M0 249v62h1000v-62h-1000z" />
    <glyph glyph-name="quoteleft" unicode="&#x2018;" horiz-adv-x="222" 
d="M107 736l88 -220h-67l-101 220h80z" />
    <glyph glyph-name="quoteright" unicode="&#x2019;" horiz-adv-x="222" 
d="M27 516l88 220h80l-101 -220h-67z" />
    <glyph glyph-name="quotesinglbase" unicode="&#x201a;" horiz-adv-x="222" 
d="M27 -96l88 220h80l-101 -220h-67z" />
    <glyph glyph-name="quotedblleft" unicode="&#x201c;" horiz-adv-x="333" 
d="M227 736l88 -220h-67l-101 220h80zM97 736l88 -220h-67l-101 220h80z" />
    <glyph glyph-name="quotedblright" unicode="&#x201d;" horiz-adv-x="333" 
d="M18 516l88 220h80l-101 -220h-67zM148 516l88 220h80l-101 -220h-67z" />
    <glyph glyph-name="quotedblbase" unicode="&#x201e;" horiz-adv-x="333" 
d="M18 -96l88 220h80l-101 -220h-67zM148 -96l88 220h80l-101 -220h-67z" />
    <glyph glyph-name="dagger" unicode="&#x2020;" horiz-adv-x="444" 
d="M40 472v92l164 -28l-25 200h86l-25 -200l164 28v-92l-164 26l27 -168l-30 -410h-30l-30 410l27 168z" />
    <glyph glyph-name="daggerdbl" unicode="&#x2021;" horiz-adv-x="444" 
d="M239 502l28 -174l-25 -176l162 29v-95l-165 28l28 -194h-88l23 194l-162 -28v95l162 -29l-28 176l28 174l-162 -26v94l162 -28l-23 194h88l-25 -194l162 26v-98z" />
    <glyph glyph-name="bullet" unicode="&#x2022;" 
d="M69 362q-1 75 52 128t129 53t129 -53t52 -128q1 -75 -52 -128t-129 -53t-129 53t-52 128z" />
    <glyph glyph-name="ellipsis" unicode="&#x2026;" horiz-adv-x="1000" 
d="M215 0h-96v124h96v-124zM548 0h-96v124h96v-124zM881 0h-96v124h96v-124z" />
    <glyph glyph-name="perthousand" unicode="&#x2030;" horiz-adv-x="1000" 
d="M158 736q77 0 117.5 -49.5t40.5 -129.5t-40.5 -129.5t-117.5 -49.5t-117.5 49.5t-40.5 129.5t40.5 129.5t117.5 49.5zM158 664q-34 0 -55 -27t-21 -80t21 -80t55 -27t55 27t21 80t-21 80t-55 27zM493 346q77 0 117.5 -49.5t40.5 -129.5t-40.5 -129.5t-117.5 -49.5
t-117.5 49.5t-40.5 129.5t40.5 129.5t117.5 49.5zM493 274q-34 0 -55 -27t-21 -80t21 -80t55 -27t55 27t21 80t-21 80t-55 27zM843 346q77 0 117.5 -49.5t40.5 -129.5t-40.5 -129.5t-117.5 -49.5t-117.5 49.5t-40.5 129.5t40.5 129.5t117.5 49.5zM843 274q-34 0 -55 -27
t-21 -80t21 -80t55 -27t55 27t21 80t-21 80t-55 27zM180 -12h-78l368 748h79z" />
    <glyph glyph-name="guilsinglleft" unicode="&#x2039;" horiz-adv-x="278" 
d="M256 461l-136 -181l136 -181h-88l-136 181l136 181h88z" />
    <glyph glyph-name="guilsinglright" unicode="&#x203a;" horiz-adv-x="278" 
d="M22 99l136 181l-136 181h88l136 -181l-136 -181h-88z" />
    <glyph glyph-name="fraction" unicode="&#x2044;" horiz-adv-x="167" 
d="M253 736h81l-419 -748h-82z" />
    <glyph glyph-name="fraction" unicode="&#x2215;" horiz-adv-x="167" 
d="M253 736h81l-419 -748h-82z" />
    <glyph glyph-name="Euro" unicode="&#x20ac;" horiz-adv-x="556" 
d="M513 693v-104q-52 52 -146 52q-73 0 -115.5 -43t-52.5 -118h277l-27 -81h-261q0 -4 -0.5 -15.5t-0.5 -17.5q0 -7 0.5 -19.5t0.5 -16.5h237l-27 -81h-199q23 -165 168 -165q91 0 146 51v-105q-50 -41 -159 -41q-217 0 -255 260h-77l27 81h42q-1 8 -1 36q0 24 1 33h-69
l27 81h49q18 119 81 187.5t175 68.5q105 0 159 -43z" />
    <glyph glyph-name="trademark" unicode="&#x2122;" horiz-adv-x="990" 
d="M414 724v-62h-125v-350h-82v350h-125v62h332zM567 724l113 -292l112 292h116v-412h-76v324h-2l-123 -324h-56l-123 324h-2v-324h-76v412h117z" />
    <glyph glyph-name="minus" unicode="&#x2212;" horiz-adv-x="600" 
d="M553 211h-506v84h506v-84z" />
    <glyph glyph-name="fi" unicode="&#xfb01;" horiz-adv-x="444" 
d="M158 476v-476h-96v476h-60v84h60v48q0 59 27.5 87.5t88.5 28.5h51v-84h-30q-41 0 -41 -38v-42h71v-84h-71zM381 0h-96v560h96v-560zM285 622v102h96v-102h-96z" />
    <glyph glyph-name="fl" unicode="&#xfb02;" horiz-adv-x="444" 
d="M158 476v-476h-96v476h-60v84h60v48q0 59 27.5 87.5t88.5 28.5h51v-84h-30q-41 0 -41 -38v-42h71v-84h-71zM381 0h-96v724h96v-724z" />
    </font>
</defs>
</svg>
